<?xml version="1.0" encoding="utf-8"?>
<!-- Generator: Adobe Illustrator 24.0.0, SVG Export Plug-In . SVG Version: 6.00 Build 0)  -->
<svg version="1.1" id="Layer_1" xmlns="http://www.w3.org/2000/svg" xmlns:xlink="http://www.w3.org/1999/xlink" x="0px" y="0px"
	 viewBox="0 0 24 24" style="enable-background:new 0 0 24 24;" xml:space="preserve">
<style type="text/css">
	.st0{fill:none;}
	.st1{fill:#FFFFFF;}
</style>
<path class="st0" d="M0,0h24v24H0V0z"/>
<path class="st1" d="M20,8.7V4h-4.7L12,0.7L8.7,4H4v4.7L0.7,12L4,15.3V20h4.7l3.3,3.3l3.3-3.3H20v-4.7l3.3-3.3L20,8.7z M18,14.5V18
	h-3.5L12,20.5L9.5,18H6v-3.5L3.5,12L6,9.5V6h3.5L12,3.5L14.5,6H18v3.5l2.5,2.5L18,14.5z M12,6.5C9,6.5,6.5,9,6.5,12S9,17.5,12,17.5
	s5.5-2.5,5.5-5.5S15,6.5,12,6.5z M12,15.5c-1.9,0-3.5-1.6-3.5-3.5s1.6-3.5,3.5-3.5s3.5,1.6,3.5,3.5S13.9,15.5,12,15.5z"/>
</svg>
