<svg id="Layer_1" data-name="Layer 1" xmlns="http://www.w3.org/2000/svg" xmlns:xlink="http://www.w3.org/1999/xlink" width="100" height="30" viewBox="0 0 100 30"><defs><style>.cls-1{fill:none;}.cls-2{fill:#2d5182;}.cls-3{fill:#427ecf;}.cls-4{clip-path:url(#clip-path);}.cls-5{fill:#5598f2;}.cls-6{fill:#c7e4fc;}.cls-7{fill:#49586b;}.cls-8{fill:#6a809c;}.cls-9{fill:#5894e8;}.cls-10{fill:#73adff;}.cls-11{fill:#477fcc;}.cls-12{fill:#1857ad;}.cls-13{clip-path:url(#clip-path-2);}.cls-14{fill:#de2d2d;}.cls-15{fill:#ffd659;}.cls-16{fill:#3e454f;}.cls-17{fill:#68798f;}.cls-18{fill:#c0c7d1;}.cls-19{fill:#586270;}.cls-20{fill:#265eab;}.cls-21{fill:#b3d3ff;}</style><clipPath id="clip-path"><path class="cls-1" d="M.2,14a13.652,13.652,0,0,0,1.06-2.265A12.413,12.413,0,0,1,4.485,7.625C5.041,7.4,6.8,7.434,9.894,6.636s8.3-2.889,15.064-4.834,16-2.341,24.6-1.064S60.468,5.4,65.212,6.972s7.937.979,14.192,2.043A85.273,85.273,0,0,1,92.68,12.4a3.246,3.246,0,0,1,2.15,2.021,10.236,10.236,0,0,1,.021,2.851l.724.766.021,2.127-.617.405-.763,2.66a1.184,1.184,0,0,1-1.158,1.311l-.632.017-.989.926-.828.009a23.777,23.777,0,0,0,.2-3.266,8.5,8.5,0,0,0-17.005,0c0,1.249.009,2.395.028,3.445l-46.419-.411-.263-.025-1.334-.08a24.851,24.851,0,0,0,.156-2.938,8.5,8.5,0,0,0-17.005,0q0,.9.007,1.724c-2-.417-5.562-1.161-6.589-1.386C.932,22.235.709,21.979.613,21.612c-.069-.261-.372-1.4-.54-2.031A.942.942,0,0,1,.214,18.8l.1-.134-.3-3.849A1.415,1.415,0,0,1,.2,14Z"/></clipPath><clipPath id="clip-path-2"><path class="cls-1" d="M.321,18.663l-.3-3.849A1.409,1.409,0,0,1,.2,14a13.652,13.652,0,0,0,1.06-2.265A12.413,12.413,0,0,1,4.485,7.625C5.041,7.4,6.8,7.434,9.894,6.636s8.3-2.889,15.064-4.834,16-2.341,24.6-1.064S60.468,5.4,65.212,6.972s7.937.979,14.192,2.043A85.273,85.273,0,0,1,92.68,12.4a3.246,3.246,0,0,1,2.15,2.021,10.236,10.236,0,0,1,.021,2.851l.724.766.021,2.127-.938.405-.445,2.66a1.178,1.178,0,0,1-1.038,1.3c-.04.005-.08.007-.12.008l-.632.017-.989.926-1.021.011c.019-.342.251-5.034-.692-7.054A7.781,7.781,0,0,0,84.2,13.706a8.334,8.334,0,0,0-7.8,2.713,10.279,10.279,0,0,0-2.234,6.532c-.049,1.194-.031,2.095,0,2.722L27.41,25.259l-.261-.025a3.451,3.451,0,0,1-.234-1.676c.043-1.361-.3-5.17-1.909-7.244a8.192,8.192,0,0,0-5.779-3.43c-2.112-.144-5.857.666-7.389,3.415a14.579,14.579,0,0,0-1.4,7.436,2.589,2.589,0,0,1,0,.5h-.062s-6.527-1.356-7.979-1.676S.718,21.982.622,21.616c-.068-.261-.372-1.4-.54-2.032A.942.942,0,0,1,.223,18.8Z"/></clipPath></defs><title>car-blue</title><g id="Group_1902" data-name="Group 1902"><g id="Group_1865" data-name="Group 1865"><path id="Path_8691" data-name="Path 8691" class="cls-2" d="M25.822,25.157l-9.353-2.445L8.984,23.944,6.257,18.839l6.382-6.063,10.787-.51s5.171.83,5.617,1.531,2.617,3.7,2.617,3.7Z"/></g><g id="Group_1866" data-name="Group 1866"><path id="Path_8692" data-name="Path 8692" class="cls-2" d="M90.415,25.487,82.148,23.82l-8.425.351L69.8,20.022l2.3-5.779,7.946-2.713,6.478,2.138,3.735,3.415,1.436,2.362-.256,5.394Z"/></g><g id="Group_1867" data-name="Group 1867"><path id="Path_8693" data-name="Path 8693" class="cls-3" d="M.2,14a13.652,13.652,0,0,0,1.06-2.265A12.425,12.425,0,0,1,4.485,7.625C5.041,7.4,6.8,7.434,9.894,6.636s8.3-2.889,15.064-4.834,16-2.341,24.6-1.064S60.468,5.4,65.213,6.972s7.936.979,14.191,2.043A85.314,85.314,0,0,1,92.681,12.4a3.247,3.247,0,0,1,2.148,2.021,10.236,10.236,0,0,1,.021,2.851l-.194,3.3s-.9,3.963-1.6,3.971l-.632.017-.989.926-.828.009a23.621,23.621,0,0,0,.2-3.266,8.5,8.5,0,0,0-17,0c0,1.249.01,2.395.028,3.445l-46.419-.411-.267-.016-1.334-.08a24.863,24.863,0,0,0,.156-2.938,8.5,8.5,0,0,0-17,0q0,.9.006,1.723c-2-.416-5.562-1.16-6.589-1.385C.926,22.244.7,21.988.607,21.621.538,21.36.3,18.669.3,18.669L0,14.821A1.414,1.414,0,0,1,.2,14Z"/></g><g id="Group_1870" data-name="Group 1870"><g class="cls-4"><g id="Group_1869" data-name="Group 1869"><g id="Group_1868" data-name="Group 1868"><path id="Path_8694" data-name="Path 8694" class="cls-5" d="M1.262,11.738a3.334,3.334,0,0,1,.4-2.346c.7-1.341,3.638-3.128,7.021-3a15.2,15.2,0,0,1,3.086.494,53.366,53.366,0,0,0,10,2c6.7.574,36.382.574,43.914.574a120.6,120.6,0,0,1,20.158,1.709q1.059.19,2.118.4c6.638,1.309,7.627,3.1,7.627,3.1H94.1l-6.472-.016a9.235,9.235,0,0,0-10.6-.025L22.58,14.5a9.237,9.237,0,0,0-10.159-.024L.846,14.444H.068Z"/></g></g></g></g><g id="Group_1871" data-name="Group 1871"><path id="Path_8696" data-name="Path 8696" class="cls-6" d="M94.33,14.888l0,2.195a22,22,0,0,1-3.214-1.444c-3.318-2.075-3.423-3.256-3.581-3.479s.451-.4,1.317-.271a18.734,18.734,0,0,1,4.779,1.88A1.249,1.249,0,0,1,94.33,14.888Z"/></g><g id="Group_1872" data-name="Group 1872"><path id="Path_8697" data-name="Path 8697" class="cls-7" d="M16.7,5.636c2.434-.83,5.346-1.807,8.573-2.735a52.443,52.443,0,0,1,14.18-1.757,67.769,67.769,0,0,1,9.93.726A26.732,26.732,0,0,1,60.064,5.748a25.3,25.3,0,0,0,4.788,2.31c.485.161.939.3,1.372.42H29.851C20.446,8.477,17.493,6.427,16.7,5.636Z"/></g><g id="Group_1873" data-name="Group 1873"><path id="Path_8698" data-name="Path 8698" class="cls-8" d="M18.379,5.876c2.2-.741,4.564-1.508,7.113-2.239A51.636,51.636,0,0,1,39.46,1.909a67.029,67.029,0,0,1,9.815.717A26.077,26.077,0,0,1,59.686,6.412c.789.453,1.556.889,2.365,1.3C62.047,7.711,48.245,2.3,18.379,5.876Z"/></g><g id="Group_1874" data-name="Group 1874"><path id="Path_8699" data-name="Path 8699" class="cls-9" d="M61.648,8.891l-.889-1.422-1.659.04-.111,1.222a3.136,3.136,0,0,0,1.26.445C60.812,9.193,61.256,9.257,61.648,8.891Z"/></g><g id="Group_1875" data-name="Group 1875"><path id="Path_8700" data-name="Path 8700" class="cls-10" d="M60.686,6.2s.382.355.407.61-.823.982-1.062,1.037c-.164.039-1.547.039-2.386.036A.648.648,0,0,1,57,7.231v-1.6a.5.5,0,0,1,.317-.465,2.891,2.891,0,0,1,1.375-.223A5.375,5.375,0,0,1,60.686,6.2Z"/></g><g id="Group_1876" data-name="Group 1876"><path id="Path_8701" data-name="Path 8701" class="cls-11" d="M37.044.562l1.489,8.557-.978.086L36.066.314Z"/></g><g id="Group_1877" data-name="Group 1877"><path id="Path_8702" data-name="Path 8702" class="cls-5" d="M30.787,21.88H67.472a.967.967,0,0,0,.955-.812l.02-.125a.34.34,0,0,0-.283-.389.3.3,0,0,0-.043,0l-39.52-1.2a.34.34,0,0,0-.3.507l.487.86A2.3,2.3,0,0,0,30.787,21.88Z"/></g><g id="Group_1878" data-name="Group 1878"><path id="Path_8703" data-name="Path 8703" class="cls-12" d="M73.828,24.327v-.255l-34.6-.445c-.214-1.047-2.019-9.891-2.019-11.558a9.7,9.7,0,0,1,.849-3.557L37.828,8.4a9.786,9.786,0,0,0-.873,3.661c0,1.778,1.961,11.3,2.045,11.706l.021.1Z"/></g><g id="Group_1879" data-name="Group 1879"><path id="Path_8704" data-name="Path 8704" class="cls-12" d="M68.745,24.137c0-.073.084-7.346,0-9.368-.111-2.6-.249-4.977-.769-5.411a10.673,10.673,0,0,0-1.7-1l-.112.23a10.636,10.636,0,0,1,1.644.961c.476.4.607,3.539.677,5.224.084,2.016,0,9.281,0,9.354Z"/></g><g id="Group_1882" data-name="Group 1882"><g class="cls-13"><g id="Group_1881" data-name="Group 1881"><g id="Group_1880" data-name="Group 1880"><path id="Path_8705" data-name="Path 8705" class="cls-14" d="M2.753,9.044H7.246a.436.436,0,0,1,.392.244l.006.012a.437.437,0,0,1-.134.545l-.529.389a6.423,6.423,0,0,1-3.463,1.239,16.845,16.845,0,0,1-2.841,0C-.318,11.274,2.753,9.044,2.753,9.044Z"/></g></g></g></g><g id="Group_1883" data-name="Group 1883"><path id="Path_8707" data-name="Path 8707" class="cls-15" d="M3.117,9.27H7.352l-.468.362h-4.1Z"/></g><g id="Group_1889" data-name="Group 1889"><g id="Group_1884" data-name="Group 1884"><circle id="Ellipse_130" data-name="Ellipse 130" class="cls-16" cx="82.306" cy="22.167" r="7.833"/></g><g id="Group_1888" data-name="Group 1888"><g id="Group_1885" data-name="Group 1885"><circle id="Ellipse_131" data-name="Ellipse 131" class="cls-17" cx="82.306" cy="22.167" r="5.421"/></g><g id="Group_1886" data-name="Group 1886"><path id="Path_8708" data-name="Path 8708" class="cls-18" d="M82.307,17.506a4.662,4.662,0,1,1-4.663,4.662h0a4.661,4.661,0,0,1,4.662-4.661Zm0,7.224a2.557,2.557,0,1,0-2.556-2.556,2.556,2.556,0,0,0,2.556,2.556Z"/></g><g id="Group_1887" data-name="Group 1887"><path id="Path_8709" data-name="Path 8709" class="cls-18" d="M82.306,16.45a5.717,5.717,0,1,1-5.717,5.717,5.718,5.718,0,0,1,5.717-5.717Zm0,11.044a5.326,5.326,0,1,0-5.326-5.326h0a5.326,5.326,0,0,0,5.326,5.32Z"/></g></g></g><g id="Group_1895" data-name="Group 1895"><g id="Group_1890" data-name="Group 1890"><circle id="Ellipse_132" data-name="Ellipse 132" class="cls-16" cx="17.476" cy="22.167" r="7.833"/></g><g id="Group_1894" data-name="Group 1894"><g id="Group_1891" data-name="Group 1891"><circle id="Ellipse_133" data-name="Ellipse 133" class="cls-17" cx="17.476" cy="22.167" r="5.421"/></g><g id="Group_1892" data-name="Group 1892"><path id="Path_8710" data-name="Path 8710" class="cls-18" d="M17.476,17.314a4.853,4.853,0,1,1-4.853,4.853h0A4.853,4.853,0,0,1,17.476,17.314Zm0,7.516a2.668,2.668,0,1,0-2.667-2.668h0A2.667,2.667,0,0,0,17.476,24.83Z"/></g><g id="Group_1893" data-name="Group 1893"><path id="Path_8711" data-name="Path 8711" class="cls-18" d="M17.472,16.45a5.717,5.717,0,1,1-5.718,5.717,5.717,5.717,0,0,1,5.718-5.717Zm0,11.044a5.326,5.326,0,1,0-5.326-5.326h0a5.326,5.326,0,0,0,5.326,5.32Z"/></g></g></g><g id="Group_1896" data-name="Group 1896"><path id="Path_8712" data-name="Path 8712" class="cls-19" d="M75.424,22.615a.445.445,0,0,0,.445-.445,6.436,6.436,0,1,1,12.872,0,.445.445,0,1,0,.889,0,7.33,7.33,0,1,0-14.659-.043v.043a.444.444,0,0,0,.444.445Z"/></g><g id="Group_1898" data-name="Group 1898"><g id="Group_1897" data-name="Group 1897"><path id="Path_8713" data-name="Path 8713" class="cls-19" d="M10.607,22.615a.444.444,0,0,0,.444-.445,6.437,6.437,0,0,1,12.873,0,.445.445,0,1,0,.889,0,7.33,7.33,0,0,0-14.659,0,.444.444,0,0,0,.444.445Z"/></g></g><g id="Group_1899" data-name="Group 1899"><path id="Path_8714" data-name="Path 8714" class="cls-20" d="M41.468,10.9c0,.4,1.1.723,2.468.723s2.469-.324,2.469-.723-1.105-.724-2.469-.724S41.468,10.5,41.468,10.9Z"/></g><g id="Group_1900" data-name="Group 1900"><ellipse id="Ellipse_134" data-name="Ellipse 134" class="cls-21" cx="43.915" cy="10.614" rx="2.053" ry="0.361"/></g><g id="Group_1901" data-name="Group 1901"><path id="Path_8715" data-name="Path 8715" class="cls-2" d="M93.669,21.455h-2.49c-.383,0-.111,1.181.208,1.181h2.489Z"/></g></g></svg>