<svg id="Layer_1" data-name="Layer 1" xmlns="http://www.w3.org/2000/svg" xmlns:xlink="http://www.w3.org/1999/xlink" width="100" height="30" viewBox="0 0 100 30"><defs><style>.cls-1{fill:none;}.cls-2{fill:#820001;}.cls-3{fill:#d00001;}.cls-4{clip-path:url(#clip-path);}.cls-5{fill:#850001;}.cls-6{fill:#ed2f30;}.cls-7{fill:#49586b;}.cls-8{fill:#3e454f;}.cls-9{fill:#68798f;}.cls-10{fill:#c0c7d1;}.cls-11{fill:#ebebeb;}.cls-12{fill:#c7e4fc;}.cls-13{fill:#f00001;}.cls-14{clip-path:url(#clip-path-3);}.cls-15{fill:#ed9600;}.cls-16{clip-path:url(#clip-path-4);}.cls-17{fill:#6a809c;}.cls-18{clip-path:url(#clip-path-5);}.cls-19{clip-path:url(#clip-path-6);}.cls-20{fill:#960001;}.cls-21{fill:#ffabac;}.cls-22{clip-path:url(#clip-path-7);}.cls-23{fill:#8c0000;}.cls-24{clip-path:url(#clip-path-8);}.cls-25{fill:#fa7d00;}.cls-26{clip-path:url(#clip-path-9);}.cls-27{fill:#d10000;}.cls-28{fill:#ff5456;}</style><clipPath id="clip-path"><path class="cls-1" d="M26.8,14.927c1.808-2.361,6.644-2.836,9.891-3.594a36.744,36.744,0,0,0,10.234-4.4A44.8,44.8,0,0,1,69.368.08c11.618-.4,22.324.84,22.937,1.21a55.743,55.743,0,0,1,5.666,7.488A11.009,11.009,0,0,1,99.1,14c.007,2.572.9,3.293.9,3.293l-.989,5.8a16.058,16.058,0,0,1-4.356,1.252c-.09,0-.42,0-.969.014v-.328a7.089,7.089,0,0,0-6.555-7.318,6.819,6.819,0,0,0-7.3,6.3c-.006.086-.011.172-.014.258,0,.491.009.945.024,1.376-11.1.235-23.009.561-33.728.794.016-.438.024-.906.024-1.407a7.089,7.089,0,0,0-6.555-7.318,6.819,6.819,0,0,0-7.3,6.3c-.006.086-.011.172-.014.258,0,.926.028,1.735.083,2.446a30.753,30.753,0,0,1-3.7-.323c-1.291-.258-4.431-2.145-4.543-3.494S24.988,17.293,26.8,14.927Z"/></clipPath><clipPath id="clip-path-3"><path class="cls-1" d="M26.6,14.722a7.805,7.805,0,0,1,4.087-1.575,13.439,13.439,0,0,1,2.233-.084c.441.124-1.155,1.527-2.288,2.731S28,16.8,26.5,16.844s-1.738-.481-1.738-.481A15.408,15.408,0,0,1,26.6,14.722Z"/></clipPath><clipPath id="clip-path-4"><path class="cls-1" d="M52.875,4.906a44.375,44.375,0,0,1,14.1-3.649c-.461,1.562-1.652,5.6-2.287,7.848a1.332,1.332,0,0,1-1.253.971l-12.653.294a.6.6,0,0,1-.548-.87A38.635,38.635,0,0,1,52.875,4.906Z"/></clipPath><clipPath id="clip-path-5"><path class="cls-1" d="M85.014,1.527c3.533.247,6.08.525,6.787.681a64.169,64.169,0,0,1,5.247,7.019l-8.96.21a1.1,1.1,0,0,1-1.106-.884A66.064,66.064,0,0,0,85.014,1.527Z"/></clipPath><clipPath id="clip-path-6"><path class="cls-1" d="M83.216,9.547l-14.575.41a1.018,1.018,0,0,1-1.04-.994,1.094,1.094,0,0,1,.015-.2l1.346-7.64.441-.018c1.512-.052,3.137-.079,4.832-.079,4.1,0,5.026.151,8.457.35a20.942,20.942,0,0,1,1.54,7.046,1.04,1.04,0,0,1-.955,1.12A.608.608,0,0,1,83.216,9.547Z"/></clipPath><clipPath id="clip-path-7"><path class="cls-1" d="M26.8,14.927c1.808-2.361,6.644-2.836,9.891-3.594a36.744,36.744,0,0,0,10.234-4.4A44.8,44.8,0,0,1,69.368.08c11.618-.4,22.324.84,22.937,1.21a55.743,55.743,0,0,1,5.666,7.488A11.009,11.009,0,0,1,99.1,14a5.927,5.927,0,0,0,.568,2.844,1.822,1.822,0,0,1,.21,1.184L99.014,23.1a16.058,16.058,0,0,1-4.356,1.252c-.09,0-.42,0-.969.014v-.328a7.089,7.089,0,0,0-6.555-7.318,6.819,6.819,0,0,0-7.3,6.3c-.006.086-.011.172-.014.258,0,.491.009.945.024,1.376-11.1.235-23.009.561-33.728.794.02-.539.027-1.122.023-1.757a7,7,0,0,0-6.463-6.962,6.828,6.828,0,0,0-7.388,6.217c-.009.11-.016.221-.02.332,0,.927.028,1.736.083,2.447a30.96,30.96,0,0,1-3.7-.324c-1.291-.257-4.431-2.145-4.543-3.493S24.988,17.293,26.8,14.927Z"/></clipPath><clipPath id="clip-path-8"><path class="cls-1" d="M98.372,9.46l-.649.246a1.252,1.252,0,0,0-.772.868,7.824,7.824,0,0,0-.256,1.774c0,.6.008,1.494.016,2.189a.887.887,0,0,0,.894.881.911.911,0,0,0,.22-.03,11.083,11.083,0,0,0,2.115-.84C102.058,13.476,98.372,9.46,98.372,9.46Z"/></clipPath><clipPath id="clip-path-9"><path class="cls-1" d="M25.272,22.179a1.345,1.345,0,0,0,.666.735,9.534,9.534,0,0,0,2.09.21,17.126,17.126,0,0,1,.748-1.565c.339-.584-.3-.853-.724-.84A4.388,4.388,0,0,0,25.272,22.179Z"/></clipPath></defs><title>car-red</title><g id="Group_1864" data-name="Group 1864"><g id="Group_1860" data-name="Group 1860"><g id="Group_1783" data-name="Group 1783"><path id="Path_8646" data-name="Path 8646" class="cls-2" d="M46.109,25.447,39.436,24l-7.093,1.724s-1.132-3.124-1.2-3.431a31.861,31.861,0,0,1,1.877-5.734c.409-.546,6.314-2.8,6.416-2.8s6.69.58,7,.956,3.482,3.141,3.482,3.141a12.1,12.1,0,0,1,.409,2.662,11.141,11.141,0,0,1-1.26,2.321Z"/></g><g id="Group_1784" data-name="Group 1784"><path id="Path_8647" data-name="Path 8647" class="cls-2" d="M93.685,24.365l-7.017-.558-6.828.84-1.567-3.76s3.636-5.709,6.067-6.425,9.779.384,10.035,1.2a29.659,29.659,0,0,1,.077,4.684Z"/></g><g id="Group_1785" data-name="Group 1785"><path id="Path_8648" data-name="Path 8648" class="cls-3" d="M26.8,14.927c1.808-2.361,6.644-2.836,9.891-3.594a36.744,36.744,0,0,0,10.234-4.4A44.8,44.8,0,0,1,69.368.08c11.618-.4,22.324.84,22.937,1.21a55.743,55.743,0,0,1,5.666,7.488A11.009,11.009,0,0,1,99.1,14a5.876,5.876,0,0,0,.578,2.86,1.8,1.8,0,0,1,.194,1.184l-.5,2.926a3.729,3.729,0,0,1-2.553,2.933,8.059,8.059,0,0,1-2.166.439c-.09,0-.42,0-.969.015,0-.279,0-.555-.009-.9a7.008,7.008,0,0,0-6.638-6.752A6.816,6.816,0,0,0,79.822,23.1c0,.057-.006.114-.008.171,0,.491.009.945.024,1.376-11.1.235-23.009.561-33.728.794.019-.532.027-1.109.023-1.737a7.01,7.01,0,0,0-6.421-6.98,6.827,6.827,0,0,0-7.427,6.17c-.011.125-.02.251-.024.377,0,.926.028,1.735.083,2.446-.84-.033-2.706-.184-3.7-.323-3.869-.544-4.431-2.145-4.543-3.494S24.988,17.293,26.8,14.927Z"/></g><g id="Group_1790" data-name="Group 1790"><g class="cls-4"><g id="Group_1789" data-name="Group 1789"><g id="Group_1786" data-name="Group 1786"><path id="Path_8649" data-name="Path 8649" class="cls-5" d="M33.594,20.241v-.165l-5.53-.136a6.793,6.793,0,0,1-2.206-.427l-1.353-.5-.057.154,1.353.5a6.933,6.933,0,0,0,2.261.436Z"/></g><g id="Group_1787" data-name="Group 1787"><path id="Path_8650" data-name="Path 8650" class="cls-5" d="M93.158,18.36a4.9,4.9,0,0,0,1.471-.165,5.133,5.133,0,0,0,1.47-.975c.411-.344.8-.67,1.079-.67h2.579v-.165H97.18c-.34,0-.735.329-1.185.709a5.026,5.026,0,0,1-1.421.946,13.425,13.425,0,0,1-3.922-.024l-.022.163A21.828,21.828,0,0,0,93.158,18.36Z"/></g><g id="Group_1788" data-name="Group 1788"><path id="Path_8651" data-name="Path 8651" class="cls-6" d="M98.927,8.863l-56.98,1.8s-7.024,1.585-13.83,3.169c-3.522.82-2.324,1.6-2.324,1.6s66.014-2.415,68.215-2.415,6.271,0,6.271-2.311S98.927,8.863,98.927,8.863Z"/></g></g></g></g><g id="Group_1795" data-name="Group 1795"><g id="Group_1791" data-name="Group 1791"><path id="Path_8653" data-name="Path 8653" class="cls-7" d="M47.024,10.457l-4.89.113A36.874,36.874,0,0,0,47.472,7.8c.811-.525,1.825-1.124,3.026-1.75a23.18,23.18,0,0,0-2.3,3.653A1.34,1.34,0,0,1,47.024,10.457Z"/></g><g id="Group_1792" data-name="Group 1792"><path id="Path_8654" data-name="Path 8654" class="cls-7" d="M52.875,4.907a44.375,44.375,0,0,1,14.1-3.649c-.461,1.562-1.652,5.6-2.287,7.848a1.332,1.332,0,0,1-1.253.971l-12.653.294a.6.6,0,0,1-.548-.87A38.635,38.635,0,0,1,52.875,4.907Z"/></g><g id="Group_1793" data-name="Group 1793"><path id="Path_8655" data-name="Path 8655" class="cls-7" d="M85.013,1.527c3.533.247,6.08.525,6.787.681a64.169,64.169,0,0,1,5.247,7.019l-8.96.21a1.1,1.1,0,0,1-1.106-.884A66.064,66.064,0,0,0,85.013,1.527Z"/></g><g id="Group_1794" data-name="Group 1794"><path id="Path_8656" data-name="Path 8656" class="cls-7" d="M83.215,9.547l-14.575.41a1.018,1.018,0,0,1-1.04-.994,1.094,1.094,0,0,1,.015-.2l1.346-7.64.441-.018c1.512-.052,3.137-.079,4.832-.079,4.1,0,5.026.151,8.457.35a20.942,20.942,0,0,1,1.54,7.046,1.041,1.041,0,0,1-.955,1.12A.608.608,0,0,1,83.215,9.547Z"/></g></g><g id="Group_1809" data-name="Group 1809"><g id="Group_1796" data-name="Group 1796"><circle id="Ellipse_120" data-name="Ellipse 120" class="cls-8" cx="86.758" cy="23.666" r="6.334"/></g><g id="Group_1808" data-name="Group 1808"><g id="Group_1797" data-name="Group 1797"><circle id="Ellipse_121" data-name="Ellipse 121" class="cls-9" cx="86.758" cy="23.666" r="4.383"/></g><g id="Group_1798" data-name="Group 1798"><path id="Path_8657" data-name="Path 8657" class="cls-10" d="M83.422,23.666a3.337,3.337,0,1,0,3.337-3.337,3.337,3.337,0,0,0-3.337,3.337Zm1.506,0A1.831,1.831,0,1,1,86.759,25.5h0A1.83,1.83,0,0,1,84.928,23.666Z"/></g><g id="Group_1806" data-name="Group 1806"><g id="Group_1800" data-name="Group 1800"><g id="Group_1799" data-name="Group 1799"><circle id="Ellipse_122" data-name="Ellipse 122" class="cls-11" cx="86.758" cy="23.666" r="0.488"/></g></g><g id="Group_1801" data-name="Group 1801"><path id="Path_8658" data-name="Path 8658" class="cls-11" d="M87.171,22.885a.167.167,0,1,0,.167-.167h0A.167.167,0,0,0,87.171,22.885Z"/></g><g id="Group_1802" data-name="Group 1802"><circle id="Ellipse_123" data-name="Ellipse 123" class="cls-11" cx="86.155" cy="22.885" r="0.167"/></g><g id="Group_1803" data-name="Group 1803"><path id="Path_8659" data-name="Path 8659" class="cls-11" d="M86.6,24.6a.167.167,0,1,0,.167-.167h0A.167.167,0,0,0,86.6,24.6Z"/></g><g id="Group_1804" data-name="Group 1804"><circle id="Ellipse_124" data-name="Ellipse 124" class="cls-11" cx="87.641" cy="23.958" r="0.167"/></g><g id="Group_1805" data-name="Group 1805"><circle id="Ellipse_125" data-name="Ellipse 125" class="cls-11" cx="85.873" cy="23.965" r="0.167"/></g></g><g id="Group_1807" data-name="Group 1807"><path id="Path_8660" data-name="Path 8660" class="cls-10" d="M82.136,23.666a4.622,4.622,0,1,0,4.621-4.621h0A4.621,4.621,0,0,0,82.136,23.666Zm.315,0a4.307,4.307,0,1,1,4.306,4.307,4.306,4.306,0,0,1-4.306-4.307Z"/></g></g></g><g id="Group_1823" data-name="Group 1823"><g id="Group_1810" data-name="Group 1810"><circle id="Ellipse_126" data-name="Ellipse 126" class="cls-8" cx="39.205" cy="23.666" r="6.334"/></g><g id="Group_1822" data-name="Group 1822"><g id="Group_1811" data-name="Group 1811"><circle id="Ellipse_127" data-name="Ellipse 127" class="cls-9" cx="39.205" cy="23.667" r="4.383"/></g><g id="Group_1812" data-name="Group 1812"><path id="Path_8661" data-name="Path 8661" class="cls-10" d="M35.824,23.666a3.381,3.381,0,1,0,3.381-3.381h0A3.381,3.381,0,0,0,35.824,23.666Zm1.525,0a1.856,1.856,0,1,1,1.856,1.856,1.856,1.856,0,0,1-1.856-1.856Z"/></g><g id="Group_1820" data-name="Group 1820"><g id="Group_1814" data-name="Group 1814"><g id="Group_1813" data-name="Group 1813"><circle id="Ellipse_128" data-name="Ellipse 128" class="cls-11" cx="39.206" cy="23.667" r="0.488"/></g></g><g id="Group_1815" data-name="Group 1815"><circle id="Ellipse_129" data-name="Ellipse 129" class="cls-11" cx="39.786" cy="22.886" r="0.167"/></g><g id="Group_1816" data-name="Group 1816"><path id="Path_8662" data-name="Path 8662" class="cls-11" d="M38.436,22.886a.167.167,0,1,0,.168-.167h0A.167.167,0,0,0,38.436,22.886Z"/></g><g id="Group_1817" data-name="Group 1817"><path id="Path_8663" data-name="Path 8663" class="cls-11" d="M39.049,24.6a.167.167,0,1,0,.167-.167h0A.167.167,0,0,0,39.049,24.6Z"/></g><g id="Group_1818" data-name="Group 1818"><path id="Path_8664" data-name="Path 8664" class="cls-11" d="M39.922,23.959a.167.167,0,0,0,.334,0,.168.168,0,0,0-.167-.168h0A.166.166,0,0,0,39.922,23.959Z"/></g><g id="Group_1819" data-name="Group 1819"><path id="Path_8665" data-name="Path 8665" class="cls-11" d="M38.154,23.966a.167.167,0,1,0,.167-.167h0A.167.167,0,0,0,38.154,23.966Z"/></g></g><g id="Group_1821" data-name="Group 1821"><path id="Path_8666" data-name="Path 8666" class="cls-10" d="M34.583,23.667A4.622,4.622,0,1,0,39.2,19.046h0A4.621,4.621,0,0,0,34.583,23.667Zm.315,0A4.307,4.307,0,1,1,39.2,27.974,4.306,4.306,0,0,1,34.9,23.667Z"/></g></g></g><g id="Group_1826" data-name="Group 1826"><g class="cls-4"><g id="Group_1825" data-name="Group 1825"><g id="Group_1824" data-name="Group 1824"><path id="Path_8667" data-name="Path 8667" class="cls-12" d="M26.6,14.722a7.805,7.805,0,0,1,4.087-1.575,13.439,13.439,0,0,1,2.233-.084c.441.124-1.155,1.527-2.288,2.731S28,16.8,26.5,16.844s-1.738-.481-1.738-.481A15.408,15.408,0,0,1,26.6,14.722Z"/></g></g></g></g><g id="Group_1827" data-name="Group 1827"><path id="Path_8669" data-name="Path 8669" class="cls-13" d="M25.272,22.179a1.345,1.345,0,0,0,.666.735,9.534,9.534,0,0,0,2.09.21,17.126,17.126,0,0,1,.748-1.565c.339-.584-.3-.853-.724-.84A4.388,4.388,0,0,0,25.272,22.179Z"/></g><g id="Group_1830" data-name="Group 1830"><g class="cls-14"><g id="Group_1829" data-name="Group 1829"><g id="Group_1828" data-name="Group 1828"><path id="Path_8670" data-name="Path 8670" class="cls-15" d="M32.269,12.357c-.052,0-2.7,3.379-3.123,3.991s.085,1.008.409,1.178,4.352-3.584,4.387-3.687-.7-.921-.7-.921Z"/></g></g></g></g><g id="Group_1833" data-name="Group 1833"><g class="cls-16"><g id="Group_1832" data-name="Group 1832"><g id="Group_1831" data-name="Group 1831"><path id="Path_8672" data-name="Path 8672" class="cls-17" d="M50.954,7.805c.392-.692.8-1.353,1.214-1.942A58.753,58.753,0,0,1,67.117,1.921a23.568,23.568,0,0,1-1.33,3.122A106.834,106.834,0,0,0,50.954,7.805Z"/></g></g></g></g><g id="Group_1836" data-name="Group 1836"><g class="cls-18"><g id="Group_1835" data-name="Group 1835"><g id="Group_1834" data-name="Group 1834"><path id="Path_8674" data-name="Path 8674" class="cls-17" d="M86.063,4.652A19.785,19.785,0,0,1,84.9,2.177c2.8.21,7.006.525,7.783.666.453.5,1.431,1.659,2.415,2.886C92.964,5.379,89.875,4.953,86.063,4.652Z"/></g></g></g></g><g id="Group_1839" data-name="Group 1839"><g class="cls-19"><g id="Group_1838" data-name="Group 1838"><g id="Group_1837" data-name="Group 1837"><path id="Path_8676" data-name="Path 8676" class="cls-17" d="M68.366,4.776l.106-3.06c1.488-.052,4.1-.074,5.759-.074,4.382,0,6.238.176,8.982.331a13.119,13.119,0,0,1,.778,2.532A85.228,85.228,0,0,0,68.366,4.776Z"/></g></g></g></g><path id="Path_8678" data-name="Path 8678" class="cls-6" d="M48.646,22.514l30.579-1.873-.216.672A2.438,2.438,0,0,1,76.715,23l-26.09.284a2.846,2.846,0,0,1-1.963-.756Z"/><g id="Group_1840" data-name="Group 1840"><path id="Path_8679" data-name="Path 8679" class="cls-5" d="M48.107,24.468l31.177-.735V23.28a7.265,7.265,0,0,1,6.3-7.012l.067-.011v-.068c.128-3.072.145-5.395.051-6.9a31.91,31.91,0,0,0-1.911-8.278l-.019-.05H83.72C80.739.769,79.26.544,74.228.544c-1.7,0-3.331.027-4.847.079A44.669,44.669,0,0,0,52.05,4.746l.069.149A44.509,44.509,0,0,1,69.385.789C70.9.736,72.527.709,74.226.709c5,0,6.447.221,9.428.408A31.621,31.621,0,0,1,85.536,9.3c.094,1.492.078,3.781-.047,6.819a7.746,7.746,0,0,0-4.523,2.415,7.062,7.062,0,0,0-1.857,4.745v.291L48.1,24.3Z"/></g><g id="Group_1841" data-name="Group 1841"><path id="Path_8680" data-name="Path 8680" class="cls-5" d="M65.653,24.014h.165c0-.121-.047-12.143.306-13.7S68.155.9,68.172.821L68.01.787c-.017.078-1.693,7.919-2.048,9.487S65.651,23.518,65.653,24.014Z"/></g><g id="Group_1842" data-name="Group 1842"><path id="Path_8681" data-name="Path 8681" class="cls-5" d="M48.056,24.439h.165c0-.105-.041-10.624.106-11.833a5.721,5.721,0,0,1,.741-2.232c.123-.252.263-.538.429-.892.782-1.665,2.689-4.622,2.707-4.65l-.138-.089c-.019.029-1.933,2.993-2.72,4.669-.166.353-.3.637-.427.889a5.832,5.832,0,0,0-.758,2.285C48.015,13.805,48.054,24.011,48.056,24.439Z"/></g><g id="Group_1845" data-name="Group 1845"><g id="Group_1843" data-name="Group 1843"><path id="Rectangle_2872" data-name="Rectangle 2872" class="cls-20" d="M63.314,13.09h-1.4a.7.7,0,0,1-.7-.7h0a.7.7,0,0,1,.7-.7h1.4a.7.7,0,0,1,.7.7h0A.7.7,0,0,1,63.314,13.09Z"/></g><g id="Group_1844" data-name="Group 1844"><path id="Rectangle_2873" data-name="Rectangle 2873" class="cls-21" d="M64.054,12.476H61.166a.238.238,0,0,1-.237-.238h0A.237.237,0,0,1,61.166,12h2.888a.237.237,0,0,1,.237.237h0A.238.238,0,0,1,64.054,12.476Z"/></g></g><g id="Group_1848" data-name="Group 1848"><g id="Group_1846" data-name="Group 1846"><path id="Rectangle_2874" data-name="Rectangle 2874" class="cls-20" d="M82.956,13.09h-1.4a.7.7,0,0,1-.7-.7h0a.7.7,0,0,1,.7-.7h1.4a.7.7,0,0,1,.7.7h0A.7.7,0,0,1,82.956,13.09Z"/></g><g id="Group_1847" data-name="Group 1847"><path id="Rectangle_2875" data-name="Rectangle 2875" class="cls-21" d="M83.723,12.476H80.835a.238.238,0,0,1-.237-.238h0A.237.237,0,0,1,80.835,12h2.888a.237.237,0,0,1,.237.237h0A.238.238,0,0,1,83.723,12.476Z"/></g></g><g id="Group_1856" data-name="Group 1856"><g class="cls-22"><g id="Group_1855" data-name="Group 1855"><g id="Group_1854" data-name="Group 1854"><g id="Group_1853" data-name="Group 1853"><path id="Path_8682" data-name="Path 8682" class="cls-23" d="M98.372,9.46l-.649.246a1.252,1.252,0,0,0-.772.868,7.824,7.824,0,0,0-.256,1.774c0,.6.008,1.494.016,2.189a.887.887,0,0,0,.894.881.911.911,0,0,0,.22-.03,11.083,11.083,0,0,0,2.115-.84C102.058,13.476,98.372,9.46,98.372,9.46Z"/><g class="cls-24"><g id="Group_1852" data-name="Group 1852"><g id="Group_1851" data-name="Group 1851"><g id="Group_1849" data-name="Group 1849"><path id="Path_8683" data-name="Path 8683" class="cls-25" d="M100.644,11.52l-3.7,1.443v-.614c0-.135.007-.272.019-.411l3.158-1.178C100.307,11.005,100.487,11.262,100.644,11.52Z"/></g><g id="Group_1850" data-name="Group 1850"><path id="Path_8684" data-name="Path 8684" class="cls-25" d="M97.031,11.426c.047-.293.1-.568.165-.792a1,1,0,0,1,.618-.7l1.243-.453c.2.228.467.526.741.863Z"/></g></g></g></g></g></g></g></g></g><g id="Group_1859" data-name="Group 1859"><g class="cls-26"><g id="Group_1858" data-name="Group 1858"><g id="Group_1857" data-name="Group 1857"><path id="Path_8687" data-name="Path 8687" class="cls-20" d="M25.506,21.9a1.349,1.349,0,0,0,.666.735,9.552,9.552,0,0,0,2.092.21,17.117,17.117,0,0,1,.747-1.565c.34-.584-.3-.853-.723-.84A4.392,4.392,0,0,0,25.506,21.9Z"/></g></g></g></g></g><g id="Group_1863" data-name="Group 1863"><g id="Group_1861" data-name="Group 1861"><path id="Path_8689" data-name="Path 8689" class="cls-27" d="M46.119,11.234l.934-.721,1.035-.009-.193.8s-.082.135-.784.19A1.233,1.233,0,0,1,46.119,11.234Z"/></g><g id="Group_1862" data-name="Group 1862"><path id="Path_8690" data-name="Path 8690" class="cls-28" d="M46.912,10.7s3.015-.412,3.327-.489-.277-1.739-.6-1.925a2.4,2.4,0,0,0-1.613.013,3.534,3.534,0,0,0-1.165,1.353C46.723,10.074,46.572,10.606,46.912,10.7Z"/></g></g></g></svg>