<svg id="Layer_1" data-name="Layer 1" xmlns="http://www.w3.org/2000/svg" width="153.77" height="53.155" viewBox="0 0 153.77 53.155"><defs><style>.cls-1{fill:#a5d24e;}.cls-2{fill:#94c465;}.cls-3{fill:#d4efa0;}.cls-4{fill:#effdd2;}.cls-5{fill:#006837;opacity:0.3;isolation:isolate;}</style></defs><title>money-medium</title><g id="Group_1931" data-name="Group 1931"><g id="Group_1705" data-name="Group 1705"><rect id="Rectangle_1619" data-name="Rectangle 1619" class="cls-1" y="35.433" width="150.914" height="17.699"/><rect id="Rectangle_1620" data-name="Rectangle 1620" class="cls-2" y="36.165" width="150.914" height="16.237"/><rect id="Rectangle_1621" data-name="Rectangle 1621" class="cls-1" y="36.865" width="150.914" height="14.835"/><rect id="Rectangle_1622" data-name="Rectangle 1622" class="cls-2" y="37.558" width="150.914" height="13.449"/><rect id="Rectangle_1623" data-name="Rectangle 1623" class="cls-1" x="0.001" y="38.313" width="150.912" height="11.94"/><rect id="Rectangle_1624" data-name="Rectangle 1624" class="cls-2" x="0.001" y="39.09" width="150.912" height="10.386"/><rect id="Rectangle_1625" data-name="Rectangle 1625" class="cls-1" x="0.001" y="39.912" width="150.912" height="8.741"/><rect id="Rectangle_1626" data-name="Rectangle 1626" class="cls-2" x="0.001" y="40.712" width="150.912" height="7.142"/><rect id="Rectangle_1627" data-name="Rectangle 1627" class="cls-1" x="0.001" y="41.58" width="150.912" height="5.405"/><rect id="Rectangle_1628" data-name="Rectangle 1628" class="cls-2" x="0.001" y="42.426" width="150.912" height="3.714"/><rect id="Rectangle_1629" data-name="Rectangle 1629" class="cls-1" x="0.001" y="43.157" width="150.912" height="2.251"/><rect id="Rectangle_1630" data-name="Rectangle 1630" class="cls-2" x="0.001" y="43.934" width="150.912" height="0.697"/><rect id="Rectangle_1631" data-name="Rectangle 1631" class="cls-3" x="60.877" y="35.41" width="29.16" height="17.745"/><rect id="Rectangle_1632" data-name="Rectangle 1632" class="cls-4" x="63.437" y="35.41" width="24.041" height="17.745"/><rect id="Rectangle_1633" data-name="Rectangle 1633" class="cls-3" x="65.906" y="35.41" width="19.103" height="17.745"/><rect id="Rectangle_1634" data-name="Rectangle 1634" class="cls-5" y="50.235" width="150.913" height="2.897"/><rect id="Rectangle_1635" data-name="Rectangle 1635" class="cls-1" x="2.856" y="17.728" width="150.914" height="17.699"/><rect id="Rectangle_1636" data-name="Rectangle 1636" class="cls-2" x="2.856" y="18.459" width="150.914" height="16.237"/><rect id="Rectangle_1637" data-name="Rectangle 1637" class="cls-1" x="2.856" y="19.16" width="150.914" height="14.835"/><rect id="Rectangle_1638" data-name="Rectangle 1638" class="cls-2" x="2.856" y="19.853" width="150.914" height="13.449"/><rect id="Rectangle_1639" data-name="Rectangle 1639" class="cls-1" x="2.857" y="20.607" width="150.912" height="11.94"/><rect id="Rectangle_1640" data-name="Rectangle 1640" class="cls-2" x="2.857" y="21.384" width="150.912" height="10.386"/><rect id="Rectangle_1641" data-name="Rectangle 1641" class="cls-1" x="2.857" y="22.207" width="150.912" height="8.741"/><rect id="Rectangle_1642" data-name="Rectangle 1642" class="cls-2" x="2.857" y="23.007" width="150.912" height="7.142"/><rect id="Rectangle_1643" data-name="Rectangle 1643" class="cls-1" x="2.857" y="23.875" width="150.912" height="5.405"/><rect id="Rectangle_1644" data-name="Rectangle 1644" class="cls-2" x="2.857" y="24.721" width="150.912" height="3.714"/><rect id="Rectangle_1645" data-name="Rectangle 1645" class="cls-1" x="2.857" y="25.452" width="150.912" height="2.251"/><rect id="Rectangle_1646" data-name="Rectangle 1646" class="cls-2" x="2.857" y="26.229" width="150.912" height="0.697"/><rect id="Rectangle_1647" data-name="Rectangle 1647" class="cls-3" x="63.733" y="17.705" width="29.16" height="17.745"/><rect id="Rectangle_1648" data-name="Rectangle 1648" class="cls-4" x="66.292" y="17.705" width="24.041" height="17.745"/><rect id="Rectangle_1649" data-name="Rectangle 1649" class="cls-3" x="68.761" y="17.705" width="19.103" height="17.745"/><rect id="Rectangle_1650" data-name="Rectangle 1650" class="cls-5" x="2.856" y="32.53" width="150.913" height="2.897"/><rect id="Rectangle_1651" data-name="Rectangle 1651" class="cls-1" x="1.142" y="0.023" width="150.914" height="17.699"/><rect id="Rectangle_1652" data-name="Rectangle 1652" class="cls-2" x="1.142" y="0.754" width="150.914" height="16.237"/><rect id="Rectangle_1653" data-name="Rectangle 1653" class="cls-1" x="1.142" y="1.455" width="150.914" height="14.835"/><rect id="Rectangle_1654" data-name="Rectangle 1654" class="cls-2" x="1.142" y="2.148" width="150.914" height="13.449"/><rect id="Rectangle_1655" data-name="Rectangle 1655" class="cls-1" x="1.143" y="2.902" width="150.912" height="11.94"/><rect id="Rectangle_1656" data-name="Rectangle 1656" class="cls-2" x="1.143" y="3.679" width="150.912" height="10.386"/><rect id="Rectangle_1657" data-name="Rectangle 1657" class="cls-1" x="1.143" y="4.502" width="150.912" height="8.741"/><rect id="Rectangle_1658" data-name="Rectangle 1658" class="cls-2" x="1.143" y="5.302" width="150.912" height="7.142"/><rect id="Rectangle_1659" data-name="Rectangle 1659" class="cls-1" x="1.143" y="6.17" width="150.912" height="5.405"/><rect id="Rectangle_1660" data-name="Rectangle 1660" class="cls-2" x="1.143" y="7.016" width="150.912" height="3.714"/><rect id="Rectangle_1661" data-name="Rectangle 1661" class="cls-1" x="1.143" y="7.747" width="150.912" height="2.251"/><rect id="Rectangle_1662" data-name="Rectangle 1662" class="cls-2" x="1.143" y="8.524" width="150.912" height="0.697"/><rect id="Rectangle_1663" data-name="Rectangle 1663" class="cls-3" x="62.02" width="29.16" height="17.745"/><rect id="Rectangle_1664" data-name="Rectangle 1664" class="cls-4" x="64.579" width="24.041" height="17.745"/><rect id="Rectangle_1665" data-name="Rectangle 1665" class="cls-3" x="67.048" width="19.103" height="17.745"/><rect id="Rectangle_1666" data-name="Rectangle 1666" class="cls-5" x="1.142" y="14.825" width="150.913" height="2.897"/></g></g></svg>