<svg id="Layer_1" data-name="Layer 1" xmlns="http://www.w3.org/2000/svg" width="158.655" height="71.138" viewBox="0 0 158.655 71.138"><defs><style>.cls-1{fill:#a5d24e;}.cls-2{fill:#94c465;}.cls-3{fill:#d4efa0;}.cls-4{fill:#effdd2;}.cls-5{fill:#006837;opacity:0.3;isolation:isolate;}</style></defs><title>money-large</title><g id="Group_1931" data-name="Group 1931"><g id="Group_1720" data-name="Group 1720"><g id="Group_1719" data-name="Group 1719"><g id="Group_1709" data-name="Group 1709"><g id="Group_1707" data-name="Group 1707"><rect id="Rectangle_1747" data-name="Rectangle 1747" class="cls-1" x="5.442" y="53.334" width="151.616" height="17.781"/><rect id="Rectangle_1748" data-name="Rectangle 1748" class="cls-2" x="5.442" y="54.069" width="151.616" height="16.312"/><rect id="Rectangle_1749" data-name="Rectangle 1749" class="cls-1" x="5.442" y="54.773" width="151.616" height="14.904"/><rect id="Rectangle_1750" data-name="Rectangle 1750" class="cls-2" x="5.442" y="55.469" width="151.616" height="13.511"/><rect id="Rectangle_1751" data-name="Rectangle 1751" class="cls-1" x="5.443" y="56.227" width="151.614" height="11.996"/><rect id="Rectangle_1752" data-name="Rectangle 1752" class="cls-2" x="5.443" y="57.007" width="151.614" height="10.435"/><rect id="Rectangle_1753" data-name="Rectangle 1753" class="cls-1" x="5.443" y="57.834" width="151.614" height="8.782"/><rect id="Rectangle_1754" data-name="Rectangle 1754" class="cls-2" x="5.443" y="58.637" width="151.614" height="7.175"/><rect id="Rectangle_1755" data-name="Rectangle 1755" class="cls-1" x="5.443" y="59.51" width="151.614" height="5.43"/><rect id="Rectangle_1756" data-name="Rectangle 1756" class="cls-2" x="5.443" y="60.359" width="151.614" height="3.731"/><rect id="Rectangle_1757" data-name="Rectangle 1757" class="cls-1" x="5.443" y="61.094" width="151.614" height="2.262"/><rect id="Rectangle_1758" data-name="Rectangle 1758" class="cls-2" x="5.443" y="61.874" width="151.614" height="0.7"/></g><g id="Group_1708" data-name="Group 1708"><rect id="Rectangle_1759" data-name="Rectangle 1759" class="cls-3" x="66.602" y="53.311" width="29.295" height="17.827"/><rect id="Rectangle_1760" data-name="Rectangle 1760" class="cls-4" x="69.173" y="53.311" width="24.153" height="17.827"/><rect id="Rectangle_1761" data-name="Rectangle 1761" class="cls-3" x="71.654" y="53.311" width="19.192" height="17.827"/></g><rect id="Rectangle_1762" data-name="Rectangle 1762" class="cls-5" x="5.442" y="68.204" width="151.615" height="2.911"/></g><g id="Group_1712" data-name="Group 1712"><g id="Group_1710" data-name="Group 1710"><rect id="Rectangle_1763" data-name="Rectangle 1763" class="cls-1" x="4.2" y="35.551" width="151.616" height="17.781"/><rect id="Rectangle_1764" data-name="Rectangle 1764" class="cls-2" x="4.2" y="36.286" width="151.616" height="16.312"/><rect id="Rectangle_1765" data-name="Rectangle 1765" class="cls-1" x="4.2" y="36.99" width="151.616" height="14.904"/><rect id="Rectangle_1766" data-name="Rectangle 1766" class="cls-2" x="4.2" y="37.686" width="151.616" height="13.511"/><rect id="Rectangle_1767" data-name="Rectangle 1767" class="cls-1" x="4.201" y="38.444" width="151.614" height="11.996"/><rect id="Rectangle_1768" data-name="Rectangle 1768" class="cls-2" x="4.201" y="39.224" width="151.614" height="10.435"/><rect id="Rectangle_1769" data-name="Rectangle 1769" class="cls-1" x="4.201" y="40.051" width="151.614" height="8.782"/><rect id="Rectangle_1770" data-name="Rectangle 1770" class="cls-2" x="4.201" y="40.854" width="151.614" height="7.175"/><rect id="Rectangle_1771" data-name="Rectangle 1771" class="cls-1" x="4.201" y="41.727" width="151.614" height="5.43"/><rect id="Rectangle_1772" data-name="Rectangle 1772" class="cls-2" x="4.201" y="42.576" width="151.614" height="3.731"/><rect id="Rectangle_1773" data-name="Rectangle 1773" class="cls-1" x="4.201" y="43.311" width="151.614" height="2.262"/><rect id="Rectangle_1774" data-name="Rectangle 1774" class="cls-2" x="4.201" y="44.091" width="151.614" height="0.7"/></g><g id="Group_1711" data-name="Group 1711"><rect id="Rectangle_1775" data-name="Rectangle 1775" class="cls-3" x="65.36" y="35.528" width="29.295" height="17.827"/><rect id="Rectangle_1776" data-name="Rectangle 1776" class="cls-4" x="67.931" y="35.528" width="24.153" height="17.827"/><rect id="Rectangle_1777" data-name="Rectangle 1777" class="cls-3" x="70.412" y="35.528" width="19.192" height="17.827"/></g><rect id="Rectangle_1778" data-name="Rectangle 1778" class="cls-5" x="4.2" y="50.421" width="151.615" height="2.911"/></g><g id="Group_1715" data-name="Group 1715"><g id="Group_1713" data-name="Group 1713"><rect id="Rectangle_1779" data-name="Rectangle 1779" class="cls-1" y="17.789" width="151.616" height="17.781"/><rect id="Rectangle_1780" data-name="Rectangle 1780" class="cls-2" y="18.524" width="151.616" height="16.312"/><rect id="Rectangle_1781" data-name="Rectangle 1781" class="cls-1" y="19.228" width="151.616" height="14.904"/><rect id="Rectangle_1782" data-name="Rectangle 1782" class="cls-2" y="19.924" width="151.616" height="13.511"/><rect id="Rectangle_1783" data-name="Rectangle 1783" class="cls-1" x="0.001" y="20.682" width="151.614" height="11.996"/><rect id="Rectangle_1784" data-name="Rectangle 1784" class="cls-2" x="0.001" y="21.462" width="151.614" height="10.435"/><rect id="Rectangle_1785" data-name="Rectangle 1785" class="cls-1" x="0.001" y="22.289" width="151.614" height="8.782"/><rect id="Rectangle_1786" data-name="Rectangle 1786" class="cls-2" x="0.001" y="23.092" width="151.614" height="7.175"/><rect id="Rectangle_1787" data-name="Rectangle 1787" class="cls-1" x="0.001" y="23.965" width="151.614" height="5.43"/><rect id="Rectangle_1788" data-name="Rectangle 1788" class="cls-2" x="0.001" y="24.814" width="151.614" height="3.731"/><rect id="Rectangle_1789" data-name="Rectangle 1789" class="cls-1" x="0.001" y="25.549" width="151.614" height="2.262"/><rect id="Rectangle_1790" data-name="Rectangle 1790" class="cls-2" x="0.001" y="26.329" width="151.614" height="0.7"/></g><g id="Group_1714" data-name="Group 1714"><rect id="Rectangle_1791" data-name="Rectangle 1791" class="cls-3" x="61.16" y="17.766" width="29.295" height="17.827"/><rect id="Rectangle_1792" data-name="Rectangle 1792" class="cls-4" x="63.731" y="17.766" width="24.153" height="17.827"/><rect id="Rectangle_1793" data-name="Rectangle 1793" class="cls-3" x="66.212" y="17.766" width="19.192" height="17.827"/></g><rect id="Rectangle_1794" data-name="Rectangle 1794" class="cls-5" y="32.659" width="151.615" height="2.911"/></g><g id="Group_1718" data-name="Group 1718"><g id="Group_1716" data-name="Group 1716"><rect id="Rectangle_1795" data-name="Rectangle 1795" class="cls-1" x="7.039" y="0.023" width="151.616" height="17.781"/><rect id="Rectangle_1796" data-name="Rectangle 1796" class="cls-2" x="7.039" y="0.758" width="151.616" height="16.312"/><rect id="Rectangle_1797" data-name="Rectangle 1797" class="cls-1" x="7.039" y="1.462" width="151.616" height="14.904"/><rect id="Rectangle_1798" data-name="Rectangle 1798" class="cls-2" x="7.039" y="2.158" width="151.616" height="13.511"/><rect id="Rectangle_1799" data-name="Rectangle 1799" class="cls-1" x="7.04" y="2.916" width="151.614" height="11.996"/><rect id="Rectangle_1800" data-name="Rectangle 1800" class="cls-2" x="7.04" y="3.696" width="151.614" height="10.435"/><rect id="Rectangle_1801" data-name="Rectangle 1801" class="cls-1" x="7.04" y="4.523" width="151.614" height="8.782"/><rect id="Rectangle_1802" data-name="Rectangle 1802" class="cls-2" x="7.04" y="5.326" width="151.614" height="7.175"/><rect id="Rectangle_1803" data-name="Rectangle 1803" class="cls-1" x="7.04" y="6.199" width="151.614" height="5.43"/><rect id="Rectangle_1804" data-name="Rectangle 1804" class="cls-2" x="7.04" y="7.048" width="151.614" height="3.731"/><rect id="Rectangle_1805" data-name="Rectangle 1805" class="cls-1" x="7.04" y="7.783" width="151.614" height="2.262"/><rect id="Rectangle_1806" data-name="Rectangle 1806" class="cls-2" x="7.04" y="8.563" width="151.614" height="0.701"/></g><g id="Group_1717" data-name="Group 1717"><rect id="Rectangle_1807" data-name="Rectangle 1807" class="cls-3" x="68.199" width="29.295" height="17.827"/><rect id="Rectangle_1808" data-name="Rectangle 1808" class="cls-4" x="70.77" width="24.153" height="17.827"/><rect id="Rectangle_1809" data-name="Rectangle 1809" class="cls-3" x="73.251" width="19.192" height="17.827"/></g><rect id="Rectangle_1810" data-name="Rectangle 1810" class="cls-5" x="7.039" y="14.893" width="151.615" height="2.911"/></g></g></g></g></svg>