<svg id="Layer_1" data-name="Layer 1" xmlns="http://www.w3.org/2000/svg" xmlns:xlink="http://www.w3.org/1999/xlink" width="118.272" height="150.703" viewBox="0 0 118.272 150.703"><defs><style>.cls-1{opacity:0.1;}.cls-2{fill:#ffbbb5;}.cls-3{fill:#7b4842;}.cls-4{fill:#edaea9;}.cls-5{fill:#0f3871;}.cls-6{fill:#414042;}.cls-7{fill:#663c37;}.cls-8{fill:#4f2e2a;}.cls-9{fill:#d33c70;}.cls-10{fill:#fff;}.cls-11{fill:#fa6961;}.cls-12{fill:#94574f;}.cls-13{fill:#ede5dd;}.cls-14{fill:url(#linear-gradient);}.cls-15{fill:url(#linear-gradient-2);}.cls-16{fill:url(#linear-gradient-3);}.cls-17{fill:#fbd270;}</style><linearGradient id="linear-gradient" x1="551.788" y1="305.395" x2="550.734" y2="305.398" gradientTransform="matrix(13.282, 0, 0, -74.933, -7545.437, 22985.377)" gradientUnits="userSpaceOnUse"><stop offset="0" stop-color="#ffbbb5"/><stop offset="0.185" stop-color="#feb7b2"/><stop offset="0.363" stop-color="#fcabaa"/><stop offset="0.539" stop-color="#f8989c"/><stop offset="0.713" stop-color="#f37c89"/><stop offset="0.883" stop-color="#ed5a70"/><stop offset="1" stop-color="#e83e5d"/></linearGradient><linearGradient id="linear-gradient-2" x1="580.923" y1="302.567" x2="581.039" y2="301.916" gradientTransform="matrix(19.551, 0, 0, -18.67, -11285.113, 5726.35)" gradientUnits="userSpaceOnUse"><stop offset="0" stop-color="#e83e5d"/><stop offset="0.018" stop-color="#e8405e"/><stop offset="0.694" stop-color="#f8989c"/><stop offset="1" stop-color="#ffbbb5"/></linearGradient><linearGradient id="linear-gradient-3" x1="552.785" y1="305.416" x2="551.739" y2="305.42" gradientTransform="matrix(13.443, 0, 0, -75.313, -7632.632, 23101.14)" xlink:href="#linear-gradient"/></defs><title>phones-small</title><g id="Group_1909" data-name="Group 1909"><g id="Group_1754" data-name="Group 1754"><path id="Path_8491" data-name="Path 8491" class="cls-1" d="M73.6,134.576c0,1.041-10.159,1.582-40.531,1.582-25.725,0-33.067.168-33.067-.873s16.915-3.942,40.429-3.942S73.6,133.535,73.6,134.576Z"/><path id="Path_8492" data-name="Path 8492" class="cls-2" d="M22.575,131.533c1.059-10.967,3.462-16.93,4.447-24.646.025-.2-1.336-8.7-1.207-9.389-2.724,1.14-3.51-6.522-6.133-7.777A12.439,12.439,0,0,0,18.208,95.4c-.039.929-.163,8.682-.082,9.606,1.136,13.15,2.078,25.475,2.078,25.475S22.459,132.735,22.575,131.533Z"/><path id="Path_8493" data-name="Path 8493" class="cls-3" d="M19.16,125.1h4.885c1.185-7.165,2.2-12.153,2.978-18.208.025-.2-1.336-8.7-1.207-9.389-2.724,1.14-3.51-6.522-6.133-7.777A12.439,12.439,0,0,0,18.209,95.4c-.039.929-.163,8.682-.082,9.606C18.8,112.784,18.779,120.273,19.16,125.1Z"/><path id="Path_8494" data-name="Path 8494" class="cls-4" d="M23.7,19.785c-1.366,2.607,3.813,1.22,6.06,1.325s7.086.235,5.144-1.98c-.713-.812-2.788-3.365-1.773-6.036,1.512-3.989-7.445-5.7-7.655-2.855C25.315,12.5,25.943,15.523,23.7,19.785Z"/><path id="Path_8495" data-name="Path 8495" class="cls-2" d="M33.956,8.148c.257,2.191.139,5.666-3.288,7.228-4,1.817-7.832.144-7.69-1.713.292-3.754-.02-11.761,2.747-12.1C30.462.987,33.473,4.025,33.956,8.148Z"/><path id="Path_8496" data-name="Path 8496" class="cls-5" d="M23.188,4.876c.726-6.11,5.437-4.956,8.088-4.435,2.112.418,5.471,1.832,3.982,7.4a17.414,17.414,0,0,1-1.238,3.614c-1.109.185.741-4.206-1.112-4.931-2-.785-4.175-.461-6.311-.534C23.829,5.891,23.223,5.555,23.188,4.876Z"/><rect id="Rectangle_2866" data-name="Rectangle 2866" class="cls-6" x="26.391" y="11.03" width="8.487" height="4.862" transform="translate(0.318 27.622) rotate(-48.759)"/><path id="Path_8497" data-name="Path 8497" class="cls-5" d="M31.276.441c1.79.354,4.479,1.426,4.346,5.142-.785.249-1.067.965-1.874,1.132-.285.06-2.3-.175-2.629-.189A14.914,14.914,0,0,0,26.6,5.987c-2.768-.095-3.774-.2-3.808-.882C22.638-.44,28.625-.08,31.276.441Z"/><path id="Path_8498" data-name="Path 8498" class="cls-2" d="M15.334,68.126a1.96,1.96,0,0,0,3.017,1.6c.879-.563-.683-3.848-.768-5.827s-1.2-1.817-2.073-1.262S14.954,65.235,15.334,68.126Z"/><path id="Path_8499" data-name="Path 8499" class="cls-7" d="M14.183,65.682a31.506,31.506,0,0,1,4.027-1.488l6.067-22.178c.866-3.173-.759-2.559-2.794-1.629l-5.167,2.5C15.3,47.7,14.183,65.682,14.183,65.682Z"/><path id="Path_8500" data-name="Path 8500" class="cls-5" d="M25.839,98.177c-.809-.277-7.616,4.1-7.7,3.628-.37-2.067-.8-33.635,1.5-41.5,1.722-5.91,9.827-2.433,10.652,1.54C33.3,76.39,25.875,97.613,25.839,98.177Z"/><path id="Path_8501" data-name="Path 8501" class="cls-5" d="M23.364,129.338c.022,1,1.814,4.326-1.035,4.391-7.03.168-11.089.074-10.516-.712,1.6-2.178,7.115-.691,7.342-3.882C19.294,127.226,23.341,128.337,23.364,129.338Z"/><path id="Path_8502" data-name="Path 8502" class="cls-5" d="M40.152,97.675c-.826-.226-7.431,3.952-7.545,3.484-.5-2.039-3.349-30.038-6.514-30.322C20.074,70.3,39.208,57.5,40.273,61.415,44.173,75.737,40.153,97.11,40.152,97.675Z"/><path id="Path_8503" data-name="Path 8503" class="cls-3" d="M40.272,61.416c-.525-1.93-5.452.209-9.584,2.935-.106-.851-.237-1.689-.4-2.5-.824-3.974-8.929-7.45-10.652-1.54-2.291,7.862-1.865,39.43-1.5,41.5.086.474,6.893-3.906,7.7-3.628a141.119,141.119,0,0,0,3.964-16.072c1.455,8.135,2.517,17.883,2.8,19.055.114.468,6.719-3.71,7.545-3.484C40.153,97.111,44.173,75.742,40.272,61.416Z"/><path id="Path_8504" data-name="Path 8504" class="cls-8" d="M30.548,72.4c2.5.484,4.863.631,6.862,2.422,2.31,2.071,3.5,3.82,3.216,8.382-.156,2.533.6,4.386.547,6.923.855-7.646,1.581-19.6-.9-28.716-.525-1.93-5.452.209-9.584,2.935-.106-.851-.237-1.689-.4-2.5-.824-3.974-8.929-7.45-10.652-1.54A61.871,61.871,0,0,0,18.264,71.8C22.358,72.042,26.493,71.624,30.548,72.4Z"/><path id="Path_8505" data-name="Path 8505" class="cls-8" d="M29.783,82.221c-.013-.027-.036-.051-.047-.076-1.675,2.845-4.064,11.42-4.71,15.356-.788,4.815,2,6.033,1.147,11.534-.6,3.88-2.783,12.173-3.365,16.06h1.237c1.185-7.165,2.2-12.153,2.978-18.208.022-.171-.99-6.537-1.183-8.71A141.341,141.341,0,0,0,29.783,82.221Z"/><path id="Path_8506" data-name="Path 8506" class="cls-2" d="M42.1,118.7H36.894c1.621,6.589,2.74,11.235,2.74,11.235s2.586,1.867,2.509.665A100.1,100.1,0,0,1,42.1,118.7Z"/><path id="Path_8507" data-name="Path 8507" class="cls-3" d="M37.743,124.784,42.567,124c.026-7.262.235-12.348.034-18.449-.007-.2-2.707-8.376-2.69-9.075-2.509,1.559-4.507-5.88-7.3-6.7-.673,2.217-.477,7.927-.21,10.157.111.924.884,4.279,1.111,5.178C35.422,112.687,36.6,120.085,37.743,124.784Z"/><path id="Path_8508" data-name="Path 8508" class="cls-5" d="M42.572,128.3c.183.985,2.48,3.98-.321,4.5-6.913,1.288-10.936,1.844-10.5.977,1.229-2.4,6.914-1.816,6.628-5C38.215,126.866,42.388,127.317,42.572,128.3Z"/><path id="Path_8509" data-name="Path 8509" class="cls-8" d="M41.384,80.764a.558.558,0,0,1-.061-.067c-1.2,3.075-2.189,11.921-2.2,15.911-.009,4.878,2.935,5.636,2.974,11.2.025,3.926-.8,12.461-.759,16.39l1.221-.2c.026-7.262.235-12.348.034-18.449-.006-.172-2.023-6.294-2.558-8.408A141.817,141.817,0,0,0,41.384,80.764Z"/><path id="Path_8510" data-name="Path 8510" class="cls-9" d="M19.469,59.6l.182-.206c-.348,7.754.872,7.645,8.738,8.015s12.861-1.8,13.209-9.552l-8.007.5Z"/><g id="Group_1752" data-name="Group 1752"><path id="Path_8511" data-name="Path 8511" class="cls-10" d="M23.715,19.348,18.861,68.426c3.5.423,12.712.826,16.523.943v-50.3A34.489,34.489,0,0,0,23.715,19.348Z"/></g><path id="Path_8512" data-name="Path 8512" class="cls-11" d="M26.722,21.342a1.349,1.349,0,1,0,1.35-1.348h0A1.349,1.349,0,0,0,26.722,21.342Z"/><path id="Path_8513" data-name="Path 8513" class="cls-11" d="M26.438,52.731l2.477-3.4L28.306,22.1l-.4-.018L24.278,48.947Z"/><g id="Group_1753" data-name="Group 1753"><path id="Path_8514" data-name="Path 8514" class="cls-3" d="M42.21,45.439c2.16-20.14-.136-22.831-.136-22.831a11.168,11.168,0,0,0-6.4-3.492c-3.357-.7-4.952,3.327-5.29,7.572-.174,2.16.3,4.091-.314,6.15A34.978,34.978,0,0,0,29,41.886a95.419,95.419,0,0,0,.191,10.534c.235,2.751.231,4.344.858,8.382.423,2.715.586,13.926,14.611,12.49C43.276,63.863,41.6,51.1,42.21,45.439Z"/><path id="Path_8515" data-name="Path 8515" class="cls-3" d="M25.328,40.654c.125-2.434.157-11.839.071-14.034-.148-3.767-.807-3.866-1.628-7.281-.126.021-.256.039-.38.061-1.431.242-5.548,2.311-6.236,5.029-.021.1-1.074,43.275-.311,44.935.969.261,4.821.01,5.82-7.483C22.823,60.7,25.017,46.692,25.328,40.654Z"/></g><path id="Path_8516" data-name="Path 8516" class="cls-12" d="M22.024,44.4c-.451.411-1.265-1.657-3.058-3.8l.235.186a5.842,5.842,0,0,1-1.252-4.648L35.06,22.949c2.117-1.844,5.508-2.257,7.3-.11l.416,4.393c1.621,3.628-1.822,7.865-4.534,9.144Z"/><path id="Path_8517" data-name="Path 8517" class="cls-13" d="M34.04,18.68l-3.884,4.963-2.4-3.637,6.161-2.187Z"/><path id="Path_8518" data-name="Path 8518" class="cls-13" d="M23.932,19.339l2.619,4.023,1.757-3.4-3.892-1.165Z"/><path id="Path_8519" data-name="Path 8519" class="cls-10" d="M34.826,19.034l-4.78,3.4-2.4-3.637,6.1-2.166Z"/><path id="Path_8520" data-name="Path 8520" class="cls-10" d="M23.771,19.339l3.238,3.372,1.7-4.01L23.97,17.465Z"/><path id="Path_8521" data-name="Path 8521" class="cls-2" d="M26.43,15.151a2.04,2.04,0,0,1,3.477-.187c.569.857-2.3,3.146-3.234,4.874s-1.893,1.131-2.461.276S24.827,17.571,26.43,15.151Z"/><path id="Path_8522" data-name="Path 8522" class="cls-12" d="M24.307,16.857a31.507,31.507,0,0,0,3.073,2.975L23.366,42.069c-.577,3.18-1.81,1.969-3.286.309L16.4,38.033C17.538,33.334,24.307,16.857,24.307,16.857Z"/></g><g id="Group_1755" data-name="Group 1755"><path id="Path_8523" data-name="Path 8523" class="cls-2" d="M82.8,21.458a3.881,3.881,0,0,0-4.581-1.172C77.4,20.819,81,23.531,82.1,25.221s2.4,1.48,3.227.947S84.721,23.905,82.8,21.458Z"/><rect id="Rectangle_2867" data-name="Rectangle 2867" class="cls-6" x="75.416" y="14.053" width="5.365" height="9.365" transform="translate(5.968 54.057) rotate(-39.581)"/><path id="Path_8524" data-name="Path 8524" class="cls-1" d="M118.272,148.947c0,1.148-11.209,1.745-44.722,1.745-28.385,0-36.486.186-36.486-.962s18.664-4.351,44.609-4.351S118.272,147.8,118.272,148.947Z"/><path id="Path_8525" data-name="Path 8525" class="cls-14" d="M59.417,141.786s-2.764,2.194-2.756.873c.092-12.064.649-27.421.445-35.938-.054-2.3-.642-37.333,6.7-38.265,6.7-.851,3.977-.059,5.845,3.972,1.565,3.369-3.716,32.3-4.932,35.111-.407.935-1.229,5.755-1.427,6.755C60.514,128.481,59.417,141.786,59.417,141.786Z"/><path id="Path_8526" data-name="Path 8526" class="cls-15" d="M58.546,51.092,60.518,62.48c1.3,2.879,1.3,4.127-.109,6.394-.811,1.3,17,1.117,16.355-.228-1.483-3.06,1.105-5.923,1.105-7.2L78.1,51.088Z"/><path id="Path_8527" data-name="Path 8527" class="cls-5" d="M84.711,46.715c.47.428,3.158,3.739,5.066,1.511l-.248.193A5.989,5.989,0,0,0,90.872,43.6L76.035,30.419A5.314,5.314,0,0,0,68.547,31h0c-1.908,2.228.1,4.247,2.329,6.15Z"/><path id="Path_8528" data-name="Path 8528" class="cls-2" d="M86.544,28.5c-.1-.609-1.638-4.345-1.638-4.345-2.088.924-1.913,1.675-1.913,1.675l1.639,18.548c.5,2.769,2.6,4.264,4.684,3.339h0c2.086-.928,1.759-3.676,1.259-6.447Z"/><path id="Path_8529" data-name="Path 8529" class="cls-16" d="M73.805,141.327s-2.561,2.427-2.669,1.111c-.969-12.027-.385-27.374-1.338-35.838-.254-2.284-8.731-36.83-1.493-38.4,6.594-1.437,7.387-.71,9.6,3.141,1.853,3.219.51,32.384-.454,35.288-.325.965-.722,5.839-.829,6.854C75.1,127.854,73.805,141.327,73.805,141.327Z"/><path id="Path_8530" data-name="Path 8530" class="cls-5" d="M70.5,143.058c.1,1.093-2.995,5.066-.108,4.811,7.129-.63,7.6-.729,7.15-1.686-1.063-2.26-2.266-1.165-2.879-4.62C74.305,139.506,70.406,141.968,70.5,143.058Z"/><path id="Path_8531" data-name="Path 8531" class="cls-5" d="M78.34,66.962c-1.235-5.231-.139-10.351.744-14.517,1.2-5.677,1.9-9.582,1.9-9.582,0-6.791-1.338-12.462-11.07-12.462S55.44,35.953,55.44,42.743c0,0,4.9,18.028,4.877,21.033-.066,8.6-6.185,19.179-4.651,42.959.25,3.87,17.261-.687,22.774-.925C78.958,105.787,81.405,79.957,78.34,66.962Z"/><path id="Path_8532" data-name="Path 8532" class="cls-5" d="M62.253,33.215a5.307,5.307,0,0,0-6.723,3.336l0,0L50.8,57.346a13.692,13.692,0,0,1,5.887,1.639A22.727,22.727,0,0,1,58.487,55L63.4,39.7C64.344,36.913,65.038,34.151,62.253,33.215Z"/><path id="Path_8533" data-name="Path 8533" class="cls-2" d="M55.509,79.8A3.882,3.882,0,0,1,53.5,84.075c-.937.294-.732-4.214-1.334-6.132s.392-2.8,1.325-3.089S54.849,76.758,55.509,79.8Z"/><path id="Path_8534" data-name="Path 8534" class="cls-2" d="M55.281,74.029a33.811,33.811,0,0,1-.889,3.663c-2.2-.6-2.364-.858-2.364-.858l-.956-19.092c.074-2.812,1.922-4.6,4.126-4.007h0c2.2.6,2.3,3.369,2.216,6.182Z"/><path id="Path_8535" data-name="Path 8535" class="cls-5" d="M55.978,143.222c0,1.1-3.431,4.782-.531,4.782,7.157,0,7.637-.057,7.269-1.05-.861-2.343-2.155-1.361-2.459-4.856C60.077,140.016,55.978,142.126,55.978,143.222Z"/><path id="Path_8536" data-name="Path 8536" class="cls-4" d="M63.128,31.721c-3.856,1.372,2.367,1.849,5.026,1.816s9.721-1.187,6.239-2.889c-5.842-2.854-.083-10.1-5.856-10.029C63.441,20.683,69.531,29.443,63.128,31.721Z"/><path id="Path_8537" data-name="Path 8537" class="cls-17" d="M75.084,11.24a2.72,2.72,0,1,1-2.79-2.648h.036a2.7,2.7,0,0,1,2.754,2.645Z"/><path id="Path_8538" data-name="Path 8538" class="cls-2" d="M61.262,18.084c.036,2.9,6.308,7.353,7.7,7.332a6.124,6.124,0,0,0,5.763-6.463c-.01-.166-.026-.331-.049-.5-.527-5.129-.789-11.1-4.717-11.055S61.193,12.629,61.262,18.084Z"/><path id="Path_8539" data-name="Path 8539" class="cls-17" d="M70.38,9.9c-6.069.078-5.655,10.769-10.55,10.833S57.875,7.554,65.567,6.043C70.371,5.1,70.38,9.9,70.38,9.9Z"/><path id="Path_8540" data-name="Path 8540" class="cls-17" d="M73.625,8.574c.018,1.455-1.761,2.655-3.979,2.683S65.619,10.128,65.6,8.676s1.764-2.657,3.978-2.684S73.6,7.121,73.625,8.574Z"/></g></g></svg>