<svg id="Layer_1" data-name="Layer 1" xmlns="http://www.w3.org/2000/svg" xmlns:xlink="http://www.w3.org/1999/xlink" width="131.7" height="139.444" viewBox="0 0 131.7 139.444"><defs><style>.cls-1{opacity:0.1;}.cls-2{fill:#ffbbb5;}.cls-3{fill:#0f3871;}.cls-4{fill:#002a42;}.cls-5{fill:#7b4842;}.cls-6{fill:#d33c70;}.cls-7{fill:#fff;}.cls-8{fill:#edaea9;}.cls-9{fill:#144994;}.cls-10{fill:#ffbc5e;}.cls-11{fill:#414042;}.cls-12{fill:url(#linear-gradient);}.cls-13{fill:url(#linear-gradient-2);}.cls-14{fill:url(#linear-gradient-3);}.cls-15{fill:#fa6961;}</style><linearGradient id="linear-gradient" x1="-112.503" y1="305.185" x2="-111.6" y2="305.122" gradientTransform="matrix(17.026, 0, 0, -65.059, 2114.046, 19969.43)" gradientUnits="userSpaceOnUse"><stop offset="0" stop-color="#e83e5d"/><stop offset="0.205" stop-color="#ef6478"/><stop offset="0.44" stop-color="#f58992"/><stop offset="0.658" stop-color="#faa4a5"/><stop offset="0.852" stop-color="#fdb5b0"/><stop offset="1" stop-color="#ffbbb5"/></linearGradient><linearGradient id="linear-gradient-2" x1="-91.82" y1="305.514" x2="-92.819" y2="305.518" gradientTransform="matrix(11.937, 0, 0, -63.59, 1424.912, 19519.14)" gradientUnits="userSpaceOnUse"><stop offset="0" stop-color="#ffbbb5"/><stop offset="0.185" stop-color="#feb7b2"/><stop offset="0.363" stop-color="#fcabaa"/><stop offset="0.539" stop-color="#f8989c"/><stop offset="0.713" stop-color="#f37c89"/><stop offset="0.883" stop-color="#ed5a70"/><stop offset="1" stop-color="#e83e5d"/></linearGradient><linearGradient id="linear-gradient-3" x1="-118.108" y1="302.451" x2="-117.991" y2="301.8" gradientTransform="matrix(16.592, 0, 0, -15.837, 2051.288, 4853.244)" gradientUnits="userSpaceOnUse"><stop offset="0" stop-color="#e83e5d"/><stop offset="0.018" stop-color="#e8405e"/><stop offset="0.694" stop-color="#f8989c"/><stop offset="1" stop-color="#ffbbb5"/></linearGradient></defs><title>phones-large</title><g id="Group_1909" data-name="Group 1909"><g id="Group_1762" data-name="Group 1762"><path id="Path_8597" data-name="Path 8597" class="cls-1" d="M70.753,137.913c0,1-9.766,1.521-38.964,1.521C7.059,139.434,0,139.6,0,138.6s16.262-3.79,38.866-3.79S70.753,136.912,70.753,137.913Z"/><path id="Path_8598" data-name="Path 8598" class="cls-2" d="M34.97,133.931c1.081-10.973,3.535-16.938,4.541-24.656.026-.2-1.363-8.7-1.231-9.391-2.783,1.138-3.586-6.528-6.263-7.783a12.259,12.259,0,0,0-1.506,5.68c-.039.929-.166,8.685-.083,9.609,1.16,13.154,2.121,25.482,2.121,25.482S34.851,135.131,34.97,133.931Z"/><path id="Path_8599" data-name="Path 8599" class="cls-2" d="M48.219,133.849c-.855-10.991-1.913-17.087-2.761-24.822-.022-.2-.29-7.281-.408-7.97,2.759,1.2,4.275-7.766,6.977-8.967A12.25,12.25,0,0,1,53.416,97.8c.02.931-.012,8.688-.113,9.609-1.428,13.132-2.639,25.442-2.639,25.442S48.314,135.055,48.219,133.849Z"/><path id="Path_8600" data-name="Path 8600" class="cls-3" d="M31.482,127.489H36.47c1.21-7.167,2.251-12.157,3.041-18.214.026-.2-1.363-8.7-1.231-9.391-2.783,1.138-3.586-6.528-6.263-7.783a12.259,12.259,0,0,0-1.506,5.68c-.039.929-.166,8.685-.083,9.609C31.115,115.175,31.093,122.666,31.482,127.489Z"/><path id="Path_8601" data-name="Path 8601" class="cls-3" d="M33.933,54.576c-.037.614-2.089-.268-4.911-.5l.3-.036a5.779,5.779,0,0,1-4.194-2.4l3.114-21.6c.235-2.824,2.407-5.547,5.229-5.31l3.408,2.813c2.823.236,5.792,3.391,5.556,6.213Z"/><path id="Path_8602" data-name="Path 8602" class="cls-2" d="M19.9,77.108a2.022,2.022,0,0,1-3.481-.171c-.478-.932,2.609-2.957,3.717-4.614s2-.951,2.477-.025S21.739,74.817,19.9,77.108Z"/><path id="Path_8603" data-name="Path 8603" class="cls-3" d="M22.178,75.6a32.026,32.026,0,0,0-2.756-3.34l6.26-22.167c.9-3.17,2-1.81,3.3.03l3.226,4.8C30.6,59.569,22.178,75.6,22.178,75.6Z"/><path id="Path_8604" data-name="Path 8604" class="cls-4" d="M36.878,27.54,33.47,24.727c-2.823-.237-4.994,2.486-5.229,5.31l-3.113,21.6s.03.047.085.121l-5.788,20.5a32.026,32.026,0,0,1,2.756,3.34S30.6,59.57,32.213,54.918l-.262-.39c1.206.247,1.96.419,1.982.05l8.5-20.822C42.678,30.932,39.7,27.777,36.878,27.54Z"/><path id="Path_8605" data-name="Path 8605" class="cls-3" d="M38.3,100.564c-.826-.279-7.776,4.1-7.863,3.629-.378-2.067-.814-33.646,1.525-41.512C33.724,56.77,42,60.247,42.839,64.223,45.917,78.769,38.34,100,38.3,100.564Z"/><path id="Path_8606" data-name="Path 8606" class="cls-5" d="M35.775,131.736c.023,1,1.851,4.325-1.057,4.392-7.177.166-11.322.075-10.736-.711,1.632-2.179,7.265-.691,7.5-3.885C31.619,129.62,35.751,130.734,35.775,131.736Z"/><path id="Path_8607" data-name="Path 8607" class="cls-3" d="M46.377,127.489H51.2c.488-4.812,1.259-12.3,2.106-20.079.1-.921.132-8.677.113-9.609a12.25,12.25,0,0,0-1.389-5.708c-2.7,1.2-4.218,10.163-6.977,8.967.118.689.386,7.77.408,7.97C46.127,115.131,45.649,120.222,46.377,127.489Z"/><path id="Path_8608" data-name="Path 8608" class="cls-5" d="M47.426,132.48c-.032,1.044-3.409,4.456-.646,4.541,6.82.21,7.278.17,6.958-.786-.751-2.258-2.013-1.36-2.2-4.7C51.426,129.546,47.459,131.436,47.426,132.48Z"/><path id="Path_8609" data-name="Path 8609" class="cls-3" d="M52.915,100.061c-.842-.226-7.586,3.952-7.7,3.485-.507-2.041-3.418-30.049-6.65-30.331-6.144-.537,13.39-13.341,14.477-9.428C57.022,78.113,52.916,99.5,52.915,100.061Z"/><path id="Path_8610" data-name="Path 8610" class="cls-3" d="M53.038,63.787c-.536-1.931-5.565.21-9.784,2.938-.109-.852-.243-1.689-.415-2.5-.84-3.976-9.115-7.453-10.874-1.542-2.339,7.866-1.9,39.445-1.525,41.512.087.473,7.037-3.908,7.863-3.629A139.185,139.185,0,0,0,42.35,84.487c1.484,8.137,2.57,17.889,2.862,19.061.117.466,6.862-3.711,7.7-3.485C52.915,99.494,57.021,78.114,53.038,63.787Z"/><path id="Path_8611" data-name="Path 8611" class="cls-4" d="M42.329,84.6a.794.794,0,0,1-.05-.078c-1.71,2.846-4.149,11.424-4.807,15.362-.806,4.818,2.039,6.036,1.171,11.538-.613,3.881-2.842,12.177-3.436,16.065H36.47c1.21-7.167,2.251-12.157,3.04-18.214.022-.172-1.011-6.539-1.208-8.712A139.341,139.341,0,0,0,42.329,84.6Z"/><path id="Path_8612" data-name="Path 8612" class="cls-4" d="M53.381,96.966c.95-6.531,2.765-22-.343-33.179-.536-1.931-5.565.21-9.784,2.938-.108-.852-.243-1.689-.415-2.5-.84-3.976-9.115-7.453-10.874-1.542a53.312,53.312,0,0,0-1.307,9.952c11.287,3.692,21.825-1.408,21.705,7.687-.057,4.291-1.534,24.363-1.6,28.908-.1,6.235.4,12.492-1.933,18.262H51.2c.488-4.812,1.259-12.3,2.106-20.079.1-.921.132-8.677.113-9.609C53.411,97.509,53.4,97.232,53.381,96.966Z"/><path id="Path_8613" data-name="Path 8613" class="cls-6" d="M31.8,61.973l.187-.2c-.355,7.756.891,7.648,8.922,8.016s13.129-1.8,13.486-9.555l-8.176.5Z"/><g id="Group_1760" data-name="Group 1760"><path id="Path_8614" data-name="Path 8614" class="cls-7" d="M36.134,21.7V70.8c3.574.425,8.022.829,11.914.944V21.423A35.941,35.941,0,0,0,36.134,21.7Z"/></g><path id="Path_8615" data-name="Path 8615" class="cls-8" d="M36.124,22.143c-1.4,2.609,3.891,1.221,6.186,1.325s7.234.235,5.252-1.98c-.728-.813-2.847-3.366-1.811-6.039,1.545-3.991-7.6-5.7-7.814-2.857C37.768,14.854,38.407,17.879,36.124,22.143Z"/><g id="Group_1761" data-name="Group 1761"><path id="Path_8616" data-name="Path 8616" class="cls-3" d="M55.015,47.805c2.206-20.147-.138-22.839-.138-22.839a11.473,11.473,0,0,0-6.537-3.494c-3.426-.7-5.056,3.328-5.4,7.575A29.322,29.322,0,0,1,41.38,35.2a34.29,34.29,0,0,0-1.091,9.052,93.563,93.563,0,0,0,.194,10.538,37.565,37.565,0,0,1,.259,8.384A69.279,69.279,0,0,1,38.707,73c6.164.634,14.332,1.064,17.571.24C54.866,63.809,54.394,53.468,55.015,47.805Z"/><path id="Path_8617" data-name="Path 8617" class="cls-3" d="M39.59,60.972c-.107-6.018-2.128-11.914-1.81-17.953.127-2.435-.486-5.066.228-7.42a20.475,20.475,0,0,0,.464-6.62c-.151-3.768-1.445-3.867-2.282-7.284l-.387.061c-1.461.242-5.664,2.311-6.367,5.03-.022.1-1.1,43.291-.317,44.953.989.261,4.661.722,8.371,1.131A40.867,40.867,0,0,0,39.59,60.972Z"/></g><path id="Path_8618" data-name="Path 8618" class="cls-9" d="M40.5,50.29c-.3.539-1.776-1.134-4.227-2.551l.289.1a5.782,5.782,0,0,1-2.772-3.957l12.03-18.211c1.417-2.453,4.542-3.99,6.994-2.573l1.883,4c2.783,2.87,1.778,8.533.36,10.985Z"/><path id="Path_8619" data-name="Path 8619" class="cls-2" d="M46.59,10.5c.262,2.192.14,5.668-3.357,7.23-4.078,1.818-8,.146-7.852-1.713.3-3.756-.02-11.766,2.805-12.1a7.149,7.149,0,0,1,8.305,5.766A7.007,7.007,0,0,1,46.59,10.5Z"/><path id="Path_8620" data-name="Path 8620" class="cls-10" d="M35.6,7.228c.742-6.113,5.55-4.958,8.258-4.437,2.155.418,5.584,1.832,4.065,7.4a17.142,17.142,0,0,1-1.264,3.616c-1.132.185.756-4.208-1.135-4.933-2.047-.786-4.264-.461-6.445-.534C36.25,8.244,35.631,7.907,35.6,7.228Z"/><path id="Path_8621" data-name="Path 8621" class="cls-10" d="M43.854,2.79c1.827.354,4.573,1.427,4.436,5.144-.8.249-1.089.965-1.913,1.132-.292.06-2.345-.175-2.684-.19a15.509,15.509,0,0,0-4.618-.539c-2.824-.1-3.853-.2-3.888-.883C33.9-1.719,41.146,2.27,43.854,2.79Z"/><rect id="Rectangle_2870" data-name="Rectangle 2870" class="cls-11" x="39.764" y="14.03" width="8.159" height="4.674" transform="translate(2.634 38.546) rotate(-48.759)"/><path id="Path_8622" data-name="Path 8622" class="cls-2" d="M41.361,19.281a2.021,2.021,0,0,1,3.481-.16c.564.881-2.316,3.191-3.262,4.947s-1.9,1.136-2.463.26S39.745,21.737,41.361,19.281Z"/><path id="Path_8623" data-name="Path 8623" class="cls-9" d="M38.065,22.634a31.735,31.735,0,0,0,3.579,2.438l.186,23.033c.024,3.294-1.415,2.3-3.178.9l-4.438-3.7C34.466,40.376,38.065,22.634,38.065,22.634Z"/></g><g id="Group_1763" data-name="Group 1763"><rect id="Rectangle_2871" data-name="Rectangle 2871" class="cls-11" x="92.05" y="9.302" width="4.685" height="8.178" transform="translate(18.178 70.668) rotate(-45)"/><path id="Path_8624" data-name="Path 8624" class="cls-1" d="M131.7,122.89c0,1-9.788,1.525-39.053,1.525-24.786,0-31.862.162-31.862-.841s16.3-3.8,38.955-3.8S131.7,121.887,131.7,122.89Z"/><path id="Path_8625" data-name="Path 8625" class="cls-12" d="M97.111,118.155s-2.142,1.489-2.115.534c.42-15-1.926-18.011-1.851-23.346.044-3.087,1.027-5.926.789-8.568C93.862,85.953,90,78.962,89.05,76.5a145.285,145.285,0,0,1-4.631-14.773c-.9-3.193,2.433-5.654,4.052-6.481,4.309-2.212,6.591-1.6,7.967,1.935,3.864,9.937,4.855,26.052,4.855,29.274C101.292,92.909,97.111,118.155,97.111,118.155Z"/><path id="Path_8626" data-name="Path 8626" class="cls-13" d="M80.392,117.055s-2.346,1.862-2.34.741c.078-10.239.551-23.27.378-30.5-.045-1.949-3.468-31.679,2.767-32.47,5.681-.722,6.3-.051,7.883,3.371,1.327,2.858-1.983,27.412-3.016,29.793-.346.793-1.044,4.883-1.211,5.732C82.492,105.765,80.392,117.055,80.392,117.055Z"/><path id="Path_8627" data-name="Path 8627" class="cls-14" d="M79.652,40.1l1.672,9.663c1.105,2.443,1.105,3.5-.091,5.426-.688,1.1,14.427.947,13.878-.194-1.257-2.6.938-5.026.938-6.107l.195-8.788Z"/><path id="Path_8628" data-name="Path 8628" class="cls-15" d="M100.437,37.813c.4.193,2.793,1.892,3.856-.038l-.152.185a4.2,4.2,0,0,0,.3-3.588L91.93,28.482a4.263,4.263,0,0,0-5.308,1.983h0c-1.065,1.932.664,2.888,2.531,3.721Z"/><path id="Path_8629" data-name="Path 8629" class="cls-2" d="M100.66,15.446a3.3,3.3,0,0,0-3.718-1.512c-.753.354,1.966,3.049,2.693,4.6s1.851,1.52,2.6,1.167S101.993,17.725,100.66,15.446Z"/><path id="Path_8630" data-name="Path 8630" class="cls-2" d="M103,21.8c-.012-.522-.879-3.84-.879-3.84-1.861.538-1.8,1.188-1.8,1.188l-.754,15.783c.1,2.386,1.7,3.885,3.555,3.345h0c1.86-.539,1.9-2.888,1.8-5.275Z"/><path id="Path_8631" data-name="Path 8631" class="cls-15" d="M96.444,51.226c-.127-1.392,2.245-19.281,2.245-19.281,0-5.762-1.135-9.406-9.393-9.406s-12.28,4.711-12.28,10.472c0,0,2.4,15.3,2.384,17.848-.056,7.294-7.389,17.615-2.194,36.453.878,3.172,19.91-7.6,24.587-7.8C102.235,79.492,97.407,61.678,96.444,51.226Z"/><path id="Path_8632" data-name="Path 8632" class="cls-15" d="M77.855,43.41c-.159.518-.675,4.1-3.034,3.306l.267.029a5.079,5.079,0,0,1-3.076-2.927l5.082-16.057a4.5,4.5,0,0,1,5.7-2.839l.011,0h0c2.359.794,1.771,3.138.978,5.5Z"/><path id="Path_8633" data-name="Path 8633" class="cls-2" d="M77.907,62.252a2.54,2.54,0,0,0-3.036-1.681c-.648.333,1.5,3.181,2.031,4.777s1.476,1.615,2.122,1.286S78.914,64.615,77.907,62.252Z"/><path id="Path_8634" data-name="Path 8634" class="cls-2" d="M74.3,58.675a28.511,28.511,0,0,0,.863,3.079c1.849-.575,1.979-.8,1.979-.8l.24-16.221c-.148-2.384-1.769-3.848-3.62-3.275h0c-1.848.575-1.845,2.926-1.694,5.31Z"/><path id="Path_8635" data-name="Path 8635" class="cls-8" d="M83.084,23.467c-3.115,1.065,1.882,1.513,4.024,1.513s7.827-.857,5.046-2.26c-4.669-2.357.036-8.124-4.609-8.124C83.445,14.6,88.255,21.7,83.084,23.467Z"/><path id="Path_8636" data-name="Path 8636" class="cls-3" d="M94.7,7.769a2.681,2.681,0,1,1-2.681-2.684A2.681,2.681,0,0,1,94.7,7.769Z"/><path id="Path_8637" data-name="Path 8637" class="cls-2" d="M81.72,12.484c0,2.331,5,5.974,6.121,5.974a4.924,4.924,0,0,0,4.7-5.14c-.006-.133-.017-.266-.034-.4-.371-4.13-.522-8.934-3.681-8.934S81.72,8.1,81.72,12.484Z"/><path id="Path_8638" data-name="Path 8638" class="cls-3" d="M94.127,118.273c0,.931-1.627,4.059,1.075,4.059,6.667,0,10.516-.175,9.956-.891-1.562-1.99-6.762-.485-7.047-3.449C97.942,116.222,94.127,117.344,94.127,118.273Z"/><path id="Path_8639" data-name="Path 8639" class="cls-3" d="M77.472,118.273c0,.931-2.91,4.059-.45,4.059,6.073,0,6.48-.049,6.168-.891-.73-1.99-1.827-1.155-2.087-4.119C80.951,115.554,77.472,117.344,77.472,118.273Z"/><path id="Path_8640" data-name="Path 8640" class="cls-3" d="M86.293,19.478a6.2,6.2,0,1,1-6.2-6.2,6.2,6.2,0,0,1,6.2,6.2Z"/><path id="Path_8641" data-name="Path 8641" class="cls-3" d="M84.064,12.525A4.721,4.721,0,1,1,79.343,7.8a4.721,4.721,0,0,1,4.721,4.721Z"/><path id="Path_8642" data-name="Path 8642" class="cls-3" d="M84.419,6.305a3.727,3.727,0,1,1-3.728-3.726h0A3.724,3.724,0,0,1,84.419,6.3Z"/><path id="Path_8643" data-name="Path 8643" class="cls-3" d="M89.33,3.624A3.624,3.624,0,1,1,85.706,0h0A3.622,3.622,0,0,1,89.33,3.622Z"/><path id="Path_8644" data-name="Path 8644" class="cls-3" d="M93.639,3.624A3.136,3.136,0,1,1,90.5.488h0A3.138,3.138,0,0,1,93.639,3.624Z"/></g></g></svg>