<svg id="Layer_1" data-name="Layer 1" xmlns="http://www.w3.org/2000/svg" width="119.347" height="149.56" viewBox="0 0 119.347 149.56"><defs><style>.cls-1{fill:#0f3871;}.cls-2{fill:#414042;}.cls-3{opacity:0.1;}.cls-4{fill:#25b6f5;}.cls-5{fill:#edaea9;}.cls-6{fill:#4134ad;}.cls-7{fill:#ffbbb5;}.cls-8{fill:#fff;}.cls-9{fill:#676767;}.cls-10{fill:#7b4842;}.cls-11{fill:#002a42;}.cls-12{fill:#ede5dd;}</style></defs><title>phones-medium</title><g id="Group_1909" data-name="Group 1909"><g id="Group_1758" data-name="Group 1758"><path id="Path_8541" data-name="Path 8541" class="cls-1" d="M39.178,16.422c0,10.2,3.5,4.168,4.481,12.467.5,4.157,3.45.02,3.181-7.024-.143-3.752-3.229-7.784-3.229-11.323,0-10.2,8.912-6.425,6.194-9.469C45.949-3.25,39.178,6.223,39.178,16.422Z"/><rect id="Rectangle_2868" data-name="Rectangle 2868" class="cls-2" x="34.672" y="8.613" width="8.503" height="4.871" transform="translate(4.956 33.033) rotate(-48.759)"/><path id="Path_8542" data-name="Path 8542" class="cls-3" d="M73.734,129.011c0,1.043-10.177,1.585-40.606,1.585C7.356,130.6,0,130.765,0,129.722s16.947-3.95,40.5-3.95S73.734,127.968,73.734,129.011Z"/><path id="Path_8543" data-name="Path 8543" class="cls-4" d="M57.337,125.17c0,1,2.62,4.344.4,4.344-5.468,0-5.834-.052-5.552-.955.658-2.125,1.645-1.233,1.878-4.4C54.205,122.263,57.337,124.179,57.337,125.17Z"/><path id="Path_8544" data-name="Path 8544" class="cls-5" d="M54.239,123.933a1.5,1.5,0,0,0,1.422,1.571h0a1.5,1.5,0,0,0,1.42-1.571v-5.6a1.5,1.5,0,0,0-1.42-1.573h0a1.5,1.5,0,0,0-1.422,1.573Z"/><path id="Path_8545" data-name="Path 8545" class="cls-5" d="M37.241,122.573c.525-.119,2.24,1.116,2.65,1.465a1.3,1.3,0,0,1,.386,1.09,2.6,2.6,0,0,1-1.3,1.927,6.428,6.428,0,0,1-2.279.749,25.841,25.841,0,0,1-3.432.377,1.336,1.336,0,0,1-.76-.121c-1.639-.993.868-2.1,1.541-2.466a14.343,14.343,0,0,0,2.3-1.353C37.082,123.631,36.56,122.728,37.241,122.573Z"/><path id="Path_8546" data-name="Path 8546" class="cls-5" d="M36.867,123.933a1.5,1.5,0,0,0,1.421,1.571h0a1.5,1.5,0,0,0,1.42-1.571v-5.6a1.5,1.5,0,0,0-1.42-1.573h0a1.5,1.5,0,0,0-1.421,1.573Z"/><g id="Group_1756" data-name="Group 1756"><path id="Path_8547" data-name="Path 8547" class="cls-6" d="M46.917,57.5c-4.609-2.361-7.051-1.707-8.52,2.07-4.132,10.63-5.19,27.864-5.19,31.307,0,6.908,3.8,29.686,3.8,29.686s3.7,1.355,3.671.326c-.449-16.037,1.315-14.8,1.234-20.5-.044-3.305-1.1-6.341-.844-9.166.077-.881,4.211-8.356,5.225-10.989a156.473,156.473,0,0,0,4.954-15.8C52.213,61.022,48.649,58.388,46.917,57.5Z"/></g><g id="Group_1757" data-name="Group 1757"><path id="Path_8548" data-name="Path 8548" class="cls-6" d="M46.916,57.5q-.466-.235-.9-.432a12.054,12.054,0,0,1,.609,4.7,39.164,39.164,0,0,1-.958,6.119c0-.021,0-.025,0,0h0c-.066.267-.1,8.452-1.462,11.375-1.328,2.849-5.013,10.6-4.757,12.917.165,1.507.425,7.5.443,9.017-.02,2.7-.659,14.406-.586,19.807,1.046.28,1.4.491,1.377-.108-.449-16.037,1.315-14.8,1.234-20.5-.044-3.305-1.1-6.341-.844-9.166.077-.881,4.211-8.356,5.224-10.989a156.473,156.473,0,0,0,4.954-15.8C52.213,61.018,48.649,58.388,46.916,57.5Z"/></g><path id="Path_8549" data-name="Path 8549" class="cls-1" d="M54.238,56.764l-.175-.2c0,7.293-1.226,7.14-9.163,7.14s-6.513-.561-6.513-7.855l1.685-.875Z"/><path id="Path_8550" data-name="Path 8550" class="cls-6" d="M54.036,121.667s3.438.36,3.429-.842c-.081-10.95-.521-22.592-.339-30.319.052-2.086,3.71-33.877-2.956-34.723-6.076-.773-6.736-.054-8.431,3.6-1.42,3.056,2.12,29.317,3.224,31.861.37.849,1.12,5.223,1.3,6.127C52.784,110.256,54.036,121.667,54.036,121.667Z"/><path id="Path_8551" data-name="Path 8551" class="cls-6" d="M57.126,90.512c.052-2.086,3.711-33.877-2.956-34.723-4.762-.606-6.2-.287-7.411,1.635-4.5-2.263-6.911-1.585-8.362,2.148a53.122,53.122,0,0,0-1.914,6.151c3.255,4.05,14.477-1.452,18.446,1.115,3.519,2.272.655,20.953.8,24.422.16,3.9.46,28.011.919,27.888s.821-.353.817-.735C57.384,107.466,56.944,98.238,57.126,90.512Z"/><path id="Path_8552" data-name="Path 8552" class="cls-1" d="M27.247,34.705c-.522.25-3.723,2.427-4.8-.009l.17.233a5.424,5.424,0,0,1,.089-4.537l16.337-7.581A4.817,4.817,0,0,1,45.4,25.268h0c1.078,2.433-1.2,3.661-3.631,4.737Z"/><path id="Path_8553" data-name="Path 8553" class="cls-7" d="M32.006,11.773a3.525,3.525,0,0,1,4.243-.641c.691.559-2.808,2.677-3.953,4.1s-2.311,1.116-3,.56S30.049,13.8,32.006,11.773Z"/><path id="Path_8554" data-name="Path 8554" class="cls-1" d="M28.432,15.566a21.11,21.11,0,0,1,.986-2.218,32.43,32.43,0,0,0,3.747,1.782L28.246,32.294c-.706,2.455-2.74,3.612-4.537,2.581h0c-1.8-1.027-1.25-3.479-.546-5.931Z"/><path id="Path_8555" data-name="Path 8555" class="cls-8" d="M43.574,32.7c.18,3.189-3.721,22.762,2.689,20.722,4.578-1.457,6.465-14.764,8.437-18.378a9.871,9.871,0,0,1,3.883-3.786c-.529-5.6-4.826-10-13.076-10a21.793,21.793,0,0,0-2.9.175.634.634,0,0,1-.276.433,6.186,6.186,0,0,0-.827.688A28.3,28.3,0,0,1,43.574,32.7Z"/><path id="Path_8556" data-name="Path 8556" class="cls-1" d="M58.642,32.453a10.393,10.393,0,0,0-6.823-10.1c-1.42,1.523-3.8,3.9-4.33,5.862-.944,3.453.084,3.286-.164,6.866,0,.006-1.826,17.23-1.825,17.326,0,.786-1.283-16.511-1.757-19.518-.271-1.721,1.615-3.918.725-5.437-.363-.617-1.605-4.064-2.093-4.585a.548.548,0,0,1-.263-.178,4.652,4.652,0,0,1-.651-1.054c-4.979,1.116-5.389,4.639-5.389,9.677,0,0,4.62,8.9,1.269,28.894-.93,5.56,21.775,3.586,21.293.9C56.879,51.361,58.642,32.453,58.642,32.453Z"/><path id="Path_8557" data-name="Path 8557" class="cls-7" d="M57.291,59.218l-1.543,4.007a3.6,3.6,0,0,1-2.973,2.492c2.455,1.03,3.97,1.744,5-.707l2.89-5.423Q58.978,59.437,57.291,59.218Z"/><path id="Path_8558" data-name="Path 8558" class="cls-1" d="M65.766,41.878c.3.5,2.945,3.28.633,4.6l.215-.192a7.824,7.824,0,0,1-4.484,1.036L52.879,31.189a4.823,4.823,0,0,1,1.792-6.578h0c2.312-1.317,3.767.818,5.088,3.129Z"/><path id="Path_8559" data-name="Path 8559" class="cls-1" d="M57.061,59.83l2.987-7.759s1.06-2.752,1.176-3.089c.463-1.343.461-2.443-1.326-5.56,0,0,.481-1.5,2.934-.469L64.58,42.6c3.221.373,3.572,2.968,1.9,6.088L60.3,60.276Z"/><path id="Path_8560" data-name="Path 8560" class="cls-5" d="M52.156,22.25c3.327,1.138-2.016,1.613-4.3,1.613s-8.371-.916-5.4-2.414c4.991-2.518-.039-8.688,4.928-8.688C51.765,12.76,46.623,20.357,52.156,22.25Z"/><path id="Path_8561" data-name="Path 8561" class="cls-7" d="M53.609,10.5c0,2.49-5.342,6.387-6.547,6.387-1.225,0-5.309-4.156-4.985-5.922.789-4.361.556-9.552,3.935-9.552S53.609,5.81,53.609,10.5Z"/><path id="Path_8562" data-name="Path 8562" class="cls-1" d="M60.4,16.422c0,10.2-4.431,6.039-5.413,14.338-.5,4.156-8.827-1.851-8.557-8.9.144-3.752,5.8-7.784,5.8-11.323,0-10.2-6.1-6.425-3.388-9.469C52.7-3.25,60.4,6.223,60.4,16.422Z"/><path id="Path_8563" data-name="Path 8563" class="cls-1" d="M40.78,5.2c-.147.891,9.7,1.87,11.843,1.87s-1.4-3.458-1.4-4.362S48.958.053,46.816.053A6.084,6.084,0,0,0,40.78,5.2Z"/><path id="Path_8564" data-name="Path 8564" class="cls-4" d="M40.449,128.543a4.468,4.468,0,0,0,.014,1.178h-.489c-.228-.173-.383-1.371-1.212-1.4-2-.059-3.362,1.4-5.508,1.4H26.962c-.958,0-.384-.788.936-1.433,1.222-.6,3.5-1.368,3.967-1.617.9-.481-.088,1.02,1.21,1.048a15.231,15.231,0,0,0,5.168-1.846c2.043-1.126,1.337-2.018,1.834-1.963.624.068,1.261,1.706,1.022,2.637A15.709,15.709,0,0,0,40.449,128.543Z"/></g><g id="Group_1759" data-name="Group 1759"><rect id="Rectangle_2869" data-name="Rectangle 2869" class="cls-2" x="77.853" y="20.331" width="4.832" height="8.433" transform="translate(1.044 52.28) rotate(-36.297)"/><path id="Path_8565" data-name="Path 8565" class="cls-3" d="M119.347,147.978c0,1.034-10.094,1.572-40.274,1.572-25.561,0-32.858.168-32.858-.867s16.808-3.918,40.173-3.918S119.347,146.944,119.347,147.978Z"/><path id="Path_8566" data-name="Path 8566" class="cls-7" d="M78.688,144.9c-1.006-10.955-3.287-16.914-4.223-24.617-.025-.2,1.268-8.69,1.144-9.377,2.589,1.138,3.335-6.517,5.825-7.769a12.922,12.922,0,0,1,1.4,5.669c.036.928.154,8.672.077,9.594-1.078,13.135-1.973,25.444-1.973,25.444S78.8,146.1,78.688,144.9Z"/><path id="Path_8567" data-name="Path 8567" class="cls-7" d="M66.363,144.821c.8-10.974,1.78-17.058,2.568-24.782.021-.2.27-7.27.379-7.959-2.565,1.193-3.975-7.753-6.49-8.951a12.96,12.96,0,0,0-1.292,5.7c-.018.929.011,8.673.106,9.594,1.329,13.107,2.458,25.393,2.458,25.393S66.275,146.021,66.363,144.821Z"/><path id="Path_8568" data-name="Path 8568" class="cls-1" d="M81.931,138.467H77.292c-1.125-7.157-2.094-12.137-2.827-18.185-.025-.2,1.268-8.69,1.144-9.377,2.589,1.138,3.335-6.517,5.825-7.769a12.922,12.922,0,0,1,1.4,5.669c.036.928.154,8.672.077,9.594C82.274,126.172,82.294,133.653,81.931,138.467Z"/><path id="Path_8569" data-name="Path 8569" class="cls-9" d="M92.878,55.312c.513.337.942-1.721,2.314-3.97l-.2.2a5.359,5.359,0,0,0,.4-4.559L84.192,36.4c-2.395-1.5-13.636-1.429-15.009.821l.369,4.219a6.38,6.38,0,0,0,1.908,7.846Z"/><path id="Path_8570" data-name="Path 8570" class="cls-7" d="M85.408,26a1.819,1.819,0,0,0-3.241.069c-.473.916,2.332,3.027,3.309,4.714s1.827,1.007,2.3.1S87.049,28.344,85.408,26Z"/><path id="Path_8571" data-name="Path 8571" class="cls-9" d="M87.486,27.579a31.489,31.489,0,0,1-2.668,3.253l5.118,22.3c.734,3.189,1.8,1.866,3.07.068l3.151-4.692C94.8,43.822,87.486,27.579,87.486,27.579Z"/><path id="Path_8572" data-name="Path 8572" class="cls-1" d="M75.587,111.584c.768-.278,7.232,4.1,7.314,3.623.351-2.064.757-33.591-1.418-41.445-1.636-5.9-9.333-2.43-10.114,1.539C68.505,89.824,75.551,111.021,75.587,111.584Z"/><path id="Path_8573" data-name="Path 8573" class="cls-10" d="M77.938,142.707c-.021,1-1.722,4.319.983,4.385,6.676.167,10.532.076,9.987-.71-1.518-2.175-6.757-.69-6.973-3.879C81.8,140.6,77.959,141.707,77.938,142.707Z"/><path id="Path_8574" data-name="Path 8574" class="cls-1" d="M68.077,138.468H63.593c-.453-4.8-1.171-12.28-1.958-20.046-.095-.921-.124-8.665-.106-9.594a12.96,12.96,0,0,1,1.292-5.7c2.514,1.2,3.925,10.144,6.49,8.951-.11.689-.358,7.759-.379,7.959C68.309,126.129,68.754,131.212,68.077,138.468Z"/><path id="Path_8575" data-name="Path 8575" class="cls-10" d="M67.1,143.449c.03,1.044,3.171,4.448.6,4.534-6.343.211-6.769.17-6.472-.786.7-2.253,1.872-1.355,2.048-4.69C63.38,140.52,67.071,142.407,67.1,143.449Z"/><path id="Path_8576" data-name="Path 8576" class="cls-1" d="M62,111.082c.782-.227,7.057,3.947,7.165,3.48.472-2.038,3.179-30,6.186-30.284,5.714-.538-12.455-13.319-13.466-9.412C58.177,89.171,62,110.518,62,111.082Z"/><path id="Path_8577" data-name="Path 8577" class="cls-1" d="M61.882,74.867c.5-1.928,5.176-.394,9.1,2.329a18.859,18.859,0,0,1,.386-1.9c.781-3.969,8.478-7.441,10.114-1.539,2.175,7.854,1.769,39.381,1.418,41.445-.081.474-6.545-3.9-7.314-3.623a147.2,147.2,0,0,1-3.764-16.053c-1.381,8.124-2.391,17.861-2.662,19.032-.108.467-6.382-3.707-7.165-3.48C62,110.518,58.177,89.172,61.882,74.867Z"/><path id="Path_8578" data-name="Path 8578" class="cls-11" d="M71.842,95.648a.768.768,0,0,0,.047-.078c1.59,2.842,3.859,11.407,4.472,15.339.748,4.808-1.9,6.024-1.09,11.518.57,3.876,2.643,12.158,3.2,16.04H77.3c-1.125-7.156-2.094-12.137-2.827-18.185-.021-.171.94-6.529,1.123-8.7A147.466,147.466,0,0,1,71.842,95.648Z"/><path id="Path_8579" data-name="Path 8579" class="cls-11" d="M61.562,107.992c-.883-6.518-2.572-21.966.319-33.125.5-1.928,5.176-.394,9.1,2.329a18.859,18.859,0,0,1,.386-1.9c.781-3.969,8.478-7.441,10.114-1.539.562,2.032.574.9.837,5.189-10.5,3.685-19.063-2.1-19.962,6.94-.834,8.385,1.1,18.189,1.643,34.344.208,6.222-.37,12.472,1.8,18.233H63.592c-.453-4.8-1.171-12.28-1.958-20.046-.095-.921-.124-8.665-.106-9.594C61.535,108.536,61.547,108.259,61.562,107.992Z"/><path id="Path_8580" data-name="Path 8580" class="cls-12" d="M85.039,37.923c-.653-2.715-5.769-4.781-7.127-5.023-.118-.021-.241-.04-.361-.061h0a31.061,31.061,0,0,0-11.028-.272v.012c-.091.012-.179.016-.273.036-2.4.53-5.748,1.6-7.288,3.489,0,0-2.179,2.687-.127,22.8.578,5.655,1.785,4.873,1.816,17.05,3.012.822,20.146-.13,21.065-.391C83.18,50.623,85.06,38.023,85.039,37.923Z"/><path id="Path_8581" data-name="Path 8581" class="cls-12" d="M69.439,73.294c-2.937-.476-4.4-3.372-5.21-5.994-1.712-5.53-5.087-13.065-.7-17.632,3.981-4.143-.188-8.049-.256-13.793-1.7.607-3.354-.948-4.312.232,0,0-2.179,2.687-.127,22.8.578,5.655,1.785,4.873,1.816,17.05,2.552.7,15.244.119,19.617-.232C76.629,75.241,73.05,73.88,69.439,73.294Z"/><path id="Path_8582" data-name="Path 8582" class="cls-9" d="M83.16,75.859c0,.824-.065,1.492-.889,1.492H61.237c-.824,0-.889-.668-.889-1.492h0c0-.823.064-1.492.889-1.492H82.271C83.094,74.367,83.16,75.036,83.16,75.859Z"/><path id="Path_8583" data-name="Path 8583" class="cls-12" d="M47.464,54.438c-.453.415,1.437,1.337,3.277,3.221l-.149-.24a12.285,12.285,0,0,0,4.32,2.717L67.984,44.259a5.1,5.1,0,0,0,.431-7.12l-1.769-1.887c-1.842-1.885-6.029-2.034-8.074-.083Z"/><path id="Path_8584" data-name="Path 8584" class="cls-7" d="M61.386,79.923A1.819,1.819,0,0,0,64.494,79C64.71,78,61.448,76.7,60.059,75.325s-2.028-.489-2.246.514S59.187,78.1,61.386,79.923Z"/><path id="Path_8585" data-name="Path 8585" class="cls-12" d="M58.968,78.95a31.136,31.136,0,0,1,1.716-3.842L53.489,54.94c-1.549-2.883-5.851-1.325-6.6.743l-1.8,5.356C47.632,65.206,58.968,78.95,58.968,78.95Z"/><path id="Path_8586" data-name="Path 8586" class="cls-5" d="M77.614,32.123c1.3,2.6-3.62,1.781-5.754,1.885s-7.814.255-5.97-1.957c.677-.811,3.733-2.779,2.768-5.447-1.436-3.985,7.069-5.694,7.269-2.852C76.085,26.011,75.489,27.866,77.614,32.123Z"/><path id="Path_8587" data-name="Path 8587" class="cls-7" d="M67.88,21.665c-.244,2.189-.132,5.659,3.122,7.219,3.793,1.815,7.438.145,7.3-1.71-.279-3.75.018-11.747-2.609-12.085C71.2,14.512,68.339,17.548,67.88,21.665Z"/><path id="Path_8588" data-name="Path 8588" class="cls-1" d="M66.382,17.543a14.647,14.647,0,0,0,1.1,4.71c1.071,0,1.207-4.347,4.6-3.925,7.8.971,7.119-3.648,7.655-4.891.1-.235-1.639,1.211-5.876-1.15C70.416,10.368,66.382,15.424,66.382,17.543Z"/><path id="Path_8589" data-name="Path 8589" class="cls-12" d="M65.2,33.481,71.126,38.3l2.412-3.814L65.2,32.681Z"/><path id="Path_8590" data-name="Path 8590" class="cls-12" d="M78.213,33.481,75.3,37.7l-2.412-3.211,5.322-1.809Z"/><path id="Path_8591" data-name="Path 8591" class="cls-12" d="M65.2,33.481,71.126,37.1l2.412-3.815L65.2,31.475Z"/><path id="Path_8592" data-name="Path 8592" class="cls-12" d="M78.213,32.878,74.7,37.1l-2.412-3.815,5.925-1.809Z"/><path id="Path_8593" data-name="Path 8593" class="cls-12" d="M73.343,41.73a.8.8,0,1,0,.8-.8h0A.8.8,0,0,0,73.343,41.73Z"/><path id="Path_8594" data-name="Path 8594" class="cls-12" d="M74.14,49.622a.8.8,0,1,0,.8-.8h0A.8.8,0,0,0,74.14,49.622Z"/><path id="Path_8595" data-name="Path 8595" class="cls-12" d="M74.14,58.028a.8.8,0,1,0,.8-.8h0A.8.8,0,0,0,74.14,58.028Z"/><path id="Path_8596" data-name="Path 8596" class="cls-12" d="M74.14,67.048a.8.8,0,1,0,.8-.8h0A.8.8,0,0,0,74.14,67.048Z"/></g></g></svg>