<svg id="Layer_1" data-name="Layer 1" xmlns="http://www.w3.org/2000/svg" xmlns:xlink="http://www.w3.org/1999/xlink" width="283.664" height="166.641" viewBox="0 0 283.664 166.641"><defs><style>.cls-1{fill:#0f3871;}.cls-2{fill:#414042;}.cls-3{opacity:0.1;}.cls-4{fill:#25b6f5;}.cls-5{fill:#edaea9;}.cls-6{fill:#4134ad;}.cls-7{fill:#ffbbb5;}.cls-8{fill:#fff;}.cls-9{fill:#676767;}.cls-10{fill:#7b4842;}.cls-11{fill:#002a42;}.cls-12{fill:#ede5dd;}.cls-13{fill:#663c37;}.cls-14{fill:#4f2e2a;}.cls-15{fill:#d33c70;}.cls-16{fill:#fa6961;}.cls-17{fill:#94574f;}.cls-18{fill:url(#linear-gradient);}.cls-19{fill:url(#linear-gradient-2);}.cls-20{fill:url(#linear-gradient-3);}.cls-21{fill:#fbd270;}</style><linearGradient id="linear-gradient" x1="284.547" y1="140.957" x2="283.493" y2="140.96" gradientTransform="matrix(13.282, 0, 0, -74.933, -3995.82, 10679.464)" gradientUnits="userSpaceOnUse"><stop offset="0" stop-color="#ffbbb5"/><stop offset="0.185" stop-color="#feb7b2"/><stop offset="0.363" stop-color="#fcabaa"/><stop offset="0.539" stop-color="#f8989c"/><stop offset="0.713" stop-color="#f37c89"/><stop offset="0.883" stop-color="#ed5a70"/><stop offset="1" stop-color="#e83e5d"/></linearGradient><linearGradient id="linear-gradient-2" x1="306.705" y1="130.97" x2="306.821" y2="130.319" gradientTransform="matrix(19.551, 0, 0, -18.67, -5923.884, 2538.617)" gradientUnits="userSpaceOnUse"><stop offset="0" stop-color="#e83e5d"/><stop offset="0.018" stop-color="#e8405e"/><stop offset="0.694" stop-color="#f8989c"/><stop offset="1" stop-color="#ffbbb5"/></linearGradient><linearGradient id="linear-gradient-3" x1="285.283" y1="140.991" x2="284.237" y2="140.995" gradientTransform="matrix(13.443, 0, 0, -75.313, -4036.572, 10733.673)" xlink:href="#linear-gradient"/></defs><title>phones-medium-whole</title><g id="Group_1909" data-name="Group 1909"><g id="Group_1758" data-name="Group 1758"><path id="Path_8541" data-name="Path 8541" class="cls-1" d="M101.446,16.422c0,10.2,3.5,4.168,4.481,12.467.5,4.157,3.45.02,3.181-7.024-.143-3.752-3.229-7.784-3.229-11.323,0-10.2,8.912-6.425,6.194-9.469C108.217-3.25,101.446,6.223,101.446,16.422Z"/><rect id="Rectangle_2868" data-name="Rectangle 2868" class="cls-2" x="96.94" y="8.613" width="8.503" height="4.871" transform="translate(26.176 79.855) rotate(-48.759)"/><path id="Path_8542" data-name="Path 8542" class="cls-3" d="M136,129.011c0,1.043-10.177,1.585-40.606,1.585-25.772,0-33.128.169-33.128-.874s16.947-3.95,40.5-3.95S136,127.968,136,129.011Z"/><path id="Path_8543" data-name="Path 8543" class="cls-4" d="M119.605,125.17c0,1,2.62,4.344.4,4.344-5.468,0-5.834-.052-5.552-.955.658-2.125,1.645-1.233,1.878-4.4C116.473,122.263,119.605,124.179,119.605,125.17Z"/><path id="Path_8544" data-name="Path 8544" class="cls-5" d="M116.507,123.933a1.5,1.5,0,0,0,1.422,1.571h0a1.5,1.5,0,0,0,1.42-1.571v-5.6a1.5,1.5,0,0,0-1.42-1.573h0a1.5,1.5,0,0,0-1.422,1.573Z"/><path id="Path_8545" data-name="Path 8545" class="cls-5" d="M99.509,122.573c.525-.119,2.24,1.116,2.65,1.465a1.3,1.3,0,0,1,.386,1.09,2.6,2.6,0,0,1-1.3,1.927,6.428,6.428,0,0,1-2.279.749,25.841,25.841,0,0,1-3.432.377,1.336,1.336,0,0,1-.76-.121c-1.639-.993.868-2.1,1.541-2.466a14.343,14.343,0,0,0,2.3-1.353C99.35,123.631,98.828,122.728,99.509,122.573Z"/><path id="Path_8546" data-name="Path 8546" class="cls-5" d="M99.135,123.933a1.5,1.5,0,0,0,1.421,1.571h0a1.5,1.5,0,0,0,1.42-1.571v-5.6a1.5,1.5,0,0,0-1.42-1.573h0a1.5,1.5,0,0,0-1.421,1.573Z"/><g id="Group_1756" data-name="Group 1756"><path id="Path_8547" data-name="Path 8547" class="cls-6" d="M109.185,57.5c-4.609-2.361-7.051-1.707-8.52,2.07-4.132,10.63-5.19,27.864-5.19,31.307,0,6.908,3.8,29.686,3.8,29.686s3.7,1.355,3.671.326c-.449-16.037,1.315-14.8,1.234-20.5-.044-3.305-1.1-6.341-.844-9.166.077-.881,4.211-8.356,5.225-10.989a156.473,156.473,0,0,0,4.954-15.8C114.481,61.022,110.917,58.388,109.185,57.5Z"/></g><g id="Group_1757" data-name="Group 1757"><path id="Path_8548" data-name="Path 8548" class="cls-6" d="M109.184,57.5q-.466-.235-.9-.432a12.016,12.016,0,0,1,.609,4.7,39.046,39.046,0,0,1-.958,6.119c0-.021,0-.025,0,0h0c-.066.267-.1,8.452-1.462,11.375-1.328,2.849-5.013,10.6-4.757,12.917.165,1.507.425,7.5.443,9.017-.02,2.7-.659,14.406-.586,19.807,1.046.28,1.4.491,1.377-.108-.449-16.037,1.315-14.8,1.234-20.5-.044-3.305-1.1-6.341-.844-9.166.077-.881,4.211-8.356,5.224-10.989a156.473,156.473,0,0,0,4.954-15.8C114.481,61.018,110.917,58.388,109.184,57.5Z"/></g><path id="Path_8549" data-name="Path 8549" class="cls-1" d="M116.506,56.764l-.175-.2c0,7.293-1.226,7.14-9.163,7.14s-6.513-.561-6.513-7.855l1.685-.875Z"/><path id="Path_8550" data-name="Path 8550" class="cls-6" d="M116.3,121.667s3.438.36,3.429-.842c-.081-10.95-.521-22.592-.339-30.319.052-2.086,3.71-33.877-2.956-34.723-6.076-.773-6.736-.054-8.431,3.6-1.42,3.056,2.12,29.317,3.224,31.861.37.849,1.12,5.223,1.3,6.127C115.052,110.256,116.3,121.667,116.3,121.667Z"/><path id="Path_8551" data-name="Path 8551" class="cls-6" d="M119.394,90.512c.052-2.086,3.711-33.877-2.956-34.723-4.762-.606-6.2-.287-7.411,1.635-4.5-2.263-6.911-1.585-8.362,2.148a53.122,53.122,0,0,0-1.914,6.151c3.255,4.05,14.477-1.452,18.446,1.115,3.519,2.272.655,20.953.8,24.422.16,3.9.46,28.011.919,27.888.474-.127.821-.353.817-.735C119.652,107.466,119.212,98.238,119.394,90.512Z"/><path id="Path_8552" data-name="Path 8552" class="cls-1" d="M89.515,34.705c-.522.25-3.723,2.427-4.8-.009l.17.233a5.424,5.424,0,0,1,.089-4.537l16.337-7.581a4.818,4.818,0,0,1,6.356,2.457h0c1.078,2.433-1.2,3.661-3.631,4.737Z"/><path id="Path_8553" data-name="Path 8553" class="cls-7" d="M94.274,11.773a3.525,3.525,0,0,1,4.243-.641c.691.559-2.808,2.677-3.953,4.1s-2.311,1.116-3,.56S92.317,13.8,94.274,11.773Z"/><path id="Path_8554" data-name="Path 8554" class="cls-1" d="M90.7,15.566a21.11,21.11,0,0,1,.986-2.218,32.43,32.43,0,0,0,3.747,1.782L90.514,32.294c-.706,2.455-2.74,3.612-4.537,2.581h0c-1.8-1.027-1.25-3.479-.546-5.931Z"/><path id="Path_8555" data-name="Path 8555" class="cls-8" d="M105.842,32.7c.18,3.189-3.721,22.762,2.689,20.722,4.578-1.457,6.465-14.764,8.437-18.378a9.878,9.878,0,0,1,3.883-3.786c-.529-5.6-4.826-10-13.076-10a21.8,21.8,0,0,0-2.9.175.634.634,0,0,1-.276.433,6.186,6.186,0,0,0-.827.688A28.277,28.277,0,0,1,105.842,32.7Z"/><path id="Path_8556" data-name="Path 8556" class="cls-1" d="M120.91,32.453a10.393,10.393,0,0,0-6.823-10.1c-1.42,1.523-3.8,3.9-4.33,5.862-.944,3.453.084,3.286-.164,6.866,0,.006-1.826,17.23-1.825,17.326,0,.786-1.283-16.511-1.757-19.518-.271-1.721,1.615-3.918.725-5.437-.363-.617-1.605-4.064-2.093-4.585a.548.548,0,0,1-.263-.178,4.652,4.652,0,0,1-.651-1.054c-4.979,1.116-5.389,4.639-5.389,9.677,0,0,4.62,8.9,1.269,28.894-.93,5.56,21.775,3.586,21.293.9C119.147,51.361,120.91,32.453,120.91,32.453Z"/><path id="Path_8557" data-name="Path 8557" class="cls-7" d="M119.559,59.218l-1.543,4.007a3.6,3.6,0,0,1-2.973,2.492c2.455,1.03,3.97,1.744,5-.707l2.89-5.423Q121.246,59.437,119.559,59.218Z"/><path id="Path_8558" data-name="Path 8558" class="cls-1" d="M128.034,41.878c.3.5,2.945,3.28.633,4.6l.215-.192a7.824,7.824,0,0,1-4.484,1.036l-9.251-16.133a4.823,4.823,0,0,1,1.792-6.578h0c2.312-1.317,3.767.818,5.088,3.129Z"/><path id="Path_8559" data-name="Path 8559" class="cls-1" d="M119.329,59.83l2.987-7.759s1.06-2.752,1.176-3.089c.463-1.343.461-2.443-1.326-5.56,0,0,.481-1.5,2.934-.469l1.748-.351c3.221.373,3.572,2.968,1.9,6.088l-6.176,11.586Z"/><path id="Path_8560" data-name="Path 8560" class="cls-5" d="M114.424,22.25c3.327,1.138-2.016,1.613-4.3,1.613s-8.371-.916-5.4-2.414c4.991-2.518-.039-8.688,4.928-8.688C114.033,12.76,108.891,20.357,114.424,22.25Z"/><path id="Path_8561" data-name="Path 8561" class="cls-7" d="M115.877,10.5c0,2.49-5.342,6.387-6.547,6.387-1.225,0-5.309-4.156-4.985-5.922.789-4.361.556-9.552,3.935-9.552S115.877,5.81,115.877,10.5Z"/><path id="Path_8562" data-name="Path 8562" class="cls-1" d="M122.67,16.422c0,10.2-4.431,6.039-5.413,14.338-.5,4.156-8.827-1.851-8.557-8.9.144-3.752,5.8-7.784,5.8-11.323,0-10.2-6.105-6.425-3.388-9.469C114.968-3.25,122.67,6.223,122.67,16.422Z"/><path id="Path_8563" data-name="Path 8563" class="cls-1" d="M103.048,5.2c-.147.891,9.7,1.87,11.843,1.87s-1.4-3.458-1.4-4.362S111.226.053,109.084.053A6.084,6.084,0,0,0,103.048,5.2Z"/><path id="Path_8564" data-name="Path 8564" class="cls-4" d="M102.717,128.543a4.468,4.468,0,0,0,.014,1.178h-.489c-.228-.173-.383-1.371-1.212-1.4-2-.059-3.362,1.4-5.508,1.4H89.23c-.958,0-.384-.788.936-1.433,1.222-.6,3.5-1.368,3.967-1.617.9-.481-.088,1.02,1.21,1.048a15.223,15.223,0,0,0,5.168-1.846c2.043-1.126,1.337-2.018,1.834-1.963.624.068,1.261,1.706,1.022,2.637A15.709,15.709,0,0,0,102.717,128.543Z"/></g><g id="Group_1759" data-name="Group 1759"><rect id="Rectangle_2869" data-name="Rectangle 2869" class="cls-2" x="140.121" y="20.331" width="4.832" height="8.433" transform="translate(13.126 89.141) rotate(-36.297)"/><path id="Path_8565" data-name="Path 8565" class="cls-3" d="M181.615,147.978c0,1.034-10.094,1.572-40.274,1.572-25.561,0-32.858.168-32.858-.867s16.808-3.918,40.173-3.918S181.615,146.944,181.615,147.978Z"/><path id="Path_8566" data-name="Path 8566" class="cls-7" d="M140.956,144.9c-1.006-10.955-3.287-16.914-4.223-24.617-.025-.2,1.268-8.69,1.144-9.377,2.589,1.138,3.335-6.517,5.825-7.769a12.922,12.922,0,0,1,1.4,5.669c.036.928.154,8.672.077,9.594-1.078,13.135-1.973,25.444-1.973,25.444S141.066,146.1,140.956,144.9Z"/><path id="Path_8567" data-name="Path 8567" class="cls-7" d="M128.631,144.821c.795-10.974,1.78-17.058,2.568-24.782.021-.2.27-7.27.379-7.959-2.565,1.193-3.975-7.753-6.49-8.951a12.96,12.96,0,0,0-1.292,5.7c-.018.929.011,8.673.106,9.594,1.329,13.107,2.458,25.393,2.458,25.393S128.543,146.021,128.631,144.821Z"/><path id="Path_8568" data-name="Path 8568" class="cls-1" d="M144.2,138.467H139.56c-1.125-7.157-2.094-12.137-2.827-18.185-.025-.2,1.268-8.69,1.144-9.377,2.589,1.138,3.335-6.517,5.825-7.769a12.922,12.922,0,0,1,1.4,5.669c.036.928.154,8.672.077,9.594C144.542,126.172,144.562,133.653,144.2,138.467Z"/><path id="Path_8569" data-name="Path 8569" class="cls-9" d="M155.146,55.312c.513.337.942-1.721,2.314-3.97l-.2.2a5.359,5.359,0,0,0,.4-4.559L146.46,36.4c-2.4-1.5-13.636-1.429-15.009.821l.369,4.219a6.38,6.38,0,0,0,1.908,7.846Z"/><path id="Path_8570" data-name="Path 8570" class="cls-7" d="M147.676,26a1.819,1.819,0,0,0-3.241.069c-.473.916,2.332,3.027,3.309,4.714s1.827,1.007,2.3.1S149.317,28.344,147.676,26Z"/><path id="Path_8571" data-name="Path 8571" class="cls-9" d="M149.754,27.579a31.489,31.489,0,0,1-2.668,3.253l5.118,22.3c.734,3.189,1.8,1.866,3.07.068l3.151-4.692C157.069,43.822,149.754,27.579,149.754,27.579Z"/><path id="Path_8572" data-name="Path 8572" class="cls-1" d="M137.855,111.584c.768-.278,7.232,4.1,7.314,3.623.351-2.064.757-33.591-1.418-41.445-1.636-5.9-9.333-2.43-10.114,1.539C130.773,89.824,137.819,111.021,137.855,111.584Z"/><path id="Path_8573" data-name="Path 8573" class="cls-10" d="M140.206,142.707c-.021,1-1.722,4.319.983,4.385,6.676.167,10.532.076,9.987-.71-1.518-2.175-6.757-.69-6.973-3.879C144.072,140.6,140.227,141.707,140.206,142.707Z"/><path id="Path_8574" data-name="Path 8574" class="cls-1" d="M130.345,138.468h-4.484c-.453-4.8-1.171-12.28-1.958-20.046-.095-.921-.124-8.665-.106-9.594a12.96,12.96,0,0,1,1.292-5.7c2.514,1.2,3.925,10.144,6.49,8.951-.11.689-.358,7.759-.379,7.959C130.577,126.129,131.022,131.212,130.345,138.468Z"/><path id="Path_8575" data-name="Path 8575" class="cls-10" d="M129.366,143.449c.03,1.044,3.171,4.448.6,4.534-6.343.211-6.769.17-6.472-.786.7-2.253,1.872-1.355,2.048-4.69C125.648,140.52,129.339,142.407,129.366,143.449Z"/><path id="Path_8576" data-name="Path 8576" class="cls-1" d="M124.265,111.082c.782-.227,7.057,3.947,7.165,3.48.472-2.038,3.179-30,6.186-30.284,5.714-.538-12.455-13.319-13.466-9.412C120.445,89.171,124.263,110.518,124.265,111.082Z"/><path id="Path_8577" data-name="Path 8577" class="cls-1" d="M124.15,74.867c.5-1.928,5.176-.394,9.1,2.329a18.859,18.859,0,0,1,.386-1.9c.781-3.969,8.478-7.441,10.114-1.539,2.175,7.854,1.769,39.381,1.418,41.445-.081.474-6.545-3.9-7.314-3.623a147.2,147.2,0,0,1-3.764-16.053c-1.381,8.124-2.391,17.861-2.662,19.032-.108.467-6.382-3.707-7.165-3.48C124.263,110.518,120.445,89.172,124.15,74.867Z"/><path id="Path_8578" data-name="Path 8578" class="cls-11" d="M134.11,95.648a.621.621,0,0,0,.047-.078c1.59,2.842,3.859,11.407,4.472,15.339.748,4.808-1.9,6.024-1.09,11.518.57,3.876,2.643,12.158,3.2,16.04h-1.175c-1.125-7.156-2.094-12.137-2.827-18.185-.021-.171.94-6.529,1.123-8.7A147.466,147.466,0,0,1,134.11,95.648Z"/><path id="Path_8579" data-name="Path 8579" class="cls-11" d="M123.83,107.992c-.883-6.518-2.572-21.966.319-33.125.5-1.928,5.176-.394,9.1,2.329a18.859,18.859,0,0,1,.386-1.9c.781-3.969,8.478-7.441,10.114-1.539.562,2.032.574.9.837,5.189-10.5,3.685-19.063-2.1-19.962,6.94-.834,8.385,1.105,18.189,1.643,34.344.208,6.222-.37,12.472,1.8,18.233H125.86c-.453-4.8-1.171-12.28-1.958-20.046-.095-.921-.124-8.665-.106-9.594C123.8,108.536,123.815,108.259,123.83,107.992Z"/><path id="Path_8580" data-name="Path 8580" class="cls-12" d="M147.307,37.923c-.653-2.715-5.769-4.781-7.127-5.023-.118-.021-.241-.04-.361-.061h0a31.061,31.061,0,0,0-11.028-.272v.012c-.091.012-.179.016-.273.036-2.4.53-5.748,1.6-7.288,3.489,0,0-2.179,2.687-.127,22.8.578,5.655,1.785,4.873,1.816,17.05,3.012.822,20.146-.13,21.065-.391C145.448,50.623,147.328,38.023,147.307,37.923Z"/><path id="Path_8581" data-name="Path 8581" class="cls-12" d="M131.707,73.294c-2.937-.476-4.4-3.372-5.21-5.994-1.712-5.53-5.087-13.065-.7-17.632,3.981-4.143-.188-8.049-.256-13.793-1.695.607-3.354-.948-4.312.232,0,0-2.179,2.687-.127,22.8.578,5.655,1.785,4.873,1.816,17.05,2.552.7,15.244.119,19.617-.232C138.9,75.241,135.318,73.88,131.707,73.294Z"/><path id="Path_8582" data-name="Path 8582" class="cls-9" d="M145.428,75.859c0,.824-.065,1.492-.889,1.492H123.505c-.824,0-.889-.668-.889-1.492h0c0-.823.064-1.492.889-1.492h21.034C145.362,74.367,145.428,75.036,145.428,75.859Z"/><path id="Path_8583" data-name="Path 8583" class="cls-12" d="M109.732,54.438c-.453.415,1.437,1.337,3.277,3.221l-.149-.24a12.285,12.285,0,0,0,4.32,2.717l13.072-15.877a5.1,5.1,0,0,0,.431-7.12l-1.769-1.887c-1.842-1.885-6.029-2.034-8.074-.083Z"/><path id="Path_8584" data-name="Path 8584" class="cls-7" d="M123.654,79.923A1.819,1.819,0,0,0,126.762,79c.216-1.007-3.046-2.306-4.435-3.677s-2.028-.489-2.246.514S121.455,78.1,123.654,79.923Z"/><path id="Path_8585" data-name="Path 8585" class="cls-12" d="M121.236,78.95a31.136,31.136,0,0,1,1.716-3.842L115.757,54.94c-1.549-2.883-5.851-1.325-6.6.743l-1.8,5.356C109.9,65.206,121.236,78.95,121.236,78.95Z"/><path id="Path_8586" data-name="Path 8586" class="cls-5" d="M139.882,32.123c1.3,2.6-3.62,1.781-5.754,1.885s-7.814.255-5.97-1.957c.677-.811,3.733-2.779,2.768-5.447C129.49,22.619,138,20.91,138.2,23.752,138.353,26.011,137.757,27.866,139.882,32.123Z"/><path id="Path_8587" data-name="Path 8587" class="cls-7" d="M130.148,21.665c-.244,2.189-.132,5.659,3.122,7.219,3.793,1.815,7.438.145,7.3-1.71-.279-3.75.018-11.747-2.609-12.085C133.467,14.512,130.607,17.548,130.148,21.665Z"/><path id="Path_8588" data-name="Path 8588" class="cls-1" d="M128.65,17.543a14.647,14.647,0,0,0,1.1,4.71c1.071,0,1.207-4.347,4.6-3.925,7.8.971,7.119-3.648,7.655-4.891.1-.235-1.639,1.211-5.876-1.15C132.684,10.368,128.65,15.424,128.65,17.543Z"/><path id="Path_8589" data-name="Path 8589" class="cls-12" d="M127.469,33.481l5.925,4.823,2.412-3.814-8.337-1.809Z"/><path id="Path_8590" data-name="Path 8590" class="cls-12" d="M140.481,33.481l-2.91,4.221-2.412-3.211,5.322-1.809Z"/><path id="Path_8591" data-name="Path 8591" class="cls-12" d="M127.469,33.481l5.925,3.618,2.412-3.815-8.337-1.809Z"/><path id="Path_8592" data-name="Path 8592" class="cls-12" d="M140.481,32.878,136.968,37.1l-2.412-3.815,5.925-1.809Z"/><path id="Path_8593" data-name="Path 8593" class="cls-12" d="M135.611,41.73a.8.8,0,1,0,.8-.8h0A.8.8,0,0,0,135.611,41.73Z"/><path id="Path_8594" data-name="Path 8594" class="cls-12" d="M136.408,49.622a.8.8,0,1,0,.8-.8h0A.8.8,0,0,0,136.408,49.622Z"/><path id="Path_8595" data-name="Path 8595" class="cls-12" d="M136.408,58.028a.8.8,0,1,0,.8-.8h0A.8.8,0,0,0,136.408,58.028Z"/><path id="Path_8596" data-name="Path 8596" class="cls-12" d="M136.408,67.048a.8.8,0,1,0,.8-.8h0A.8.8,0,0,0,136.408,67.048Z"/></g><g id="Group_1754" data-name="Group 1754"><path id="Path_8491" data-name="Path 8491" class="cls-3" d="M73.6,150.514c0,1.041-10.159,1.582-40.531,1.582C7.342,152.1,0,152.264,0,151.223s16.915-3.942,40.429-3.942S73.6,149.473,73.6,150.514Z"/><path id="Path_8492" data-name="Path 8492" class="cls-7" d="M22.575,147.471c1.059-10.967,3.462-16.93,4.447-24.646.025-.2-1.336-8.7-1.207-9.389-2.724,1.14-3.51-6.522-6.133-7.777a12.432,12.432,0,0,0-1.474,5.676c-.039.929-.163,8.682-.082,9.606,1.136,13.15,2.078,25.475,2.078,25.475S22.459,148.673,22.575,147.471Z"/><path id="Path_8493" data-name="Path 8493" class="cls-10" d="M19.16,141.033h4.885c1.185-7.165,2.2-12.153,2.978-18.208.025-.2-1.336-8.7-1.207-9.389-2.724,1.14-3.51-6.522-6.133-7.777a12.432,12.432,0,0,0-1.474,5.676c-.039.929-.163,8.682-.082,9.606C18.8,128.722,18.779,136.211,19.16,141.033Z"/><path id="Path_8494" data-name="Path 8494" class="cls-5" d="M23.7,35.723c-1.366,2.607,3.813,1.22,6.06,1.325s7.086.235,5.144-1.98c-.713-.812-2.788-3.365-1.773-6.036,1.512-3.989-7.445-5.7-7.655-2.855C25.315,28.437,25.943,31.461,23.7,35.723Z"/><path id="Path_8495" data-name="Path 8495" class="cls-7" d="M33.956,24.086c.257,2.191.139,5.666-3.288,7.228-4,1.817-7.832.144-7.69-1.713.292-3.754-.02-11.761,2.747-12.1C30.462,16.925,33.473,19.963,33.956,24.086Z"/><path id="Path_8496" data-name="Path 8496" class="cls-1" d="M23.188,20.814c.726-6.11,5.437-4.956,8.088-4.435,2.112.418,5.471,1.832,3.982,7.4a17.434,17.434,0,0,1-1.238,3.614c-1.109.185.741-4.206-1.112-4.931-2-.785-4.175-.461-6.311-.534C23.829,21.829,23.223,21.493,23.188,20.814Z"/><rect id="Rectangle_2866" data-name="Rectangle 2866" class="cls-2" x="26.391" y="26.967" width="8.487" height="4.862" transform="translate(-11.666 33.054) rotate(-48.759)"/><path id="Path_8497" data-name="Path 8497" class="cls-1" d="M31.276,16.379c1.79.354,4.479,1.426,4.346,5.142-.785.249-1.067.965-1.874,1.132-.285.06-2.3-.175-2.629-.189a14.883,14.883,0,0,0-4.522-.539c-2.768-.1-3.774-.2-3.808-.882C22.638,15.5,28.625,15.858,31.276,16.379Z"/><path id="Path_8498" data-name="Path 8498" class="cls-7" d="M15.334,84.064a1.961,1.961,0,0,0,3.017,1.6c.879-.563-.683-3.848-.768-5.827s-1.2-1.817-2.073-1.262S14.954,81.173,15.334,84.064Z"/><path id="Path_8499" data-name="Path 8499" class="cls-13" d="M14.183,81.62a31.506,31.506,0,0,1,4.027-1.488l6.067-22.178c.866-3.173-.759-2.559-2.794-1.629l-5.167,2.5C15.3,63.636,14.183,81.62,14.183,81.62Z"/><path id="Path_8500" data-name="Path 8500" class="cls-1" d="M25.839,114.115c-.809-.277-7.616,4.1-7.7,3.628-.37-2.067-.8-33.635,1.5-41.5,1.722-5.91,9.827-2.433,10.652,1.54C33.3,92.328,25.875,113.551,25.839,114.115Z"/><path id="Path_8501" data-name="Path 8501" class="cls-1" d="M23.364,145.276c.022,1,1.814,4.326-1.035,4.391-7.03.168-11.089.074-10.516-.712,1.6-2.178,7.115-.691,7.342-3.882C19.294,143.164,23.341,144.275,23.364,145.276Z"/><path id="Path_8502" data-name="Path 8502" class="cls-1" d="M40.152,113.613c-.826-.226-7.431,3.952-7.545,3.484-.5-2.039-3.349-30.038-6.514-30.322-6.019-.537,13.115-13.335,14.18-9.422C44.173,91.675,40.153,113.048,40.152,113.613Z"/><path id="Path_8503" data-name="Path 8503" class="cls-10" d="M40.272,77.354c-.525-1.93-5.452.209-9.584,2.935-.106-.851-.237-1.689-.4-2.5-.824-3.974-8.929-7.45-10.652-1.54-2.291,7.862-1.865,39.43-1.5,41.5.086.474,6.893-3.906,7.7-3.628a141.119,141.119,0,0,0,3.964-16.072c1.455,8.135,2.517,17.883,2.8,19.055.114.468,6.719-3.71,7.545-3.484C40.153,113.049,44.173,91.68,40.272,77.354Z"/><path id="Path_8504" data-name="Path 8504" class="cls-14" d="M30.548,88.342c2.5.484,4.863.631,6.862,2.422,2.31,2.071,3.5,3.82,3.216,8.382-.156,2.533.6,4.386.547,6.923.855-7.646,1.581-19.6-.9-28.716-.525-1.93-5.452.209-9.584,2.935-.106-.851-.237-1.689-.4-2.5-.824-3.974-8.929-7.45-10.652-1.54a61.871,61.871,0,0,0-1.373,11.491C22.358,87.98,26.493,87.562,30.548,88.342Z"/><path id="Path_8505" data-name="Path 8505" class="cls-14" d="M29.783,98.159c-.013-.027-.036-.051-.047-.076-1.675,2.845-4.064,11.42-4.71,15.356-.788,4.815,2,6.033,1.147,11.534-.6,3.88-2.783,12.173-3.365,16.06h1.237c1.185-7.165,2.2-12.153,2.978-18.208.022-.171-.99-6.537-1.183-8.71A141.4,141.4,0,0,0,29.783,98.159Z"/><path id="Path_8506" data-name="Path 8506" class="cls-7" d="M42.1,134.633H36.894c1.621,6.589,2.74,11.235,2.74,11.235s2.586,1.867,2.509.665A100.1,100.1,0,0,1,42.1,134.633Z"/><path id="Path_8507" data-name="Path 8507" class="cls-10" d="M37.743,140.722l4.824-.782c.026-7.262.235-12.348.034-18.449-.007-.2-2.707-8.376-2.69-9.075-2.509,1.559-4.507-5.88-7.3-6.7-.673,2.217-.477,7.927-.21,10.157.111.924.884,4.279,1.111,5.178C35.422,128.625,36.6,136.023,37.743,140.722Z"/><path id="Path_8508" data-name="Path 8508" class="cls-1" d="M42.572,144.24c.183.985,2.48,3.98-.321,4.5-6.913,1.288-10.936,1.844-10.5.977,1.229-2.4,6.914-1.816,6.628-5.005C38.215,142.8,42.388,143.255,42.572,144.24Z"/><path id="Path_8509" data-name="Path 8509" class="cls-14" d="M41.384,96.7a.647.647,0,0,1-.061-.067c-1.2,3.075-2.189,11.921-2.2,15.911-.009,4.878,2.935,5.636,2.974,11.2.025,3.926-.8,12.461-.759,16.39l1.221-.2c.026-7.262.235-12.348.034-18.449-.006-.172-2.023-6.294-2.558-8.408A141.835,141.835,0,0,0,41.384,96.7Z"/><path id="Path_8510" data-name="Path 8510" class="cls-15" d="M19.469,75.54l.182-.206c-.348,7.754.872,7.645,8.738,8.015S41.25,81.549,41.6,73.8l-8.007.5Z"/><g id="Group_1752" data-name="Group 1752"><path id="Path_8511" data-name="Path 8511" class="cls-8" d="M23.715,35.286,18.861,84.364c3.5.423,12.712.826,16.523.943v-50.3A34.463,34.463,0,0,0,23.715,35.286Z"/></g><path id="Path_8512" data-name="Path 8512" class="cls-16" d="M26.722,37.28a1.349,1.349,0,1,0,1.35-1.348h0A1.349,1.349,0,0,0,26.722,37.28Z"/><path id="Path_8513" data-name="Path 8513" class="cls-16" d="M26.438,68.669l2.477-3.4-.609-27.234-.4-.018L24.278,64.885Z"/><g id="Group_1753" data-name="Group 1753"><path id="Path_8514" data-name="Path 8514" class="cls-10" d="M42.21,61.377c2.16-20.14-.136-22.831-.136-22.831a11.168,11.168,0,0,0-6.4-3.492c-3.357-.7-4.952,3.327-5.29,7.572-.174,2.16.3,4.091-.314,6.15A34.973,34.973,0,0,0,29,57.824a95.419,95.419,0,0,0,.191,10.534c.235,2.751.231,4.344.858,8.382.423,2.715.586,13.926,14.611,12.49C43.276,79.8,41.6,67.036,42.21,61.377Z"/><path id="Path_8515" data-name="Path 8515" class="cls-10" d="M25.328,56.592c.125-2.434.157-11.839.071-14.034-.148-3.767-.807-3.866-1.628-7.281-.126.021-.256.039-.38.061-1.431.242-5.548,2.311-6.236,5.029-.021.1-1.074,43.275-.311,44.935.969.261,4.821.01,5.82-7.483C22.823,76.639,25.017,62.63,25.328,56.592Z"/></g><path id="Path_8516" data-name="Path 8516" class="cls-17" d="M22.024,60.334c-.451.411-1.265-1.657-3.058-3.8l.235.186a5.843,5.843,0,0,1-1.252-4.648L35.06,38.887c2.117-1.844,5.508-2.257,7.3-.11l.416,4.393c1.621,3.628-1.822,7.865-4.534,9.144Z"/><path id="Path_8517" data-name="Path 8517" class="cls-12" d="M34.04,34.618l-3.884,4.963-2.4-3.637,6.161-2.187Z"/><path id="Path_8518" data-name="Path 8518" class="cls-12" d="M23.932,35.277,26.551,39.3l1.757-3.4L24.416,34.73Z"/><path id="Path_8519" data-name="Path 8519" class="cls-8" d="M34.826,34.972l-4.78,3.4-2.4-3.637,6.1-2.166Z"/><path id="Path_8520" data-name="Path 8520" class="cls-8" d="M23.771,35.277l3.238,3.372,1.7-4.01L23.97,33.4Z"/><path id="Path_8521" data-name="Path 8521" class="cls-7" d="M26.43,31.089a2.039,2.039,0,0,1,3.477-.187c.569.857-2.3,3.146-3.234,4.874s-1.893,1.131-2.461.276S24.827,33.509,26.43,31.089Z"/><path id="Path_8522" data-name="Path 8522" class="cls-17" d="M24.307,32.8A31.507,31.507,0,0,0,27.38,35.77L23.366,58.007c-.577,3.18-1.81,1.969-3.286.309L16.4,53.971C17.538,49.272,24.307,32.8,24.307,32.8Z"/></g><g id="Group_1755" data-name="Group 1755"><path id="Path_8523" data-name="Path 8523" class="cls-7" d="M82.8,37.4a3.881,3.881,0,0,0-4.581-1.172C77.4,36.757,81,39.469,82.1,41.159s2.4,1.48,3.227.947S84.721,39.843,82.8,37.4Z"/><rect id="Rectangle_2867" data-name="Rectangle 2867" class="cls-2" x="75.416" y="29.991" width="5.365" height="9.365" transform="translate(-4.187 57.711) rotate(-39.581)"/><path id="Path_8524" data-name="Path 8524" class="cls-3" d="M118.272,164.885c0,1.148-11.209,1.745-44.722,1.745-28.385,0-36.486.186-36.486-.962s18.664-4.351,44.609-4.351S118.272,163.736,118.272,164.885Z"/><path id="Path_8525" data-name="Path 8525" class="cls-18" d="M59.417,157.724s-2.764,2.194-2.756.873c.092-12.064.649-27.421.445-35.938-.054-2.3-.642-37.333,6.7-38.265,6.7-.851,3.977-.059,5.845,3.972,1.565,3.369-3.716,32.3-4.932,35.111-.407.935-1.229,5.755-1.427,6.755C60.514,144.419,59.417,157.724,59.417,157.724Z"/><path id="Path_8526" data-name="Path 8526" class="cls-19" d="M58.546,67.03l1.972,11.388c1.3,2.879,1.3,4.127-.109,6.394-.811,1.3,17,1.117,16.355-.228-1.483-3.06,1.105-5.923,1.105-7.2L78.1,67.026Z"/><path id="Path_8527" data-name="Path 8527" class="cls-1" d="M84.711,62.653c.47.428,3.158,3.739,5.066,1.511l-.248.193a5.99,5.99,0,0,0,1.343-4.819L76.035,46.357a5.312,5.312,0,0,0-7.488.579h0c-1.908,2.228.1,4.247,2.329,6.15Z"/><path id="Path_8528" data-name="Path 8528" class="cls-7" d="M86.544,44.437c-.1-.609-1.638-4.345-1.638-4.345-2.088.924-1.913,1.675-1.913,1.675l1.639,18.548c.5,2.769,2.6,4.264,4.684,3.339h0c2.086-.928,1.759-3.676,1.259-6.447Z"/><path id="Path_8529" data-name="Path 8529" class="cls-20" d="M73.805,157.265s-2.561,2.427-2.669,1.111c-.969-12.027-.385-27.374-1.338-35.838-.254-2.284-8.731-36.83-1.493-38.4,6.594-1.437,7.387-.71,9.6,3.141,1.853,3.219.51,32.384-.454,35.288-.325.965-.722,5.839-.829,6.854C75.1,143.792,73.805,157.265,73.805,157.265Z"/><path id="Path_8530" data-name="Path 8530" class="cls-1" d="M70.5,159c.1,1.093-2.995,5.066-.108,4.811,7.129-.63,7.6-.729,7.15-1.686-1.063-2.26-2.266-1.165-2.879-4.62C74.305,155.444,70.406,157.906,70.5,159Z"/><path id="Path_8531" data-name="Path 8531" class="cls-1" d="M78.34,82.9c-1.235-5.231-.139-10.351.744-14.517,1.2-5.677,1.9-9.582,1.9-9.582,0-6.791-1.338-12.462-11.07-12.462S55.44,51.891,55.44,58.681c0,0,4.9,18.028,4.877,21.033-.066,8.6-6.185,19.179-4.651,42.959.25,3.87,17.261-.687,22.774-.925C78.958,121.725,81.405,95.9,78.34,82.9Z"/><path id="Path_8532" data-name="Path 8532" class="cls-1" d="M62.253,49.153a5.306,5.306,0,0,0-6.723,3.336l0,.005L50.8,73.284a13.678,13.678,0,0,1,5.887,1.639,22.661,22.661,0,0,1,1.8-3.989l4.915-15.3C64.344,52.851,65.038,50.089,62.253,49.153Z"/><path id="Path_8533" data-name="Path 8533" class="cls-7" d="M55.509,95.735a3.882,3.882,0,0,1-2.012,4.278c-.937.294-.732-4.214-1.334-6.132s.392-2.8,1.325-3.089S54.849,92.7,55.509,95.735Z"/><path id="Path_8534" data-name="Path 8534" class="cls-7" d="M55.281,89.967a33.925,33.925,0,0,1-.889,3.663c-2.2-.6-2.364-.858-2.364-.858L51.072,73.68c.074-2.812,1.922-4.605,4.126-4.007h0c2.2.6,2.3,3.369,2.216,6.182Z"/><path id="Path_8535" data-name="Path 8535" class="cls-1" d="M55.978,159.16c0,1.1-3.431,4.782-.531,4.782,7.157,0,7.637-.057,7.269-1.05-.861-2.343-2.155-1.361-2.459-4.856C60.077,155.954,55.978,158.064,55.978,159.16Z"/><path id="Path_8536" data-name="Path 8536" class="cls-5" d="M63.128,47.659c-3.856,1.372,2.367,1.849,5.026,1.816s9.721-1.187,6.239-2.889c-5.842-2.854-.083-10.1-5.856-10.029C63.441,36.621,69.531,45.381,63.128,47.659Z"/><path id="Path_8537" data-name="Path 8537" class="cls-21" d="M75.084,27.178a2.72,2.72,0,1,1-2.79-2.649h.036a2.7,2.7,0,0,1,2.754,2.645Z"/><path id="Path_8538" data-name="Path 8538" class="cls-7" d="M61.262,34.022c.036,2.9,6.308,7.353,7.7,7.332A6.125,6.125,0,0,0,74.73,34.89c-.01-.165-.026-.33-.049-.494-.527-5.129-.789-11.1-4.717-11.055S61.193,28.567,61.262,34.022Z"/><path id="Path_8539" data-name="Path 8539" class="cls-21" d="M70.38,25.835c-6.069.078-5.655,10.769-10.55,10.833s-1.955-13.176,5.737-14.687C70.371,21.037,70.38,25.835,70.38,25.835Z"/><path id="Path_8540" data-name="Path 8540" class="cls-21" d="M73.625,24.512c.018,1.455-1.761,2.655-3.979,2.683s-4.027-1.129-4.045-2.581,1.764-2.657,3.978-2.684S73.6,23.059,73.625,24.512Z"/></g></g></svg>