<svg id="Layer_1" data-name="Layer 1" xmlns="http://www.w3.org/2000/svg" xmlns:xlink="http://www.w3.org/1999/xlink" width="283.664" height="166.641" viewBox="0 0 283.664 166.641"><defs><style>.cls-1{opacity:0.1;}.cls-2{fill:#ffbbb5;}.cls-3{fill:#7b4842;}.cls-4{fill:#edaea9;}.cls-5{fill:#0f3871;}.cls-6{fill:#414042;}.cls-7{fill:#663c37;}.cls-8{fill:#4f2e2a;}.cls-9{fill:#d33c70;}.cls-10{fill:#fff;}.cls-11{fill:#fa6961;}.cls-12{fill:#94574f;}.cls-13{fill:#ede5dd;}.cls-14{fill:url(#linear-gradient);}.cls-15{fill:url(#linear-gradient-2);}.cls-16{fill:url(#linear-gradient-3);}.cls-17{fill:#fbd270;}</style><linearGradient id="linear-gradient" x1="551.788" y1="140.957" x2="550.734" y2="140.96" gradientTransform="matrix(13.282, 0, 0, -74.933, -7545.437, 10679.464)" gradientUnits="userSpaceOnUse"><stop offset="0" stop-color="#ffbbb5"/><stop offset="0.185" stop-color="#feb7b2"/><stop offset="0.363" stop-color="#fcabaa"/><stop offset="0.539" stop-color="#f8989c"/><stop offset="0.713" stop-color="#f37c89"/><stop offset="0.883" stop-color="#ed5a70"/><stop offset="1" stop-color="#e83e5d"/></linearGradient><linearGradient id="linear-gradient-2" x1="580.923" y1="130.97" x2="581.039" y2="130.319" gradientTransform="matrix(19.551, 0, 0, -18.67, -11285.113, 2538.617)" gradientUnits="userSpaceOnUse"><stop offset="0" stop-color="#e83e5d"/><stop offset="0.018" stop-color="#e8405e"/><stop offset="0.694" stop-color="#f8989c"/><stop offset="1" stop-color="#ffbbb5"/></linearGradient><linearGradient id="linear-gradient-3" x1="552.785" y1="140.991" x2="551.739" y2="140.995" gradientTransform="matrix(13.443, 0, 0, -75.313, -7632.632, 10733.673)" xlink:href="#linear-gradient"/></defs><title>phones-small-whole</title><g id="Group_1909" data-name="Group 1909"><g id="Group_1754" data-name="Group 1754"><path id="Path_8491" data-name="Path 8491" class="cls-1" d="M73.6,150.514c0,1.041-10.159,1.582-40.531,1.582C7.342,152.1,0,152.264,0,151.223s16.915-3.942,40.429-3.942S73.6,149.473,73.6,150.514Z"/><path id="Path_8492" data-name="Path 8492" class="cls-2" d="M22.575,147.471c1.059-10.967,3.462-16.93,4.447-24.646.025-.2-1.336-8.7-1.207-9.389-2.724,1.14-3.51-6.522-6.133-7.777a12.432,12.432,0,0,0-1.474,5.676c-.039.929-.163,8.682-.082,9.606,1.136,13.15,2.078,25.475,2.078,25.475S22.459,148.673,22.575,147.471Z"/><path id="Path_8493" data-name="Path 8493" class="cls-3" d="M19.16,141.033h4.885c1.185-7.165,2.2-12.153,2.978-18.208.025-.2-1.336-8.7-1.207-9.389-2.724,1.14-3.51-6.522-6.133-7.777a12.432,12.432,0,0,0-1.474,5.676c-.039.929-.163,8.682-.082,9.606C18.8,128.722,18.779,136.211,19.16,141.033Z"/><path id="Path_8494" data-name="Path 8494" class="cls-4" d="M23.7,35.723c-1.366,2.607,3.813,1.22,6.06,1.325s7.086.235,5.144-1.98c-.713-.812-2.788-3.365-1.773-6.036,1.512-3.989-7.445-5.7-7.655-2.855C25.315,28.437,25.943,31.461,23.7,35.723Z"/><path id="Path_8495" data-name="Path 8495" class="cls-2" d="M33.956,24.086c.257,2.191.139,5.666-3.288,7.228-4,1.817-7.832.144-7.69-1.713.292-3.754-.02-11.761,2.747-12.1C30.462,16.925,33.473,19.963,33.956,24.086Z"/><path id="Path_8496" data-name="Path 8496" class="cls-5" d="M23.188,20.814c.726-6.11,5.437-4.956,8.088-4.435,2.112.418,5.471,1.832,3.982,7.4a17.434,17.434,0,0,1-1.238,3.614c-1.109.185.741-4.206-1.112-4.931-2-.785-4.175-.461-6.311-.534C23.829,21.829,23.223,21.493,23.188,20.814Z"/><rect id="Rectangle_2866" data-name="Rectangle 2866" class="cls-6" x="26.391" y="26.967" width="8.487" height="4.862" transform="translate(-11.666 33.054) rotate(-48.759)"/><path id="Path_8497" data-name="Path 8497" class="cls-5" d="M31.276,16.379c1.79.354,4.479,1.426,4.346,5.142-.785.249-1.067.965-1.874,1.132-.285.06-2.3-.175-2.629-.189a14.883,14.883,0,0,0-4.522-.539c-2.768-.1-3.774-.2-3.808-.882C22.638,15.5,28.625,15.858,31.276,16.379Z"/><path id="Path_8498" data-name="Path 8498" class="cls-2" d="M15.334,84.064a1.961,1.961,0,0,0,3.017,1.6c.879-.563-.683-3.848-.768-5.827s-1.2-1.817-2.073-1.262S14.954,81.173,15.334,84.064Z"/><path id="Path_8499" data-name="Path 8499" class="cls-7" d="M14.183,81.62a31.506,31.506,0,0,1,4.027-1.488l6.067-22.178c.866-3.173-.759-2.559-2.794-1.629l-5.167,2.5C15.3,63.636,14.183,81.62,14.183,81.62Z"/><path id="Path_8500" data-name="Path 8500" class="cls-5" d="M25.839,114.115c-.809-.277-7.616,4.1-7.7,3.628-.37-2.067-.8-33.635,1.5-41.5,1.722-5.91,9.827-2.433,10.652,1.54C33.3,92.328,25.875,113.551,25.839,114.115Z"/><path id="Path_8501" data-name="Path 8501" class="cls-5" d="M23.364,145.276c.022,1,1.814,4.326-1.035,4.391-7.03.168-11.089.074-10.516-.712,1.6-2.178,7.115-.691,7.342-3.882C19.294,143.164,23.341,144.275,23.364,145.276Z"/><path id="Path_8502" data-name="Path 8502" class="cls-5" d="M40.152,113.613c-.826-.226-7.431,3.952-7.545,3.484-.5-2.039-3.349-30.038-6.514-30.322-6.019-.537,13.115-13.335,14.18-9.422C44.173,91.675,40.153,113.048,40.152,113.613Z"/><path id="Path_8503" data-name="Path 8503" class="cls-3" d="M40.272,77.354c-.525-1.93-5.452.209-9.584,2.935-.106-.851-.237-1.689-.4-2.5-.824-3.974-8.929-7.45-10.652-1.54-2.291,7.862-1.865,39.43-1.5,41.5.086.474,6.893-3.906,7.7-3.628a141.119,141.119,0,0,0,3.964-16.072c1.455,8.135,2.517,17.883,2.8,19.055.114.468,6.719-3.71,7.545-3.484C40.153,113.049,44.173,91.68,40.272,77.354Z"/><path id="Path_8504" data-name="Path 8504" class="cls-8" d="M30.548,88.342c2.5.484,4.863.631,6.862,2.422,2.31,2.071,3.5,3.82,3.216,8.382-.156,2.533.6,4.386.547,6.923.855-7.646,1.581-19.6-.9-28.716-.525-1.93-5.452.209-9.584,2.935-.106-.851-.237-1.689-.4-2.5-.824-3.974-8.929-7.45-10.652-1.54a61.871,61.871,0,0,0-1.373,11.491C22.358,87.98,26.493,87.562,30.548,88.342Z"/><path id="Path_8505" data-name="Path 8505" class="cls-8" d="M29.783,98.159c-.013-.027-.036-.051-.047-.076-1.675,2.845-4.064,11.42-4.71,15.356-.788,4.815,2,6.033,1.147,11.534-.6,3.88-2.783,12.173-3.365,16.06h1.237c1.185-7.165,2.2-12.153,2.978-18.208.022-.171-.99-6.537-1.183-8.71A141.4,141.4,0,0,0,29.783,98.159Z"/><path id="Path_8506" data-name="Path 8506" class="cls-2" d="M42.1,134.633H36.894c1.621,6.589,2.74,11.235,2.74,11.235s2.586,1.867,2.509.665A100.1,100.1,0,0,1,42.1,134.633Z"/><path id="Path_8507" data-name="Path 8507" class="cls-3" d="M37.743,140.722l4.824-.782c.026-7.262.235-12.348.034-18.449-.007-.2-2.707-8.376-2.69-9.075-2.509,1.559-4.507-5.88-7.3-6.7-.673,2.217-.477,7.927-.21,10.157.111.924.884,4.279,1.111,5.178C35.422,128.625,36.6,136.023,37.743,140.722Z"/><path id="Path_8508" data-name="Path 8508" class="cls-5" d="M42.572,144.24c.183.985,2.48,3.98-.321,4.5-6.913,1.288-10.936,1.844-10.5.977,1.229-2.4,6.914-1.816,6.628-5.005C38.215,142.8,42.388,143.255,42.572,144.24Z"/><path id="Path_8509" data-name="Path 8509" class="cls-8" d="M41.384,96.7a.647.647,0,0,1-.061-.067c-1.2,3.075-2.189,11.921-2.2,15.911-.009,4.878,2.935,5.636,2.974,11.2.025,3.926-.8,12.461-.759,16.39l1.221-.2c.026-7.262.235-12.348.034-18.449-.006-.172-2.023-6.294-2.558-8.408A141.835,141.835,0,0,0,41.384,96.7Z"/><path id="Path_8510" data-name="Path 8510" class="cls-9" d="M19.469,75.54l.182-.206c-.348,7.754.872,7.645,8.738,8.015S41.25,81.549,41.6,73.8l-8.007.5Z"/><g id="Group_1752" data-name="Group 1752"><path id="Path_8511" data-name="Path 8511" class="cls-10" d="M23.715,35.286,18.861,84.364c3.5.423,12.712.826,16.523.943v-50.3A34.463,34.463,0,0,0,23.715,35.286Z"/></g><path id="Path_8512" data-name="Path 8512" class="cls-11" d="M26.722,37.28a1.349,1.349,0,1,0,1.35-1.348h0A1.349,1.349,0,0,0,26.722,37.28Z"/><path id="Path_8513" data-name="Path 8513" class="cls-11" d="M26.438,68.669l2.477-3.4-.609-27.234-.4-.018L24.278,64.885Z"/><g id="Group_1753" data-name="Group 1753"><path id="Path_8514" data-name="Path 8514" class="cls-3" d="M42.21,61.377c2.16-20.14-.136-22.831-.136-22.831a11.168,11.168,0,0,0-6.4-3.492c-3.357-.7-4.952,3.327-5.29,7.572-.174,2.16.3,4.091-.314,6.15A34.973,34.973,0,0,0,29,57.824a95.419,95.419,0,0,0,.191,10.534c.235,2.751.231,4.344.858,8.382.423,2.715.586,13.926,14.611,12.49C43.276,79.8,41.6,67.036,42.21,61.377Z"/><path id="Path_8515" data-name="Path 8515" class="cls-3" d="M25.328,56.592c.125-2.434.157-11.839.071-14.034-.148-3.767-.807-3.866-1.628-7.281-.126.021-.256.039-.38.061-1.431.242-5.548,2.311-6.236,5.029-.021.1-1.074,43.275-.311,44.935.969.261,4.821.01,5.82-7.483C22.823,76.639,25.017,62.63,25.328,56.592Z"/></g><path id="Path_8516" data-name="Path 8516" class="cls-12" d="M22.024,60.334c-.451.411-1.265-1.657-3.058-3.8l.235.186a5.843,5.843,0,0,1-1.252-4.648L35.06,38.887c2.117-1.844,5.508-2.257,7.3-.11l.416,4.393c1.621,3.628-1.822,7.865-4.534,9.144Z"/><path id="Path_8517" data-name="Path 8517" class="cls-13" d="M34.04,34.618l-3.884,4.963-2.4-3.637,6.161-2.187Z"/><path id="Path_8518" data-name="Path 8518" class="cls-13" d="M23.932,35.277,26.551,39.3l1.757-3.4L24.416,34.73Z"/><path id="Path_8519" data-name="Path 8519" class="cls-10" d="M34.826,34.972l-4.78,3.4-2.4-3.637,6.1-2.166Z"/><path id="Path_8520" data-name="Path 8520" class="cls-10" d="M23.771,35.277l3.238,3.372,1.7-4.01L23.97,33.4Z"/><path id="Path_8521" data-name="Path 8521" class="cls-2" d="M26.43,31.089a2.039,2.039,0,0,1,3.477-.187c.569.857-2.3,3.146-3.234,4.874s-1.893,1.131-2.461.276S24.827,33.509,26.43,31.089Z"/><path id="Path_8522" data-name="Path 8522" class="cls-12" d="M24.307,32.8A31.507,31.507,0,0,0,27.38,35.77L23.366,58.007c-.577,3.18-1.81,1.969-3.286.309L16.4,53.971C17.538,49.272,24.307,32.8,24.307,32.8Z"/></g><g id="Group_1755" data-name="Group 1755"><path id="Path_8523" data-name="Path 8523" class="cls-2" d="M82.8,37.4a3.881,3.881,0,0,0-4.581-1.172C77.4,36.757,81,39.469,82.1,41.159s2.4,1.48,3.227.947S84.721,39.843,82.8,37.4Z"/><rect id="Rectangle_2867" data-name="Rectangle 2867" class="cls-6" x="75.416" y="29.991" width="5.365" height="9.365" transform="translate(-4.187 57.711) rotate(-39.581)"/><path id="Path_8524" data-name="Path 8524" class="cls-1" d="M118.272,164.885c0,1.148-11.209,1.745-44.722,1.745-28.385,0-36.486.186-36.486-.962s18.664-4.351,44.609-4.351S118.272,163.736,118.272,164.885Z"/><path id="Path_8525" data-name="Path 8525" class="cls-14" d="M59.417,157.724s-2.764,2.194-2.756.873c.092-12.064.649-27.421.445-35.938-.054-2.3-.642-37.333,6.7-38.265,6.7-.851,3.977-.059,5.845,3.972,1.565,3.369-3.716,32.3-4.932,35.111-.407.935-1.229,5.755-1.427,6.755C60.514,144.419,59.417,157.724,59.417,157.724Z"/><path id="Path_8526" data-name="Path 8526" class="cls-15" d="M58.546,67.03l1.972,11.388c1.3,2.879,1.3,4.127-.109,6.394-.811,1.3,17,1.117,16.355-.228-1.483-3.06,1.105-5.923,1.105-7.2L78.1,67.026Z"/><path id="Path_8527" data-name="Path 8527" class="cls-5" d="M84.711,62.653c.47.428,3.158,3.739,5.066,1.511l-.248.193a5.99,5.99,0,0,0,1.343-4.819L76.035,46.357a5.312,5.312,0,0,0-7.488.579h0c-1.908,2.228.1,4.247,2.329,6.15Z"/><path id="Path_8528" data-name="Path 8528" class="cls-2" d="M86.544,44.437c-.1-.609-1.638-4.345-1.638-4.345-2.088.924-1.913,1.675-1.913,1.675l1.639,18.548c.5,2.769,2.6,4.264,4.684,3.339h0c2.086-.928,1.759-3.676,1.259-6.447Z"/><path id="Path_8529" data-name="Path 8529" class="cls-16" d="M73.805,157.265s-2.561,2.427-2.669,1.111c-.969-12.027-.385-27.374-1.338-35.838-.254-2.284-8.731-36.83-1.493-38.4,6.594-1.437,7.387-.71,9.6,3.141,1.853,3.219.51,32.384-.454,35.288-.325.965-.722,5.839-.829,6.854C75.1,143.792,73.805,157.265,73.805,157.265Z"/><path id="Path_8530" data-name="Path 8530" class="cls-5" d="M70.5,159c.1,1.093-2.995,5.066-.108,4.811,7.129-.63,7.6-.729,7.15-1.686-1.063-2.26-2.266-1.165-2.879-4.62C74.305,155.444,70.406,157.906,70.5,159Z"/><path id="Path_8531" data-name="Path 8531" class="cls-5" d="M78.34,82.9c-1.235-5.231-.139-10.351.744-14.517,1.2-5.677,1.9-9.582,1.9-9.582,0-6.791-1.338-12.462-11.07-12.462S55.44,51.891,55.44,58.681c0,0,4.9,18.028,4.877,21.033-.066,8.6-6.185,19.179-4.651,42.959.25,3.87,17.261-.687,22.774-.925C78.958,121.725,81.405,95.9,78.34,82.9Z"/><path id="Path_8532" data-name="Path 8532" class="cls-5" d="M62.253,49.153a5.306,5.306,0,0,0-6.723,3.336l0,.005L50.8,73.284a13.678,13.678,0,0,1,5.887,1.639,22.661,22.661,0,0,1,1.8-3.989l4.915-15.3C64.344,52.851,65.038,50.089,62.253,49.153Z"/><path id="Path_8533" data-name="Path 8533" class="cls-2" d="M55.509,95.735a3.882,3.882,0,0,1-2.012,4.278c-.937.294-.732-4.214-1.334-6.132s.392-2.8,1.325-3.089S54.849,92.7,55.509,95.735Z"/><path id="Path_8534" data-name="Path 8534" class="cls-2" d="M55.281,89.967a33.925,33.925,0,0,1-.889,3.663c-2.2-.6-2.364-.858-2.364-.858L51.072,73.68c.074-2.812,1.922-4.605,4.126-4.007h0c2.2.6,2.3,3.369,2.216,6.182Z"/><path id="Path_8535" data-name="Path 8535" class="cls-5" d="M55.978,159.16c0,1.1-3.431,4.782-.531,4.782,7.157,0,7.637-.057,7.269-1.05-.861-2.343-2.155-1.361-2.459-4.856C60.077,155.954,55.978,158.064,55.978,159.16Z"/><path id="Path_8536" data-name="Path 8536" class="cls-4" d="M63.128,47.659c-3.856,1.372,2.367,1.849,5.026,1.816s9.721-1.187,6.239-2.889c-5.842-2.854-.083-10.1-5.856-10.029C63.441,36.621,69.531,45.381,63.128,47.659Z"/><path id="Path_8537" data-name="Path 8537" class="cls-17" d="M75.084,27.178a2.72,2.72,0,1,1-2.79-2.649h.036a2.7,2.7,0,0,1,2.754,2.645Z"/><path id="Path_8538" data-name="Path 8538" class="cls-2" d="M61.262,34.022c.036,2.9,6.308,7.353,7.7,7.332A6.125,6.125,0,0,0,74.73,34.89c-.01-.165-.026-.33-.049-.494-.527-5.129-.789-11.1-4.717-11.055S61.193,28.567,61.262,34.022Z"/><path id="Path_8539" data-name="Path 8539" class="cls-17" d="M70.38,25.835c-6.069.078-5.655,10.769-10.55,10.833s-1.955-13.176,5.737-14.687C70.371,21.037,70.38,25.835,70.38,25.835Z"/><path id="Path_8540" data-name="Path 8540" class="cls-17" d="M73.625,24.512c.018,1.455-1.761,2.655-3.979,2.683s-4.027-1.129-4.045-2.581,1.764-2.657,3.978-2.684S73.6,23.059,73.625,24.512Z"/></g></g></svg>