<svg id="Layer_1" data-name="Layer 1" xmlns="http://www.w3.org/2000/svg" width="196.911" height="176.767" viewBox="0 0 196.911 176.767"><defs><style>.cls-1{opacity:0.1;}.cls-2{fill:#efe800;}.cls-3{fill:#fec402;}.cls-4{fill:#ff931e;}.cls-5{fill:#faa2a1;}.cls-6{fill:#ef8e8e;}.cls-7{fill:none;stroke:#faa2a1;stroke-linecap:round;stroke-miterlimit:10;stroke-width:5px;}</style></defs><title>pig-small</title><g id="Group_1926" data-name="Group 1926"><path id="Path_8727" data-name="Path 8727" class="cls-1" d="M189.17,173.807c0,1.935-24.243,2.941-96.722,2.941-61.389,0-78.911.313-78.911-1.622s40.366-7.332,96.48-7.332S189.17,171.871,189.17,173.807Z"/><g id="Group_1924" data-name="Group 1924"><path id="Path_8718" data-name="Path 8718" d="M78.7,26.83a6.2,6.2,0,0,0,6.123,5.235h20.2a6.2,6.2,0,0,0,6.123-5.235l-1.132-.211a6.2,6.2,0,0,1-4.991,2.52h-20.2a6.184,6.184,0,0,1-4.991-2.52Z"/><g id="Group_1922" data-name="Group 1922"><circle id="Ellipse_117" data-name="Ellipse 117" class="cls-2" cx="94.926" cy="23.389" r="11.389"/><circle id="Ellipse_118" data-name="Ellipse 118" class="cls-3" cx="94.927" cy="23.389" r="8.989"/><path id="Path_8351" data-name="Path 8351" class="cls-4" d="M94.927,14.909a8.984,8.984,0,0,0-8.98,8.733c0-.085-.007-.171-.007-.256a8.986,8.986,0,0,1,17.971,0c0,.085,0,.171,0,.256A8.986,8.986,0,0,0,94.927,14.909Z"/><path id="Path_8352" data-name="Path 8352" class="cls-4" d="M97.99,24.479a4.949,4.949,0,0,0-1.869-1.188c-.15-.061-.328-.123-.517-.19-.97-.337-2.3-.8-1.982-1.869a1.011,1.011,0,0,1,.762-.735,3.472,3.472,0,0,1,2.686.847l.085.086,1.259-1.143-.08-.092a4.069,4.069,0,0,0-2.581-1.414V17.67H94.284v1.149a3.573,3.573,0,0,0-1.782.839,2.507,2.507,0,0,0-.8,1.889c0,1.964,1.521,2.553,2.99,3.121a11.1,11.1,0,0,1,1.477.652,1.1,1.1,0,0,1,.612,1.11,1.264,1.264,0,0,1-.994,1.01,2.832,2.832,0,0,1-.691.092,2.64,2.64,0,0,1-2.232-1.322l-.06-.092-1.534.807.058.108a4.028,4.028,0,0,0,2.954,2.161v1.134h1.469v-1.11a3.669,3.669,0,0,0,1.907-.747,2.7,2.7,0,0,0,.989-1.9A2.6,2.6,0,0,0,97.99,24.479Z"/><path id="Path_8353" data-name="Path 8353" class="cls-2" d="M97.99,24.052a4.959,4.959,0,0,0-1.869-1.187c-.15-.062-.328-.123-.517-.189-.97-.342-2.3-.8-1.982-1.87a1.009,1.009,0,0,1,.762-.734,3.464,3.464,0,0,1,2.686.847l.085.085,1.259-1.143-.08-.092a4.075,4.075,0,0,0-2.581-1.413v-1.11H94.284v1.145a3.564,3.564,0,0,0-1.782.841,2.505,2.505,0,0,0-.8,1.889c0,1.964,1.521,2.552,2.99,3.121a11.1,11.1,0,0,1,1.477.652A1.1,1.1,0,0,1,96.781,26a1.266,1.266,0,0,1-.994,1.01,2.832,2.832,0,0,1-.691.092,2.641,2.641,0,0,1-2.232-1.321l-.06-.093L91.27,26.5l.058.108a4.025,4.025,0,0,0,2.954,2.161v1.144h1.469V28.8a3.66,3.66,0,0,0,1.907-.747,2.7,2.7,0,0,0,.989-1.9A2.6,2.6,0,0,0,97.99,24.052Z"/></g><g id="Group_1923" data-name="Group 1923"><path id="Path_8719" data-name="Path 8719" class="cls-5" d="M109.313,27.42c-.133.127-.274.246-.418.362C109.039,27.666,109.18,27.547,109.313,27.42Z"/><path id="Path_8720" data-name="Path 8720" class="cls-5" d="M106.1,29.045l.125-.024Z"/><path id="Path_8721" data-name="Path 8721" class="cls-5" d="M81.078,27.881a6.18,6.18,0,0,1-.788-.712A6.18,6.18,0,0,0,81.078,27.881Z"/><path id="Path_8722" data-name="Path 8722" class="cls-5" d="M111.15,26.83c-.375-.074-.751-.145-1.131-.211h0l1.131.211a6.2,6.2,0,0,1-6.123,5.235h-20.2A6.2,6.2,0,0,1,78.7,26.83l1.132-.211c.071.1.144.189.22.28-.076-.091-.149-.184-.22-.28-.376.066-.756.137-1.132.211C45.078,33.28,19.93,59.367,19.93,90.564c0,36.048,33.571,65.263,75,65.263s75-29.219,75-65.263C169.923,59.37,144.769,33.283,111.15,26.83Z"/><path id="Path_8723" data-name="Path 8723" class="cls-5" d="M83.635,29.024l.12.022Z"/></g></g><rect id="Rectangle_2879" data-name="Rectangle 2879" class="cls-5" y="76.06" width="38.439" height="31.545" rx="5"/><rect id="Rectangle_2880" data-name="Rectangle 2880" class="cls-5" x="54.291" y="133.421" width="31.545" height="38.439" rx="5"/><rect id="Rectangle_2881" data-name="Rectangle 2881" class="cls-5" x="110.625" y="133.421" width="31.545" height="38.439" rx="5"/><g id="Group_1925" data-name="Group 1925"><path id="Path_8724" data-name="Path 8724" class="cls-6" d="M66.3,46.716s-4.732-25.8-23.308-20.872L55.879,53.377Z"/><path id="Path_8725" data-name="Path 8725" class="cls-5" d="M42.992,25.841,42.334,45.5s9.518,1.173,13.545,7.872C55.879,53.377,57.49,29.871,42.992,25.841Z"/></g><path id="Path_8726" data-name="Path 8726" class="cls-7" d="M167.93,92.606l8.19-3.128a26.876,26.876,0,0,0,3.227-1.4,13.583,13.583,0,0,0,6.477-7.971,9.063,9.063,0,0,0,.186-5.046,5.523,5.523,0,0,0-3.243-3.714c-2.4-.876-5.166.476-6.655,2.548a14.892,14.892,0,0,0-2.228,7.232,16.672,16.672,0,0,0,.168,5.838,6.887,6.887,0,0,0,3.389,4.57,9.281,9.281,0,0,0,2.7.735c7.491,1.152,15.47-8.5,14.119-15.678"/></g></svg>