<svg id="Layer_1" data-name="Layer 1" xmlns="http://www.w3.org/2000/svg" width="196.911" height="176.767" viewBox="0 0 196.911 176.767"><defs><style>.cls-1{opacity:0.1;}.cls-2{fill:#efe800;}.cls-3{fill:#fec402;}.cls-4{fill:#ff931e;}.cls-5{fill:#faa2a1;}.cls-6{fill:#ef8e8e;}.cls-7{fill:none;stroke:#faa2a1;stroke-linecap:round;stroke-miterlimit:10;stroke-width:5px;}</style></defs><title>pig-large</title><g id="Group_1926" data-name="Group 1926"><path id="Path_8727" data-name="Path 8727" class="cls-1" d="M189.17,173.807c0,1.935-24.243,2.941-96.722,2.941-61.389,0-78.911.313-78.911-1.622s40.366-7.332,96.48-7.332S189.17,171.871,189.17,173.807Z"/><g id="Group_1924" data-name="Group 1924"><path id="Path_8718" data-name="Path 8718" d="M75.993,17.305a7.228,7.228,0,0,0,7.144,6.108h23.575a7.233,7.233,0,0,0,7.145-6.108l-1.321-.246A7.235,7.235,0,0,1,106.712,20H83.137a7.221,7.221,0,0,1-5.824-2.94Z"/><g id="Group_1922" data-name="Group 1922"><circle id="Ellipse_117" data-name="Ellipse 117" class="cls-2" cx="94.925" cy="13.29" r="13.29"/><circle id="Ellipse_118" data-name="Ellipse 118" class="cls-3" cx="94.926" cy="13.29" r="10.489"/><path id="Path_8351" data-name="Path 8351" class="cls-4" d="M94.926,3.4a10.482,10.482,0,0,0-10.478,10.19c0-.1-.008-.2-.008-.3a10.485,10.485,0,1,1,20.969,0c0,.1,0,.2-.006.3A10.484,10.484,0,0,0,94.926,3.4Z"/><path id="Path_8352" data-name="Path 8352" class="cls-4" d="M98.5,14.561a5.772,5.772,0,0,0-2.181-1.386c-.176-.071-.383-.143-.6-.221-1.133-.394-2.683-.933-2.314-2.182a1.178,1.178,0,0,1,.889-.857,4.047,4.047,0,0,1,3.134.989l.1.1L99,9.67,98.9,9.562a4.755,4.755,0,0,0-3.011-1.65v-1.3H94.176V7.957a4.163,4.163,0,0,0-2.079.979,2.921,2.921,0,0,0-.934,2.2c0,2.292,1.775,2.979,3.489,3.642a13.23,13.23,0,0,1,1.724.76,1.286,1.286,0,0,1,.714,1.3,1.474,1.474,0,0,1-1.161,1.178,3.314,3.314,0,0,1-.805.108,3.082,3.082,0,0,1-2.6-1.543l-.07-.108-1.79.942.067.126a4.7,4.7,0,0,0,3.448,2.522v1.324h1.713v-1.3a4.277,4.277,0,0,0,2.226-.871,3.153,3.153,0,0,0,1.154-2.213A3.032,3.032,0,0,0,98.5,14.561Z"/><path id="Path_8353" data-name="Path 8353" class="cls-2" d="M98.5,14.063a5.789,5.789,0,0,0-2.181-1.385c-.176-.072-.383-.144-.6-.22-1.133-.4-2.683-.933-2.314-2.182a1.179,1.179,0,0,1,.889-.858,4.047,4.047,0,0,1,3.134.989l.1.1L99,9.173,98.9,9.066a4.754,4.754,0,0,0-3.011-1.649v-1.3H94.176V7.458a4.157,4.157,0,0,0-2.079.981,2.918,2.918,0,0,0-.934,2.2c0,2.293,1.775,2.979,3.489,3.643a13.1,13.1,0,0,1,1.724.76,1.286,1.286,0,0,1,.714,1.3,1.476,1.476,0,0,1-1.161,1.178,3.314,3.314,0,0,1-.805.108,3.084,3.084,0,0,1-2.6-1.542l-.07-.108-1.79.943.067.126a4.7,4.7,0,0,0,3.448,2.522V20.9h1.713v-1.3a4.26,4.26,0,0,0,2.226-.871,3.149,3.149,0,0,0,1.154-2.214A3.037,3.037,0,0,0,98.5,14.063Z"/></g><g id="Group_1923" data-name="Group 1923"><path id="Path_8719" data-name="Path 8719" class="cls-5" d="M111.713,17.993c-.156.148-.319.288-.488.422C111.394,18.281,111.557,18.141,111.713,17.993Z"/><path id="Path_8720" data-name="Path 8720" class="cls-5" d="M107.966,19.89l.146-.028Z"/><path id="Path_8721" data-name="Path 8721" class="cls-5" d="M78.767,18.531a7.245,7.245,0,0,1-.92-.83A7.245,7.245,0,0,0,78.767,18.531Z"/><path id="Path_8722" data-name="Path 8722" class="cls-5" d="M113.857,17.305c-.439-.087-.877-.17-1.321-.246h0l1.321.246a7.233,7.233,0,0,1-7.145,6.108H83.138a7.229,7.229,0,0,1-7.145-6.108l1.32-.246c.083.111.168.22.257.327-.089-.107-.174-.216-.257-.327-.438.076-.882.159-1.32.246C36.759,24.83,7.415,55.271,7.415,91.674c0,42.063,39.173,76.153,87.516,76.153s87.517-34.095,87.517-76.153C182.436,55.275,153.086,24.834,113.857,17.305Z"/><path id="Path_8723" data-name="Path 8723" class="cls-5" d="M81.75,19.865l.139.026Z"/></g></g><rect id="Rectangle_2879" data-name="Rectangle 2879" class="cls-5" y="76.06" width="38.439" height="31.545" rx="5"/><rect id="Rectangle_2880" data-name="Rectangle 2880" class="cls-5" x="54.291" y="133.421" width="31.545" height="38.439" rx="5"/><rect id="Rectangle_2881" data-name="Rectangle 2881" class="cls-5" x="110.625" y="133.421" width="31.545" height="38.439" rx="5"/><g id="Group_1925" data-name="Group 1925"><path id="Path_8724" data-name="Path 8724" class="cls-6" d="M66.3,46.716s-4.732-25.8-23.308-20.872L55.879,53.377Z"/><path id="Path_8725" data-name="Path 8725" class="cls-5" d="M42.992,25.841,42.334,45.5s9.518,1.173,13.545,7.872C55.879,53.377,57.49,29.871,42.992,25.841Z"/></g><path id="Path_8726" data-name="Path 8726" class="cls-7" d="M167.93,92.606l8.19-3.128a26.876,26.876,0,0,0,3.227-1.4,13.583,13.583,0,0,0,6.477-7.971,9.063,9.063,0,0,0,.186-5.046,5.523,5.523,0,0,0-3.243-3.714c-2.4-.876-5.166.476-6.655,2.548a14.892,14.892,0,0,0-2.228,7.232,16.672,16.672,0,0,0,.168,5.838,6.887,6.887,0,0,0,3.389,4.57,9.281,9.281,0,0,0,2.7.735c7.491,1.152,15.47-8.5,14.119-15.678"/></g></svg>