<svg id="Layer_1" data-name="Layer 1" xmlns="http://www.w3.org/2000/svg" width="332" height="108" viewBox="0 0 332 108"><defs><style>.cls-1,.cls-2{fill:#69b8eb;}.cls-2,.cls-6,.cls-8{opacity:0.3;}.cls-2,.cls-3,.cls-6,.cls-8{isolation:isolate;}.cls-3,.cls-4{fill:#fff;}.cls-3{opacity:0.502;}.cls-5,.cls-6{fill:#00c25f;}.cls-7,.cls-8{fill:#ff8c00;}</style></defs><title>sliders</title><g id="Group_1780" data-name="Group 1780"><path class="cls-1" d="M167.5,16H2.5a2.5,2.5,0,0,1,0-5h165a2.5,2.5,0,0,1,0,5Z"/><path class="cls-2" d="M329.5,16h-162a2.5,2.5,0,0,1,0-5h162a2.5,2.5,0,0,1,0,5Z"/><circle id="Ellipse_54" data-name="Ellipse 54" class="cls-3" cx="85.5" cy="13.5" r="2.5"/><circle id="Ellipse_57" data-name="Ellipse 57" class="cls-3" cx="248.5" cy="13.5" r="2.5"/><circle id="Ellipse_55" data-name="Ellipse 55" class="cls-3" cx="2.5" cy="13.5" r="2.5"/><circle id="Ellipse_56" data-name="Ellipse 56" class="cls-3" cx="329.5" cy="13.5" r="2.5"/><g id="Group_1543" data-name="Group 1543"><g id="Ellipse_53" data-name="Ellipse 53"><circle class="cls-1" cx="167" cy="14" r="14"/><path class="cls-4" d="M167,28a14,14,0,1,1,14-14A14.015,14.015,0,0,1,167,28Zm0-26a12,12,0,1,0,12,12A12.013,12.013,0,0,0,167,2Z"/></g><g id="Favicon"><path id="Path_4801" data-name="Path 4801" class="cls-4" d="M168.965,8.671h-1.65l-.454.834.454-.834Z"/><path id="Path_4802" data-name="Path 4802" class="cls-4" d="M165.193,16.574l.875-1.587-.874,1.587Z"/><path id="Path_4803" data-name="Path 4803" class="cls-4" d="M163.133,8.671h0l2.06,3.9h0Z"/><path id="Path_4804" data-name="Path 4804" class="cls-4" d="M167.791,15.5a1.331,1.331,0,0,1-.372-.854,1.292,1.292,0,0,1,.376-.941,3.049,3.049,0,0,1,.6-.486,6.076,6.076,0,0,1,.573-.335V8.672h-1.654l-2.122,3.9-2.06-3.9h-1.684v7.9h1.966v-3.2l1.779,3.2,1.748-3.173v3.173h2.028v-.311a4.706,4.706,0,0,1-.635-.328A2.561,2.561,0,0,1,167.791,15.5Z"/><path id="Path_4806" data-name="Path 4806" class="cls-4" d="M165.746,18.608c-.026-.021-.051-.043-.074-.065C165.7,18.564,165.719,18.586,165.746,18.608Z"/><path id="Path_4807" data-name="Path 4807" class="cls-4" d="M161.545,17.926a.518.518,0,0,1-.048-.09A.518.518,0,0,0,161.545,17.926Z"/><path id="Path_4808" data-name="Path 4808" class="cls-4" d="M170.393,16.71l.038.034.039-.016Z"/><path id="Path_4809" data-name="Path 4809" class="cls-4" d="M168.711,18.929l.089-.016.121-.023-.121.023Z"/><path id="Path_4810" data-name="Path 4810" class="cls-4" d="M161.454,17.569h0v.014A.047.047,0,0,1,161.454,17.569Z"/><path id="Path_4811" data-name="Path 4811" class="cls-4" d="M166.1,16.876l-.024-.009Z"/><g id="Group_673" data-name="Group 673"><path id="Path_4812" data-name="Path 4812" class="cls-4" d="M171.459,15h0a.616.616,0,0,0,.2-.221.534.534,0,0,0-.017-.5h0s-.123-.184-.07-.3a.186.186,0,0,1,.166-.087.285.285,0,0,0,.082.011.4.4,0,0,0,.318-.17l.017-.022h-.073a5.016,5.016,0,0,0-.989.236c-.113.038-.223.078-.327.118h-.008v.072h0a.679.679,0,0,1-.073.614h0a.287.287,0,0,0-.028.048l-.007.013h.014c.113.028.232.056.355.082.083.018.17.034.254.051Zm.372-1.106Z"/><path id="Path_4813" data-name="Path 4813" class="cls-4" d="M173.558,8.09a.283.283,0,0,0-.234-.09,1.579,1.579,0,0,0-.867.425c-.353.183-.7.383-1.031.6a15.272,15.272,0,0,0-2.235,1.739h0v1.1l.021-.026a7.115,7.115,0,0,1,1.2-1.178,10.4,10.4,0,0,1,2.021-1.211,4.266,4.266,0,0,0-.272.581,8.621,8.621,0,0,0-.474,1.878v.016h.016a4.671,4.671,0,0,1,.8-.094h.01v-.009a5.836,5.836,0,0,1,1.243-3.02.341.341,0,0,0,.132-.264C173.888,8.384,173.778,8.237,173.558,8.09Zm-2.012.871.211-.13Zm.917-.526h0L172.5,8.4Zm.854-.424Z"/><path id="Path_4814" data-name="Path 4814" class="cls-4" d="M170.405,16.7h0c-.132-.031-.255-.062-.376-.1-.22-.06-.512-.143-.816-.258l-.016-.006v.234a.222.222,0,0,1-.006.051v.008h.007c.176.109.3.194.313.2l.205.168.011.009.008.006h.006c.23-.079.465-.169.7-.268l.017-.007-.013-.012Z"/><path id="Path_4815" data-name="Path 4815" class="cls-4" d="M172.253,17.983l-.015.008c-.166.087-.336.169-.5.243s-.31.133-.469.195h-.009v.01c.024.1.121.433.378.433h.015a.555.555,0,0,0,.181.031.375.375,0,0,0,.293-.124,1.015,1.015,0,0,0,.129-.782Zm-.617.881Zm.2.03Z"/></g><path id="Path_4816" data-name="Path 4816" class="cls-4" d="M173.46,12.27c-.116-.1-.763-.525-2.752.154-.24.082-.5.17-.753.273a7.924,7.924,0,0,0-1.432.718c-.292.193-.9.6-.873,1.224a1.105,1.105,0,0,0,.311.709,2.307,2.307,0,0,0,.494.391,6.043,6.043,0,0,0,1.622.653c.251.068.512.13.8.189.085.017.172.03.255.043l.093.014-.055.026c-.109.054-.224.108-.351.165a12.108,12.108,0,0,1-1.225.474,7.015,7.015,0,0,1-1.522.334,1.92,1.92,0,0,1-1.7-.475c-.006-.007-.018-.027-.027-.041a.582.582,0,0,0-.241-.243.348.348,0,0,0-.175-.022H162.2a.957.957,0,0,0-.525.2.579.579,0,0,0-.223.412v.192a.579.579,0,0,0,.223.412.934.934,0,0,0,.482.194h3.291a1.338,1.338,0,0,0,.526.5,2.937,2.937,0,0,0,1.421.3,7.656,7.656,0,0,0,1.4-.148c.32-.057.634-.137.9-.207a13.044,13.044,0,0,0,1.949-.672,8.076,8.076,0,0,0,1.02-.539c.049-.031.1-.061.15-.09a3.888,3.888,0,0,0,.338-.218l.031-.022a.729.729,0,0,0,.379-.653.932.932,0,0,0-.433-.628,3.968,3.968,0,0,0-.965-.451l-.142-.051a4.878,4.878,0,0,0-.78-.2c-.085-.016-.173-.033-.259-.052-.28-.06-.524-.122-.745-.189a3.188,3.188,0,0,1-.646-.257.664.664,0,0,1-.187-.133.465.465,0,0,1,.121-.1,2.08,2.08,0,0,1,.268-.142l.037-.017.012-.007a6.119,6.119,0,0,1,1.186-.53,5.31,5.31,0,0,1,1.032-.246,4.514,4.514,0,0,1,.545-.03h.137a1.238,1.238,0,0,0,.827-.19.531.531,0,0,0,.221-.415A.794.794,0,0,0,173.46,12.27Z"/></g></g></g><g id="Group_1781" data-name="Group 1781"><path class="cls-5" d="M249.5,56H2.5a2.5,2.5,0,0,1,0-5h247a2.5,2.5,0,0,1,0,5Z"/><path class="cls-6" d="M329.5,56h-162a2.5,2.5,0,0,1,0-5h162a2.5,2.5,0,0,1,0,5Z"/><circle id="Ellipse_54-2" data-name="Ellipse 54-2" class="cls-3" cx="85.5" cy="53.5" r="2.5"/><circle id="Ellipse_135" data-name="Ellipse 135" class="cls-3" cx="167.5" cy="53.5" r="2.5"/><circle id="Ellipse_57-2" data-name="Ellipse 57-2" class="cls-3" cx="248.5" cy="53.5" r="2.5"/><circle id="Ellipse_55-2" data-name="Ellipse 55-2" class="cls-3" cx="2.5" cy="53.5" r="2.5"/><circle id="Ellipse_56-2" data-name="Ellipse 56-2" class="cls-3" cx="329.5" cy="53.5" r="2.5"/><g id="Group_1543-2" data-name="Group 1543-2"><g id="Ellipse_53-2" data-name="Ellipse 53-2"><circle class="cls-5" cx="249" cy="54" r="14"/><path class="cls-4" d="M249,68a14,14,0,1,1,14-14A14.015,14.015,0,0,1,249,68Zm0-26a12,12,0,1,0,12,12A12.013,12.013,0,0,0,249,42Z"/></g><g id="Favicon-2"><path id="Path_4801-2" data-name="Path 4801-2" class="cls-4" d="M250.965,48.671h-1.65l-.454.834.454-.834Z"/><path id="Path_4802-2" data-name="Path 4802-2" class="cls-4" d="M247.193,56.574l.875-1.587-.874,1.587Z"/><path id="Path_4803-2" data-name="Path 4803-2" class="cls-4" d="M245.133,48.671h0l2.06,3.9h0Z"/><path id="Path_4804-2" data-name="Path 4804-2" class="cls-4" d="M249.791,55.5a1.331,1.331,0,0,1-.372-.854,1.292,1.292,0,0,1,.376-.941,3.049,3.049,0,0,1,.6-.486,6.076,6.076,0,0,1,.573-.335V48.672h-1.654l-2.122,3.9-2.06-3.9h-1.684v7.9h1.966V53.367l1.779,3.205,1.748-3.173v3.173h2.028v-.311a4.706,4.706,0,0,1-.635-.328A2.561,2.561,0,0,1,249.791,55.5Z"/><path id="Path_4806-2" data-name="Path 4806-2" class="cls-4" d="M247.746,58.608c-.026-.021-.051-.043-.074-.065C247.7,58.564,247.719,58.586,247.746,58.608Z"/><path id="Path_4807-2" data-name="Path 4807-2" class="cls-4" d="M243.545,57.926a.518.518,0,0,1-.048-.09A.518.518,0,0,0,243.545,57.926Z"/><path id="Path_4808-2" data-name="Path 4808-2" class="cls-4" d="M252.393,56.71l.038.034.039-.016Z"/><path id="Path_4809-2" data-name="Path 4809-2" class="cls-4" d="M250.711,58.929l.089-.016.121-.023-.121.023Z"/><path id="Path_4810-2" data-name="Path 4810-2" class="cls-4" d="M243.454,57.569h0v.014A.047.047,0,0,1,243.454,57.569Z"/><path id="Path_4811-2" data-name="Path 4811-2" class="cls-4" d="M248.1,56.876l-.024-.009Z"/><g id="Group_673-2" data-name="Group 673-2"><path id="Path_4812-2" data-name="Path 4812-2" class="cls-4" d="M253.459,55h0a.616.616,0,0,0,.2-.221.534.534,0,0,0-.017-.5h0s-.123-.184-.07-.3a.186.186,0,0,1,.166-.087.285.285,0,0,0,.082.011.4.4,0,0,0,.318-.17l.017-.022h-.073a5.016,5.016,0,0,0-.989.236c-.113.038-.223.078-.327.118h-.008v.072h0a.679.679,0,0,1-.073.614h0a.287.287,0,0,0-.028.048l-.007.013h.014c.113.028.232.056.355.082.083.018.17.034.254.051Zm.372-1.106Z"/><path id="Path_4813-2" data-name="Path 4813-2" class="cls-4" d="M255.558,48.09a.283.283,0,0,0-.234-.09,1.579,1.579,0,0,0-.867.425c-.353.183-.7.383-1.031.6a15.272,15.272,0,0,0-2.235,1.739h0v1.1l.021-.026a7.115,7.115,0,0,1,1.2-1.178,10.4,10.4,0,0,1,2.021-1.211,4.266,4.266,0,0,0-.272.581,8.621,8.621,0,0,0-.474,1.878v.016h.016a4.671,4.671,0,0,1,.8-.094h.01v-.009a5.836,5.836,0,0,1,1.243-3.02.341.341,0,0,0,.132-.264C255.888,48.384,255.778,48.237,255.558,48.09Zm-2.012.871.211-.13Zm.917-.526h0l.039-.031Zm.854-.424Z"/><path id="Path_4814-2" data-name="Path 4814-2" class="cls-4" d="M252.405,56.7h0c-.132-.031-.255-.062-.376-.1-.22-.06-.512-.143-.816-.258l-.016-.006v.234a.222.222,0,0,1-.006.051v.008h.007c.176.109.3.194.313.2l.205.168.011.009.008.006h.006c.23-.079.465-.169.7-.268l.017-.007-.013-.012Z"/><path id="Path_4815-2" data-name="Path 4815-2" class="cls-4" d="M254.253,57.983l-.015.008c-.166.087-.336.169-.5.243s-.31.133-.469.2h-.009v.01c.024.1.121.433.378.433h.015a.555.555,0,0,0,.181.031.375.375,0,0,0,.293-.124,1.015,1.015,0,0,0,.129-.782Zm-.617.881Zm.2.03Z"/></g><path id="Path_4816-2" data-name="Path 4816-2" class="cls-4" d="M255.46,52.27c-.116-.1-.763-.525-2.752.154-.24.082-.5.17-.753.273a7.924,7.924,0,0,0-1.432.718c-.292.193-.9.6-.873,1.224a1.105,1.105,0,0,0,.311.709,2.307,2.307,0,0,0,.494.391,6.043,6.043,0,0,0,1.622.653c.251.068.512.13.8.189.085.017.172.03.255.043l.093.014-.055.026c-.109.054-.224.108-.351.165a12.108,12.108,0,0,1-1.225.474,7.015,7.015,0,0,1-1.522.334,1.92,1.92,0,0,1-1.7-.475c-.006-.007-.018-.027-.027-.041a.582.582,0,0,0-.241-.243.348.348,0,0,0-.175-.022H244.2a.957.957,0,0,0-.525.2.579.579,0,0,0-.223.412v.192a.579.579,0,0,0,.223.412.934.934,0,0,0,.482.194h3.291a1.338,1.338,0,0,0,.526.5,2.937,2.937,0,0,0,1.421.3,7.656,7.656,0,0,0,1.4-.148c.32-.057.634-.137.9-.207a13.044,13.044,0,0,0,1.949-.672,8.076,8.076,0,0,0,1.02-.539c.049-.031.1-.061.15-.09a3.888,3.888,0,0,0,.338-.218l.031-.022a.729.729,0,0,0,.379-.653.932.932,0,0,0-.433-.628,3.968,3.968,0,0,0-.965-.451l-.142-.051a4.878,4.878,0,0,0-.78-.2c-.085-.016-.173-.033-.259-.052-.28-.06-.524-.122-.745-.189a3.188,3.188,0,0,1-.646-.257.664.664,0,0,1-.187-.133.465.465,0,0,1,.121-.1,2.08,2.08,0,0,1,.268-.142l.037-.017.012-.007a6.119,6.119,0,0,1,1.186-.53,5.31,5.31,0,0,1,1.032-.246,4.514,4.514,0,0,1,.545-.03h.137a1.238,1.238,0,0,0,.827-.19.531.531,0,0,0,.221-.415A.794.794,0,0,0,255.46,52.27Z"/></g></g></g><g id="Group_1782" data-name="Group 1782"><path class="cls-7" d="M85.5,96H2.5a2.5,2.5,0,0,1,0-5h83a2.5,2.5,0,0,1,0,5Z"/><path class="cls-8" d="M329.5,96H85.5a2.5,2.5,0,0,1,0-5h244a2.5,2.5,0,0,1,0,5Z"/><circle id="Ellipse_54-3" data-name="Ellipse 54-3" class="cls-3" cx="85.5" cy="93.5" r="2.5"/><circle id="Ellipse_57-3" data-name="Ellipse 57-3" class="cls-3" cx="248.5" cy="93.5" r="2.5"/><circle id="Ellipse_119" data-name="Ellipse 119" class="cls-3" cx="167.5" cy="93.5" r="2.5"/><circle id="Ellipse_55-3" data-name="Ellipse 55-3" class="cls-3" cx="2.5" cy="93.5" r="2.5"/><circle id="Ellipse_56-3" data-name="Ellipse 56-3" class="cls-3" cx="329.5" cy="93.5" r="2.5"/><g id="Group_1543-3" data-name="Group 1543-3"><g id="Ellipse_53-3" data-name="Ellipse 53-3"><circle class="cls-7" cx="85" cy="94" r="14"/><path class="cls-4" d="M85,108A14,14,0,1,1,99,94,14.015,14.015,0,0,1,85,108Zm0-26A12,12,0,1,0,97,94,12.014,12.014,0,0,0,85,82Z"/></g><g id="Favicon-3"><path id="Path_4801-3" data-name="Path 4801-3" class="cls-4" d="M86.965,88.671h-1.65l-.454.834.454-.834Z"/><path id="Path_4802-3" data-name="Path 4802-3" class="cls-4" d="M83.193,96.574l.875-1.587-.874,1.587Z"/><path id="Path_4803-3" data-name="Path 4803-3" class="cls-4" d="M81.133,88.671h0l2.06,3.9h0Z"/><path id="Path_4804-3" data-name="Path 4804-3" class="cls-4" d="M85.791,95.5a1.331,1.331,0,0,1-.372-.854,1.292,1.292,0,0,1,.376-.941,3.049,3.049,0,0,1,.6-.486,6.076,6.076,0,0,1,.573-.335V88.672H85.314l-2.122,3.9-2.06-3.9H79.448v7.9h1.966v-3.2l1.779,3.2L84.941,93.4v3.173h2.028v-.311a4.706,4.706,0,0,1-.635-.328A2.561,2.561,0,0,1,85.791,95.5Z"/><path id="Path_4806-3" data-name="Path 4806-3" class="cls-4" d="M83.746,98.608c-.026-.021-.051-.043-.074-.065C83.7,98.564,83.719,98.586,83.746,98.608Z"/><path id="Path_4807-3" data-name="Path 4807-3" class="cls-4" d="M79.545,97.926a.518.518,0,0,1-.048-.09A.518.518,0,0,0,79.545,97.926Z"/><path id="Path_4808-3" data-name="Path 4808-3" class="cls-4" d="M88.393,96.71l.038.034.039-.016Z"/><path id="Path_4809-3" data-name="Path 4809-3" class="cls-4" d="M86.711,98.929l.089-.016.121-.023-.121.023Z"/><path id="Path_4810-3" data-name="Path 4810-3" class="cls-4" d="M79.454,97.569h0v.014A.047.047,0,0,1,79.454,97.569Z"/><path id="Path_4811-3" data-name="Path 4811-3" class="cls-4" d="M84.1,96.876l-.024-.009Z"/><g id="Group_673-3" data-name="Group 673-3"><path id="Path_4812-3" data-name="Path 4812-3" class="cls-4" d="M89.459,95h0a.616.616,0,0,0,.2-.221.534.534,0,0,0-.017-.5h0s-.123-.184-.07-.3a.186.186,0,0,1,.166-.087.285.285,0,0,0,.082.011.4.4,0,0,0,.318-.17l.017-.022h-.073a5.016,5.016,0,0,0-.989.236c-.113.038-.223.078-.327.118h-.008v.072h0a.679.679,0,0,1-.073.614h0a.287.287,0,0,0-.028.048l-.007.013h.014c.113.028.232.056.355.082.083.018.17.034.254.051Zm.372-1.106Z"/><path id="Path_4813-3" data-name="Path 4813-3" class="cls-4" d="M91.558,88.09a.283.283,0,0,0-.234-.09,1.579,1.579,0,0,0-.867.425c-.353.183-.7.383-1.031.6a15.272,15.272,0,0,0-2.235,1.739h0v1.1l.021-.026a7.115,7.115,0,0,1,1.2-1.178,10.4,10.4,0,0,1,2.021-1.211,4.266,4.266,0,0,0-.272.581,8.621,8.621,0,0,0-.474,1.878v.016H89.7a4.671,4.671,0,0,1,.8-.094h.01v-.009a5.836,5.836,0,0,1,1.243-3.02.341.341,0,0,0,.132-.264C91.888,88.384,91.778,88.237,91.558,88.09Zm-2.012.871.211-.13Zm.917-.526h0L90.5,88.4Zm.854-.424Z"/><path id="Path_4814-3" data-name="Path 4814-3" class="cls-4" d="M88.405,96.7h0c-.132-.031-.255-.062-.376-.1-.22-.06-.512-.143-.816-.258l-.016-.006v.234a.222.222,0,0,1-.006.051v.008H87.2c.176.109.3.194.313.2l.2.168.011.009.008.006h.006c.23-.079.465-.169.7-.268l.017-.007-.013-.012Z"/><path id="Path_4815-3" data-name="Path 4815-3" class="cls-4" d="M90.253,97.983l-.015.008c-.166.087-.336.169-.5.243s-.31.133-.469.2H89.26v.01c.024.1.121.433.378.433h.015a.555.555,0,0,0,.181.031.375.375,0,0,0,.293-.124A1.015,1.015,0,0,0,90.256,98Zm-.617.881Zm.2.03Z"/></g><path id="Path_4816-3" data-name="Path 4816-3" class="cls-4" d="M91.46,92.27c-.116-.1-.763-.525-2.752.154-.24.082-.5.17-.753.273a7.924,7.924,0,0,0-1.432.718c-.292.193-.9.6-.873,1.224a1.105,1.105,0,0,0,.311.709,2.307,2.307,0,0,0,.494.391,6.043,6.043,0,0,0,1.622.653c.251.068.512.13.8.189.085.017.172.03.255.043l.093.014-.055.026c-.109.054-.224.108-.351.165a12.108,12.108,0,0,1-1.225.474,7.015,7.015,0,0,1-1.522.334,1.92,1.92,0,0,1-1.7-.475c-.006-.007-.018-.027-.027-.041a.582.582,0,0,0-.241-.243.348.348,0,0,0-.175-.022H80.2a.957.957,0,0,0-.525.2.579.579,0,0,0-.223.412v.192a.579.579,0,0,0,.223.412.934.934,0,0,0,.482.194H83.45a1.338,1.338,0,0,0,.526.5,2.937,2.937,0,0,0,1.421.3,7.656,7.656,0,0,0,1.4-.148c.32-.057.634-.137.9-.207a13.044,13.044,0,0,0,1.949-.672,8.076,8.076,0,0,0,1.02-.539c.049-.031.1-.061.15-.09a3.888,3.888,0,0,0,.338-.218l.031-.022a.729.729,0,0,0,.379-.653.932.932,0,0,0-.433-.628,3.968,3.968,0,0,0-.965-.451l-.142-.051a4.878,4.878,0,0,0-.78-.2c-.085-.016-.173-.033-.259-.052-.28-.06-.524-.122-.745-.189a3.188,3.188,0,0,1-.646-.257.664.664,0,0,1-.187-.133.465.465,0,0,1,.121-.1,2.08,2.08,0,0,1,.268-.142l.037-.017.012-.007a6.119,6.119,0,0,1,1.186-.53,5.31,5.31,0,0,1,1.032-.246,4.514,4.514,0,0,1,.545-.03h.137a1.238,1.238,0,0,0,.827-.19.531.531,0,0,0,.221-.415A.794.794,0,0,0,91.46,92.27Z"/></g></g></g></svg>