<svg id="Layer_1" data-name="Layer 1" xmlns="http://www.w3.org/2000/svg" xmlns:xlink="http://www.w3.org/1999/xlink" width="372.394" height="179.544" viewBox="0 0 372.394 179.544"><defs><style>.cls-1{opacity:0.1;}.cls-2{fill:#ffbbb5;}.cls-3{fill:#7b4842;}.cls-4{fill:#edaea9;}.cls-5{fill:#0f3871;}.cls-6{fill:#4f2e2a;}.cls-7{fill:#d33c70;}.cls-8{fill:#fff;}.cls-9{fill:#fa6961;}.cls-10{fill:#94574f;}.cls-11{fill:#ede5dd;}.cls-12{fill:#f26636;}.cls-13{fill:url(#linear-gradient);}.cls-14{fill:url(#linear-gradient-2);}.cls-15{fill:url(#linear-gradient-3);}.cls-16{fill:#fbd270;}.cls-17{fill:#69b8eb;}.cls-18{fill:url(#linear-gradient-4);}.cls-19,.cls-24{fill:#002a42;}.cls-20{fill:url(#linear-gradient-5);}.cls-21{fill:#00c25f;}.cls-22{fill:#676767;}.cls-23{fill:#9054a2;}.cls-24{opacity:0.7;isolation:isolate;}.cls-25{fill:#ffbc5e;}.cls-26{fill:#ff8b00;}.cls-27{fill:url(#linear-gradient-6);}.cls-28{fill:url(#linear-gradient-7);}.cls-29{fill:url(#linear-gradient-8);}</style><linearGradient id="linear-gradient" x1="59.496" y1="147.844" x2="58.442" y2="147.847" gradientTransform="matrix(11.657, 0, 0, -65.771, -779.12, 9837.652)" gradientUnits="userSpaceOnUse"><stop offset="0" stop-color="#ffbbb5"/><stop offset="0.185" stop-color="#feb7b2"/><stop offset="0.363" stop-color="#fcabaa"/><stop offset="0.539" stop-color="#f8989c"/><stop offset="0.713" stop-color="#f37c89"/><stop offset="0.883" stop-color="#ed5a70"/><stop offset="1" stop-color="#e83e5d"/></linearGradient><linearGradient id="linear-gradient-2" x1="75.021" y1="136.932" x2="75.137" y2="136.281" gradientTransform="matrix(17.156, 0, 0, -16.388, -1119.109, 2337.139)" gradientUnits="userSpaceOnUse"><stop offset="0" stop-color="#e83e5d"/><stop offset="0.018" stop-color="#e8405e"/><stop offset="0.694" stop-color="#f8989c"/><stop offset="1" stop-color="#ffbbb5"/></linearGradient><linearGradient id="linear-gradient-3" x1="58.146" y1="147.864" x2="57.1" y2="147.867" gradientTransform="matrix(11.802, 0, 0, -66.108, -780.44, 9888.113)" xlink:href="#linear-gradient"/><linearGradient id="linear-gradient-4" x1="141.761" y1="128.943" x2="141.5" y2="129.479" gradientTransform="matrix(2.553, 0, 0, -7.853, -28.224, 1140.566)" gradientUnits="userSpaceOnUse"><stop offset="0" stop-color="#ffbbb5"/><stop offset="0.306" stop-color="#f8989c"/><stop offset="0.982" stop-color="#e8405e"/><stop offset="1" stop-color="#e83e5d"/></linearGradient><linearGradient id="linear-gradient-5" x1="139.419" y1="133.755" x2="139.158" y2="134.291" gradientTransform="matrix(2.553, 0, 0, -7.853, -12.631, 1140.566)" xlink:href="#linear-gradient-4"/><linearGradient id="linear-gradient-6" x1="82.811" y1="146.867" x2="83.714" y2="146.804" gradientTransform="matrix(15.003, 0, 0, -57.328, -1115.653, 8590.309)" gradientUnits="userSpaceOnUse"><stop offset="0" stop-color="#e83e5d"/><stop offset="0.205" stop-color="#ef6478"/><stop offset="0.44" stop-color="#f58992"/><stop offset="0.658" stop-color="#faa4a5"/><stop offset="0.852" stop-color="#fdb5b0"/><stop offset="1" stop-color="#ffbbb5"/></linearGradient><linearGradient id="linear-gradient-7" x1="103.051" y1="147.128" x2="102.052" y2="147.132" gradientTransform="matrix(10.519, 0, 0, -56.03, -843.06, 8394.188)" xlink:href="#linear-gradient"/><linearGradient id="linear-gradient-8" x1="77.142" y1="134.582" x2="77.259" y2="133.931" gradientTransform="matrix(14.621, 0, 0, -13.957, -1095.985, 2003.9)" xlink:href="#linear-gradient-2"/></defs><title>testimonials-large-whole</title><g id="Group_1906" data-name="Group 1906"><g id="Group_1586" data-name="Group 1586"><path id="Path_8098" data-name="Path 8098" class="cls-1" d="M262.322,149.517c0,.976-9.526,1.484-38.008,1.484-24.124,0-31.009.158-31.009-.818s15.862-3.7,37.913-3.7S262.322,148.541,262.322,149.517Z"/><path id="Path_8099" data-name="Path 8099" class="cls-2" d="M214.475,146.663c.993-10.284,3.247-15.877,4.171-23.112.024-.186-1.253-8.16-1.132-8.8-2.555,1.069-3.292-6.117-5.751-7.293a11.672,11.672,0,0,0-1.382,5.323c-.036.872-.153,8.142-.077,9.008,1.065,12.331,1.949,23.889,1.949,23.889S214.366,147.79,214.475,146.663Z"/><path id="Path_8100" data-name="Path 8100" class="cls-3" d="M211.272,140.626h4.581c1.111-6.719,2.067-11.4,2.792-17.074.024-.186-1.253-8.16-1.132-8.8-2.555,1.069-3.292-6.117-5.751-7.293a11.672,11.672,0,0,0-1.382,5.323c-.036.872-.153,8.142-.077,9.008C210.933,129.081,210.915,136.1,211.272,140.626Z"/><path id="Path_8101" data-name="Path 8101" class="cls-4" d="M215.534,41.871c-1.281,2.445,3.575,1.144,5.683,1.242s6.645.221,4.824-1.857c-.669-.762-2.614-3.156-1.662-5.661,1.418-3.741-6.982-5.346-7.178-2.678C217.045,35.039,217.633,37.875,215.534,41.871Z"/><path id="Path_8102" data-name="Path 8102" class="cls-2" d="M225.147,30.958c.241,2.055.13,5.314-3.083,6.779-3.746,1.7-7.345.136-7.212-1.606.274-3.52-.019-11.029,2.576-11.346C221.869,24.242,224.694,27.092,225.147,30.958Z"/><path id="Path_8103" data-name="Path 8103" class="cls-5" d="M215.049,27.89c.681-5.731,5.1-4.648,7.584-4.16,1.98.393,5.13,1.718,3.734,6.936a16.334,16.334,0,0,1-1.161,3.392c-1.04.173.694-3.944-1.043-4.624-1.88-.736-3.915-.433-5.918-.5C215.65,28.842,215.082,28.526,215.049,27.89Z"/><path id="Path_8104" data-name="Path 8104" class="cls-5" d="M222.633,23.731c1.679.332,4.2,1.338,4.076,4.822-.736.233-1,.9-1.758,1.062-.268.056-2.154-.164-2.465-.178a13.924,13.924,0,0,0-4.24-.505c-2.6-.089-3.539-.19-3.571-.828C214.534,22.905,220.148,23.243,222.633,23.731Z"/><path id="Path_8105" data-name="Path 8105" class="cls-3" d="M210.569,70.506c-.11.565-1.87-.5-4.409-1.067h.279a5.3,5.3,0,0,1-3.52-2.737l5.518-19.692c.565-2.6,2.88-4.86,5.421-4.3l2.754,3.029c2.54.563,4.851,3.856,4.285,6.45Z"/><path id="Path_8106" data-name="Path 8106" class="cls-2" d="M187.246,55.533a1.839,1.839,0,0,1,.924-3.064c.955-.215,2.115,2.993,3.378,4.355s.423,2-.525,2.214S188.924,57.692,187.246,55.533Z"/><path id="Path_8107" data-name="Path 8107" class="cls-3" d="M188.117,57.912a29.527,29.527,0,0,0,3.647-1.7l18.787,10.58c2.687,1.515,1.206,2.193-.757,2.937l-5.077,1.794C200.842,69.028,188.117,57.912,188.117,57.912Z"/><path id="Path_8108" data-name="Path 8108" class="cls-6" d="M216.613,45.745l-2.754-3.029c-2.541-.563-4.856,1.7-5.421,4.3l-4.5,16.051-12.175-6.856a29.527,29.527,0,0,1-3.647,1.7s12.725,11.116,16.6,13.606l3.865-1.365c1.18.411,1.917.713,1.987.353l.855-1.516c.445-.281.68-.59.545-.966L220.9,52.194C221.464,49.6,219.157,46.307,216.613,45.745Z"/><path id="Path_8109" data-name="Path 8109" class="cls-5" d="M217.536,115.388c-.759-.261-7.142,3.847-7.223,3.4-.347-1.939-.747-31.542,1.4-38.915,1.615-5.542,9.216-2.281,9.989,1.445C224.53,94.953,217.569,114.855,217.536,115.388Z"/><path id="Path_8110" data-name="Path 8110" class="cls-5" d="M215.215,144.606c.021.938,1.7,4.057-.971,4.118-6.592.158-10.4.07-9.861-.667,1.5-2.042,6.672-.648,6.885-3.641C211.4,142.625,215.193,143.667,215.215,144.606Z"/><path id="Path_8111" data-name="Path 8111" class="cls-5" d="M230.958,114.911c-.774-.212-6.969,3.706-7.075,3.267-.466-1.913-3.141-28.168-6.109-28.434-5.644-.5,12.3-12.506,13.3-8.836C234.729,94.341,230.959,114.384,230.958,114.911Z"/><path id="Path_8112" data-name="Path 8112" class="cls-3" d="M231.07,80.91c-.493-1.81-5.113.2-8.987,2.753-.1-.8-.223-1.584-.379-2.347-.773-3.726-8.373-6.987-9.989-1.445-2.148,7.373-1.749,36.976-1.4,38.915.081.444,6.464-3.663,7.223-3.4a132.539,132.539,0,0,0,3.717-15.072c1.364,7.628,2.361,16.77,2.629,17.869.107.439,6.3-3.479,7.075-3.267C230.954,114.388,234.728,94.341,231.07,80.91Z"/><path id="Path_8113" data-name="Path 8113" class="cls-6" d="M221.956,91.215c2.349.453,4.56.591,6.435,2.272,2.166,1.941,3.281,3.583,3.016,7.86-.146,2.375.559,4.113.513,6.492.8-7.17,1.482-18.385-.846-26.929-.493-1.81-5.113.2-8.987,2.753-.1-.8-.223-1.584-.379-2.347-.773-3.726-8.374-6.987-9.989-1.445a57.96,57.96,0,0,0-1.287,10.776C214.272,90.873,218.149,90.488,221.956,91.215Z"/><path id="Path_8114" data-name="Path 8114" class="cls-6" d="M221.234,100.422c-.012-.025-.034-.047-.044-.072-1.571,2.668-3.811,10.709-4.417,14.4-.739,4.515,1.873,5.658,1.076,10.816-.563,3.638-2.61,11.415-3.155,15.061h1.16c1.111-6.719,2.067-11.4,2.792-17.074.02-.161-.929-6.13-1.109-8.167A132.687,132.687,0,0,0,221.234,100.422Z"/><path id="Path_8115" data-name="Path 8115" class="cls-2" d="M232.788,134.625H227.9c1.52,6.179,2.57,10.536,2.57,10.536s2.425,1.751,2.353.624A93.8,93.8,0,0,1,232.788,134.625Z"/><path id="Path_8116" data-name="Path 8116" class="cls-3" d="M228.7,140.334l4.523-.733c.025-6.81.221-11.58.032-17.3-.007-.188-2.539-7.855-2.522-8.511-2.353,1.462-4.226-5.514-6.842-6.283-.631,2.079-.447,7.433-.2,9.525.1.866.829,4.012,1.042,4.856C226.523,128.99,227.626,135.928,228.7,140.334Z"/><path id="Path_8117" data-name="Path 8117" class="cls-5" d="M233.228,143.633c.171.924,2.326,3.733-.3,4.22-6.482,1.208-10.255,1.73-9.842.916,1.153-2.254,6.484-1.7,6.216-4.694C229.142,142.287,233.053,142.712,233.228,143.633Z"/><path id="Path_8118" data-name="Path 8118" class="cls-6" d="M232.118,99.054a.559.559,0,0,1-.057-.063c-1.125,2.883-2.053,11.18-2.061,14.921-.008,4.575,2.752,5.286,2.789,10.5.024,3.682-.755,11.685-.712,15.37l1.145-.185c.025-6.81.221-11.58.032-17.3,0-.162-1.9-5.9-2.4-7.885A132.937,132.937,0,0,0,232.118,99.054Z"/><path id="Path_8119" data-name="Path 8119" class="cls-7" d="M211.562,79.209l.171-.193c-.326,7.271.818,7.169,8.194,7.516s12.061-1.687,12.387-8.958l-7.509.47Z"/><g id="Group_1576" data-name="Group 1576"><path id="Path_8120" data-name="Path 8120" class="cls-8" d="M215.544,41.456l-4.552,46.023c3.283.4,11.921.774,15.494.884V41.2A32.324,32.324,0,0,0,215.544,41.456Z"/></g><path id="Path_8121" data-name="Path 8121" class="cls-9" d="M218.364,43.326a1.265,1.265,0,1,0,1.266-1.264h0A1.266,1.266,0,0,0,218.364,43.326Z"/><path id="Path_8122" data-name="Path 8122" class="cls-9" d="M218.1,72.767l2.323-3.189-.571-25.539-.371-.017-3.4,25.2Z"/><g id="Group_1577" data-name="Group 1577"><path id="Path_8123" data-name="Path 8123" class="cls-3" d="M232.888,65.927c2.025-18.886-.128-21.41-.128-21.41a10.474,10.474,0,0,0-6-3.276c-3.148-.661-4.643,3.12-4.961,7.1-.163,2.026.278,3.837-.3,5.767a32.79,32.79,0,0,0-1,8.485,89.454,89.454,0,0,0,.18,9.879c.22,2.58.217,4.074.8,7.86.4,2.546.55,13.06,13.7,11.712C233.888,83.205,232.32,71.236,232.888,65.927Z"/><path id="Path_8124" data-name="Path 8124" class="cls-3" d="M217.057,61.44c.117-2.282.147-11.1.067-13.16-.139-3.533-.757-3.626-1.527-6.829-.118.019-.24.037-.357.057-1.342.227-5.2,2.167-5.848,4.716-.019.1-1.007,40.582-.291,42.138.909.245,4.521.009,5.458-7.017C214.707,80.239,216.765,67.1,217.057,61.44Z"/></g><path id="Path_8125" data-name="Path 8125" class="cls-10" d="M230.951,69.967c-.007.573-1.945-.19-4.565-.333l.278-.042a5.482,5.482,0,0,1-3.99-2.112l1.891-20.169c.089-2.632,1.972-5.222,4.592-5.081l3.28,2.522c3.526,1.207,4.232,6.278,3.376,8.957Z"/><path id="Path_8126" data-name="Path 8126" class="cls-2" d="M207.43,73.733a1.913,1.913,0,0,1-1.886-2.666c.4-.879,3.645.253,5.484.132s1.843.937,1.449,1.815S210.151,73.8,207.43,73.733Z"/><path id="Path_8127" data-name="Path 8127" class="cls-10" d="M209.845,74.564a29.37,29.37,0,0,0,.825-3.925l19.652-7.925c2.812-1.131,2.467.452,1.887,2.453l-1.607,5.1C226.3,71.7,209.845,74.564,209.845,74.564Z"/><path id="Path_8128" data-name="Path 8128" class="cls-11" d="M225.226,40.835l-3.643,4.654-2.248-3.411,5.777-2.051Z"/><path id="Path_8129" data-name="Path 8129" class="cls-11" d="M215.748,41.449l2.456,3.772,1.648-3.193-3.65-1.092Z"/><path id="Path_8130" data-name="Path 8130" class="cls-8" d="M225.964,41.167l-4.483,3.188-2.248-3.411,5.723-2.031Z"/><path id="Path_8131" data-name="Path 8131" class="cls-8" d="M215.6,41.451l3.036,3.162,1.6-3.76-4.444-1.159Z"/><g id="Group_1579" data-name="Group 1579"><g id="Group_1578" data-name="Group 1578"><path id="Path_8132" data-name="Path 8132" class="cls-12" d="M210.78,2.5c6.263,2.359,11.112,3.814,8.756,8.518a9.478,9.478,0,0,1-1.277,2.477h.006l-.067.058c-.083.079-.167.156-.253.232a4.681,4.681,0,0,0-1.05,5.584c-2.23-1.117-2.061-.635-3.661-2.283-1.855-.117-11.607-3.257-13.468-4.188-5.984-3-4.648-4.849-2.883-9.8C198.6-1.733,203.912-.091,210.78,2.5Z"/></g></g><g id="Group_1581" data-name="Group 1581"><g id="Group_1580" data-name="Group 1580"><path id="Path_8133" data-name="Path 8133" class="cls-8" d="M200.462,6.345a1.5,1.5,0,1,0,0-.006Z"/></g></g><g id="Group_1583" data-name="Group 1583"><g id="Group_1582" data-name="Group 1582"><path id="Path_8134" data-name="Path 8134" class="cls-8" d="M205.786,8.16a1.6,1.6,0,1,0,0-.005Z"/></g></g><g id="Group_1585" data-name="Group 1585"><g id="Group_1584" data-name="Group 1584"><path id="Path_8135" data-name="Path 8135" class="cls-8" d="M211.1,9.923a1.6,1.6,0,1,0,0-.005Z"/></g></g></g><g id="Group_1596" data-name="Group 1596"><path id="Path_8136" data-name="Path 8136" class="cls-1" d="M208.139,155.759c0,1.008-9.839,1.532-39.254,1.532-24.914,0-32.025.163-32.025-.845s16.382-3.818,39.155-3.818S208.139,154.752,208.139,155.759Z"/><path id="Path_8137" data-name="Path 8137" class="cls-13" d="M156.48,149.473s-2.426,1.926-2.419.766c.081-10.589.57-24.069.39-31.543-.047-2.017-.563-32.769,5.885-33.587,5.877-.747,3.491-.052,5.13,3.486,1.374,2.957-3.261,28.354-4.329,30.818-.357.82-1.079,5.051-1.252,5.929C157.445,137.795,156.48,149.473,156.48,149.473Z"/><path id="Path_8138" data-name="Path 8138" class="cls-14" d="M155.716,69.868l1.731,10c1.142,2.527,1.142,3.622-.1,5.612-.711,1.143,14.922.98,14.355-.2-1.3-2.686.97-5.2.97-6.316l.2-9.091Z"/><path id="Path_8139" data-name="Path 8139" class="cls-5" d="M175.142,71.886c.161.533.7,4.238,3.138,3.417l-.274.034a5.255,5.255,0,0,0,3.18-3.028L175.931,55.7a4.663,4.663,0,0,0-5.9-2.931h0c-2.441.821-1.833,3.247-1.01,5.683Z"/><path id="Path_8140" data-name="Path 8140" class="cls-2" d="M197.561,64.166a3.409,3.409,0,0,0,.113-4.15c-.616-.6-2.238,3.011-3.471,4.277s-.8,2.345-.184,2.947S195.84,66.285,197.561,64.166Z"/><path id="Path_8141" data-name="Path 8141" class="cls-2" d="M192.26,68.738c.5-.2,3.4-2.246,3.4-2.246-1.2-1.607-1.806-1.312-1.806-1.312L178.3,70.186c-2.273.967-3.145,3.054-1.948,4.658h0c1.2,1.606,3.488.792,5.763-.174Z"/><path id="Path_8142" data-name="Path 8142" class="cls-15" d="M169.11,149.071s-2.248,2.13-2.343.975c-.85-10.556-.338-24.027-1.175-31.456-.223-2-7.663-32.326-1.31-33.708,5.788-1.262,6.484-.623,8.429,2.757,1.626,2.825.447,28.424-.4,30.973-.285.847-.633,5.125-.727,6.016C170.244,137.245,169.11,149.071,169.11,149.071Z"/><path id="Path_8143" data-name="Path 8143" class="cls-5" d="M166.21,150.59c.086.959-2.628,4.446-.094,4.223,6.258-.553,6.673-.641,6.276-1.48-.933-1.984-1.989-1.023-2.527-4.055C169.548,147.472,166.126,149.628,166.21,150.59Z"/><path id="Path_8144" data-name="Path 8144" class="cls-5" d="M173.085,83.8c-1.084-4.591-.122-9.085.653-12.742,1.053-4.983,1.669-8.411,1.669-8.411,0-5.961-1.175-10.938-9.717-10.938s-12.7,4.873-12.7,10.833c0,0,4.3,15.824,4.28,18.462-.058,7.544-5.429,16.834-4.083,37.707.219,3.4,15.151-.6,19.989-.812C173.631,117.875,175.779,95.2,173.085,83.8Z"/><path id="Path_8145" data-name="Path 8145" class="cls-5" d="M158.969,54.176a4.659,4.659,0,0,0-5.9,2.933h0l-4.15,18.248a12,12,0,0,1,5.168,1.438,19.879,19.879,0,0,1,1.582-3.5l4.314-13.434C160.805,57.422,161.414,55,158.969,54.176Z"/><path id="Path_8146" data-name="Path 8146" class="cls-2" d="M140.678,93.56a3.407,3.407,0,0,1-4.134-.347c-.529-.681,3.242-1.891,4.636-2.973s2.42-.532,2.947.145S142.972,92.087,140.678,93.56Z"/><path id="Path_8147" data-name="Path 8147" class="cls-2" d="M145.393,89.457a29.448,29.448,0,0,1-2.193,2.477c-1.461-1.371-1.482-1.636-1.482-1.636l7.1-15.207c1.212-2.152,3.381-2.784,4.846-1.415h0c1.461,1.37.4,3.556-.818,5.706Z"/><path id="Path_8148" data-name="Path 8148" class="cls-5" d="M153.461,150.734c0,.961-3.012,4.2-.466,4.2,6.282,0,6.7-.05,6.381-.922-.755-2.057-1.891-1.194-2.159-4.262C157.058,147.92,153.461,149.772,153.461,150.734Z"/><path id="Path_8149" data-name="Path 8149" class="cls-4" d="M159.74,52.865c-3.384,1.2,2.077,1.624,4.412,1.594s8.533-1.042,5.477-2.536c-5.128-2.505-.073-8.866-5.14-8.8C160.012,43.176,165.357,50.865,159.74,52.865Z"/><path id="Path_8150" data-name="Path 8150" class="cls-16" d="M170.231,34.888a2.388,2.388,0,1,1-2.449-2.326h.032a2.37,2.37,0,0,1,2.417,2.322Z"/><path id="Path_8151" data-name="Path 8151" class="cls-2" d="M158.1,40.9c.031,2.544,5.537,6.453,6.763,6.435a5.376,5.376,0,0,0,5.058-5.675c-.009-.145-.023-.289-.043-.433-.463-4.5-.692-9.745-4.14-9.7S158.039,36.107,158.1,40.9Z"/><path id="Path_8152" data-name="Path 8152" class="cls-16" d="M166.1,33.711c-5.327.069-4.964,9.452-9.26,9.508s-1.716-11.565,5.036-12.892C166.1,29.494,166.1,33.711,166.1,33.711Z"/><path id="Path_8153" data-name="Path 8153" class="cls-16" d="M168.949,32.549c.016,1.277-1.546,2.331-3.492,2.355s-3.535-.99-3.551-2.266,1.549-2.332,3.491-2.356S168.932,31.274,168.949,32.549Z"/><g id="Group_1595" data-name="Group 1595"><g id="Group_1588" data-name="Group 1588"><g id="Group_1587" data-name="Group 1587"><path id="Path_8154" data-name="Path 8154" class="cls-17" d="M187.3,17.184c-9.113,1.279-16.057,1.772-14.312,8.793.286,1.152.339,2.738.968,3.708h-.009l.072.1q.13.2.27.387a6.437,6.437,0,0,1-.271,7.808c3.329-.827,2.956-.231,5.6-1.962,2.525.4,16.554-.875,19.33-1.566,8.93-2.221,7.7-5.106,6.819-12.287C204.91,15.178,197.287,15.781,187.3,17.184Z"/></g></g><g id="Group_1590" data-name="Group 1590"><g id="Group_1589" data-name="Group 1589"><path id="Path_8155" data-name="Path 8155" class="cls-8" d="M179.583,26.844a2.174,2.174,0,1,0,1.852-2.454h0a2.172,2.172,0,0,0-1.851,2.453Z"/></g></g><g id="Group_1592" data-name="Group 1592"><g id="Group_1591" data-name="Group 1591"><path id="Path_8156" data-name="Path 8156" class="cls-8" d="M187.656,25.782a2.174,2.174,0,1,0,1.853-2.454A2.174,2.174,0,0,0,187.656,25.782Z"/></g></g><g id="Group_1594" data-name="Group 1594"><g id="Group_1593" data-name="Group 1593"><path id="Path_8157" data-name="Path 8157" class="cls-8" d="M195.683,24.661a2.175,2.175,0,1,0,1.854-2.454h0A2.174,2.174,0,0,0,195.683,24.661Z"/></g></g></g></g><g id="Group_1607" data-name="Group 1607"><path id="Path_8158" data-name="Path 8158" class="cls-1" d="M372.394,178.113c0,.936-9.134,1.422-36.445,1.422-23.131,0-29.733.151-29.733-.784s15.21-3.545,36.353-3.545S372.394,177.177,372.394,178.113Z"/><path id="Path_8159" data-name="Path 8159" class="cls-5" d="M341.38,77.062c0,9.155,3.14,3.741,4.021,11.19.444,3.731,3.1.018,2.855-6.3-.129-3.368-2.9-6.987-2.9-10.163,0-9.153,8-5.768,5.559-8.5C347.457,59.405,341.38,67.908,341.38,77.062Z"/><path id="Path_8160" data-name="Path 8160" class="cls-18" d="M339.305,173.555a1.347,1.347,0,0,0,1.275,1.41h0a1.345,1.345,0,0,0,1.275-1.41v-5.031a1.346,1.346,0,0,0-1.275-1.412h0a1.346,1.346,0,0,0-1.275,1.412Z"/><g id="Group_1597" data-name="Group 1597"><path id="Path_8161" data-name="Path 8161" class="cls-5" d="M348.325,113.931c-4.137-2.12-6.328-1.532-7.647,1.858-3.708,9.541-4.658,25.009-4.658,28.1,0,6.2,3.415,26.643,3.415,26.643s3.323,1.216,3.294.293c-.4-14.394,1.18-13.285,1.108-18.4-.04-2.966-.985-5.691-.757-8.226.069-.791,3.78-7.5,4.689-9.863a140.679,140.679,0,0,0,4.446-14.182C353.074,117.087,349.88,114.727,348.325,113.931Z"/></g><g id="Group_1598" data-name="Group 1598"><path id="Path_8162" data-name="Path 8162" class="cls-19" d="M348.325,113.934q-.418-.213-.808-.388a10.782,10.782,0,0,1,.547,4.214,35.154,35.154,0,0,1-.86,5.492h0c-.059.24-.09,7.587-1.312,10.21-1.192,2.557-4.5,9.509-4.269,11.592.148,1.352.381,6.727.4,8.093-.018,2.428-.592,12.931-.526,17.778.939.25,1.255.441,1.236-.1-.4-14.394,1.18-13.285,1.108-18.4-.04-2.966-.985-5.691-.757-8.226.069-.791,3.779-7.5,4.689-9.863a140.679,140.679,0,0,0,4.446-14.182C353.079,117.086,349.88,114.727,348.325,113.934Z"/></g><path id="Path_8163" data-name="Path 8163" class="cls-5" d="M354.9,113.268l-.157-.178c0,6.546-1.1,6.409-8.224,6.409s-5.845-.5-5.845-7.05l1.513-.785Z"/><path id="Path_8164" data-name="Path 8164" class="cls-20" d="M354.9,173.555a1.347,1.347,0,0,0,1.276,1.41h0a1.346,1.346,0,0,0,1.274-1.41v-5.031a1.346,1.346,0,0,0-1.274-1.412h0a1.346,1.346,0,0,0-1.276,1.412Z"/><path id="Path_8165" data-name="Path 8165" class="cls-5" d="M354.714,169.356s3.086.323,3.078-.756c-.073-9.827-.468-18.106-.3-25.041.047-1.873,3.33-30.4-2.653-31.165-5.453-.694-6.046-.048-7.567,3.236-1.274,2.742,1.9,26.312,2.894,28.6.332.761,1,4.688,1.162,5.5C353.591,161.28,354.714,169.356,354.714,169.356Z"/><path id="Path_8166" data-name="Path 8166" class="cls-19" d="M357.487,143.559c.046-1.873,3.331-30.4-2.653-31.165-4.274-.543-5.561-.258-6.651,1.468-4.043-2.031-6.2-1.423-7.5,1.927a47.531,47.531,0,0,0-1.718,5.521c2.922,3.634,12.994-1.3,16.556,1,3.159,2.04.588,18.807.718,21.919.144,3.5.413,25.14.825,25.03s.736-.316.734-.66C357.714,158.772,357.324,150.493,357.487,143.559Z"/><path id="Path_8167" data-name="Path 8167" class="cls-5" d="M329.842,89.237c-.513.084-3.818,1.155-4.133-1.214l.088.243a4.866,4.866,0,0,1,1.217-3.886L343,81.953a4.324,4.324,0,0,1,4.859,3.713v0h0c.317,2.368-1.952,2.853-4.319,3.17Z"/><path id="Path_8168" data-name="Path 8168" class="cls-2" d="M310.877,75.783a3.163,3.163,0,0,1,.494-3.819c.653-.458,1.617,3.084,2.561,4.424a1.773,1.773,0,0,1-.258,2.728C313.019,79.57,312.145,77.973,310.877,75.783Z"/><path id="Path_8169" data-name="Path 8169" class="cls-5" d="M313.266,79.8a18.92,18.92,0,0,1-1.67-1.4,29.14,29.14,0,0,0,2.463-2.793l13.6,8.483c1.943,1.215,2.44,3.256,1.107,4.552h0c-1.33,1.3-3.311.22-5.252-.994Z"/><path id="Path_8170" data-name="Path 8170" class="cls-8" d="M345.321,91.674c.162,2.863-1.434,12.087,4.32,10.256,4.108-1.307,3.9-4.909,5.666-8.152a8.846,8.846,0,0,1,3.485-3.4c-.475-5.029-4.331-8.978-11.736-8.978a19.406,19.406,0,0,0-2.606.157.569.569,0,0,1-.248.389,5.48,5.48,0,0,0-.743.617A25.362,25.362,0,0,1,345.321,91.674Z"/><path id="Path_8171" data-name="Path 8171" class="cls-5" d="M358.848,91.449a9.33,9.33,0,0,0-6.124-9.067c-1.275,1.367-3.407,3.5-3.887,5.261-.847,3.1.075,2.95-.147,6.163,0,.005-1.639,15.464-1.638,15.55,0,.706-1.151-14.819-1.577-17.518-.243-1.545,1.449-3.516.651-4.88-.326-.554-1.441-3.647-1.879-4.115a.492.492,0,0,1-.236-.159,4.193,4.193,0,0,1-.585-.946c-4.469,1-4.837,4.163-4.837,8.685,0,0,4.146,7.992,1.139,25.933-.835,4.991,19.544,3.218,19.111.808C357.266,108.42,358.848,91.449,358.848,91.449Z"/><path id="Path_8172" data-name="Path 8172" class="cls-2" d="M357.639,115.472l-1.385,3.6a3.23,3.23,0,0,1-2.668,2.237c2.2.924,3.563,1.565,4.489-.635l2.594-4.866Q359.15,115.669,357.639,115.472Z"/><path id="Path_8173" data-name="Path 8173" class="cls-5" d="M365.246,99.909c.268.444,2.643,2.944.568,4.127l.193-.172a7.03,7.03,0,0,1-4.025.93l-8.3-14.48a4.327,4.327,0,0,1,1.609-5.9h0c2.075-1.182,3.381.734,4.566,2.808Z"/><path id="Path_8174" data-name="Path 8174" class="cls-5" d="M357.429,116.021l2.681-6.964s.951-2.47,1.055-2.773c.415-1.205.414-2.192-1.19-4.99,0,0,.432-1.347,2.633-.421l1.569-.315c2.891.334,3.206,2.664,1.706,5.464l-5.543,10.4Z"/><path id="Path_8175" data-name="Path 8175" class="cls-4" d="M353.027,82.292c2.986,1.021-1.81,1.447-3.864,1.447s-7.514-.822-4.843-2.167c4.48-2.259-.035-7.8,4.423-7.8C352.677,73.774,348.061,80.593,353.027,82.292Z"/><path id="Path_8176" data-name="Path 8176" class="cls-2" d="M354.331,71.749c0,2.235-4.8,5.733-5.876,5.733-1.1,0-4.765-3.731-4.474-5.316.709-3.915.5-8.574,3.532-8.574S354.331,67.538,354.331,71.749Z"/><path id="Path_8177" data-name="Path 8177" class="cls-5" d="M360.429,77.062c0,9.155-3.977,5.42-4.858,12.868-.444,3.73-7.923-1.661-7.68-7.983.129-3.368,5.206-6.987,5.206-10.163,0-9.153-5.48-5.768-3.041-8.5C353.52,59.405,360.429,67.908,360.429,77.062Z"/><path id="Path_8178" data-name="Path 8178" class="cls-5" d="M342.816,66.992c-.132.8,8.707,1.679,10.629,1.679s-1.26-3.1-1.26-3.916-2.033-2.385-3.956-2.385A5.459,5.459,0,0,0,342.816,66.992Z"/><path id="Path_8179" data-name="Path 8179" class="cls-8" d="M342.426,174.379c0,.894,1.559,3.9-1.034,3.9-6.4,0-10.095-.171-9.555-.857.093-.12-.119-1,0-1.092,1.785-1.424,6.506.449,6.761-2.219C338.763,172.41,342.426,173.487,342.426,174.379Z"/><path id="Path_8180" data-name="Path 8180" class="cls-8" d="M358.409,174.378c0,.54,1.094,1.2,1.38,2.155.188.623-.014,1.744-.949,1.744-5.831,0-6.442-.1-6.141-.915.175-.476.12-1.042.321-1.28.6-.712,1.716-.481,1.9-2.613C355.07,171.768,358.409,173.487,358.409,174.378Z"/><path id="Path_8181" data-name="Path 8181" class="cls-5" d="M342.426,173.289c0,.9,1.559,3.9-1.034,3.9-6.4,0-10.095-.171-9.555-.857,1.5-1.907,6.489-.464,6.761-3.31C338.763,171.318,342.426,172.4,342.426,173.289Z"/><path id="Path_8182" data-name="Path 8182" class="cls-5" d="M358.409,173.285c0,.9,2.794,3.9.431,3.9-5.831,0-6.22-.046-5.92-.857.7-1.907,1.755-1.107,2-3.95C355.069,170.677,358.409,172.4,358.409,173.285Z"/><g id="Group_1600" data-name="Group 1600"><g id="Group_1599" data-name="Group 1599"><path id="Path_8183" data-name="Path 8183" class="cls-21" d="M355.018,52.313c9.8-.434,12.187-9.413,12.255-11.811.15-5.327-1.743-10.373-9.845-12.217-6.61-1.5-11.988.368-14.806,4.461-3.022,4.39-2.843,10.735,1.992,15.486a15.513,15.513,0,0,0,2.047,1.694l3.556,5.487a5.13,5.13,0,0,1,4.322-3.062C354.7,52.342,355.018,52.313,355.018,52.313Z"/></g></g><g id="Group_1602" data-name="Group 1602"><g id="Group_1601" data-name="Group 1601"><path id="Path_8184" data-name="Path 8184" class="cls-8" d="M345.618,38.582a1.736,1.736,0,1,0,1.969-1.467h0a1.735,1.735,0,0,0-1.968,1.465Z"/></g></g><g id="Group_1604" data-name="Group 1604"><g id="Group_1603" data-name="Group 1603"><path id="Path_8185" data-name="Path 8185" class="cls-8" d="M352.046,39.575a1.736,1.736,0,1,0,1.969-1.467A1.736,1.736,0,0,0,352.046,39.575Z"/></g></g><g id="Group_1606" data-name="Group 1606"><g id="Group_1605" data-name="Group 1605"><path id="Path_8186" data-name="Path 8186" class="cls-8" d="M358.449,40.512a1.737,1.737,0,1,0,1.97-1.467h0A1.737,1.737,0,0,0,358.449,40.512Z"/></g></g></g><g id="Group_1617" data-name="Group 1617"><path id="Path_8187" data-name="Path 8187" class="cls-1" d="M327.583,169.349c0,.909-8.871,1.381-35.394,1.381-22.464,0-28.876.147-28.876-.762s14.771-3.443,35.3-3.443S327.583,168.44,327.583,169.349Z"/><path id="Path_8188" data-name="Path 8188" class="cls-2" d="M291.85,166.639c-.884-9.627-2.889-14.864-3.712-21.634-.021-.174,1.115-7.637,1.006-8.24,2.276,1,2.931-5.727,5.12-6.828a11.36,11.36,0,0,1,1.231,4.982c.031.816.135,7.621.068,8.432-.948,11.543-1.734,22.361-1.734,22.361S291.947,167.7,291.85,166.639Z"/><path id="Path_8189" data-name="Path 8189" class="cls-2" d="M281.02,166.575c.7-9.644,1.564-14.991,2.257-21.779.018-.176.237-6.39.333-6.994-2.254,1.049-3.494-6.814-5.7-7.866a11.382,11.382,0,0,0-1.136,5.008c-.016.817.01,7.622.093,8.432,1.168,11.518,2.16,22.316,2.16,22.316S280.943,167.629,281.02,166.575Z"/><path id="Path_8190" data-name="Path 8190" class="cls-5" d="M294.7,160.99h-4.077c-.989-6.289-1.84-10.666-2.485-15.982-.021-.174,1.115-7.637,1.006-8.24,2.276,1,2.931-5.727,5.12-6.828a11.36,11.36,0,0,1,1.231,4.982c.031.816.135,7.621.068,8.432C295,150.185,295.02,156.76,294.7,160.99Z"/><path id="Path_8191" data-name="Path 8191" class="cls-11" d="M294.286,97.015c.03.538,1.708-.235,4.015-.443l-.247-.031a4.712,4.712,0,0,0,3.428-2.1l-2.545-18.954c-.192-2.478-1.967-4.867-4.274-4.66L291.877,73.3a5.606,5.606,0,0,0-4.542,5.452Z"/><path id="Path_8192" data-name="Path 8192" class="cls-2" d="M316,88.1a1.6,1.6,0,0,0-.247-2.838c-.83-.362-2.521,2.219-3.944,3.172s-.779,1.661.046,2.024S314.044,89.671,316,88.1Z"/><path id="Path_8193" data-name="Path 8193" class="cls-11" d="M314.74,90.009a27.677,27.677,0,0,1-3.006-2.153l-19.267,5.767c-2.755.827-1.533,1.689.117,2.7l4.3,2.494C300.915,97.355,314.74,90.009,314.74,90.009Z"/><path id="Path_8194" data-name="Path 8194" class="cls-11" d="M298.468,95.248c-2.328-2.176-1.347-16.555-1.415-18.417-.077-2.066.041-3.073.083-5.139a3.273,3.273,0,0,0-2.473-.867l-2.786,2.469a5.606,5.606,0,0,0-4.542,5.452l5.607,14.736-.474.142c-2.755.827-1.533,1.689.117,2.7l4.3,2.494c4.035-1.458,17.861-8.8,17.861-8.8-.715-.437-.315-.37-.834-.755C313.492,89.4,300.007,96.688,298.468,95.248Z"/><path id="Path_8195" data-name="Path 8195" class="cls-5" d="M289.125,137.365c.675-.244,6.356,3.6,6.427,3.184.309-1.814.665-29.521-1.246-36.424-1.438-5.186-8.2-2.135-8.889,1.353C282.9,118.241,289.1,136.869,289.125,137.365Z"/><path id="Path_8196" data-name="Path 8196" class="cls-3" d="M291.192,164.717c-.019.878-1.513,3.8.864,3.853,5.867.147,9.256.067,8.777-.624-1.334-1.912-5.939-.606-6.128-3.409C294.589,162.862,291.211,163.838,291.192,164.717Z"/><path id="Path_8197" data-name="Path 8197" class="cls-5" d="M282.525,160.991h-3.939c-.4-4.222-1.029-10.792-1.721-17.617-.083-.81-.109-7.615-.093-8.432a11.382,11.382,0,0,1,1.136-5.008c2.21,1.052,3.449,8.915,5.7,7.866-.1.6-.315,6.819-.333,6.994C282.73,150.148,283.121,154.615,282.525,160.991Z"/><path id="Path_8198" data-name="Path 8198" class="cls-3" d="M281.668,165.369c.026.917,2.787,3.909.528,3.985-5.574.186-5.949.15-5.687-.691.614-1.98,1.645-1.191,1.8-4.122C278.4,162.8,281.642,164.454,281.668,165.369Z"/><path id="Path_8199" data-name="Path 8199" class="cls-5" d="M277.183,136.925c.688-.2,6.2,3.469,6.3,3.058.415-1.791,2.794-26.365,5.437-26.614,5.022-.472-10.946-11.7-11.834-8.272C273.825,117.668,277.183,136.429,277.183,136.925Z"/><path id="Path_8200" data-name="Path 8200" class="cls-5" d="M277.083,105.1c.438-1.694,4.549-.346,8,2.047a16.835,16.835,0,0,1,.339-1.666c.687-3.488,7.451-6.539,8.889-1.353,1.911,6.9,1.555,34.61,1.246,36.424-.071.417-5.752-3.428-6.427-3.184a129.385,129.385,0,0,1-3.308-14.108c-1.214,7.139-2.1,15.7-2.34,16.725-.1.41-5.609-3.258-6.3-3.059C277.183,136.425,273.825,117.667,277.083,105.1Z"/><path id="Path_8201" data-name="Path 8201" class="cls-19" d="M285.834,123.361a.6.6,0,0,0,.041-.069c1.4,2.5,3.391,10.025,3.93,13.48.658,4.225-1.667,5.294-.957,10.122.5,3.407,2.323,10.685,2.808,14.1h-1.033c-.989-6.289-1.84-10.666-2.485-15.982-.018-.15.826-5.737.987-7.644A129.829,129.829,0,0,1,285.834,123.361Z"/><path id="Path_8202" data-name="Path 8202" class="cls-19" d="M276.8,134.208c-.776-5.728-2.26-19.3.28-29.111.438-1.694,4.549-.346,8,2.047a16.835,16.835,0,0,1,.339-1.666c.687-3.488,7.451-6.539,8.889-1.353.494,1.786.5.794.736,4.56-9.227,3.239-16.753-1.842-17.543,6.1-.733,7.37.971,15.985,1.444,30.183.182,5.468-.325,10.961,1.58,16.023h-1.942c-.4-4.222-1.029-10.792-1.721-17.617-.083-.81-.109-7.615-.093-8.432C276.776,134.686,276.783,134.442,276.8,134.208Z"/><path id="Path_8203" data-name="Path 8203" class="cls-11" d="M297.432,72.632c-.574-2.386-5.07-4.2-6.263-4.414l-.317-.053h0a27.312,27.312,0,0,0-9.692-.239v.01c-.08.011-.157.014-.239.032-2.11.466-5.052,1.4-6.4,3.065,0,0-1.915,2.362-.112,20.04.507,4.969,1.569,4.283,1.6,14.984,2.647.722,17.7-.115,18.513-.344C295.8,83.789,297.45,72.722,297.432,72.632Z"/><path id="Path_8204" data-name="Path 8204" class="cls-11" d="M283.723,103.716c-2.581-.418-3.865-2.964-4.579-5.268-1.5-4.86-4.471-11.481-.613-15.5,3.5-3.641-.165-7.074-.225-12.121-1.489.534-2.947-.833-3.79.2,0,0-1.915,2.362-.112,20.04.507,4.969,1.569,4.283,1.6,14.984,2.243.613,13.4.1,17.24-.2C290.041,105.426,286.9,104.231,283.723,103.716Z"/><path id="Path_8205" data-name="Path 8205" class="cls-22" d="M295.78,105.969c0,.724-.058,1.312-.781,1.312H276.514c-.724,0-.781-.588-.781-1.312h0c0-.723.057-1.311.781-1.311H295c.724,0,.781.588.781,1.311Z"/><path id="Path_8206" data-name="Path 8206" class="cls-11" d="M264.411,87.143c-.4.364,1.262,1.175,2.88,2.831l-.131-.211a10.8,10.8,0,0,0,3.8,2.388L282.448,78.2a4.48,4.48,0,0,0,.379-6.257l-1.554-1.658a5.607,5.607,0,0,0-7.1-.073Z"/><path id="Path_8207" data-name="Path 8207" class="cls-2" d="M276.644,109.541a1.6,1.6,0,0,0,2.732-.81c.19-.886-2.677-2.026-3.9-3.231s-1.782-.43-1.974.452S274.712,107.936,276.644,109.541Z"/><path id="Path_8208" data-name="Path 8208" class="cls-11" d="M274.52,108.686a27.4,27.4,0,0,1,1.508-3.376L269.7,87.585c-1.361-2.534-5.142-1.165-5.8.653l-1.585,4.707C264.558,96.607,274.52,108.686,274.52,108.686Z"/><path id="Path_8209" data-name="Path 8209" class="cls-4" d="M290.906,67.534c1.141,2.289-3.181,1.565-5.057,1.657s-6.867.224-5.247-1.72c.6-.713,3.281-2.442,2.433-4.787-1.262-3.5,6.213-5,6.388-2.506C289.564,62.162,289.039,63.793,290.906,67.534Z"/><path id="Path_8210" data-name="Path 8210" class="cls-2" d="M282.352,58.345c-.214,1.923-.116,4.973,2.744,6.344,3.334,1.6,6.537.127,6.418-1.5-.245-3.3.016-10.324-2.294-10.621C285.269,52.057,282.756,54.724,282.352,58.345Z"/><path id="Path_8211" data-name="Path 8211" class="cls-5" d="M281.036,54.72A12.871,12.871,0,0,0,282,58.859c.941,0,1.061-3.82,4.046-3.449,6.856.853,6.257-3.206,6.728-4.3.089-.207-1.44,1.064-5.164-1.011C284.585,48.414,281.036,52.857,281.036,54.72Z"/><path id="Path_8212" data-name="Path 8212" class="cls-11" d="M280,68.727l5.2,4.238,2.12-3.352-7.327-1.59Z"/><path id="Path_8213" data-name="Path 8213" class="cls-11" d="M291.433,68.727l-2.557,3.709-2.12-2.822,4.677-1.59Z"/><path id="Path_8214" data-name="Path 8214" class="cls-11" d="M280,68.726l5.207,3.18,2.12-3.352L280,66.964Z"/><path id="Path_8215" data-name="Path 8215" class="cls-11" d="M291.433,68.2l-3.087,3.709-2.12-3.352,5.207-1.59Z"/><path id="Path_8216" data-name="Path 8216" class="cls-11" d="M287.154,75.976a.7.7,0,1,0,.7-.7.7.7,0,0,0-.7.7Z"/><path id="Path_8217" data-name="Path 8217" class="cls-11" d="M287.854,82.911a.7.7,0,1,0,.7-.7.7.7,0,0,0-.7.7Z"/><path id="Path_8218" data-name="Path 8218" class="cls-11" d="M287.854,90.3a.7.7,0,1,0,.7-.7.7.7,0,0,0-.7.7Z"/><path id="Path_8219" data-name="Path 8219" class="cls-11" d="M287.854,98.225a.7.7,0,1,0,.7-.7.7.7,0,0,0-.7.7Z"/><g id="Group_1610" data-name="Group 1610"><g id="Group_1609" data-name="Group 1609"><g id="Group_1608" data-name="Group 1608"><path id="Path_8220" data-name="Path 8220" class="cls-23" d="M312.678,24.655c-9.214,1.3-15.857,3.92-14.838,11.164.167,1.189.531,6.612,1.063,7.653h-.009c.022.035.042.071.063.107q.111.211.231.418a6.509,6.509,0,0,1-1.092,7.824c3.434-.483,7.3.077,10.137-1.385,2.5.668,12.439.856,15.3.453,9.214-1.3,8.689-12.52,7.67-19.764S321.891,23.359,312.678,24.655Z"/></g></g></g><g id="Group_1612" data-name="Group 1612"><g id="Group_1611" data-name="Group 1611"><path id="Path_8221" data-name="Path 8221" class="cls-8" d="M304.645,38.044a2.135,2.135,0,1,0,2.042-2.224h0A2.134,2.134,0,0,0,304.645,38.044Z"/></g></g><g id="Group_1614" data-name="Group 1614"><g id="Group_1613" data-name="Group 1613"><path id="Path_8222" data-name="Path 8222" class="cls-8" d="M312.636,37.764a2.135,2.135,0,1,0,2.042-2.224h0A2.135,2.135,0,0,0,312.636,37.764Z"/></g></g><g id="Group_1616" data-name="Group 1616"><g id="Group_1615" data-name="Group 1615"><path id="Path_8223" data-name="Path 8223" class="cls-8" d="M320.585,37.422a2.135,2.135,0,1,0,2.042-2.224h0A2.135,2.135,0,0,0,320.585,37.422Z"/></g></g></g><g id="Group_1631" data-name="Group 1631"><path id="Path_8224" data-name="Path 8224" class="cls-1" d="M113.656,169.4c0,.888-8.663,1.349-34.566,1.349-21.938,0-28.2.143-28.2-.744s14.426-3.362,34.478-3.362S113.656,168.514,113.656,169.4Z"/><path id="Path_8225" data-name="Path 8225" class="cls-2" d="M81.909,165.87c.959-9.734,3.136-15.026,4.029-21.872.023-.177-1.209-7.722-1.092-8.331-2.469,1.01-3.181-5.791-5.556-6.9a10.871,10.871,0,0,0-1.336,5.038c-.035.824-.147,7.7-.074,8.524,1.029,11.669,1.882,22.606,1.882,22.606S81.8,166.934,81.909,165.87Z"/><path id="Path_8226" data-name="Path 8226" class="cls-2" d="M93.665,165.8c-.759-9.75-1.7-15.159-2.449-22.021-.02-.177-.257-6.459-.362-7.07,2.448,1.061,3.792-6.89,6.19-7.955a10.873,10.873,0,0,1,1.232,5.064c.018.826-.01,7.707-.1,8.524-1.268,11.647-2.345,22.563-2.345,22.563S93.747,166.867,93.665,165.8Z"/><path id="Path_8227" data-name="Path 8227" class="cls-5" d="M78.815,160.155H83.24c1.074-6.357,2-10.784,2.7-16.157.023-.177-1.209-7.722-1.092-8.331-2.469,1.01-3.181-5.791-5.556-6.9a10.871,10.871,0,0,0-1.336,5.038c-.035.824-.147,7.7-.074,8.524C78.489,149.231,78.47,155.876,78.815,160.155Z"/><path id="Path_8228" data-name="Path 8228" class="cls-5" d="M80.991,95.473c-.033.545-1.854-.237-4.356-.448l.268-.032a5.128,5.128,0,0,1-3.721-2.126L75.944,73.7c.209-2.5,2.135-4.92,4.639-4.71l3.023,2.5c2.5.21,5.138,3.008,4.929,5.512Z"/><path id="Path_8229" data-name="Path 8229" class="cls-2" d="M68.538,115.461a1.794,1.794,0,0,1-3.088-.152c-.424-.827,2.314-2.623,3.3-4.093s1.773-.844,2.2-.022S70.172,113.429,68.538,115.461Z"/><path id="Path_8230" data-name="Path 8230" class="cls-5" d="M70.565,114.12a28.294,28.294,0,0,0-2.444-2.963l5.551-19.665c.8-2.812,1.777-1.606,2.929.027l2.861,4.256C78.03,99.9,70.565,114.12,70.565,114.12Z"/><path id="Path_8231" data-name="Path 8231" class="cls-19" d="M83.605,71.489l-3.023-2.5c-2.5-.21-4.43,2.206-4.639,4.71L73.181,92.862s.027.041.076.107l-5.135,18.183a28.294,28.294,0,0,1,2.444,2.963S78.03,99.9,79.466,95.77l-.233-.347c1.07.219,1.739.372,1.758.044L88.534,77C88.743,74.5,86.109,71.7,83.605,71.489Z"/><path id="Path_8232" data-name="Path 8232" class="cls-5" d="M84.866,136.268c-.733-.247-6.9,3.64-6.975,3.219-.336-1.833-.722-29.848,1.353-36.826,1.56-5.244,8.9-2.159,9.646,1.367C91.621,116.934,84.9,135.767,84.866,136.268Z"/><path id="Path_8233" data-name="Path 8233" class="cls-3" d="M82.623,163.927c.021.887,1.642,3.837-.938,3.9-6.366.148-10.044.067-9.524-.631,1.448-1.933,6.445-.613,6.65-3.447C78.935,162.045,82.6,163.033,82.623,163.927Z"/><path id="Path_8234" data-name="Path 8234" class="cls-5" d="M92.028,160.155h4.277c.433-4.269,1.117-10.911,1.868-17.812.09-.817.117-7.7.1-8.524a10.873,10.873,0,0,0-1.232-5.064c-2.4,1.065-3.742,9.016-6.19,7.955.1.611.342,6.893.362,7.07C91.807,149.192,91.382,153.709,92.028,160.155Z"/><path id="Path_8235" data-name="Path 8235" class="cls-3" d="M92.959,164.582c-.028.927-3.024,3.953-.573,4.029,6.05.187,6.456.152,6.173-.7-.666-2-1.786-1.206-1.953-4.168C96.507,161.981,92.988,163.656,92.959,164.582Z"/><path id="Path_8236" data-name="Path 8236" class="cls-5" d="M97.828,135.822c-.747-.2-6.73,3.5-6.834,3.092-.449-1.81-3.032-26.656-5.9-26.907-5.45-.476,11.879-11.835,12.843-8.363C101.471,116.353,97.829,135.322,97.828,135.822Z"/><path id="Path_8237" data-name="Path 8237" class="cls-5" d="M97.937,103.647c-.476-1.713-4.937.186-8.68,2.606-.1-.755-.216-1.5-.368-2.22-.745-3.527-8.086-6.612-9.646-1.367-2.075,6.978-1.688,34.992-1.353,36.826.077.42,6.243-3.467,6.975-3.219a123.473,123.473,0,0,0,3.59-14.263c1.316,7.219,2.28,15.87,2.538,16.909.1.414,6.087-3.292,6.834-3.092C97.829,135.32,101.471,116.353,97.937,103.647Z"/><path id="Path_8238" data-name="Path 8238" class="cls-19" d="M88.437,122.111c-.016-.022-.031-.045-.045-.068-1.517,2.525-3.681,10.134-4.264,13.627-.715,4.273,1.809,5.355,1.039,10.236-.544,3.443-2.521,10.8-3.048,14.251h1.12c1.074-6.357,2-10.784,2.7-16.157.02-.153-.9-5.8-1.071-7.729A123.872,123.872,0,0,0,88.437,122.111Z"/><path id="Path_8239" data-name="Path 8239" class="cls-19" d="M98.241,133.077c.842-5.793,2.453-19.518-.3-29.433-.476-1.713-4.937.186-8.68,2.606-.1-.755-.216-1.5-.368-2.22-.745-3.527-8.086-6.612-9.646-1.367a47.3,47.3,0,0,0-1.16,8.828c10.013,3.275,19.361-1.249,19.255,6.819-.05,3.807-1.361,21.613-1.423,25.645-.086,5.531.353,11.082-1.715,16.2h2.1c.433-4.269,1.117-10.911,1.868-17.812.09-.817.117-7.7.1-8.524C98.268,133.559,98.256,133.313,98.241,133.077Z"/><path id="Path_8240" data-name="Path 8240" class="cls-7" d="M79.1,102.034l.165-.182c-.315,6.881.79,6.784,7.915,7.112s11.647-1.6,11.964-8.477l-7.253.444Z"/><g id="Group_1618" data-name="Group 1618"><path id="Path_8241" data-name="Path 8241" class="cls-8" d="M82.941,66.312v43.552c3.17.377,7.116.735,10.569.837V66.063A31.865,31.865,0,0,0,82.941,66.312Z"/></g><path id="Path_8242" data-name="Path 8242" class="cls-4" d="M82.933,66.7c-1.238,2.314,3.452,1.083,5.488,1.175s6.417.209,4.659-1.757c-.646-.721-2.525-2.986-1.606-5.357,1.37-3.541-6.742-5.06-6.932-2.534C84.391,60.235,84.958,62.919,82.933,66.7Z"/><g id="Group_1619" data-name="Group 1619"><path id="Path_8243" data-name="Path 8243" class="cls-5" d="M99.692,89.466c1.957-17.872-.122-20.26-.122-20.26a10.176,10.176,0,0,0-5.8-3.1c-3.039-.625-4.485,2.953-4.792,6.72a26.082,26.082,0,0,1-1.384,5.457,30.451,30.451,0,0,0-.968,8.03,83.069,83.069,0,0,0,.172,9.348,33.348,33.348,0,0,1,.229,7.438,61.539,61.539,0,0,1-1.805,8.718c5.468.563,12.714.944,15.588.213C99.559,103.663,99.141,94.49,99.692,89.466Z"/><path id="Path_8244" data-name="Path 8244" class="cls-5" d="M86.008,101.147c-.095-5.338-1.888-10.568-1.606-15.926.112-2.16-.431-4.494.2-6.582a18.157,18.157,0,0,0,.412-5.873c-.134-3.343-1.282-3.431-2.024-6.462-.114.018-.231.035-.344.054-1.3.215-5.025,2.05-5.648,4.462-.019.092-.974,38.4-.282,39.878.877.232,4.135.641,7.426,1A36.259,36.259,0,0,0,86.008,101.147Z"/></g><path id="Path_8245" data-name="Path 8245" class="cls-24" d="M97.809,72.913l-1.536-3.607c-.071-.044-.144-.078-.216-.117v7.5H86.173L79.7,85.734l-2.747.013.779,5.592c2.621.817,4.973,1.5,6.293,1.746l.067-.061c.176.086.3.09.367-.021l15.2-12.93C100.987,77.948,99.937,74.251,97.809,72.913Z"/><path id="Path_8246" data-name="Path 8246" class="cls-5" d="M83.853,90.358c-.349.419-1.353-1.289-3.246-2.941l.235.133a5.127,5.127,0,0,1-1.74-3.917L92.676,69.827c1.652-1.894,4.633-2.7,6.527-1.048l.958,3.8c1.934,2.973.094,7.732-1.557,9.625Z"/><path id="Path_8247" data-name="Path 8247" class="cls-2" d="M63.827,79.265a1.793,1.793,0,0,1,.181-3.086c.83-.416,2.6,2.339,4.062,3.335s.827,1.78,0,2.2S65.845,80.92,63.827,79.265Z"/><path id="Path_8248" data-name="Path 8248" class="cls-5" d="M65.149,81.308a28.282,28.282,0,0,0,2.986-2.417l19.612,5.734c2.8.822,1.59,1.79-.053,2.928l-4.285,2.822C79.3,88.9,65.149,81.308,65.149,81.308Z"/><path id="Path_8249" data-name="Path 8249" class="cls-2" d="M92.217,56.37c.232,1.944.125,5.028-2.978,6.414-3.618,1.612-7.094.129-6.966-1.52.265-3.332-.018-10.437,2.489-10.737a6.344,6.344,0,0,1,7.455,5.843Z"/><path id="Path_8250" data-name="Path 8250" class="cls-25" d="M82.464,53.47c.658-5.422,4.924-4.4,7.326-3.936,1.912.371,4.953,1.625,3.606,6.564a15.254,15.254,0,0,1-1.121,3.207c-1,.164.671-3.732-1.007-4.376-1.816-.7-3.783-.409-5.717-.474C83.045,54.371,82.5,54.073,82.464,53.47Z"/><path id="Path_8251" data-name="Path 8251" class="cls-25" d="M89.79,49.532c1.621.314,4.057,1.266,3.935,4.563-.711.221-.966.856-1.7,1-.259.053-2.08-.156-2.381-.169a13.738,13.738,0,0,0-4.1-.478c-2.5-.085-3.418-.18-3.449-.783C80.959,45.532,87.388,49.072,89.79,49.532Z"/><g id="Group_1622" data-name="Group 1622"><g id="Group_1621" data-name="Group 1621"><g id="Group_1620" data-name="Group 1620"><path id="Path_8252" data-name="Path 8252" class="cls-26" d="M77.288,47.022h0a7.784,7.784,0,0,0,1.176-5.214c-.7-5.005-6.438-8.337-12.8-7.441s-10.956,5.68-10.252,10.686,6.436,8.337,12.8,7.441a14.749,14.749,0,0,0,2.457-.562l6.182.492a4.864,4.864,0,0,1,.191-5.019C77.126,47.279,77.213,47.147,77.288,47.022Z"/></g></g></g><g id="Group_1624" data-name="Group 1624"><g id="Group_1623" data-name="Group 1623"><path id="Path_8253" data-name="Path 8253" class="cls-8" d="M58.878,44.56a2.085,2.085,0,1,0,1.774-2.355h0A2.085,2.085,0,0,0,58.878,44.56Z"/></g></g><g id="Group_1626" data-name="Group 1626"><g id="Group_1625" data-name="Group 1625"><path id="Path_8254" data-name="Path 8254" class="cls-8" d="M65.277,43.689a1.7,1.7,0,1,0,1.449-1.919h0A1.7,1.7,0,0,0,65.277,43.689Z"/></g></g><g id="Group_1628" data-name="Group 1628"><g id="Group_1627" data-name="Group 1627"><path id="Path_8255" data-name="Path 8255" class="cls-8" d="M71.54,42.809a1.7,1.7,0,1,0,1.449-1.919h0A1.7,1.7,0,0,0,71.54,42.809Z"/></g></g><g id="Group_1630" data-name="Group 1630"><g id="Group_1629" data-name="Group 1629"><path id="Path_8256" data-name="Path 8256" class="cls-8" d="M71.54,42.809a1.7,1.7,0,1,0,1.449-1.919h0A1.7,1.7,0,0,0,71.54,42.809Z"/></g></g></g><g id="Group_1640" data-name="Group 1640"><path id="Path_8257" data-name="Path 8257" class="cls-1" d="M67.2,178.112c0,.884-8.625,1.343-34.413,1.343-21.841,0-28.076.143-28.076-.741s14.362-3.348,34.327-3.348S67.2,177.229,67.2,178.112Z"/><path id="Path_8258" data-name="Path 8258" class="cls-27" d="M36.716,173.942s-1.887,1.312-1.864.47c.37-13.219-1.7-15.87-1.631-20.571.039-2.721.9-5.223.7-7.55-.063-.724-3.469-6.885-4.3-9.056a127.965,127.965,0,0,1-4.081-13.018c-.795-2.814,2.144-4.983,3.571-5.712,3.8-1.948,5.808-1.407,7.02,1.7,3.4,8.757,4.278,22.956,4.278,25.8C40.405,151.694,36.716,173.942,36.716,173.942Z"/><path id="Path_8259" data-name="Path 8259" class="cls-28" d="M21.983,172.968s-2.067,1.641-2.062.653c.069-9.023.486-20.5.333-26.873-.04-1.717-3.056-27.915,2.438-28.611,5.006-.637,5.549-.045,6.947,2.97,1.169,2.519-1.748,24.155-2.658,26.253-.3.7-.92,4.3-1.068,5.051C23.834,163.023,21.983,172.968,21.983,172.968Z"/><path id="Path_8260" data-name="Path 8260" class="cls-29" d="M21.332,105.157l1.474,8.515c.974,2.153.974,3.087-.081,4.781-.606.973,12.713.835,12.229-.17-1.108-2.289.827-4.429.827-5.382l.172-7.744Z"/><path id="Path_8261" data-name="Path 8261" class="cls-9" d="M37.88,106.876c.139.454.6,3.611,2.674,2.911l-.234.029a4.475,4.475,0,0,0,2.71-2.58L38.553,93.088a3.971,3.971,0,0,0-5.028-2.5h0c-2.08.7-1.562,2.766-.862,4.841Z"/><path id="Path_8262" data-name="Path 8262" class="cls-2" d="M56.98,100.3a2.9,2.9,0,0,0,.1-3.535c-.525-.511-1.907,2.565-2.958,3.644a1.627,1.627,0,0,0-.368,2.271,1.711,1.711,0,0,0,.211.239C54.487,103.427,55.515,102.105,56.98,100.3Z"/><path id="Path_8263" data-name="Path 8263" class="cls-2" d="M52.464,104.194c.428-.171,2.9-1.913,2.9-1.913-1.02-1.369-1.537-1.118-1.537-1.118l-13.255,4.265c-1.937.824-2.68,2.6-1.66,3.968h0c1.021,1.368,2.972.675,4.91-.148Z"/><path id="Path_8264" data-name="Path 8264" class="cls-9" d="M36.128,114.963c-.112-1.227,1.978-16.99,1.978-16.99,0-5.077-1-8.288-8.277-8.288s-10.821,4.152-10.821,9.228c0,0,2.117,13.48,2.1,15.728-.05,6.427-6.511,15.522-1.933,32.122.773,2.8,17.544-6.7,21.665-6.874C41.232,139.871,36.978,124.176,36.128,114.963Z"/><path id="Path_8265" data-name="Path 8265" class="cls-9" d="M19.749,108.076c-.14.456-.6,3.612-2.674,2.913l.235.025a4.478,4.478,0,0,1-2.711-2.579l4.479-14.147a3.969,3.969,0,0,1,5.027-2.5h0c2.079.7,1.561,2.765.862,4.842Z"/><path id="Path_8266" data-name="Path 8266" class="cls-2" d="M.652,101.5a2.9,2.9,0,0,1-.1-3.534c.527-.512,1.911,2.566,2.958,3.643a1.624,1.624,0,0,1,.369,2.268,1.564,1.564,0,0,1-.212.241C3.143,104.628,2.121,103.3.652,101.5Z"/><path id="Path_8267" data-name="Path 8267" class="cls-2" d="M4.575,105.1a25.124,25.124,0,0,1-2.305-1.621c1.021-1.368,1.243-1.411,1.243-1.411l13.548,4.56c1.938.822,2.679,2.6,1.66,3.969h0c-1.021,1.367-2.972.674-4.909-.15Z"/><path id="Path_8268" data-name="Path 8268" class="cls-4" d="M24.354,90.507c-2.744.939,1.659,1.334,3.546,1.334s6.9-.756,4.446-1.992c-4.114-2.076.031-7.159-4.061-7.159C24.674,82.686,28.912,88.946,24.354,90.507Z"/><path id="Path_8269" data-name="Path 8269" class="cls-5" d="M34.587,76.67a2.363,2.363,0,1,1-2.362-2.365,2.363,2.363,0,0,1,2.362,2.365Z"/><path id="Path_8270" data-name="Path 8270" class="cls-2" d="M23.154,80.825c0,2.054,4.4,5.263,5.394,5.263a4.34,4.34,0,0,0,4.14-4.529q-.008-.177-.03-.351c-.327-3.64-.46-7.873-3.244-7.873S23.154,76.96,23.154,80.825Z"/><path id="Path_8271" data-name="Path 8271" class="cls-5" d="M34.086,174.044c0,.82-1.433,3.576.948,3.576,5.875,0,9.267-.154,8.773-.785-1.377-1.753-5.958-.428-6.21-3.04C37.448,172.237,34.086,173.225,34.086,174.044Z"/><path id="Path_8272" data-name="Path 8272" class="cls-5" d="M19.411,174.044c0,.82-2.564,3.576-.4,3.576,5.352,0,5.71-.043,5.435-.785-.643-1.753-1.61-1.018-1.839-3.629C22.476,171.648,19.411,173.225,19.411,174.044Z"/><path id="Path_8273" data-name="Path 8273" class="cls-5" d="M27.183,86.988a5.463,5.463,0,1,1-5.463-5.463h0A5.462,5.462,0,0,1,27.183,86.988Z"/><path id="Path_8274" data-name="Path 8274" class="cls-5" d="M25.22,80.861a4.16,4.16,0,1,1-4.16-4.16,4.161,4.161,0,0,1,4.16,4.16Z"/><path id="Path_8275" data-name="Path 8275" class="cls-5" d="M25.532,75.38A3.284,3.284,0,1,1,22.247,72.1h0a3.281,3.281,0,0,1,3.283,3.281Z"/><path id="Path_8276" data-name="Path 8276" class="cls-5" d="M29.86,73.017a3.193,3.193,0,1,1-3.193-3.193h0a3.192,3.192,0,0,1,3.192,3.192Z"/><path id="Path_8277" data-name="Path 8277" class="cls-5" d="M33.657,73.017a2.763,2.763,0,1,1-2.764-2.763A2.763,2.763,0,0,1,33.657,73.017Z"/><g id="Group_1633" data-name="Group 1633"><g id="Group_1632" data-name="Group 1632"><path id="Path_8278" data-name="Path 8278" class="cls-17" d="M48.359,38.5C39.4,39.761,32.942,46.493,33.933,53.535a10.292,10.292,0,0,0,1.033,3.26h-.009c.021.035.04.069.061.1q.108.2.224.406c2.332,4.542-1.061,9-1.061,9a32.7,32.7,0,0,0,9.856-2.741A19.929,19.929,0,0,0,51.948,64c8.959-1.261,15.417-7.993,14.425-15.035S57.316,37.239,48.359,38.5Z"/></g></g><g id="Group_1635" data-name="Group 1635"><g id="Group_1634" data-name="Group 1634"><path id="Path_8279" data-name="Path 8279" class="cls-8" d="M40.413,52.592a2.076,2.076,0,1,0,1.767-2.345h0a2.073,2.073,0,0,0-1.765,2.342Z"/></g></g><g id="Group_1637" data-name="Group 1637"><g id="Group_1636" data-name="Group 1636"><path id="Path_8280" data-name="Path 8280" class="cls-8" d="M48.121,51.57a2.076,2.076,0,1,0,1.767-2.345,2.076,2.076,0,0,0-1.767,2.345Z"/></g></g><g id="Group_1639" data-name="Group 1639"><g id="Group_1638" data-name="Group 1638"><path id="Path_8281" data-name="Path 8281" class="cls-8" d="M55.782,50.493a2.076,2.076,0,1,0,1.766-2.345h0A2.076,2.076,0,0,0,55.782,50.493Z"/></g></g></g></g></svg>