<svg id="Layer_1" data-name="Layer 1" xmlns="http://www.w3.org/2000/svg" xmlns:xlink="http://www.w3.org/1999/xlink" width="125.829" height="157.3" viewBox="0 0 125.829 157.3"><defs><style>.cls-1{opacity:0.1;}.cls-2{fill:#ffbbb5;}.cls-3{fill:#7b4842;}.cls-4{fill:#edaea9;}.cls-5{fill:#0f3871;}.cls-6{fill:#4f2e2a;}.cls-7{fill:#d33c70;}.cls-8{fill:#fff;}.cls-9{fill:#fa6961;}.cls-10{fill:#94574f;}.cls-11{fill:#ede5dd;}.cls-12{fill:#f26636;}.cls-13{fill:url(#linear-gradient);}.cls-14{fill:url(#linear-gradient-2);}.cls-15{fill:url(#linear-gradient-3);}.cls-16{fill:#fbd270;}.cls-17{fill:#69b8eb;}</style><linearGradient id="linear-gradient" x1="281.375" y1="345.808" x2="280.321" y2="345.811" gradientTransform="matrix(11.657, 0, 0, -65.771, -3502.157, 22858.044)" gradientUnits="userSpaceOnUse"><stop offset="0" stop-color="#ffbbb5"/><stop offset="0.185" stop-color="#feb7b2"/><stop offset="0.363" stop-color="#fcabaa"/><stop offset="0.539" stop-color="#f8989c"/><stop offset="0.713" stop-color="#f37c89"/><stop offset="0.883" stop-color="#ed5a70"/><stop offset="1" stop-color="#e83e5d"/></linearGradient><linearGradient id="linear-gradient-2" x1="307.679" y1="343.83" x2="307.795" y2="343.179" gradientTransform="matrix(17.156, 0, 0, -16.388, -5247.073, 5727.883)" gradientUnits="userSpaceOnUse"><stop offset="0" stop-color="#e83e5d"/><stop offset="0.018" stop-color="#e8405e"/><stop offset="0.694" stop-color="#f8989c"/><stop offset="1" stop-color="#ffbbb5"/></linearGradient><linearGradient id="linear-gradient-3" x1="280.438" y1="345.814" x2="279.392" y2="345.817" gradientTransform="matrix(11.802, 0, 0, -66.108, -3540.406, 22974.138)" xlink:href="#linear-gradient"/></defs><title>testimonials-medium-whole_1</title><g id="Group_1906" data-name="Group 1906"><g id="Group_1586" data-name="Group 1586"><path id="Path_8098" data-name="Path 8098" class="cls-1" d="M125.829,149.517c0,.976-9.527,1.484-38.008,1.484-24.125,0-31.009.158-31.009-.818s15.862-3.7,37.913-3.7S125.829,148.541,125.829,149.517Z"/><path id="Path_8099" data-name="Path 8099" class="cls-2" d="M77.982,146.663c.992-10.284,3.247-15.877,4.171-23.112.024-.186-1.253-8.16-1.132-8.8-2.555,1.069-3.292-6.117-5.751-7.293a11.647,11.647,0,0,0-1.382,5.323c-.036.872-.153,8.142-.078,9.008,1.065,12.331,1.949,23.889,1.949,23.889S77.873,147.79,77.982,146.663Z"/><path id="Path_8100" data-name="Path 8100" class="cls-3" d="M74.779,140.626H79.36c1.111-6.719,2.067-11.4,2.791-17.074.024-.186-1.252-8.16-1.132-8.8-2.555,1.069-3.292-6.117-5.75-7.293a11.66,11.66,0,0,0-1.383,5.323c-.036.872-.153,8.142-.077,9.008C74.44,129.081,74.422,136.1,74.779,140.626Z"/><path id="Path_8101" data-name="Path 8101" class="cls-4" d="M79.04,41.871c-1.281,2.445,3.575,1.144,5.683,1.242s6.645.221,4.824-1.857c-.669-.762-2.614-3.156-1.662-5.661,1.418-3.741-6.982-5.346-7.178-2.678C80.551,35.039,81.139,37.875,79.04,41.871Z"/><path id="Path_8102" data-name="Path 8102" class="cls-2" d="M88.654,30.958c.241,2.055.13,5.314-3.083,6.779-3.746,1.7-7.345.136-7.212-1.606.274-3.52-.019-11.029,2.576-11.346C85.375,24.242,88.2,27.092,88.654,30.958Z"/><path id="Path_8103" data-name="Path 8103" class="cls-5" d="M78.555,27.89c.682-5.731,5.1-4.648,7.584-4.16,1.98.393,5.13,1.718,3.734,6.936a16.275,16.275,0,0,1-1.161,3.392c-1.04.173.694-3.944-1.043-4.624-1.88-.736-3.915-.433-5.918-.5C79.157,28.842,78.589,28.526,78.555,27.89Z"/><path id="Path_8104" data-name="Path 8104" class="cls-5" d="M86.139,23.731c1.679.332,4.2,1.338,4.076,4.822-.736.233-1,.9-1.758,1.062-.268.056-2.154-.164-2.465-.178a13.924,13.924,0,0,0-4.24-.505c-2.6-.089-3.539-.19-3.571-.828C78.04,22.905,83.654,23.243,86.139,23.731Z"/><path id="Path_8105" data-name="Path 8105" class="cls-3" d="M74.076,70.506c-.11.565-1.87-.5-4.409-1.067h.279A5.3,5.3,0,0,1,66.425,66.7L71.943,47.01c.565-2.6,2.88-4.86,5.422-4.3l2.754,3.029c2.54.563,4.851,3.856,4.285,6.45Z"/><path id="Path_8106" data-name="Path 8106" class="cls-2" d="M50.752,55.533a1.84,1.84,0,0,1,.924-3.064c.955-.215,2.115,2.993,3.378,4.355s.423,2-.525,2.214S52.43,57.692,50.752,55.533Z"/><path id="Path_8107" data-name="Path 8107" class="cls-3" d="M51.624,57.912a29.6,29.6,0,0,0,3.647-1.7l18.787,10.58c2.687,1.515,1.2,2.193-.758,2.937l-5.077,1.794C64.349,69.028,51.624,57.912,51.624,57.912Z"/><path id="Path_8108" data-name="Path 8108" class="cls-6" d="M80.12,45.745l-2.755-3.029c-2.541-.563-4.856,1.7-5.421,4.3l-4.5,16.051L55.269,56.211a29.514,29.514,0,0,1-3.646,1.7s12.724,11.116,16.6,13.606l3.865-1.365c1.18.411,1.917.713,1.987.353l.855-1.516c.445-.281.68-.59.545-.966L84.4,52.194C84.971,49.6,82.664,46.307,80.12,45.745Z"/><path id="Path_8109" data-name="Path 8109" class="cls-5" d="M81.042,115.388c-.758-.261-7.142,3.847-7.223,3.4-.347-1.939-.747-31.542,1.4-38.915,1.615-5.542,9.216-2.281,9.99,1.445C88.037,94.953,81.076,114.855,81.042,115.388Z"/><path id="Path_8110" data-name="Path 8110" class="cls-5" d="M78.722,144.606c.021.938,1.7,4.057-.972,4.118-6.591.158-10.4.07-9.861-.667,1.5-2.042,6.672-.648,6.885-3.641C74.9,142.625,78.7,143.667,78.722,144.606Z"/><path id="Path_8111" data-name="Path 8111" class="cls-5" d="M94.464,114.911c-.774-.212-6.969,3.706-7.075,3.267-.466-1.913-3.141-28.168-6.109-28.434-5.644-.5,12.3-12.506,13.3-8.836C98.235,94.341,94.465,114.384,94.464,114.911Z"/><path id="Path_8112" data-name="Path 8112" class="cls-3" d="M94.576,80.91c-.492-1.81-5.112.2-8.987,2.753-.1-.8-.223-1.584-.379-2.347-.773-3.726-8.373-6.987-9.989-1.445-2.148,7.373-1.749,36.976-1.4,38.915.081.444,6.464-3.663,7.223-3.4a132.327,132.327,0,0,0,3.717-15.072c1.364,7.628,2.361,16.77,2.629,17.869.107.439,6.3-3.479,7.075-3.267C94.461,114.388,98.235,94.341,94.576,80.91Z"/><path id="Path_8113" data-name="Path 8113" class="cls-6" d="M85.462,91.215c2.349.453,4.56.591,6.435,2.272,2.166,1.941,3.281,3.583,3.016,7.86-.146,2.375.559,4.113.513,6.492.8-7.17,1.482-18.385-.846-26.929-.493-1.81-5.113.2-8.987,2.753-.1-.8-.223-1.584-.379-2.347-.773-3.726-8.374-6.987-9.989-1.445a58.129,58.129,0,0,0-1.287,10.776C77.779,90.873,81.656,90.488,85.462,91.215Z"/><path id="Path_8114" data-name="Path 8114" class="cls-6" d="M84.74,100.422c-.012-.025-.034-.047-.044-.072-1.571,2.668-3.81,10.709-4.417,14.4-.739,4.515,1.873,5.658,1.076,10.816-.563,3.638-2.61,11.415-3.155,15.061h1.16c1.111-6.719,2.067-11.4,2.792-17.074.02-.161-.929-6.13-1.109-8.167A132.473,132.473,0,0,0,84.74,100.422Z"/><path id="Path_8115" data-name="Path 8115" class="cls-2" d="M96.3,134.625H91.409c1.521,6.179,2.571,10.536,2.571,10.536s2.424,1.751,2.353.624A93.587,93.587,0,0,1,96.3,134.625Z"/><path id="Path_8116" data-name="Path 8116" class="cls-3" d="M92.206,140.334l4.524-.733c.025-6.81.221-11.58.031-17.3-.007-.188-2.539-7.855-2.521-8.511-2.354,1.462-4.227-5.514-6.842-6.283-.631,2.079-.447,7.433-.2,9.525.1.866.828,4.012,1.042,4.856C90.029,128.99,91.133,135.928,92.206,140.334Z"/><path id="Path_8117" data-name="Path 8117" class="cls-5" d="M96.735,143.633c.171.924,2.325,3.733-.3,4.22-6.482,1.208-10.255,1.73-9.842.916,1.153-2.254,6.484-1.7,6.216-4.694C92.649,142.287,96.559,142.712,96.735,143.633Z"/><path id="Path_8118" data-name="Path 8118" class="cls-6" d="M95.624,99.054q-.03-.03-.057-.063c-1.125,2.883-2.053,11.18-2.061,14.921-.008,4.575,2.752,5.286,2.789,10.5.024,3.682-.755,11.685-.711,15.37l1.145-.185c.025-6.81.221-11.58.032-17.3,0-.162-1.9-5.9-2.4-7.885A132.5,132.5,0,0,0,95.624,99.054Z"/><path id="Path_8119" data-name="Path 8119" class="cls-7" d="M75.069,79.209l.171-.193c-.326,7.271.818,7.169,8.194,7.516S95.5,84.845,95.821,77.574l-7.509.47Z"/><g id="Group_1576" data-name="Group 1576"><path id="Path_8120" data-name="Path 8120" class="cls-8" d="M79.051,41.456,74.5,87.479c3.283.4,11.921.774,15.494.884V41.2A32.323,32.323,0,0,0,79.051,41.456Z"/></g><path id="Path_8121" data-name="Path 8121" class="cls-9" d="M81.87,43.326a1.266,1.266,0,1,0,1.266-1.264h0A1.266,1.266,0,0,0,81.87,43.326Z"/><path id="Path_8122" data-name="Path 8122" class="cls-9" d="M81.605,72.767l2.322-3.189-.57-25.539-.371-.017-3.4,25.2Z"/><g id="Group_1577" data-name="Group 1577"><path id="Path_8123" data-name="Path 8123" class="cls-3" d="M96.394,65.927c2.026-18.886-.127-21.41-.127-21.41a10.477,10.477,0,0,0-6-3.276c-3.149-.661-4.643,3.12-4.961,7.1-.164,2.026.278,3.837-.3,5.767a32.79,32.79,0,0,0-1,8.485,89.209,89.209,0,0,0,.18,9.879c.219,2.58.216,4.074.8,7.86.4,2.546.549,13.06,13.7,11.712C97.394,83.205,95.827,71.236,96.394,65.927Z"/><path id="Path_8124" data-name="Path 8124" class="cls-3" d="M80.564,61.44c.117-2.282.146-11.1.067-13.16-.139-3.533-.757-3.626-1.527-6.829-.118.019-.24.037-.357.057-1.342.227-5.2,2.167-5.848,4.716-.019.1-1.007,40.582-.291,42.138.909.245,4.521.009,5.458-7.017C78.214,80.239,80.272,67.1,80.564,61.44Z"/></g><path id="Path_8125" data-name="Path 8125" class="cls-10" d="M94.457,69.967c-.007.573-1.945-.19-4.565-.333l.278-.042a5.484,5.484,0,0,1-3.99-2.112l1.891-20.169c.089-2.632,1.972-5.222,4.592-5.081l3.28,2.522c3.526,1.207,4.232,6.278,3.376,8.957Z"/><path id="Path_8126" data-name="Path 8126" class="cls-2" d="M70.937,73.733a1.913,1.913,0,0,1-1.886-2.666c.4-.879,3.645.253,5.484.132s1.843.937,1.449,1.815S73.658,73.8,70.937,73.733Z"/><path id="Path_8127" data-name="Path 8127" class="cls-10" d="M73.352,74.564a29.528,29.528,0,0,0,.825-3.925l19.652-7.925c2.812-1.131,2.466.452,1.887,2.453l-1.607,5.1C89.81,71.7,73.352,74.564,73.352,74.564Z"/><path id="Path_8128" data-name="Path 8128" class="cls-11" d="M88.732,40.835l-3.643,4.654-2.247-3.411,5.776-2.051Z"/><path id="Path_8129" data-name="Path 8129" class="cls-11" d="M79.254,41.449l2.456,3.772,1.648-3.193-3.65-1.092Z"/><path id="Path_8130" data-name="Path 8130" class="cls-8" d="M89.47,41.167l-4.483,3.188L82.74,40.944l5.723-2.031Z"/><path id="Path_8131" data-name="Path 8131" class="cls-8" d="M79.1,41.451l3.036,3.162,1.6-3.76L79.3,39.694Z"/><g id="Group_1579" data-name="Group 1579"><g id="Group_1578" data-name="Group 1578"><path id="Path_8132" data-name="Path 8132" class="cls-12" d="M74.287,2.5C80.55,4.854,85.4,6.309,83.042,11.013a9.475,9.475,0,0,1-1.276,2.477h0l-.067.058c-.082.079-.167.156-.253.232a4.683,4.683,0,0,0-1.05,5.584c-2.229-1.117-2.06-.635-3.661-2.283-1.854-.117-11.607-3.257-13.468-4.188-5.984-3-4.648-4.849-2.883-9.8C62.106-1.733,67.419-.091,74.287,2.5Z"/></g></g><g id="Group_1581" data-name="Group 1581"><g id="Group_1580" data-name="Group 1580"><path id="Path_8133" data-name="Path 8133" class="cls-8" d="M63.969,6.345a1.313,1.313,0,1,0,0-.006Z"/></g></g><g id="Group_1583" data-name="Group 1583"><g id="Group_1582" data-name="Group 1582"><path id="Path_8134" data-name="Path 8134" class="cls-8" d="M69.292,8.16a1.6,1.6,0,1,0,0-.005Z"/></g></g><g id="Group_1585" data-name="Group 1585"><g id="Group_1584" data-name="Group 1584"><path id="Path_8135" data-name="Path 8135" class="cls-8" d="M74.605,9.923a1.6,1.6,0,1,0,0-.005Z"/></g></g></g><g id="Group_1596" data-name="Group 1596"><path id="Path_8136" data-name="Path 8136" class="cls-1" d="M71.645,155.759c0,1.008-9.839,1.532-39.254,1.532-24.914,0-32.025.163-32.025-.845s16.382-3.818,39.155-3.818S71.645,154.752,71.645,155.759Z"/><path id="Path_8137" data-name="Path 8137" class="cls-13" d="M19.986,149.473s-2.426,1.926-2.419.766c.081-10.589.57-24.069.39-31.543-.047-2.017-.563-32.769,5.885-33.587,5.877-.747,3.492-.052,5.13,3.486,1.375,2.957-3.261,28.354-4.328,30.818-.357.82-1.079,5.051-1.253,5.929C20.951,137.795,19.986,149.473,19.986,149.473Z"/><path id="Path_8138" data-name="Path 8138" class="cls-14" d="M19.222,69.868l1.732,10c1.142,2.527,1.142,3.622-.1,5.612-.711,1.143,14.922.98,14.355-.2-1.3-2.686.969-5.2.969-6.316l.2-9.091Z"/><path id="Path_8139" data-name="Path 8139" class="cls-5" d="M38.648,71.886c.161.533.7,4.238,3.138,3.417l-.274.034a5.252,5.252,0,0,0,3.18-3.028L39.437,55.7a4.663,4.663,0,0,0-5.9-2.931h0c-2.441.821-1.833,3.247-1.01,5.683Z"/><path id="Path_8140" data-name="Path 8140" class="cls-2" d="M61.067,64.166a3.406,3.406,0,0,0,.113-4.15c-.616-.6-2.238,3.011-3.471,4.277s-.8,2.345-.184,2.947S59.346,66.285,61.067,64.166Z"/><path id="Path_8141" data-name="Path 8141" class="cls-2" d="M55.766,68.738c.5-.2,3.4-2.246,3.4-2.246-1.2-1.607-1.806-1.312-1.806-1.312L41.8,70.186c-2.273.967-3.145,3.054-1.948,4.658h0c1.2,1.606,3.488.792,5.763-.174Z"/><path id="Path_8142" data-name="Path 8142" class="cls-15" d="M32.616,149.071s-2.248,2.13-2.343.975c-.85-10.556-.338-24.027-1.175-31.456-.223-2-7.663-32.326-1.31-33.708,5.788-1.262,6.484-.623,8.429,2.757,1.626,2.825.447,28.424-.4,30.973-.285.847-.633,5.125-.727,6.016C33.75,137.245,32.616,149.071,32.616,149.071Z"/><path id="Path_8143" data-name="Path 8143" class="cls-5" d="M29.716,150.59c.086.959-2.628,4.446-.094,4.223,6.258-.553,6.673-.641,6.276-1.48-.933-1.984-1.989-1.023-2.527-4.055C33.054,147.472,29.632,149.628,29.716,150.59Z"/><path id="Path_8144" data-name="Path 8144" class="cls-5" d="M36.591,83.8c-1.084-4.591-.122-9.085.653-12.742,1.053-4.983,1.669-8.411,1.669-8.411,0-5.961-1.175-10.938-9.717-10.938S16.5,56.579,16.5,62.539c0,0,4.3,15.824,4.28,18.462-.057,7.544-5.429,16.834-4.083,37.707.219,3.4,15.151-.6,19.99-.812C37.137,117.875,39.285,95.2,36.591,83.8Z"/><path id="Path_8145" data-name="Path 8145" class="cls-5" d="M22.475,54.176a4.659,4.659,0,0,0-5.9,2.933h0l-4.15,18.248A12,12,0,0,1,17.593,76.8a20.026,20.026,0,0,1,1.582-3.5l4.314-13.434C24.311,57.422,24.92,55,22.475,54.176Z"/><path id="Path_8146" data-name="Path 8146" class="cls-2" d="M4.184,93.56A3.408,3.408,0,0,1,.05,93.213c-.529-.681,3.242-1.891,4.636-2.973s2.42-.532,2.947.145S6.478,92.087,4.184,93.56Z"/><path id="Path_8147" data-name="Path 8147" class="cls-2" d="M8.9,89.457a29.448,29.448,0,0,1-2.193,2.477C5.245,90.563,5.224,90.3,5.224,90.3l7.1-15.207c1.212-2.152,3.381-2.784,4.846-1.415h0c1.461,1.37.4,3.556-.818,5.706Z"/><path id="Path_8148" data-name="Path 8148" class="cls-5" d="M16.967,150.734c0,.961-3.012,4.2-.466,4.2,6.282,0,6.7-.05,6.381-.922-.755-2.057-1.891-1.194-2.159-4.262C20.564,147.92,16.967,149.772,16.967,150.734Z"/><path id="Path_8149" data-name="Path 8149" class="cls-4" d="M23.246,52.865c-3.384,1.2,2.077,1.624,4.412,1.594s8.533-1.042,5.477-2.536c-5.128-2.505-.073-8.866-5.14-8.8C23.519,43.176,28.863,50.865,23.246,52.865Z"/><path id="Path_8150" data-name="Path 8150" class="cls-16" d="M33.737,34.888a2.388,2.388,0,1,1-2.449-2.326h.032a2.37,2.37,0,0,1,2.417,2.322Z"/><path id="Path_8151" data-name="Path 8151" class="cls-2" d="M21.605,40.9c.031,2.544,5.537,6.453,6.763,6.435a5.375,5.375,0,0,0,5.058-5.675c-.008-.145-.022-.289-.043-.433-.463-4.5-.692-9.745-4.14-9.7S21.545,36.107,21.605,40.9Z"/><path id="Path_8152" data-name="Path 8152" class="cls-16" d="M29.605,33.711c-5.328.069-4.964,9.452-9.261,9.508s-1.716-11.565,5.037-12.892C29.605,29.494,29.605,33.711,29.605,33.711Z"/><path id="Path_8153" data-name="Path 8153" class="cls-16" d="M32.455,32.549c.016,1.277-1.546,2.331-3.492,2.355s-3.535-.99-3.551-2.266,1.549-2.332,3.491-2.356S32.438,31.274,32.455,32.549Z"/><g id="Group_1595" data-name="Group 1595"><g id="Group_1588" data-name="Group 1588"><g id="Group_1587" data-name="Group 1587"><path id="Path_8154" data-name="Path 8154" class="cls-17" d="M50.8,17.184c-9.112,1.279-16.057,1.772-14.312,8.793.286,1.152.339,2.738.968,3.708h-.008l.072.1q.13.2.27.387a6.44,6.44,0,0,1-.271,7.808c3.329-.827,2.956-.231,5.6-1.962,2.525.4,16.554-.875,19.33-1.566,8.93-2.221,7.7-5.106,6.819-12.287C68.416,15.178,60.793,15.781,50.8,17.184Z"/></g></g><g id="Group_1590" data-name="Group 1590"><g id="Group_1589" data-name="Group 1589"><path id="Path_8155" data-name="Path 8155" class="cls-8" d="M43.089,26.844a2.174,2.174,0,1,0,1.852-2.454h0a2.173,2.173,0,0,0-1.851,2.453Z"/></g></g><g id="Group_1592" data-name="Group 1592"><g id="Group_1591" data-name="Group 1591"><path id="Path_8156" data-name="Path 8156" class="cls-8" d="M51.162,25.782a2.174,2.174,0,1,0,1.853-2.454A2.175,2.175,0,0,0,51.162,25.782Z"/></g></g><g id="Group_1594" data-name="Group 1594"><g id="Group_1593" data-name="Group 1593"><path id="Path_8157" data-name="Path 8157" class="cls-8" d="M59.189,24.661a2.175,2.175,0,1,0,1.855-2.454h0A2.175,2.175,0,0,0,59.189,24.661Z"/></g></g></g></g></g></svg>