<svg id="Layer_1" data-name="Layer 1" xmlns="http://www.w3.org/2000/svg" xmlns:xlink="http://www.w3.org/1999/xlink" width="110.075" height="155.445" viewBox="0 0 110.075 155.445"><defs><style>.cls-1{opacity:0.1;}.cls-2{fill:#0f3871;}.cls-3{fill:url(#linear-gradient);}.cls-4{fill:#002a42;}.cls-5{fill:url(#linear-gradient-2);}.cls-6{fill:#ffbbb5;}.cls-7{fill:#fff;}.cls-8{fill:#edaea9;}.cls-9{fill:#00c25f;}.cls-10{fill:#ede5dd;}.cls-11{fill:#7b4842;}.cls-12{fill:#676767;}.cls-13{fill:#9054a2;}</style><linearGradient id="linear-gradient" x1="-120.558" y1="324.676" x2="-120.819" y2="325.212" gradientTransform="matrix(2.553, 0, 0, -7.853, 379.288, 2653.555)" gradientUnits="userSpaceOnUse"><stop offset="0" stop-color="#ffbbb5"/><stop offset="0.306" stop-color="#f8989c"/><stop offset="0.982" stop-color="#e8405e"/><stop offset="1" stop-color="#e83e5d"/></linearGradient><linearGradient id="linear-gradient-2" x1="-122.9" y1="329.487" x2="-123.161" y2="330.023" gradientTransform="matrix(2.553, 0, 0, -7.853, 394.873, 2653.555)" xlink:href="#linear-gradient"/></defs><title>testimonials-large</title><g id="Group_1906" data-name="Group 1906"><g id="Group_1607" data-name="Group 1607"><path id="Path_8158" data-name="Path 8158" class="cls-1" d="M110.075,154.014c0,.936-9.134,1.422-36.445,1.422-23.131,0-29.733.151-29.733-.784s15.21-3.545,36.353-3.545S110.075,153.078,110.075,154.014Z"/><path id="Path_8159" data-name="Path 8159" class="cls-2" d="M79.061,52.963c0,9.155,3.14,3.741,4.021,11.19.444,3.731,3.1.018,2.855-6.3-.129-3.368-2.9-6.987-2.9-10.163,0-9.153,8-5.768,5.559-8.5C85.138,35.306,79.061,43.809,79.061,52.963Z"/><path id="Path_8160" data-name="Path 8160" class="cls-3" d="M76.986,149.456a1.346,1.346,0,0,0,1.275,1.41h0a1.345,1.345,0,0,0,1.275-1.41v-5.031a1.346,1.346,0,0,0-1.275-1.412h0a1.346,1.346,0,0,0-1.275,1.412Z"/><g id="Group_1597" data-name="Group 1597"><path id="Path_8161" data-name="Path 8161" class="cls-2" d="M86.006,89.832c-4.137-2.12-6.328-1.532-7.647,1.858-3.708,9.541-4.658,25.009-4.658,28.1,0,6.2,3.415,26.643,3.415,26.643s3.323,1.216,3.294.293c-.4-14.394,1.18-13.285,1.108-18.4-.04-2.966-.985-5.691-.757-8.226.069-.791,3.78-7.5,4.689-9.863A140.679,140.679,0,0,0,89.9,96.055C90.755,92.988,87.561,90.628,86.006,89.832Z"/></g><g id="Group_1598" data-name="Group 1598"><path id="Path_8162" data-name="Path 8162" class="cls-4" d="M86.006,89.835c-.279-.141-.548-.271-.808-.388a10.785,10.785,0,0,1,.547,4.214,35.154,35.154,0,0,1-.86,5.492h0c-.059.24-.09,7.587-1.312,10.21-1.192,2.557-4.5,9.509-4.269,11.592.148,1.352.381,6.727.4,8.093-.018,2.428-.592,12.931-.526,17.778.939.25,1.255.441,1.236-.1-.4-14.394,1.18-13.285,1.108-18.4-.04-2.966-.985-5.691-.757-8.226.069-.791,3.779-7.5,4.689-9.863A140.679,140.679,0,0,0,89.9,96.055C90.76,92.987,87.561,90.628,86.006,89.835Z"/></g><path id="Path_8163" data-name="Path 8163" class="cls-2" d="M92.578,89.169l-.157-.178c0,6.546-1.1,6.409-8.224,6.409s-5.845-.5-5.845-7.05l1.513-.785Z"/><path id="Path_8164" data-name="Path 8164" class="cls-5" d="M92.577,149.456a1.347,1.347,0,0,0,1.276,1.41h0a1.346,1.346,0,0,0,1.274-1.41v-5.031a1.347,1.347,0,0,0-1.274-1.412h0a1.347,1.347,0,0,0-1.276,1.412Z"/><path id="Path_8165" data-name="Path 8165" class="cls-2" d="M92.4,145.257s3.086.323,3.078-.756c-.073-9.827-.468-18.106-.3-25.041.047-1.873,3.33-30.4-2.653-31.165-5.453-.694-6.046-.048-7.567,3.236-1.274,2.742,1.9,26.312,2.894,28.6.332.761,1.005,4.688,1.162,5.5C91.272,137.181,92.4,145.257,92.4,145.257Z"/><path id="Path_8166" data-name="Path 8166" class="cls-4" d="M95.168,119.46c.046-1.873,3.331-30.4-2.653-31.165-4.274-.543-5.561-.258-6.651,1.468-4.043-2.031-6.2-1.423-7.505,1.927a47.591,47.591,0,0,0-1.718,5.521c2.922,3.634,12.994-1.3,16.556,1,3.159,2.04.588,18.807.718,21.919.144,3.5.413,25.14.825,25.03s.736-.316.734-.66C95.4,134.673,95.005,126.394,95.168,119.46Z"/><path id="Path_8167" data-name="Path 8167" class="cls-2" d="M67.523,65.138c-.513.084-3.818,1.155-4.133-1.214l.088.243a4.866,4.866,0,0,1,1.217-3.886l15.982-2.427a4.325,4.325,0,0,1,4.859,3.713v0h0c.317,2.368-1.952,2.853-4.319,3.17Z"/><path id="Path_8168" data-name="Path 8168" class="cls-6" d="M48.558,51.684a3.164,3.164,0,0,1,.494-3.819c.653-.458,1.617,3.084,2.561,4.424a1.771,1.771,0,0,1,.01,2.506,1.727,1.727,0,0,1-.268.222C50.7,55.471,49.826,53.874,48.558,51.684Z"/><path id="Path_8169" data-name="Path 8169" class="cls-2" d="M50.947,55.705a18.92,18.92,0,0,1-1.67-1.4,28.9,28.9,0,0,0,2.463-2.793L65.34,60c1.943,1.215,2.44,3.256,1.107,4.552h0c-1.33,1.3-3.311.22-5.252-.994Z"/><path id="Path_8170" data-name="Path 8170" class="cls-7" d="M83,67.575c.162,2.863-1.434,12.087,4.32,10.256,4.108-1.307,3.9-4.909,5.666-8.152a8.846,8.846,0,0,1,3.485-3.4C96,61.25,92.142,57.3,84.737,57.3a19.572,19.572,0,0,0-2.606.157.569.569,0,0,1-.248.389,5.555,5.555,0,0,0-.743.617A25.362,25.362,0,0,1,83,67.575Z"/><path id="Path_8171" data-name="Path 8171" class="cls-2" d="M96.529,67.35a9.328,9.328,0,0,0-6.124-9.067c-1.275,1.367-3.407,3.5-3.887,5.261-.847,3.1.075,2.95-.147,6.163,0,.005-1.639,15.464-1.638,15.55,0,.706-1.151-14.819-1.577-17.518-.243-1.545,1.449-3.516.651-4.88-.326-.554-1.441-3.647-1.879-4.115a.5.5,0,0,1-.236-.159,4.193,4.193,0,0,1-.585-.946c-4.469,1-4.837,4.163-4.837,8.685,0,0,4.146,7.992,1.139,25.933-.835,4.991,19.544,3.218,19.111.808C94.947,84.321,96.529,67.35,96.529,67.35Z"/><path id="Path_8172" data-name="Path 8172" class="cls-6" d="M95.32,91.373l-1.385,3.6a3.229,3.229,0,0,1-2.668,2.237c2.2.924,3.563,1.565,4.489-.635l2.594-4.866Q96.831,91.57,95.32,91.373Z"/><path id="Path_8173" data-name="Path 8173" class="cls-2" d="M102.927,75.81c.268.444,2.643,2.944.568,4.127l.193-.172a7.014,7.014,0,0,1-4.025.93l-8.3-14.48a4.327,4.327,0,0,1,1.609-5.9h0c2.075-1.182,3.381.734,4.566,2.808Z"/><path id="Path_8174" data-name="Path 8174" class="cls-2" d="M95.11,91.922l2.681-6.964s.951-2.47,1.055-2.773c.415-1.2.414-2.192-1.19-4.99,0,0,.432-1.347,2.633-.421l1.569-.315c2.891.334,3.206,2.664,1.706,5.464l-5.543,10.4Z"/><path id="Path_8175" data-name="Path 8175" class="cls-8" d="M90.708,58.193c2.986,1.021-1.81,1.447-3.864,1.447S79.33,58.818,82,57.473c4.48-2.259-.035-7.8,4.423-7.8C90.358,49.675,85.742,56.494,90.708,58.193Z"/><path id="Path_8176" data-name="Path 8176" class="cls-6" d="M92.012,47.65c0,2.235-4.8,5.733-5.876,5.733-1.1,0-4.765-3.731-4.474-5.316.709-3.915.5-8.574,3.532-8.574S92.012,43.439,92.012,47.65Z"/><path id="Path_8177" data-name="Path 8177" class="cls-2" d="M98.11,52.963c0,9.155-3.977,5.42-4.858,12.868-.444,3.73-7.923-1.661-7.68-7.983.129-3.368,5.206-6.987,5.206-10.163,0-9.153-5.48-5.768-3.041-8.5C91.2,35.306,98.11,43.809,98.11,52.963Z"/><path id="Path_8178" data-name="Path 8178" class="cls-2" d="M80.5,42.893c-.132.8,8.707,1.679,10.629,1.679s-1.26-3.1-1.26-3.916-2.033-2.385-3.956-2.385A5.459,5.459,0,0,0,80.5,42.893Z"/><path id="Path_8179" data-name="Path 8179" class="cls-7" d="M80.107,150.28c0,.894,1.559,3.9-1.034,3.9-6.4,0-10.095-.171-9.555-.857.093-.12-.119-1,0-1.092,1.785-1.424,6.506.449,6.761-2.219C76.444,148.311,80.107,149.388,80.107,150.28Z"/><path id="Path_8180" data-name="Path 8180" class="cls-7" d="M96.09,150.279c0,.54,1.094,1.2,1.38,2.155.188.623-.014,1.744-.949,1.744-5.831,0-6.442-.1-6.141-.915.175-.476.12-1.042.321-1.28.6-.712,1.716-.481,1.9-2.613C92.751,147.669,96.09,149.388,96.09,150.279Z"/><path id="Path_8181" data-name="Path 8181" class="cls-2" d="M80.107,149.19c0,.9,1.559,3.9-1.034,3.9-6.4,0-10.095-.171-9.555-.857,1.5-1.907,6.489-.464,6.761-3.31C76.444,147.219,80.107,148.3,80.107,149.19Z"/><path id="Path_8182" data-name="Path 8182" class="cls-2" d="M96.09,149.186c0,.9,2.794,3.9.431,3.9-5.831,0-6.22-.046-5.92-.857.7-1.907,1.755-1.107,2-3.95C92.75,146.578,96.09,148.3,96.09,149.186Z"/><g id="Group_1600" data-name="Group 1600"><g id="Group_1599" data-name="Group 1599"><path id="Path_8183" data-name="Path 8183" class="cls-9" d="M92.7,28.214c9.8-.434,12.187-9.413,12.255-11.811.15-5.327-1.743-10.373-9.845-12.217-6.61-1.5-11.988.368-14.806,4.461-3.022,4.39-2.843,10.735,1.992,15.486a15.578,15.578,0,0,0,2.047,1.694L87.9,31.314a5.13,5.13,0,0,1,4.322-3.062C92.38,28.243,92.7,28.214,92.7,28.214Z"/></g></g><g id="Group_1602" data-name="Group 1602"><g id="Group_1601" data-name="Group 1601"><path id="Path_8184" data-name="Path 8184" class="cls-7" d="M83.3,14.483a1.736,1.736,0,1,0,1.969-1.467h0A1.736,1.736,0,0,0,83.3,14.482Z"/></g></g><g id="Group_1604" data-name="Group 1604"><g id="Group_1603" data-name="Group 1603"><path id="Path_8185" data-name="Path 8185" class="cls-7" d="M89.727,15.476A1.736,1.736,0,1,0,91.7,14.009,1.737,1.737,0,0,0,89.727,15.476Z"/></g></g><g id="Group_1606" data-name="Group 1606"><g id="Group_1605" data-name="Group 1605"><path id="Path_8186" data-name="Path 8186" class="cls-7" d="M96.13,16.413a1.737,1.737,0,1,0,1.97-1.467h0A1.737,1.737,0,0,0,96.13,16.413Z"/></g></g></g><g id="Group_1617" data-name="Group 1617"><path id="Path_8187" data-name="Path 8187" class="cls-1" d="M65.264,145.25c0,.909-8.871,1.381-35.394,1.381-22.464,0-28.876.147-28.876-.762s14.771-3.443,35.3-3.443S65.264,144.341,65.264,145.25Z"/><path id="Path_8188" data-name="Path 8188" class="cls-6" d="M29.531,142.54c-.884-9.627-2.889-14.864-3.712-21.634-.021-.174,1.115-7.637,1.006-8.24,2.276,1,2.931-5.727,5.12-6.828a11.36,11.36,0,0,1,1.231,4.982c.031.816.135,7.621.068,8.432-.948,11.543-1.734,22.361-1.734,22.361S29.628,143.6,29.531,142.54Z"/><path id="Path_8189" data-name="Path 8189" class="cls-6" d="M18.7,142.476c.7-9.644,1.564-14.991,2.257-21.779.018-.176.237-6.39.333-6.994-2.254,1.049-3.494-6.814-5.7-7.866a11.382,11.382,0,0,0-1.136,5.008c-.016.817.01,7.622.093,8.432,1.168,11.518,2.16,22.316,2.16,22.316S18.624,143.53,18.7,142.476Z"/><path id="Path_8190" data-name="Path 8190" class="cls-2" d="M32.382,136.891H28.305c-.989-6.289-1.84-10.666-2.485-15.982-.021-.174,1.115-7.637,1.006-8.24,2.276,1,2.931-5.727,5.12-6.828a11.36,11.36,0,0,1,1.231,4.982c.031.816.135,7.621.068,8.432C32.683,126.086,32.7,132.661,32.382,136.891Z"/><path id="Path_8191" data-name="Path 8191" class="cls-10" d="M31.967,72.916c.03.538,1.708-.235,4.015-.443l-.247-.031a4.712,4.712,0,0,0,3.428-2.1L36.618,51.388c-.192-2.478-1.967-4.867-4.274-4.66L29.558,49.2a5.606,5.606,0,0,0-4.542,5.452Z"/><path id="Path_8192" data-name="Path 8192" class="cls-6" d="M53.684,64a1.6,1.6,0,0,0-.247-2.838c-.83-.362-2.521,2.219-3.944,3.172s-.779,1.661.046,2.024S51.725,65.572,53.684,64Z"/><path id="Path_8193" data-name="Path 8193" class="cls-10" d="M52.421,65.91a27.677,27.677,0,0,1-3.006-2.153L30.148,69.524c-2.755.827-1.533,1.689.117,2.7l4.3,2.494C38.6,73.256,52.421,65.91,52.421,65.91Z"/><path id="Path_8194" data-name="Path 8194" class="cls-10" d="M36.149,71.149c-2.328-2.176-1.347-16.555-1.415-18.417-.077-2.066.041-3.073.083-5.139a3.273,3.273,0,0,0-2.473-.867L29.558,49.2a5.606,5.606,0,0,0-4.542,5.452l5.607,14.736-.474.142c-2.755.827-1.533,1.689.117,2.7l4.3,2.494c4.035-1.458,17.861-8.8,17.861-8.8-.715-.437-.315-.37-.834-.755C51.173,65.3,37.688,72.589,36.149,71.149Z"/><path id="Path_8195" data-name="Path 8195" class="cls-2" d="M26.806,113.266c.675-.244,6.356,3.6,6.427,3.184.309-1.814.665-29.521-1.246-36.424-1.438-5.186-8.2-2.135-8.889,1.353C20.582,94.142,26.776,112.77,26.806,113.266Z"/><path id="Path_8196" data-name="Path 8196" class="cls-11" d="M28.873,140.618c-.019.878-1.513,3.8.864,3.853,5.867.147,9.256.067,8.777-.624-1.334-1.912-5.939-.606-6.128-3.409C32.27,138.763,28.892,139.739,28.873,140.618Z"/><path id="Path_8197" data-name="Path 8197" class="cls-2" d="M20.206,136.892H16.267c-.4-4.222-1.029-10.792-1.721-17.617-.083-.81-.109-7.615-.093-8.432a11.382,11.382,0,0,1,1.136-5.008c2.21,1.052,3.449,8.915,5.7,7.866-.1.6-.315,6.819-.333,6.994C20.411,126.049,20.8,130.516,20.206,136.892Z"/><path id="Path_8198" data-name="Path 8198" class="cls-11" d="M19.349,141.27c.026.917,2.787,3.909.528,3.985-5.574.186-5.949.15-5.687-.691.614-1.98,1.645-1.191,1.8-4.122C16.079,138.7,19.323,140.355,19.349,141.27Z"/><path id="Path_8199" data-name="Path 8199" class="cls-2" d="M14.864,112.826c.688-.2,6.2,3.469,6.3,3.058.415-1.791,2.794-26.365,5.437-26.614C31.623,88.8,15.655,77.565,14.767,81,11.506,93.569,14.864,112.33,14.864,112.826Z"/><path id="Path_8200" data-name="Path 8200" class="cls-2" d="M14.764,81c.438-1.694,4.549-.346,8,2.047a16.835,16.835,0,0,1,.339-1.666c.687-3.488,7.451-6.539,8.889-1.353,1.911,6.9,1.555,34.61,1.246,36.424-.071.417-5.752-3.428-6.427-3.184A129.385,129.385,0,0,1,23.5,99.158c-1.214,7.139-2.1,15.7-2.34,16.725-.095.41-5.609-3.258-6.3-3.059C14.864,112.326,11.506,93.568,14.764,81Z"/><path id="Path_8201" data-name="Path 8201" class="cls-4" d="M23.515,99.262a.6.6,0,0,0,.041-.069c1.4,2.5,3.391,10.025,3.93,13.48.658,4.225-1.667,5.294-.957,10.122.5,3.407,2.323,10.685,2.808,14.1H28.3c-.989-6.289-1.84-10.666-2.485-15.982-.018-.15.826-5.737.987-7.644A129.774,129.774,0,0,1,23.515,99.262Z"/><path id="Path_8202" data-name="Path 8202" class="cls-4" d="M14.481,110.109c-.776-5.728-2.26-19.3.28-29.111.438-1.694,4.549-.346,8,2.047a16.835,16.835,0,0,1,.339-1.666c.687-3.488,7.451-6.539,8.889-1.353.494,1.786.5.794.736,4.56-9.227,3.239-16.753-1.842-17.543,6.1-.733,7.37.971,15.985,1.444,30.183.182,5.468-.325,10.961,1.58,16.023H16.264c-.4-4.222-1.029-10.792-1.721-17.617-.083-.81-.109-7.615-.093-8.432C14.457,110.587,14.464,110.343,14.481,110.109Z"/><path id="Path_8203" data-name="Path 8203" class="cls-10" d="M35.113,48.533c-.574-2.386-5.07-4.2-6.263-4.414l-.317-.053h0a27.312,27.312,0,0,0-9.692-.239v.01c-.08.011-.157.014-.239.032-2.11.466-5.052,1.4-6.4,3.065,0,0-1.915,2.362-.112,20.04.507,4.969,1.569,4.283,1.6,14.984,2.647.722,17.7-.115,18.513-.344C33.479,59.69,35.131,48.623,35.113,48.533Z"/><path id="Path_8204" data-name="Path 8204" class="cls-10" d="M21.4,79.617c-2.581-.418-3.865-2.964-4.579-5.268-1.5-4.86-4.471-11.481-.613-15.5,3.5-3.641-.165-7.074-.225-12.121-1.489.534-2.947-.833-3.79.2,0,0-1.915,2.362-.112,20.04.507,4.969,1.569,4.283,1.6,14.984,2.243.613,13.4.1,17.24-.2C27.722,81.327,24.577,80.132,21.4,79.617Z"/><path id="Path_8205" data-name="Path 8205" class="cls-12" d="M33.461,81.87c0,.724-.058,1.312-.781,1.312H14.2c-.724,0-.781-.588-.781-1.312h0c0-.723.057-1.311.781-1.311H32.676c.724,0,.781.588.781,1.311Z"/><path id="Path_8206" data-name="Path 8206" class="cls-10" d="M2.092,63.044c-.4.364,1.262,1.175,2.88,2.831l-.131-.211a10.783,10.783,0,0,0,3.8,2.388L20.129,54.1a4.48,4.48,0,0,0,.379-6.257l-1.554-1.658a5.607,5.607,0,0,0-7.1-.073Z"/><path id="Path_8207" data-name="Path 8207" class="cls-6" d="M14.325,85.442a1.6,1.6,0,0,0,2.732-.81c.19-.886-2.677-2.026-3.9-3.231s-1.782-.43-1.974.452S12.393,83.837,14.325,85.442Z"/><path id="Path_8208" data-name="Path 8208" class="cls-10" d="M12.2,84.587a27.4,27.4,0,0,1,1.508-3.376L7.385,63.486c-1.361-2.534-5.142-1.165-5.8.653L0,68.846C2.239,72.508,12.2,84.587,12.2,84.587Z"/><path id="Path_8209" data-name="Path 8209" class="cls-8" d="M28.587,43.435c1.141,2.289-3.181,1.565-5.057,1.657s-6.867.224-5.247-1.72c.6-.713,3.281-2.442,2.433-4.787-1.262-3.5,6.213-5,6.388-2.506C27.245,38.063,26.72,39.694,28.587,43.435Z"/><path id="Path_8210" data-name="Path 8210" class="cls-6" d="M20.033,34.246c-.214,1.923-.116,4.973,2.744,6.344,3.334,1.595,6.537.127,6.418-1.5-.245-3.3.016-10.324-2.294-10.621C22.95,27.958,20.437,30.625,20.033,34.246Z"/><path id="Path_8211" data-name="Path 8211" class="cls-2" d="M18.717,30.621a12.865,12.865,0,0,0,.966,4.139c.941,0,1.061-3.82,4.046-3.449,6.856.853,6.257-3.206,6.728-4.3.089-.207-1.44,1.064-5.164-1.011C22.266,24.315,18.717,28.758,18.717,30.621Z"/><path id="Path_8212" data-name="Path 8212" class="cls-10" d="M17.682,44.628l5.2,4.238L25,45.514l-7.327-1.59Z"/><path id="Path_8213" data-name="Path 8213" class="cls-10" d="M29.114,44.628l-2.557,3.709-2.12-2.822,4.677-1.59Z"/><path id="Path_8214" data-name="Path 8214" class="cls-10" d="M17.682,44.627l5.207,3.18,2.12-3.352-7.327-1.59Z"/><path id="Path_8215" data-name="Path 8215" class="cls-10" d="M29.114,44.1l-3.087,3.709-2.12-3.352,5.207-1.59Z"/><path id="Path_8216" data-name="Path 8216" class="cls-10" d="M24.835,51.877a.7.7,0,1,0,.7-.7.7.7,0,0,0-.7.7Z"/><path id="Path_8217" data-name="Path 8217" class="cls-10" d="M25.535,58.812a.7.7,0,1,0,.7-.7.7.7,0,0,0-.7.7Z"/><path id="Path_8218" data-name="Path 8218" class="cls-10" d="M25.535,66.2a.7.7,0,1,0,.7-.7.7.7,0,0,0-.7.7Z"/><path id="Path_8219" data-name="Path 8219" class="cls-10" d="M25.535,74.126a.7.7,0,1,0,.7-.7.7.7,0,0,0-.7.7Z"/><g id="Group_1610" data-name="Group 1610"><g id="Group_1609" data-name="Group 1609"><g id="Group_1608" data-name="Group 1608"><path id="Path_8220" data-name="Path 8220" class="cls-13" d="M50.359.556C41.145,1.856,34.5,4.476,35.521,11.72c.167,1.189.531,6.612,1.063,7.653h-.009c.022.035.042.071.063.107q.111.211.231.418a6.509,6.509,0,0,1-1.092,7.824c3.434-.483,7.3.077,10.137-1.385,2.5.668,12.439.856,15.3.453,9.214-1.3,8.689-12.52,7.67-19.764S59.572-.74,50.359.556Z"/></g></g></g><g id="Group_1612" data-name="Group 1612"><g id="Group_1611" data-name="Group 1611"><path id="Path_8221" data-name="Path 8221" class="cls-7" d="M42.326,13.945a2.135,2.135,0,1,0,2.042-2.224h0A2.134,2.134,0,0,0,42.326,13.945Z"/></g></g><g id="Group_1614" data-name="Group 1614"><g id="Group_1613" data-name="Group 1613"><path id="Path_8222" data-name="Path 8222" class="cls-7" d="M50.317,13.665a2.135,2.135,0,1,0,2.042-2.224h0A2.136,2.136,0,0,0,50.317,13.665Z"/></g></g><g id="Group_1616" data-name="Group 1616"><g id="Group_1615" data-name="Group 1615"><path id="Path_8223" data-name="Path 8223" class="cls-7" d="M58.266,13.323A2.135,2.135,0,1,0,60.308,11.1h0A2.135,2.135,0,0,0,58.266,13.323Z"/></g></g></g></g></svg>