<?xml version="1.0" encoding="utf-8"?>
<!-- Generator: Adobe Illustrator 24.0.0, SVG Export Plug-In . SVG Version: 6.00 Build 0)  -->
<svg version="1.1" id="Layer_1" xmlns="http://www.w3.org/2000/svg" xmlns:xlink="http://www.w3.org/1999/xlink" x="0px" y="0px"
	 viewBox="0 0 17.2 18.6" style="enable-background:new 0 0 17.2 18.6;" xml:space="preserve">
<style type="text/css">
	.st0{fill:#002A42;}
</style>
<g id="Group_1552" transform="translate(-147.195 -574.805)">
	<g id="Carousel_Arrow" transform="translate(172.414 583.805) rotate(90)">
		<path class="st0" d="M9.6,16.6c0,0.3-0.1,0.5-0.3,0.7l-7.6,7.6c-0.4,0.4-1,0.4-1.4,0s-0.4-1,0-1.4l6.9-6.9L0.3,9.7
			c-0.4-0.4-0.4-1,0-1.4s1-0.4,1.4,0l7.6,7.6C9.5,16.1,9.6,16.3,9.6,16.6z"/>
	</g>
	<g id="Carousel_Arrow-2" transform="translate(172.414 574.805) rotate(90)">
		<path class="st0" d="M9.6,16.6c0,0.3-0.1,0.5-0.3,0.7l-7.6,7.6c-0.4,0.4-1,0.4-1.4,0s-0.4-1,0-1.4l6.9-6.9L0.3,9.7
			c-0.4-0.4-0.4-1,0-1.4s1-0.4,1.4,0l7.6,7.6C9.5,16.1,9.6,16.4,9.6,16.6z"/>
	</g>
</g>
</svg>
