<?xml version="1.0" encoding="utf-8"?>
<!-- Generator: Adobe Illustrator 24.0.0, SVG Export Plug-In . SVG Version: 6.00 Build 0)  -->
<svg version="1.1" id="Layer_1" xmlns="http://www.w3.org/2000/svg" xmlns:xlink="http://www.w3.org/1999/xlink" x="0px" y="0px"
	 viewBox="0 0 12.4 11.1" style="enable-background:new 0 0 12.4 11.1;" xml:space="preserve">
<style type="text/css">
	.st0{fill:#FFFFFF;}
</style>
<path id="Path_4801" class="st0" d="M7.5,0.7H5.9L5.4,1.5l0.5-0.8H7.5z"/>
<path id="Path_4802" class="st0" d="M3.7,8.6L4.6,7L3.7,8.6L3.7,8.6z"/>
<path id="Path_4803" class="st0" d="M1.7,0.7L1.7,0.7l2.1,3.9l0,0L1.7,0.7z"/>
<path id="Path_4804" class="st0" d="M6.3,7.5C6.1,7.3,6,7,6,6.7C6,6.3,6.1,6,6.3,5.7c0.2-0.2,0.4-0.3,0.6-0.5C7.1,5.1,7.3,5,7.5,4.9
	V0.7H5.9L3.7,4.6L1.7,0.7H0v7.9h2V5.4l1.8,3.2l1.7-3.2v3.2h2V8.3C7.3,8.2,7.1,8.1,6.9,7.9C6.7,7.8,6.5,7.7,6.3,7.5z"/>
<path id="Path_4805" class="st0" d="M4.5,8.9L4.5,8.9z"/>
<path id="Path_4806" class="st0" d="M4.3,10.6C4.3,10.6,4.2,10.6,4.3,10.6C4.2,10.6,4.3,10.6,4.3,10.6z"/>
<path id="Path_4807" class="st0" d="M0.1,9.9C0.1,9.9,0.1,9.9,0.1,9.9C0.1,9.9,0.1,9.9,0.1,9.9z"/>
<path id="Path_4808" class="st0" d="M8.9,8.7L8.9,8.7L8.9,8.7L8.9,8.7z"/>
<path id="Path_4809" class="st0" d="M7.3,10.9L7.3,10.9l0.2,0L7.3,10.9L7.3,10.9z"/>
<path id="Path_4810" class="st0" d="M0,9.6L0,9.6C0,9.6,0,9.6,0,9.6C0,9.6,0,9.6,0,9.6z"/>
<path id="Path_4811" class="st0" d="M4.7,8.9L4.7,8.9L4.7,8.9z"/>
<g id="Group_673" transform="translate(7.732)">
	<path id="Path_4812" class="st0" d="M2.3,7L2.3,7L2.3,7c0.1-0.1,0.2-0.1,0.2-0.2c0.1-0.2,0.1-0.3,0-0.5l0,0c0,0-0.1-0.2-0.1-0.3
		c0-0.1,0.1-0.1,0.2-0.1c0,0,0.1,0,0.1,0c0.1,0,0.2-0.1,0.3-0.2l0,0h0h0h0c-0.3,0-0.7,0.1-1,0.2C1.8,6,1.7,6,1.6,6.1h0v0
		c0,0,0,0,0,0.1l0,0c0.1,0.2,0,0.4-0.1,0.6l0,0c0,0,0,0,0,0l0,0h0c0.1,0,0.2,0.1,0.4,0.1c0.1,0,0.2,0,0.3,0.1L2.3,7z M2.7,5.9
		L2.7,5.9z"/>
	<path id="Path_4813" class="st0" d="M4.4,0.1C4.3,0,4.2,0,4.1,0C3.8,0,3.5,0.2,3.3,0.4C2.9,0.6,2.6,0.8,2.2,1
		C1.4,1.5,0.7,2.1,0,2.8l0,0v1.1l0,0C0.4,3.4,0.8,3,1.2,2.7c0.6-0.5,1.3-0.9,2-1.2C3.1,1.6,3.1,1.8,3,2C2.8,2.6,2.6,3.3,2.5,3.9v0h0
		c0.3-0.1,0.5-0.1,0.8-0.1h0v0c0.1-1.1,0.5-2.2,1.2-3c0.1-0.1,0.1-0.2,0.1-0.3C4.7,0.4,4.6,0.2,4.4,0.1z M2.4,1l0.2-0.1L2.4,1z
		 M3.3,0.4L3.3,0.4L3.3,0.4L3.3,0.4L3.3,0.4z M4.1,0L4.1,0z"/>
	<path id="Path_4814" class="st0" d="M1.2,8.7L1.2,8.7L1.2,8.7C1.1,8.7,1,8.6,0.8,8.6C0.6,8.5,0.3,8.5,0,8.3l0,0v0.2c0,0,0,0,0,0.1
		v0h0c0.2,0.1,0.3,0.2,0.3,0.2L0.5,9l0,0l0,0l0,0h0C0.8,8.9,1,8.8,1.2,8.7L1.2,8.7L1.2,8.7L1.2,8.7z"/>
	<path id="Path_4815" class="st0" d="M3.1,10L3.1,10c-0.2,0.1-0.4,0.2-0.5,0.3c-0.2,0.1-0.3,0.1-0.5,0.2h0v0c0,0.1,0.1,0.4,0.4,0.4
		h0c0.1,0,0.1,0,0.2,0c0.1,0,0.2,0,0.3-0.1C3.1,10.5,3.1,10.3,3.1,10L3.1,10z M2.5,10.9L2.5,10.9z M2.7,10.9L2.7,10.9z"/>
</g>
<path id="Path_4816" class="st0" d="M12,4.3c-0.1-0.1-0.8-0.5-2.8,0.2C9,4.5,8.8,4.6,8.5,4.7C8,4.9,7.5,5.1,7.1,5.4
	C6.8,5.6,6.2,6,6.2,6.6c0,0.3,0.1,0.5,0.3,0.7C6.7,7.5,6.8,7.6,7,7.7C7.5,8,8.1,8.3,8.6,8.4c0.3,0.1,0.5,0.1,0.8,0.2
	c0.1,0,0.2,0,0.3,0l0.1,0l-0.1,0C9.6,8.7,9.5,8.8,9.4,8.8C9,9,8.6,9.2,8.1,9.3c-0.5,0.2-1,0.3-1.5,0.3C6,9.8,5.4,9.6,4.9,9.2
	c0,0,0,0,0,0C4.8,9,4.8,8.9,4.7,8.9c-0.1,0-0.1,0-0.2,0H0.8c-0.2,0-0.4,0.1-0.5,0.2C0.1,9.2,0,9.3,0,9.5c0,0,0,0,0,0s0,0,0,0.1v0
	c0,0,0,0,0,0.1s0,0,0,0c0,0.2,0.1,0.3,0.2,0.4c0.1,0.1,0.3,0.2,0.5,0.2H4c0.1,0.2,0.3,0.4,0.5,0.5C5,11,5.5,11.1,5.9,11.1
	c0.5,0,0.9-0.1,1.4-0.1c0.3-0.1,0.6-0.1,0.9-0.2c0.7-0.2,1.3-0.4,1.9-0.7c0.4-0.2,0.7-0.3,1-0.5c0,0,0.1-0.1,0.2-0.1
	c0.1-0.1,0.2-0.1,0.3-0.2l0,0C12,9,12.1,8.8,12.1,8.5c0-0.3-0.2-0.5-0.4-0.6c-0.3-0.2-0.6-0.3-1-0.5l-0.1-0.1
	c-0.3-0.1-0.5-0.2-0.8-0.2c-0.1,0-0.2,0-0.3-0.1C9.3,7.1,9,7,8.8,6.9C8.6,6.9,8.4,6.8,8.1,6.7C8.1,6.7,8,6.6,8,6.6
	c0,0,0.1-0.1,0.1-0.1c0.1-0.1,0.2-0.1,0.3-0.1l0,0l0,0c0.4-0.2,0.8-0.4,1.2-0.5c0.3-0.1,0.7-0.2,1-0.2c0.2,0,0.4,0,0.5,0h0.1
	c0.3,0,0.6,0,0.8-0.2c0.1-0.1,0.2-0.2,0.2-0.4C12.3,4.6,12.2,4.4,12,4.3z"/>
</svg>
