<?xml version="1.0" encoding="utf-8"?>
<!-- Generator: Adobe Illustrator 24.0.0, SVG Export Plug-In . SVG Version: 6.00 Build 0)  -->
<svg version="1.1" id="Layer_1" xmlns="http://www.w3.org/2000/svg" xmlns:xlink="http://www.w3.org/1999/xlink" x="0px" y="0px"
	 viewBox="0 0 24 24" style="enable-background:new 0 0 24 24;" xml:space="preserve">
<style type="text/css">
	.st0{fill:none;}
	.st1{fill:#FFFFFF;}
</style>
<path class="st0" d="M0,0h24v24H0V0z"/>
<path class="st1" d="M10,4c4.4,0,8,3.6,8,8s-3.6,8-8,8c-0.3,0-0.7,0-1-0.1c1.9-2.2,3-5,3-7.9s-1.1-5.8-3-7.9C9.3,4,9.7,4,10,4 M10,2
	C8.2,2,6.5,2.5,5,3.3c3,1.7,5,5,5,8.6s-2,6.9-5,8.6c1.5,0.9,3.2,1.4,5,1.4c5.5,0,10-4.5,10-10S15.5,2,10,2z"/>
</svg>
