<?xml version="1.0" encoding="utf-8"?>
<!-- Generator: Adobe Illustrator 24.0.0, SVG Export Plug-In . SVG Version: 6.00 Build 0)  -->
<svg version="1.1" id="Layer_1" xmlns="http://www.w3.org/2000/svg" xmlns:xlink="http://www.w3.org/1999/xlink" x="0px" y="0px"
	 viewBox="0 0 406.8 168.9" style="enable-background:new 0 0 406.8 168.9;" xml:space="preserve">
<style type="text/css">
	.st0{fill:#FFFFFF;}
</style>
<g>
	<g>
		<path class="st0" d="M227.9,55.2c0,0-5.2-4.2-24.5,1.9c0,0-30.4,8.8-27.9,18.2c0,0,0,9.4,33.9,14.8c0,0,10.9,1.5,0,4.7
			c0,0-41.5,20-52.9,2.5H0v7.2h152.7c0,0,2.2,10.8,30.6,5.9c0,0,26.9-4.4,42.3-15.8c0,0,10.6-4.3-14.6-11.8c0,0-38.3-5.3-18.3-13.9
			c0,0,16.6-9.1,31.6-7.4C224.4,61.3,234.5,60.4,227.9,55.2z"/>
		<path class="st0" d="M298.5,98.6c0,0,12.3-14.4,2.9-14.8c0,0-28.3-0.8-34.3,22.1c-0.5-2.2-0.9-4.8-0.9-7.9c0,0,0-11.1-9.1-12.2
			c0,0-4.1-2.2-16.1,10.2c0,0-8.4,10.1-3.1-4c0,0,13.1-40.5,29-55.4c0,0,5-2.7,0.7-6.4c0,0-3.3-5-7.5-0.7c0,0-18,24.6-30.1,61.2
			c0,0-6.3,28.3,8,18.4c0,0,18.2-20.2,19.3-11.2c0,0,0.3,13.8,10.2,24.1c0,0,4.6,2.8,9.5-1.9c0,0,3-2-2.2-3c0,0-3.2-1.1-5.7-5.5
			c2.6,0.3,7.5-0.8,16.3-7.2c0,0,4.5-5.1,3.6,0c0,0-0.6,9.5,9.4,9.3c0,0,4.4-0.2,0.1-5.6C298.7,107.8,295.4,104.2,298.5,98.6z
			 M295.2,90.1c-2.3,3.8-19,13.6-19,13.6c-3.3,1.4-1.3-1.1-1.3-1.1c5-9.9,19.9-13.7,19.9-13.7C296.5,88.3,295.2,90.1,295.2,90.1z"/>
		<path class="st0" d="M329.3,91.5c0,0-2.1-0.8-4.3,2.5l-12.1,16.4c0,0-11.3,7.2-9.4-11c0,0,1.9-13.5,7.6-9.6c0,0,1.8,0.8,0.6,8.2
			c0,0-1,5.8,1.1,1.3c0,0,12-22.6,18.4-13.8C331.2,85.5,334.6,90.6,329.3,91.5z"/>
		<path class="st0" d="M357.7,44.4c0,0,2.8-4.7,6.3,0c0,0,2.7,3.5-4.1,13.1c0,0-14.9,24.8-17.5,31.3c0,0-9.4,17.4,0,11.3
			c0,0,20.4-11.8,32.2-22.3c0,0,7.6-4.1,4.2,2.9c0,0-3.5,5.1-19.1,16.9c0,0-3.8,1.8-2.6,6.4c0,0,1.2,4.9,12.2,0c0,0,11.9-7,8.9,0.3
			c0,0-7.8,12.5-22.9,9c0,0-5.3-1.8-5.3-6.6c0,0,0.2-3.2-3.4-0.6c0,0-16.1,12.1-16.7-2.6c0,0,0.6-13.4,10-25.9
			C339.8,77.6,356.5,49.7,357.7,44.4z"/>
	</g>
	<g>
		<path class="st0" d="M143.1,56.1v6c0.2,0.1,0.3,0.1,0.5,0.2V56C143.4,56.1,143.3,56.1,143.1,56.1z"/>
		<path class="st0" d="M259.1,28.2c1.4-1.4,2.9-2.2,4.5-2.2s3,0.8,3.9,1.6c9.6-3.3,24.5-6.9,43-6.3c0,0-17.8,16.1-0.2,23
			c0,0,18.7,2.2,24.8,7.4c0,0,7.5,3.2,15.4,4c1.1-2.1,2.2-4.1,3.1-5.8c-2.8-1-6.4-1.9-9.8-2c0,0-4.1,0-7.2-2.4c0,0-10.2-6.1-23-6.5
			c0,0-8.5,0.6-2.6-8.7c0,0,4.4-6.5,10.8-9.1c0,0,3.7-2.4,1.5-4.4c0,0-0.6-3.5-18.4-1.7c0,0-33.3,0.8-51.6,12.4
			c0,0-2.9,2.9-10.7,2.8c0,0-20.6-0.6-33.4,6.3c0,0-2.8,3.2-5.9,3.3c0,0-5.2,1.8-11.7,2.4c0,0-13,0.9-13.3,9.8c0,0-8.9-0.3-15.5,1.3
			v5.5c3.3-0.4,7-0.7,9.4-0.6c0,0,18.9,0.9,20.6-4.6c0,0,0.6-1.9-3.2-2.1c0,0-6.5-0.9,1.1-2.6c0,0,15.8-2.3,21.3-6.7
			c0,0,7.2-5.2,28-6.1c0,0,11.9,0.7,15.2-3.3c0,0,0.3-0.2,1-0.5c1.7-2.5,2.7-3.9,2.7-4C259,28.3,259.1,28.3,259.1,28.2z"/>
		<path class="st0" d="M403.4,0.5c0,0-2.4-2.6-8.7,4.3c0,0-16.9,11.8-29.3,30.8c0,0-1.2,2.7-2.5,5.9c0.8,0.4,1.6,1.1,2.3,2.1
			c0.3,0.4,2.1,3.2-0.9,9.6c1.2-1,2.2-2.2,3-3.9c0,0,1.9-18.4,28.7-36.1c0,0-4.8,10.8-2.6,31.7c0,0,0.7,2.6-1.5,2.1
			c0,0-5.7-0.1-3.9,8.3c0,0,1.7,3,0.2,5.4c0,0-2.2,4.3,3.3,9.8c0,0,11.7,15.9,4.4,12.3c0,0-12.6-9.1-20.8-13c0,0-3.3-3.9-8.3,0
			c0,0-4.6,5.7,2.4,5.6c0,0,0.6-2.8,2.8-0.7c0,0,1.1,0.6,2.8,1.6c0.9-0.4,2.2-0.9,3.3-0.9c1.4,0,2.1,0.7,2.4,1.2
			c0.5,0.8,0.5,1.8,0.2,3c6,3.5,13.6,8.1,16.9,11c0,0,1.3,3.9,3.9,3.3c0,0,6.7,1.5,3.7-8.5c0,0-3.3-13.9-9.6-19.5c0,0-2-1.9-0.9-4.3
			c0,0,3.3-2.6,0.7-6.3c0,0-2.6-2.8,0.4-3.5c0,0,4.8,0.9,4.1-9.3c0,0-2.7-22.8,6.1-36.3C406,6,409,3.1,403.4,0.5z"/>
	</g>
	<path class="st0" d="M392.6,100.9c2.3,0,4.2,1.8,4.2,4.1c0,2.3-1.8,4.1-4.2,4.1c-2.3,0-4.2-1.8-4.2-4.1
		C388.4,102.7,390.2,100.9,392.6,100.9L392.6,100.9z M392.5,101.7c-1.8,0-3.1,1.5-3.1,3.3s1.3,3.3,3.2,3.3c1.8,0,3.1-1.4,3.1-3.3
		C395.7,103.2,394.4,101.7,392.5,101.7L392.5,101.7z M391.9,107.1H391V103c0.4-0.1,0.9-0.1,1.6-0.1c0.8,0,1.1,0.1,1.4,0.3
		c0.2,0.2,0.4,0.5,0.4,0.9c0,0.5-0.3,0.8-0.8,1l0,0c0.4,0.1,0.6,0.4,0.7,1s0.2,0.9,0.3,1h-1c-0.1-0.2-0.2-0.5-0.3-1
		c-0.1-0.4-0.3-0.6-0.8-0.6h-0.4L391.9,107.1L391.9,107.1z M391.9,104.8h0.4c0.5,0,0.9-0.2,0.9-0.6s-0.3-0.6-0.9-0.6
		c-0.2,0-0.4,0-0.5,0.1L391.9,104.8L391.9,104.8z"/>
	<g>
		<polygon class="st0" points="15.6,62.8 29.7,87.8 43.5,63.1 43.5,87.8 59.6,87.8 59.6,26.2 46.5,26.2 29.7,56.6 13.3,26.2 0,26.2 
			0,87.8 15.6,87.8 		"/>
		<path class="st0" d="M83,78.6h19.8l3.7,9.1h16.6l-25-61.5H87.5L62.8,87.8h16.3L83,78.6z M92.7,52.9l5.4,13.8H87.5L92.7,52.9z"/>
		<rect x="125.8" y="26.2" class="st0" width="15.8" height="61.5"/>
		<path class="st0" d="M209.3,76.2h-17.9c3.8,1.8,10.9,3.6,17.9,4.7V76.2z"/>
		<path class="st0" d="M174.2,76.2h-12.8v-50h-16.3v61.5h47.3C177.9,83.4,174.8,78.4,174.2,76.2z"/>
	</g>
</g>
<g>
	<path class="st0" d="M15.5,142.2c1.4,0,2.5,0.2,3.5,0.5s1.8,0.8,2.5,1.3s1.2,1.3,1.5,2.1s0.5,1.7,0.5,2.7s-0.2,1.9-0.5,2.7
		c-0.4,0.8-0.9,1.5-1.5,2.1c-0.7,0.6-1.5,1.1-2.5,1.4c-1,0.3-2.1,0.5-3.4,0.5H12v8H9.2V142L15.5,142.2L15.5,142.2z M15.5,153.4
		c0.8,0,1.6-0.1,2.2-0.3s1.2-0.5,1.6-0.9s0.8-0.9,1-1.4c0.2-0.6,0.3-1.2,0.3-1.8c0-1.4-0.4-2.4-1.3-3.2c-0.8-0.8-2.1-1.2-3.8-1.2H12
		v8.9L15.5,153.4L15.5,153.4z"/>
	<path class="st0" d="M28.7,151.6c0.5-1,1.1-1.9,1.8-2.4s1.6-0.9,2.6-0.9c0.3,0,0.6,0,0.9,0.1c0.3,0.1,0.6,0.2,0.8,0.3l-0.2,2
		c-0.1,0.2-0.2,0.4-0.4,0.4c-0.1,0-0.3,0-0.6-0.1s-0.6-0.1-0.9-0.1c-0.5,0-0.9,0.1-1.3,0.2s-0.7,0.3-1,0.6s-0.6,0.6-0.8,1
		c-0.2,0.4-0.4,0.9-0.6,1.4v9.6h-2.7v-15.2h1.5c0.3,0,0.5,0.1,0.6,0.2c0.1,0.1,0.2,0.3,0.2,0.6L28.7,151.6z"/>
	<path class="st0" d="M40.3,143.8c0,0.3-0.1,0.5-0.2,0.7c-0.1,0.2-0.2,0.4-0.4,0.6c-0.2,0.2-0.4,0.3-0.6,0.4
		c-0.2,0.1-0.5,0.1-0.7,0.1c-0.3,0-0.5,0-0.7-0.1s-0.4-0.2-0.6-0.4s-0.3-0.4-0.4-0.6c-0.1-0.2-0.1-0.5-0.1-0.7s0.1-0.5,0.1-0.7
		c0.1-0.2,0.2-0.4,0.4-0.6s0.4-0.3,0.6-0.4c0.2-0.1,0.5-0.1,0.7-0.1c0.3,0,0.5,0,0.7,0.1s0.4,0.2,0.6,0.4c0.2,0.2,0.3,0.4,0.4,0.6
		C40.3,143.3,40.3,143.5,40.3,143.8z M39.8,148.5v15.2h-2.7v-15.2H39.8z"/>
	<path class="st0" d="M46.3,150.7c0.3-0.4,0.7-0.7,1.1-1s0.8-0.6,1.2-0.8s0.9-0.4,1.3-0.5c0.5-0.1,1-0.2,1.5-0.2
		c0.8,0,1.6,0.1,2.2,0.4c0.6,0.3,1.2,0.7,1.6,1.2s0.7,1.1,1,1.8c0.2,0.7,0.3,1.5,0.3,2.4v9.7h-2.7V154c0-1.1-0.3-2-0.8-2.7
		c-0.5-0.6-1.3-1-2.4-1c-0.8,0-1.5,0.2-2.2,0.6c-0.7,0.4-1.3,0.9-1.9,1.5v11.2h-2.7v-15.2h1.6c0.4,0,0.6,0.2,0.7,0.6L46.3,150.7z"/>
	<path class="st0" d="M64.7,164c-1.2,0-2.1-0.3-2.8-1c-0.6-0.7-1-1.6-1-2.9v-9.3h-1.8c-0.2,0-0.3,0-0.4-0.1
		c-0.1-0.1-0.2-0.2-0.2-0.4v-1.1l2.5-0.3l0.6-4.7c0-0.1,0.1-0.3,0.2-0.4c0.1-0.1,0.2-0.1,0.4-0.1h1.4v5.2H68v1.9h-4.4v9.1
		c0,0.6,0.2,1.1,0.5,1.4c0.3,0.3,0.7,0.5,1.2,0.5c0.3,0,0.5,0,0.7-0.1s0.4-0.2,0.5-0.2c0.1-0.1,0.3-0.2,0.4-0.2
		c0.1-0.1,0.2-0.1,0.3-0.1c0.1,0,0.3,0.1,0.4,0.3l0.8,1.3c-0.5,0.4-1,0.8-1.7,1C66,163.9,65.3,164,64.7,164z"/>
	<path class="st0" d="M97.4,163.7h-2.6c-0.3,0-0.5,0-0.7-0.1s-0.4-0.2-0.6-0.4l-2.2-2.2c-0.9,0.9-2,1.6-3.2,2.2
		c-1.2,0.5-2.6,0.8-4,0.8c-0.8,0-1.6-0.1-2.3-0.4c-0.8-0.3-1.5-0.7-2.1-1.2s-1.1-1.1-1.5-1.9s-0.6-1.6-0.6-2.5c0-0.7,0.1-1.4,0.4-2
		c0.2-0.6,0.6-1.2,1-1.7s0.9-1,1.5-1.4s1.2-0.8,1.9-1.1c-0.6-0.8-1.1-1.5-1.4-2.3c-0.3-0.7-0.4-1.5-0.4-2.3c0-0.7,0.1-1.4,0.4-2.1
		c0.3-0.6,0.6-1.2,1.1-1.7s1.1-0.9,1.8-1.1s1.5-0.4,2.4-0.4c0.8,0,1.5,0.1,2.2,0.4c0.6,0.3,1.2,0.6,1.7,1s0.8,0.9,1.1,1.5
		c0.3,0.6,0.4,1.1,0.5,1.7l-1.7,0.3c-0.3,0.1-0.6-0.1-0.7-0.5c-0.1-0.3-0.2-0.5-0.3-0.8s-0.4-0.5-0.6-0.8c-0.2-0.2-0.5-0.4-0.9-0.6
		c-0.3-0.1-0.7-0.2-1.2-0.2s-1,0.1-1.4,0.2s-0.8,0.4-1,0.7s-0.5,0.6-0.7,1s-0.2,0.8-0.2,1.3c0,0.4,0,0.7,0.1,1s0.2,0.6,0.4,1
		s0.4,0.7,0.7,1c0.3,0.3,0.6,0.7,1,1.1l6.2,6.3c0.4-0.7,0.7-1.4,0.9-2.1c0.2-0.7,0.4-1.5,0.4-2.2c0-0.2,0.1-0.3,0.2-0.5
		c0.1-0.1,0.2-0.2,0.4-0.2H95c0,1.1-0.2,2.3-0.5,3.4c-0.4,1.1-0.9,2.1-1.5,3.1L97.4,163.7z M83.6,153.1c-1.1,0.6-1.9,1.2-2.4,2
		s-0.8,1.7-0.8,2.6c0,0.6,0.1,1.2,0.4,1.7s0.6,0.9,0.9,1.3c0.4,0.3,0.8,0.6,1.3,0.8s1,0.3,1.5,0.3c1.1,0,2.1-0.2,3-0.6
		c0.9-0.4,1.7-1,2.3-1.6L83.6,153.1z"/>
	<path class="st0" d="M126.7,153c0,1.6-0.3,3.1-0.8,4.4c-0.5,1.3-1.2,2.5-2.2,3.4c-0.9,0.9-2,1.7-3.4,2.2s-2.7,0.8-4.3,0.8h-8v-21.5
		h8c1.6,0,3,0.3,4.3,0.8s2.4,1.2,3.4,2.2c0.9,0.9,1.6,2.1,2.2,3.4C126.5,149.9,126.7,151.4,126.7,153z M123.7,153
		c0-1.3-0.2-2.5-0.5-3.5c-0.4-1-0.9-1.9-1.5-2.6s-1.5-1.3-2.4-1.6c-0.9-0.4-2-0.6-3.1-0.6H111v16.8h5.1c1.2,0,2.2-0.2,3.1-0.6
		c0.9-0.4,1.7-0.9,2.4-1.6s1.2-1.6,1.5-2.6C123.6,155.5,123.7,154.3,123.7,153z"/>
	<path class="st0" d="M133.4,143.8c0,0.3-0.1,0.5-0.2,0.7c-0.1,0.2-0.2,0.4-0.4,0.6c-0.2,0.2-0.4,0.3-0.6,0.4
		c-0.2,0.1-0.5,0.1-0.7,0.1c-0.3,0-0.5,0-0.7-0.1s-0.4-0.2-0.6-0.4s-0.3-0.4-0.4-0.6c-0.1-0.2-0.1-0.5-0.1-0.7s0-0.5,0.1-0.7
		s0.2-0.4,0.4-0.6s0.4-0.3,0.6-0.4c0.2-0.1,0.5-0.1,0.7-0.1c0.3,0,0.5,0,0.7,0.1s0.4,0.2,0.6,0.4c0.2,0.2,0.3,0.4,0.4,0.6
		C133.4,143.3,133.4,143.5,133.4,143.8z M132.8,148.5v15.2h-2.7v-15.2H132.8z"/>
	<path class="st0" d="M139.4,151.6c0.5-1,1.1-1.9,1.8-2.4s1.6-0.9,2.6-0.9c0.3,0,0.6,0,0.9,0.1c0.3,0.1,0.6,0.2,0.8,0.3l-0.2,2
		c-0.1,0.2-0.2,0.4-0.5,0.4c-0.1,0-0.3,0-0.6-0.1s-0.6-0.1-0.9-0.1c-0.5,0-0.9,0.1-1.3,0.2s-0.7,0.3-1,0.6s-0.6,0.6-0.8,1
		s-0.4,0.9-0.6,1.4v9.6h-2.7v-15.2h1.5c0.3,0,0.5,0.1,0.6,0.2c0.1,0.1,0.2,0.3,0.2,0.6L139.4,151.6z"/>
	<path class="st0" d="M159.8,161.6c-0.3,0.4-0.7,0.7-1.2,1s-1,0.5-1.5,0.7s-1.1,0.3-1.6,0.4c-0.6,0.1-1.1,0.1-1.7,0.1
		c-1,0-2-0.2-2.9-0.5c-0.9-0.4-1.6-0.9-2.3-1.6c-0.6-0.7-1.1-1.5-1.5-2.5s-0.5-2.2-0.5-3.5c0-1.1,0.2-2,0.5-3s0.8-1.7,1.4-2.4
		c0.6-0.7,1.4-1.2,2.2-1.6s1.9-0.6,3-0.6c0.9,0,1.8,0.2,2.5,0.5c0.8,0.3,1.4,0.7,2,1.3s1,1.3,1.3,2.1s0.5,1.8,0.5,2.9
		c0,0.4,0,0.7-0.1,0.8s-0.3,0.2-0.5,0.2h-10.2c0,1,0.2,1.8,0.4,2.5s0.6,1.3,1,1.8s0.9,0.8,1.5,1.1c0.6,0.2,1.2,0.4,2,0.4
		c0.7,0,1.2-0.1,1.7-0.2c0.5-0.2,0.9-0.3,1.3-0.5c0.4-0.2,0.6-0.3,0.9-0.5c0.2-0.2,0.4-0.2,0.6-0.2c0.2,0,0.4,0.1,0.5,0.3
		L159.8,161.6z M157.6,154.5c0-0.6-0.1-1.2-0.3-1.7s-0.4-1-0.8-1.3c-0.3-0.4-0.7-0.7-1.2-0.9s-1-0.3-1.6-0.3c-1.3,0-2.3,0.4-3,1.1
		s-1.2,1.8-1.4,3.1L157.6,154.5L157.6,154.5z"/>
	<path class="st0" d="M173.7,151.2c-0.1,0.1-0.2,0.2-0.2,0.3c-0.1,0.1-0.2,0.1-0.3,0.1s-0.3-0.1-0.5-0.2c-0.2-0.1-0.4-0.3-0.7-0.4
		c-0.3-0.1-0.6-0.3-1-0.4s-0.9-0.2-1.4-0.2c-0.8,0-1.4,0.1-2,0.4s-1,0.6-1.4,1.1s-0.7,1.1-0.9,1.8s-0.3,1.5-0.3,2.4s0.1,1.7,0.3,2.5
		s0.5,1.3,0.9,1.8s0.9,0.9,1.4,1.1c0.5,0.3,1.2,0.4,1.8,0.4s1.2-0.1,1.6-0.2c0.4-0.2,0.8-0.3,1-0.5c0.3-0.2,0.5-0.4,0.7-0.5
		c0.2-0.2,0.4-0.2,0.5-0.2c0.2,0,0.4,0.1,0.5,0.3l0.8,1c-0.3,0.4-0.7,0.8-1.1,1s-0.9,0.5-1.4,0.7s-1,0.3-1.5,0.4
		c-0.5,0.1-1.1,0.1-1.6,0.1c-1,0-1.8-0.2-2.6-0.5c-0.8-0.4-1.5-0.9-2.1-1.5c-0.6-0.7-1.1-1.5-1.4-2.5s-0.5-2.1-0.5-3.3
		c0-1.1,0.2-2.2,0.5-3.1c0.3-1,0.8-1.8,1.4-2.5c0.6-0.7,1.4-1.2,2.2-1.6c0.9-0.4,1.9-0.6,3.1-0.6c1.1,0,2,0.2,2.8,0.5
		s1.5,0.8,2.2,1.5L173.7,151.2z"/>
	<path class="st0" d="M182.5,164c-1.2,0-2.1-0.3-2.8-1c-0.6-0.7-1-1.6-1-2.9v-9.3h-1.8c-0.2,0-0.3,0-0.4-0.1
		c-0.1-0.1-0.2-0.2-0.2-0.4v-1.1l2.5-0.3l0.6-4.7c0-0.1,0.1-0.3,0.2-0.4c0.1-0.1,0.2-0.1,0.4-0.1h1.4v5.2h4.4v1.9h-4.4v9.1
		c0,0.6,0.2,1.1,0.5,1.4c0.3,0.3,0.7,0.5,1.2,0.5c0.3,0,0.5,0,0.7-0.1s0.4-0.2,0.5-0.2c0.1-0.1,0.3-0.2,0.4-0.2
		c0.1-0.1,0.2-0.1,0.3-0.1s0.3,0.1,0.4,0.3l0.8,1.3c-0.5,0.4-1,0.8-1.7,1C183.8,163.9,183.1,164,182.5,164z"/>
	<path class="st0" d="M219.2,142.2v21.5h-2.6v-15.8c0-0.2,0-0.4,0-0.7c0-0.2,0-0.5,0.1-0.7l-7.4,13.4c-0.2,0.4-0.6,0.7-1,0.7h-0.4
		c-0.5,0-0.8-0.2-1-0.7l-7.5-13.5c0.1,0.5,0.1,1,0.1,1.5v15.8H197v-21.5h2.1c0.3,0,0.5,0,0.6,0.1c0.1,0,0.3,0.2,0.4,0.4l7.4,13.2
		c0.1,0.2,0.2,0.5,0.4,0.8c0.1,0.3,0.2,0.5,0.3,0.8c0.1-0.3,0.2-0.5,0.3-0.8s0.2-0.5,0.4-0.8l7.3-13.2c0.1-0.2,0.3-0.4,0.4-0.4
		s0.3-0.1,0.6-0.1H219.2L219.2,142.2z"/>
	<path class="st0" d="M223.4,150.7c0.8-0.8,1.7-1.4,2.7-1.8c1-0.4,2-0.6,3.2-0.6c0.9,0,1.6,0.1,2.3,0.4s1.2,0.7,1.7,1.2
		s0.8,1.1,1,1.8s0.3,1.5,0.3,2.3v9.7h-1.2c-0.3,0-0.5,0-0.6-0.1s-0.2-0.3-0.3-0.5l-0.3-1.4c-0.4,0.4-0.8,0.7-1.2,1s-0.8,0.5-1.2,0.7
		s-0.9,0.3-1.3,0.4c-0.5,0.1-1,0.2-1.6,0.2s-1.1-0.1-1.7-0.2c-0.5-0.2-1-0.4-1.4-0.7s-0.7-0.7-0.9-1.3c-0.2-0.5-0.3-1.1-0.3-1.8
		c0-0.6,0.2-1.2,0.5-1.7s0.9-1,1.6-1.5c0.7-0.4,1.7-0.8,2.9-1.1s2.6-0.4,4.4-0.5V154c0-1.2-0.3-2.1-0.8-2.7
		c-0.5-0.6-1.3-0.9-2.2-0.9c-0.7,0-1.2,0.1-1.7,0.2s-0.8,0.4-1.2,0.6c-0.3,0.2-0.6,0.4-0.8,0.6c-0.2,0.2-0.5,0.2-0.7,0.2
		s-0.3,0-0.5-0.1c-0.1-0.1-0.2-0.2-0.3-0.4L223.4,150.7z M232,156.9c-1.2,0-2.3,0.1-3.1,0.3c-0.9,0.2-1.6,0.4-2.1,0.6
		c-0.5,0.3-0.9,0.5-1.2,0.9s-0.4,0.7-0.4,1.1c0,0.4,0.1,0.7,0.2,1c0.1,0.3,0.3,0.5,0.5,0.7s0.5,0.3,0.8,0.4s0.6,0.1,1,0.1
		c0.5,0,0.9,0,1.3-0.1s0.8-0.2,1.1-0.4s0.7-0.4,1-0.6c0.3-0.2,0.6-0.5,0.9-0.9V156.9L232,156.9z"/>
	<path class="st0" d="M241.7,143.8c0,0.3-0.1,0.5-0.2,0.7c-0.1,0.2-0.2,0.4-0.4,0.6c-0.2,0.2-0.4,0.3-0.6,0.4
		c-0.2,0.1-0.5,0.1-0.7,0.1c-0.3,0-0.5,0-0.7-0.1s-0.4-0.2-0.6-0.4s-0.3-0.4-0.4-0.6c-0.1-0.2-0.1-0.5-0.1-0.7s0-0.5,0.1-0.7
		s0.2-0.4,0.4-0.6s0.4-0.3,0.6-0.4c0.2-0.1,0.5-0.1,0.7-0.1c0.3,0,0.5,0,0.7,0.1s0.4,0.2,0.6,0.4c0.2,0.2,0.3,0.4,0.4,0.6
		C241.7,143.3,241.7,143.5,241.7,143.8z M241.1,148.5v15.2h-2.7v-15.2H241.1z"/>
	<path class="st0" d="M247.9,141.6v22.1h-2.7v-22.1H247.9z"/>
	<path class="st0" d="M282.9,142.2v21.5h-2.6v-15.8c0-0.2,0-0.4,0-0.7c0-0.2,0-0.5,0.1-0.7L273,160c-0.2,0.4-0.6,0.7-1,0.7h-0.4
		c-0.5,0-0.8-0.2-1-0.7l-7.5-13.5c0.1,0.5,0.1,1,0.1,1.5v15.8h-2.5v-21.5h2.1c0.3,0,0.5,0,0.6,0.1c0.1,0,0.3,0.2,0.4,0.4l7.4,13.2
		c0.1,0.2,0.2,0.5,0.4,0.8c0.1,0.3,0.2,0.5,0.3,0.8c0.1-0.3,0.2-0.5,0.3-0.8c0.1-0.3,0.2-0.5,0.4-0.8l7.3-13.2
		c0.1-0.2,0.3-0.4,0.4-0.4s0.3-0.1,0.6-0.1L282.9,142.2L282.9,142.2z"/>
	<path class="st0" d="M287,150.7c0.8-0.8,1.7-1.4,2.7-1.8c1-0.4,2-0.6,3.2-0.6c0.9,0,1.6,0.1,2.3,0.4s1.2,0.7,1.7,1.2s0.8,1.1,1,1.8
		s0.3,1.5,0.3,2.3v9.7H297c-0.3,0-0.5,0-0.6-0.1s-0.2-0.3-0.3-0.5l-0.3-1.4c-0.4,0.4-0.8,0.7-1.2,1c-0.4,0.3-0.8,0.5-1.2,0.7
		c-0.4,0.2-0.9,0.3-1.3,0.4c-0.5,0.1-1,0.2-1.6,0.2s-1.1-0.1-1.7-0.2c-0.5-0.2-1-0.4-1.4-0.7s-0.7-0.7-0.9-1.3
		c-0.2-0.5-0.3-1.1-0.3-1.8c0-0.6,0.2-1.2,0.5-1.7s0.9-1,1.6-1.5c0.7-0.4,1.7-0.8,2.9-1.1c1.2-0.3,2.6-0.4,4.4-0.5V154
		c0-1.2-0.3-2.1-0.8-2.7c-0.5-0.6-1.3-0.9-2.2-0.9c-0.7,0-1.2,0.1-1.7,0.2s-0.8,0.4-1.2,0.6c-0.3,0.2-0.6,0.4-0.8,0.6
		c-0.2,0.2-0.5,0.2-0.7,0.2s-0.3,0-0.5-0.1c-0.1-0.1-0.2-0.2-0.3-0.4L287,150.7z M295.7,156.9c-1.2,0-2.3,0.1-3.1,0.3
		c-0.9,0.2-1.6,0.4-2.1,0.6c-0.5,0.3-0.9,0.5-1.2,0.9s-0.4,0.7-0.4,1.1c0,0.4,0.1,0.7,0.2,1s0.3,0.5,0.5,0.7s0.5,0.3,0.8,0.4
		s0.6,0.1,1,0.1c0.5,0,0.9,0,1.3-0.1s0.8-0.2,1.1-0.4c0.3-0.2,0.7-0.4,1-0.6c0.3-0.2,0.6-0.5,0.9-0.9L295.7,156.9L295.7,156.9z"/>
	<path class="st0" d="M314.7,141.6v22.1h-1.6c-0.4,0-0.6-0.2-0.7-0.6l-0.2-1.8c-0.6,0.8-1.4,1.4-2.2,1.9c-0.8,0.5-1.8,0.7-2.9,0.7
		c-0.9,0-1.7-0.2-2.4-0.5c-0.7-0.3-1.3-0.8-1.8-1.5s-0.9-1.5-1.2-2.4c-0.3-1-0.4-2.1-0.4-3.3c0-1.1,0.1-2.2,0.5-3.1
		c0.3-1,0.7-1.8,1.3-2.5c0.6-0.7,1.2-1.3,2.1-1.7c0.8-0.4,1.7-0.6,2.8-0.6c0.9,0,1.7,0.2,2.4,0.5c0.7,0.3,1.3,0.8,1.8,1.3v-8.4
		L314.7,141.6L314.7,141.6z M312.1,152.2c-0.5-0.7-1-1.1-1.6-1.4s-1.2-0.4-1.9-0.4c-1.4,0-2.5,0.5-3.3,1.5s-1.1,2.5-1.1,4.3
		c0,1,0.1,1.8,0.3,2.5c0.2,0.7,0.4,1.3,0.8,1.7s0.7,0.8,1.2,1s1,0.3,1.6,0.3c0.9,0,1.6-0.2,2.3-0.6s1.3-1,1.8-1.7L312.1,152.2
		L312.1,152.2z"/>
	<path class="st0" d="M331.1,161.6c-0.3,0.4-0.7,0.7-1.2,1s-1,0.5-1.5,0.7s-1.1,0.3-1.6,0.4c-0.6,0.1-1.1,0.1-1.7,0.1
		c-1,0-2-0.2-2.9-0.5c-0.9-0.4-1.6-0.9-2.3-1.6c-0.6-0.7-1.1-1.5-1.5-2.5s-0.5-2.2-0.5-3.5c0-1.1,0.2-2,0.5-3s0.8-1.7,1.4-2.4
		s1.4-1.2,2.2-1.6s1.9-0.6,3-0.6c0.9,0,1.8,0.2,2.5,0.5c0.8,0.3,1.4,0.7,2,1.3s1,1.3,1.3,2.1s0.5,1.8,0.5,2.9c0,0.4,0,0.7-0.1,0.8
		s-0.3,0.2-0.5,0.2h-10.2c0,1,0.2,1.8,0.4,2.5c0.2,0.7,0.6,1.3,1,1.8s0.9,0.8,1.5,1.1c0.6,0.2,1.2,0.4,2,0.4c0.7,0,1.2-0.1,1.7-0.2
		c0.5-0.2,0.9-0.3,1.3-0.5s0.6-0.3,0.9-0.5c0.2-0.2,0.4-0.2,0.6-0.2s0.4,0.1,0.5,0.3L331.1,161.6z M328.9,154.5
		c0-0.6-0.1-1.2-0.3-1.7c-0.2-0.5-0.4-1-0.8-1.3c-0.3-0.4-0.7-0.7-1.2-0.9s-1-0.3-1.6-0.3c-1.3,0-2.3,0.4-3,1.1s-1.2,1.8-1.4,3.1
		L328.9,154.5L328.9,154.5z"/>
	<path class="st0" d="M356.2,161.4v2.4H343v-21.5h13.2v2.4h-10.3v7.1h8.4v2.3h-8.4v7.3H356.2z"/>
	<path class="st0" d="M359.2,150.7c0.8-0.8,1.7-1.4,2.7-1.8c1-0.4,2-0.6,3.2-0.6c0.9,0,1.6,0.1,2.3,0.4s1.2,0.7,1.7,1.2
		s0.8,1.1,1,1.8s0.3,1.5,0.3,2.3v9.7h-1.2c-0.3,0-0.5,0-0.6-0.1s-0.2-0.3-0.3-0.5l-0.3-1.4c-0.4,0.4-0.8,0.7-1.2,1
		c-0.4,0.3-0.8,0.5-1.2,0.7c-0.4,0.2-0.9,0.3-1.3,0.4c-0.5,0.1-1,0.2-1.6,0.2s-1.1-0.1-1.7-0.2c-0.5-0.2-1-0.4-1.4-0.7
		s-0.7-0.7-0.9-1.3c-0.2-0.5-0.3-1.1-0.3-1.8c0-0.6,0.2-1.2,0.5-1.7s0.9-1,1.6-1.5c0.7-0.4,1.7-0.8,2.9-1.1c1.2-0.3,2.6-0.4,4.4-0.5
		V154c0-1.2-0.3-2.1-0.8-2.7c-0.5-0.6-1.3-0.9-2.2-0.9c-0.7,0-1.2,0.1-1.7,0.2s-0.8,0.4-1.2,0.6c-0.3,0.2-0.6,0.4-0.8,0.6
		c-0.2,0.2-0.5,0.2-0.7,0.2s-0.3,0-0.5-0.1c-0.1-0.1-0.2-0.2-0.3-0.4L359.2,150.7z M367.8,156.9c-1.2,0-2.3,0.1-3.1,0.3
		c-0.9,0.2-1.6,0.4-2.1,0.6c-0.5,0.3-0.9,0.5-1.2,0.9s-0.4,0.7-0.4,1.1c0,0.4,0.1,0.7,0.2,1s0.3,0.5,0.5,0.7s0.5,0.3,0.8,0.4
		s0.6,0.1,1,0.1c0.5,0,0.9,0,1.3-0.1s0.8-0.2,1.1-0.4c0.3-0.2,0.7-0.4,1-0.6c0.3-0.2,0.6-0.5,0.9-0.9L367.8,156.9L367.8,156.9z"/>
	<path class="st0" d="M382.9,151c-0.1,0.2-0.3,0.3-0.6,0.3c-0.2,0-0.3-0.1-0.5-0.2c-0.2-0.1-0.4-0.2-0.7-0.4c-0.3-0.1-0.6-0.3-1-0.4
		s-0.8-0.2-1.3-0.2s-0.9,0.1-1.2,0.2c-0.4,0.1-0.7,0.3-0.9,0.5s-0.5,0.4-0.6,0.7s-0.2,0.6-0.2,0.9c0,0.4,0.1,0.7,0.3,1
		c0.2,0.3,0.5,0.5,0.9,0.7s0.8,0.4,1.3,0.5s1,0.3,1.4,0.5s1,0.3,1.4,0.5c0.5,0.2,0.9,0.5,1.3,0.8s0.7,0.7,0.9,1.1
		c0.2,0.4,0.3,1,0.3,1.6c0,0.7-0.1,1.3-0.4,1.9s-0.6,1.1-1.1,1.5s-1.1,0.8-1.8,1S379,164,378,164c-1.1,0-2-0.2-2.9-0.5
		s-1.6-0.8-2.2-1.3l0.6-1c0.1-0.1,0.2-0.2,0.3-0.3s0.2-0.1,0.4-0.1c0.2,0,0.4,0.1,0.6,0.2c0.2,0.1,0.4,0.3,0.7,0.5
		c0.3,0.2,0.6,0.3,1,0.5c0.4,0.1,0.9,0.2,1.5,0.2c0.5,0,1-0.1,1.4-0.2c0.4-0.1,0.7-0.3,1-0.5s0.5-0.5,0.6-0.8s0.2-0.6,0.2-1
		s-0.1-0.8-0.3-1c-0.2-0.3-0.5-0.5-0.9-0.7s-0.8-0.4-1.3-0.5s-1-0.3-1.5-0.5s-1-0.3-1.5-0.5s-0.9-0.5-1.3-0.8s-0.7-0.7-0.9-1.1
		c-0.2-0.5-0.3-1-0.3-1.7c0-0.6,0.1-1.1,0.4-1.7c0.2-0.5,0.6-1,1.1-1.4s1-0.7,1.7-1s1.4-0.4,2.3-0.4c1,0,1.9,0.2,2.7,0.5
		c0.8,0.3,1.5,0.7,2.1,1.3L382.9,151z"/>
	<path class="st0" d="M400.1,148.5l-8.5,19.7c-0.1,0.2-0.2,0.4-0.3,0.5c-0.1,0.1-0.3,0.2-0.6,0.2h-2l2.8-6l-6.3-14.3h2.3
		c0.2,0,0.4,0.1,0.5,0.2c0.1,0.1,0.2,0.2,0.3,0.4l4.1,9.6c0.2,0.4,0.3,0.9,0.4,1.3c0.1-0.5,0.3-0.9,0.5-1.3l3.9-9.6
		c0.1-0.2,0.2-0.3,0.3-0.4c0.1-0.1,0.3-0.2,0.5-0.2L400.1,148.5L400.1,148.5z"/>
</g>
</svg>
