<svg id="Layer_1" data-name="Layer 1" xmlns="http://www.w3.org/2000/svg" width="196.911" height="176.767" viewBox="0 0 196.911 176.767"><defs><style>.cls-1{opacity:0.1;}.cls-2{fill:#efe800;}.cls-3{fill:#fec402;}.cls-4{fill:#ff931e;}.cls-5{fill:#faa2a1;}.cls-6{fill:#ef8e8e;}.cls-7{fill:none;stroke:#faa2a1;stroke-linecap:round;stroke-miterlimit:10;stroke-width:5px;}</style></defs><title>pig-medium</title><g id="Group_1926" data-name="Group 1926"><path id="Path_8727" data-name="Path 8727" class="cls-1" d="M189.17,173.807c0,1.935-24.243,2.941-96.722,2.941-61.389,0-78.911.313-78.911-1.622s40.366-7.332,96.48-7.332S189.17,171.871,189.17,173.807Z"/><g id="Group_1924" data-name="Group 1924"><path id="Path_8718" data-name="Path 8718" d="M77.347,22.068a6.712,6.712,0,0,0,6.634,5.671h21.888a6.716,6.716,0,0,0,6.634-5.671l-1.226-.229a6.716,6.716,0,0,1-5.408,2.73H83.981a6.7,6.7,0,0,1-5.408-2.73Z"/><g id="Group_1922" data-name="Group 1922"><circle id="Ellipse_117" data-name="Ellipse 117" class="cls-2" cx="94.926" cy="18.34" r="12.34"/><circle id="Ellipse_118" data-name="Ellipse 118" class="cls-3" cx="94.927" cy="18.34" r="9.739"/><path id="Path_8351" data-name="Path 8351" class="cls-4" d="M94.927,9.152A9.733,9.733,0,0,0,85.2,18.614c0-.093-.008-.185-.008-.278a9.735,9.735,0,0,1,19.47,0c0,.093,0,.185-.006.278A9.734,9.734,0,0,0,94.927,9.152Z"/><path id="Path_8352" data-name="Path 8352" class="cls-4" d="M98.246,19.52a5.372,5.372,0,0,0-2.025-1.287c-.163-.066-.356-.133-.56-.205-1.052-.366-2.492-.867-2.148-2.026a1.093,1.093,0,0,1,.825-.8,3.759,3.759,0,0,1,2.91.918l.093.093,1.364-1.239-.087-.1a4.413,4.413,0,0,0-2.8-1.531v-1.2H94.23v1.245a3.864,3.864,0,0,0-1.93.909,2.716,2.716,0,0,0-.868,2.046c0,2.129,1.649,2.767,3.24,3.382a12.01,12.01,0,0,1,1.6.706,1.192,1.192,0,0,1,.662,1.2,1.368,1.368,0,0,1-1.077,1.094,3.042,3.042,0,0,1-.748.1A2.862,2.862,0,0,1,92.692,21.4l-.066-.1-1.661.874.062.117a4.363,4.363,0,0,0,3.2,2.341v1.229h1.591v-1.2a3.962,3.962,0,0,0,2.067-.809,2.926,2.926,0,0,0,1.071-2.054A2.816,2.816,0,0,0,98.246,19.52Z"/><path id="Path_8353" data-name="Path 8353" class="cls-2" d="M98.246,19.058a5.384,5.384,0,0,0-2.025-1.287c-.163-.066-.356-.133-.56-.2-1.052-.37-2.492-.866-2.148-2.026a1.093,1.093,0,0,1,.825-.8,3.759,3.759,0,0,1,2.91.918l.093.093,1.364-1.239-.087-.1a4.416,4.416,0,0,0-2.8-1.53v-1.2H94.23v1.242a3.857,3.857,0,0,0-1.93.91,2.716,2.716,0,0,0-.868,2.047c0,2.128,1.649,2.765,3.24,3.381a12.273,12.273,0,0,1,1.6.706,1.192,1.192,0,0,1,.662,1.2,1.37,1.37,0,0,1-1.077,1.094,3.09,3.09,0,0,1-.748.1,2.861,2.861,0,0,1-2.418-1.431l-.066-.1-1.661.875.062.117a4.363,4.363,0,0,0,3.2,2.341v1.24h1.591v-1.2a3.97,3.97,0,0,0,2.067-.809,2.932,2.932,0,0,0,1.071-2.056A2.817,2.817,0,0,0,98.246,19.058Z"/></g><g id="Group_1923" data-name="Group 1923"><path id="Path_8719" data-name="Path 8719" class="cls-5" d="M110.513,22.706c-.145.138-.3.268-.453.393C110.217,22.974,110.368,22.844,110.513,22.706Z"/><path id="Path_8720" data-name="Path 8720" class="cls-5" d="M107.034,24.467l.136-.026Z"/><path id="Path_8721" data-name="Path 8721" class="cls-5" d="M79.922,23.206a6.7,6.7,0,0,1-.853-.771A6.7,6.7,0,0,0,79.922,23.206Z"/><path id="Path_8722" data-name="Path 8722" class="cls-5" d="M112.5,22.068c-.408-.081-.815-.158-1.227-.229h0l1.227.229a6.717,6.717,0,0,1-6.634,5.671H83.981a6.713,6.713,0,0,1-6.634-5.671l1.226-.229c.077.1.156.205.238.3-.082-.1-.161-.2-.238-.3-.407.071-.819.148-1.226.229C40.918,29.055,13.673,57.319,13.673,91.119c0,39.056,36.372,70.708,81.258,70.708S176.19,130.17,176.19,91.119C176.18,57.322,148.927,29.059,112.5,22.068Z"/><path id="Path_8723" data-name="Path 8723" class="cls-5" d="M82.693,24.444l.129.024Z"/></g></g><rect id="Rectangle_2879" data-name="Rectangle 2879" class="cls-5" y="76.06" width="38.439" height="31.545" rx="5"/><rect id="Rectangle_2880" data-name="Rectangle 2880" class="cls-5" x="54.291" y="133.421" width="31.545" height="38.439" rx="5"/><rect id="Rectangle_2881" data-name="Rectangle 2881" class="cls-5" x="110.625" y="133.421" width="31.545" height="38.439" rx="5"/><g id="Group_1925" data-name="Group 1925"><path id="Path_8724" data-name="Path 8724" class="cls-6" d="M66.3,46.716s-4.732-25.8-23.308-20.872L55.879,53.377Z"/><path id="Path_8725" data-name="Path 8725" class="cls-5" d="M42.992,25.841,42.334,45.5s9.518,1.173,13.545,7.872C55.879,53.377,57.49,29.871,42.992,25.841Z"/></g><path id="Path_8726" data-name="Path 8726" class="cls-7" d="M167.93,92.606l8.19-3.128a26.876,26.876,0,0,0,3.227-1.4,13.583,13.583,0,0,0,6.477-7.971,9.063,9.063,0,0,0,.186-5.046,5.523,5.523,0,0,0-3.243-3.714c-2.4-.876-5.166.476-6.655,2.548a14.892,14.892,0,0,0-2.228,7.232,16.672,16.672,0,0,0,.168,5.838,6.887,6.887,0,0,0,3.389,4.57,9.281,9.281,0,0,0,2.7.735c7.491,1.152,15.47-8.5,14.119-15.678"/></g></svg>