<svg id="Layer_1" data-name="Layer 1" xmlns="http://www.w3.org/2000/svg" xmlns:xlink="http://www.w3.org/1999/xlink" width="372.394" height="179.544" viewBox="0 0 372.394 179.544"><defs><style>.cls-1{opacity:0.1;}.cls-2{fill:#ffbbb5;}.cls-3{fill:#0f3871;}.cls-4,.cls-9{fill:#002a42;}.cls-5{fill:#7b4842;}.cls-6{fill:#d33c70;}.cls-7{fill:#fff;}.cls-8{fill:#edaea9;}.cls-9{opacity:0.7;isolation:isolate;}.cls-10{fill:#ffbc5e;}.cls-11{fill:#ff8b00;}.cls-12{fill:url(#linear-gradient);}.cls-13{fill:url(#linear-gradient-2);}.cls-14{fill:url(#linear-gradient-3);}.cls-15{fill:#fa6961;}.cls-16{fill:#69b8eb;}</style><linearGradient id="linear-gradient" x1="820.155" y1="146.867" x2="821.058" y2="146.804" gradientTransform="matrix(15.003, 0, 0, -57.328, -12178.112, 8590.309)" gradientUnits="userSpaceOnUse"><stop offset="0" stop-color="#e83e5d"/><stop offset="0.205" stop-color="#ef6478"/><stop offset="0.44" stop-color="#f58992"/><stop offset="0.658" stop-color="#faa4a5"/><stop offset="0.852" stop-color="#fdb5b0"/><stop offset="1" stop-color="#ffbbb5"/></linearGradient><linearGradient id="linear-gradient-2" x1="817.949" y1="147.128" x2="816.95" y2="147.132" gradientTransform="matrix(10.519, 0, 0, -56.03, -8363.122, 8394.188)" gradientUnits="userSpaceOnUse"><stop offset="0" stop-color="#ffbbb5"/><stop offset="0.185" stop-color="#feb7b2"/><stop offset="0.363" stop-color="#fcabaa"/><stop offset="0.539" stop-color="#f8989c"/><stop offset="0.713" stop-color="#f37c89"/><stop offset="0.883" stop-color="#ed5a70"/><stop offset="1" stop-color="#e83e5d"/></linearGradient><linearGradient id="linear-gradient-3" x1="813.11" y1="134.582" x2="813.227" y2="133.931" gradientTransform="matrix(14.621, 0, 0, -13.957, -11856.577, 2003.9)" gradientUnits="userSpaceOnUse"><stop offset="0" stop-color="#e83e5d"/><stop offset="0.018" stop-color="#e8405e"/><stop offset="0.694" stop-color="#f8989c"/><stop offset="1" stop-color="#ffbbb5"/></linearGradient></defs><title>testimonials-small-whole</title><g id="Group_1906" data-name="Group 1906"><g id="Group_1631" data-name="Group 1631"><path id="Path_8224" data-name="Path 8224" class="cls-1" d="M113.656,169.4c0,.888-8.663,1.349-34.566,1.349-21.938,0-28.2.143-28.2-.744s14.426-3.362,34.478-3.362S113.656,168.514,113.656,169.4Z"/><path id="Path_8225" data-name="Path 8225" class="cls-2" d="M81.909,165.87c.959-9.734,3.136-15.026,4.029-21.872.023-.177-1.209-7.722-1.092-8.331-2.469,1.01-3.181-5.791-5.556-6.9a10.871,10.871,0,0,0-1.336,5.038c-.035.824-.147,7.7-.074,8.524,1.029,11.669,1.882,22.606,1.882,22.606S81.8,166.934,81.909,165.87Z"/><path id="Path_8226" data-name="Path 8226" class="cls-2" d="M93.665,165.8c-.759-9.75-1.7-15.159-2.449-22.021-.02-.177-.257-6.459-.362-7.07,2.448,1.061,3.792-6.89,6.19-7.955a10.873,10.873,0,0,1,1.232,5.064c.018.826-.01,7.707-.1,8.524-1.268,11.647-2.345,22.563-2.345,22.563S93.747,166.867,93.665,165.8Z"/><path id="Path_8227" data-name="Path 8227" class="cls-3" d="M78.815,160.155H83.24c1.074-6.357,2-10.784,2.7-16.157.023-.177-1.209-7.722-1.092-8.331-2.469,1.01-3.181-5.791-5.556-6.9a10.871,10.871,0,0,0-1.336,5.038c-.035.824-.147,7.7-.074,8.524C78.489,149.231,78.47,155.876,78.815,160.155Z"/><path id="Path_8228" data-name="Path 8228" class="cls-3" d="M80.991,95.473c-.033.545-1.854-.237-4.356-.448l.268-.032a5.128,5.128,0,0,1-3.721-2.126L75.944,73.7c.209-2.5,2.135-4.92,4.639-4.71l3.023,2.5c2.5.21,5.138,3.008,4.929,5.512Z"/><path id="Path_8229" data-name="Path 8229" class="cls-2" d="M68.538,115.461a1.794,1.794,0,0,1-3.088-.152c-.424-.827,2.314-2.623,3.3-4.093s1.773-.844,2.2-.022S70.172,113.429,68.538,115.461Z"/><path id="Path_8230" data-name="Path 8230" class="cls-3" d="M70.565,114.12a28.294,28.294,0,0,0-2.444-2.963l5.551-19.665c.8-2.812,1.777-1.606,2.929.027l2.861,4.256C78.03,99.9,70.565,114.12,70.565,114.12Z"/><path id="Path_8231" data-name="Path 8231" class="cls-4" d="M83.605,71.489l-3.023-2.5c-2.5-.21-4.43,2.206-4.639,4.71L73.181,92.862s.027.041.076.107l-5.135,18.183a28.294,28.294,0,0,1,2.444,2.963S78.03,99.9,79.466,95.77l-.233-.347c1.07.219,1.739.372,1.758.044L88.534,77C88.743,74.5,86.109,71.7,83.605,71.489Z"/><path id="Path_8232" data-name="Path 8232" class="cls-3" d="M84.866,136.268c-.733-.247-6.9,3.64-6.975,3.219-.336-1.833-.722-29.848,1.353-36.826,1.56-5.244,8.9-2.159,9.646,1.367C91.621,116.934,84.9,135.767,84.866,136.268Z"/><path id="Path_8233" data-name="Path 8233" class="cls-5" d="M82.623,163.927c.021.887,1.642,3.837-.938,3.9-6.366.148-10.044.067-9.524-.631,1.448-1.933,6.445-.613,6.65-3.447C78.935,162.045,82.6,163.033,82.623,163.927Z"/><path id="Path_8234" data-name="Path 8234" class="cls-3" d="M92.028,160.155h4.277c.433-4.269,1.117-10.911,1.868-17.812.09-.817.117-7.7.1-8.524a10.873,10.873,0,0,0-1.232-5.064c-2.4,1.065-3.742,9.016-6.19,7.955.1.611.342,6.893.362,7.07C91.807,149.192,91.382,153.709,92.028,160.155Z"/><path id="Path_8235" data-name="Path 8235" class="cls-5" d="M92.959,164.582c-.028.927-3.024,3.953-.573,4.029,6.05.187,6.456.152,6.173-.7-.666-2-1.786-1.206-1.953-4.168C96.507,161.981,92.988,163.656,92.959,164.582Z"/><path id="Path_8236" data-name="Path 8236" class="cls-3" d="M97.828,135.822c-.747-.2-6.73,3.5-6.834,3.092-.449-1.81-3.032-26.656-5.9-26.907-5.45-.476,11.879-11.835,12.843-8.363C101.471,116.353,97.829,135.322,97.828,135.822Z"/><path id="Path_8237" data-name="Path 8237" class="cls-3" d="M97.937,103.647c-.476-1.713-4.937.186-8.68,2.606-.1-.755-.216-1.5-.368-2.22-.745-3.527-8.086-6.612-9.646-1.367-2.075,6.978-1.688,34.992-1.353,36.826.077.42,6.243-3.467,6.975-3.219a123.473,123.473,0,0,0,3.59-14.263c1.316,7.219,2.28,15.87,2.538,16.909.1.414,6.087-3.292,6.834-3.092C97.829,135.32,101.471,116.353,97.937,103.647Z"/><path id="Path_8238" data-name="Path 8238" class="cls-4" d="M88.437,122.111c-.016-.022-.031-.045-.045-.068-1.517,2.525-3.681,10.134-4.264,13.627-.715,4.273,1.809,5.355,1.039,10.236-.544,3.443-2.521,10.8-3.048,14.251h1.12c1.074-6.357,2-10.784,2.7-16.157.02-.153-.9-5.8-1.071-7.729A123.872,123.872,0,0,0,88.437,122.111Z"/><path id="Path_8239" data-name="Path 8239" class="cls-4" d="M98.241,133.077c.842-5.793,2.453-19.518-.3-29.433-.476-1.713-4.937.186-8.68,2.606-.1-.755-.216-1.5-.368-2.22-.745-3.527-8.086-6.612-9.646-1.367a47.3,47.3,0,0,0-1.16,8.828c10.013,3.275,19.361-1.249,19.255,6.819-.05,3.807-1.361,21.613-1.423,25.645-.086,5.531.353,11.082-1.715,16.2h2.1c.433-4.269,1.117-10.911,1.868-17.812.09-.817.117-7.7.1-8.524C98.268,133.559,98.256,133.313,98.241,133.077Z"/><path id="Path_8240" data-name="Path 8240" class="cls-6" d="M79.1,102.034l.165-.182c-.315,6.881.79,6.784,7.915,7.112s11.647-1.6,11.964-8.477l-7.253.444Z"/><g id="Group_1618" data-name="Group 1618"><path id="Path_8241" data-name="Path 8241" class="cls-7" d="M82.941,66.312v43.552c3.17.377,7.116.735,10.569.837V66.063A31.865,31.865,0,0,0,82.941,66.312Z"/></g><path id="Path_8242" data-name="Path 8242" class="cls-8" d="M82.933,66.7c-1.238,2.314,3.452,1.083,5.488,1.175s6.417.209,4.659-1.757c-.646-.721-2.525-2.986-1.606-5.357,1.37-3.541-6.742-5.06-6.932-2.534C84.391,60.235,84.958,62.919,82.933,66.7Z"/><g id="Group_1619" data-name="Group 1619"><path id="Path_8243" data-name="Path 8243" class="cls-3" d="M99.692,89.466c1.957-17.872-.122-20.26-.122-20.26a10.176,10.176,0,0,0-5.8-3.1c-3.039-.625-4.485,2.953-4.792,6.72a26.082,26.082,0,0,1-1.384,5.457,30.451,30.451,0,0,0-.968,8.03,83.069,83.069,0,0,0,.172,9.348,33.348,33.348,0,0,1,.229,7.438,61.539,61.539,0,0,1-1.805,8.718c5.468.563,12.714.944,15.588.213C99.559,103.663,99.141,94.49,99.692,89.466Z"/><path id="Path_8244" data-name="Path 8244" class="cls-3" d="M86.008,101.147c-.095-5.338-1.888-10.568-1.606-15.926.112-2.16-.431-4.494.2-6.582a18.157,18.157,0,0,0,.412-5.873c-.134-3.343-1.282-3.431-2.024-6.462-.114.018-.231.035-.344.054-1.3.215-5.025,2.05-5.648,4.462-.019.092-.974,38.4-.282,39.878.877.232,4.135.641,7.426,1A36.259,36.259,0,0,0,86.008,101.147Z"/></g><path id="Path_8245" data-name="Path 8245" class="cls-9" d="M97.809,72.913l-1.536-3.607c-.071-.044-.144-.078-.216-.117v7.5H86.173L79.7,85.734l-2.747.013.779,5.592c2.621.817,4.973,1.5,6.293,1.746l.067-.061c.176.086.3.09.367-.021l15.2-12.93C100.987,77.948,99.937,74.251,97.809,72.913Z"/><path id="Path_8246" data-name="Path 8246" class="cls-3" d="M83.853,90.358c-.349.419-1.353-1.289-3.246-2.941l.235.133a5.127,5.127,0,0,1-1.74-3.917L92.676,69.827c1.652-1.894,4.633-2.7,6.527-1.048l.958,3.8c1.934,2.973.094,7.732-1.557,9.625Z"/><path id="Path_8247" data-name="Path 8247" class="cls-2" d="M63.827,79.265a1.793,1.793,0,0,1,.181-3.086c.83-.416,2.6,2.339,4.062,3.335s.827,1.78,0,2.2S65.845,80.92,63.827,79.265Z"/><path id="Path_8248" data-name="Path 8248" class="cls-3" d="M65.149,81.308a28.282,28.282,0,0,0,2.986-2.417l19.612,5.734c2.8.822,1.59,1.79-.053,2.928l-4.285,2.822C79.3,88.9,65.149,81.308,65.149,81.308Z"/><path id="Path_8249" data-name="Path 8249" class="cls-2" d="M92.217,56.37c.232,1.944.125,5.028-2.978,6.414-3.618,1.612-7.094.129-6.966-1.52.265-3.332-.018-10.437,2.489-10.737a6.344,6.344,0,0,1,7.455,5.843Z"/><path id="Path_8250" data-name="Path 8250" class="cls-10" d="M82.464,53.47c.658-5.422,4.924-4.4,7.326-3.936,1.912.371,4.953,1.625,3.606,6.564a15.254,15.254,0,0,1-1.121,3.207c-1,.164.671-3.732-1.007-4.376-1.816-.7-3.783-.409-5.717-.474C83.045,54.371,82.5,54.073,82.464,53.47Z"/><path id="Path_8251" data-name="Path 8251" class="cls-10" d="M89.79,49.532c1.621.314,4.057,1.266,3.935,4.563-.711.221-.966.856-1.7,1-.259.053-2.08-.156-2.381-.169a13.738,13.738,0,0,0-4.1-.478c-2.5-.085-3.418-.18-3.449-.783C80.959,45.532,87.388,49.072,89.79,49.532Z"/><g id="Group_1622" data-name="Group 1622"><g id="Group_1621" data-name="Group 1621"><g id="Group_1620" data-name="Group 1620"><path id="Path_8252" data-name="Path 8252" class="cls-11" d="M77.288,47.022h0a7.784,7.784,0,0,0,1.176-5.214c-.7-5.005-6.438-8.337-12.8-7.441s-10.956,5.68-10.252,10.686,6.436,8.337,12.8,7.441a14.749,14.749,0,0,0,2.457-.562l6.182.492a4.864,4.864,0,0,1,.191-5.019C77.126,47.279,77.213,47.147,77.288,47.022Z"/></g></g></g><g id="Group_1624" data-name="Group 1624"><g id="Group_1623" data-name="Group 1623"><path id="Path_8253" data-name="Path 8253" class="cls-7" d="M58.878,44.56a2.085,2.085,0,1,0,1.774-2.355h0A2.085,2.085,0,0,0,58.878,44.56Z"/></g></g><g id="Group_1626" data-name="Group 1626"><g id="Group_1625" data-name="Group 1625"><path id="Path_8254" data-name="Path 8254" class="cls-7" d="M65.277,43.689a1.7,1.7,0,1,0,1.449-1.919h0A1.7,1.7,0,0,0,65.277,43.689Z"/></g></g><g id="Group_1628" data-name="Group 1628"><g id="Group_1627" data-name="Group 1627"><path id="Path_8255" data-name="Path 8255" class="cls-7" d="M71.54,42.809a1.7,1.7,0,1,0,1.449-1.919h0A1.7,1.7,0,0,0,71.54,42.809Z"/></g></g><g id="Group_1630" data-name="Group 1630"><g id="Group_1629" data-name="Group 1629"><path id="Path_8256" data-name="Path 8256" class="cls-7" d="M71.54,42.809a1.7,1.7,0,1,0,1.449-1.919h0A1.7,1.7,0,0,0,71.54,42.809Z"/></g></g></g><g id="Group_1640" data-name="Group 1640"><path id="Path_8257" data-name="Path 8257" class="cls-1" d="M67.2,178.112c0,.884-8.625,1.343-34.413,1.343-21.841,0-28.076.143-28.076-.741s14.362-3.348,34.327-3.348S67.2,177.229,67.2,178.112Z"/><path id="Path_8258" data-name="Path 8258" class="cls-12" d="M36.716,173.942s-1.887,1.312-1.864.47c.37-13.219-1.7-15.87-1.631-20.571.039-2.721.9-5.223.7-7.55-.063-.724-3.469-6.885-4.3-9.056a127.965,127.965,0,0,1-4.081-13.018c-.795-2.814,2.144-4.983,3.571-5.712,3.8-1.948,5.808-1.407,7.02,1.7,3.4,8.757,4.278,22.956,4.278,25.8C40.405,151.694,36.716,173.942,36.716,173.942Z"/><path id="Path_8259" data-name="Path 8259" class="cls-13" d="M21.983,172.968s-2.067,1.641-2.062.653c.069-9.023.486-20.5.333-26.873-.04-1.717-3.056-27.915,2.438-28.611,5.006-.637,5.549-.045,6.947,2.97,1.169,2.519-1.748,24.155-2.658,26.253-.3.7-.92,4.3-1.068,5.051C23.834,163.023,21.983,172.968,21.983,172.968Z"/><path id="Path_8260" data-name="Path 8260" class="cls-14" d="M21.332,105.157l1.474,8.515c.974,2.153.974,3.087-.081,4.781-.606.973,12.713.835,12.229-.17-1.108-2.289.827-4.429.827-5.382l.172-7.744Z"/><path id="Path_8261" data-name="Path 8261" class="cls-15" d="M37.88,106.876c.139.454.6,3.611,2.674,2.911l-.234.029a4.475,4.475,0,0,0,2.71-2.58L38.553,93.088a3.971,3.971,0,0,0-5.028-2.5h0c-2.08.7-1.562,2.766-.862,4.841Z"/><path id="Path_8262" data-name="Path 8262" class="cls-2" d="M56.98,100.3a2.9,2.9,0,0,0,.1-3.535c-.525-.511-1.907,2.565-2.958,3.644a1.627,1.627,0,0,0-.368,2.271,1.711,1.711,0,0,0,.211.239C54.487,103.427,55.515,102.105,56.98,100.3Z"/><path id="Path_8263" data-name="Path 8263" class="cls-2" d="M52.464,104.194c.428-.171,2.9-1.913,2.9-1.913-1.02-1.369-1.537-1.118-1.537-1.118l-13.255,4.265c-1.937.824-2.68,2.6-1.66,3.968h0c1.021,1.368,2.972.675,4.91-.148Z"/><path id="Path_8264" data-name="Path 8264" class="cls-15" d="M36.128,114.963c-.112-1.227,1.978-16.99,1.978-16.99,0-5.077-1-8.288-8.277-8.288s-10.821,4.152-10.821,9.228c0,0,2.117,13.48,2.1,15.728-.05,6.427-6.511,15.522-1.933,32.122.773,2.8,17.544-6.7,21.665-6.874C41.232,139.871,36.978,124.176,36.128,114.963Z"/><path id="Path_8265" data-name="Path 8265" class="cls-15" d="M19.749,108.076c-.14.456-.6,3.612-2.674,2.913l.235.025a4.478,4.478,0,0,1-2.711-2.579l4.479-14.147a3.969,3.969,0,0,1,5.027-2.5h0c2.079.7,1.561,2.765.862,4.842Z"/><path id="Path_8266" data-name="Path 8266" class="cls-2" d="M.652,101.5a2.9,2.9,0,0,1-.1-3.534c.527-.512,1.911,2.566,2.958,3.643a1.624,1.624,0,0,1,.369,2.268,1.564,1.564,0,0,1-.212.241C3.143,104.628,2.121,103.3.652,101.5Z"/><path id="Path_8267" data-name="Path 8267" class="cls-2" d="M4.575,105.1a25.124,25.124,0,0,1-2.305-1.621c1.021-1.368,1.243-1.411,1.243-1.411l13.548,4.56c1.938.822,2.679,2.6,1.66,3.969h0c-1.021,1.367-2.972.674-4.909-.15Z"/><path id="Path_8268" data-name="Path 8268" class="cls-8" d="M24.354,90.507c-2.744.939,1.659,1.334,3.546,1.334s6.9-.756,4.446-1.992c-4.114-2.076.031-7.159-4.061-7.159C24.674,82.686,28.912,88.946,24.354,90.507Z"/><path id="Path_8269" data-name="Path 8269" class="cls-3" d="M34.587,76.67a2.363,2.363,0,1,1-2.362-2.365,2.363,2.363,0,0,1,2.362,2.365Z"/><path id="Path_8270" data-name="Path 8270" class="cls-2" d="M23.154,80.825c0,2.054,4.4,5.263,5.394,5.263a4.34,4.34,0,0,0,4.14-4.529q-.008-.177-.03-.351c-.327-3.64-.46-7.873-3.244-7.873S23.154,76.96,23.154,80.825Z"/><path id="Path_8271" data-name="Path 8271" class="cls-3" d="M34.086,174.044c0,.82-1.433,3.576.948,3.576,5.875,0,9.267-.154,8.773-.785-1.377-1.753-5.958-.428-6.21-3.04C37.448,172.237,34.086,173.225,34.086,174.044Z"/><path id="Path_8272" data-name="Path 8272" class="cls-3" d="M19.411,174.044c0,.82-2.564,3.576-.4,3.576,5.352,0,5.71-.043,5.435-.785-.643-1.753-1.61-1.018-1.839-3.629C22.476,171.648,19.411,173.225,19.411,174.044Z"/><path id="Path_8273" data-name="Path 8273" class="cls-3" d="M27.183,86.988a5.463,5.463,0,1,1-5.463-5.463h0A5.462,5.462,0,0,1,27.183,86.988Z"/><path id="Path_8274" data-name="Path 8274" class="cls-3" d="M25.22,80.861a4.16,4.16,0,1,1-4.16-4.16,4.161,4.161,0,0,1,4.16,4.16Z"/><path id="Path_8275" data-name="Path 8275" class="cls-3" d="M25.532,75.38A3.284,3.284,0,1,1,22.247,72.1h0a3.281,3.281,0,0,1,3.283,3.281Z"/><path id="Path_8276" data-name="Path 8276" class="cls-3" d="M29.86,73.017a3.193,3.193,0,1,1-3.193-3.193h0a3.192,3.192,0,0,1,3.192,3.192Z"/><path id="Path_8277" data-name="Path 8277" class="cls-3" d="M33.657,73.017a2.763,2.763,0,1,1-2.764-2.763A2.763,2.763,0,0,1,33.657,73.017Z"/><g id="Group_1633" data-name="Group 1633"><g id="Group_1632" data-name="Group 1632"><path id="Path_8278" data-name="Path 8278" class="cls-16" d="M48.359,38.5C39.4,39.761,32.942,46.493,33.933,53.535a10.292,10.292,0,0,0,1.033,3.26h-.009c.021.035.04.069.061.1q.108.2.224.406c2.332,4.542-1.061,9-1.061,9a32.7,32.7,0,0,0,9.856-2.741A19.929,19.929,0,0,0,51.948,64c8.959-1.261,15.417-7.993,14.425-15.035S57.316,37.239,48.359,38.5Z"/></g></g><g id="Group_1635" data-name="Group 1635"><g id="Group_1634" data-name="Group 1634"><path id="Path_8279" data-name="Path 8279" class="cls-7" d="M40.413,52.592a2.076,2.076,0,1,0,1.767-2.345h0a2.073,2.073,0,0,0-1.765,2.342Z"/></g></g><g id="Group_1637" data-name="Group 1637"><g id="Group_1636" data-name="Group 1636"><path id="Path_8280" data-name="Path 8280" class="cls-7" d="M48.121,51.57a2.076,2.076,0,1,0,1.767-2.345,2.076,2.076,0,0,0-1.767,2.345Z"/></g></g><g id="Group_1639" data-name="Group 1639"><g id="Group_1638" data-name="Group 1638"><path id="Path_8281" data-name="Path 8281" class="cls-7" d="M55.782,50.493a2.076,2.076,0,1,0,1.766-2.345h0A2.076,2.076,0,0,0,55.782,50.493Z"/></g></g></g></g></svg>