<?xml version="1.0" encoding="utf-8"?>
<!-- Generator: Adobe Illustrator 24.0.0, SVG Export Plug-In . SVG Version: 6.00 Build 0)  -->
<svg version="1.1" id="Layer_1" xmlns="http://www.w3.org/2000/svg" xmlns:xlink="http://www.w3.org/1999/xlink" x="0px" y="0px"
	 viewBox="0 0 20 20" style="enable-background:new 0 0 20 20;" xml:space="preserve">
<style type="text/css">
	.st0{enable-background:new    ;}
	.st1{fill:#002A42;}
</style>
<g>
	<g class="st0">
		<path class="st1" d="M7.5,5.8C7.6,5.6,7.8,5.5,8,5.4C8.2,5.2,8.4,5.1,8.6,5c0.2-0.1,0.5-0.2,0.7-0.2s0.5-0.1,0.9-0.1
			c0.4,0,0.8,0.1,1.1,0.2C11.7,5,12,5.2,12.2,5.4c0.2,0.2,0.4,0.5,0.6,0.8c0.1,0.3,0.2,0.6,0.2,1c0,0.4-0.1,0.7-0.2,0.9
			c-0.1,0.3-0.2,0.5-0.4,0.7c-0.2,0.2-0.3,0.4-0.5,0.5s-0.4,0.3-0.5,0.4C11.3,9.8,11.1,9.9,11,10c-0.1,0.1-0.2,0.3-0.2,0.4l-0.2,1
			H9.3l-0.1-1.1c0-0.2,0-0.4,0.1-0.6c0.1-0.2,0.2-0.3,0.4-0.5C9.8,9.1,9.9,9,10.1,8.8c0.2-0.1,0.4-0.3,0.5-0.4
			c0.2-0.1,0.3-0.3,0.4-0.5c0.1-0.2,0.2-0.4,0.2-0.7c0-0.3-0.1-0.6-0.3-0.7c-0.2-0.2-0.5-0.3-0.8-0.3c-0.3,0-0.5,0-0.6,0.1
			C9.2,6.4,9.1,6.5,8.9,6.5S8.7,6.7,8.6,6.7C8.5,6.8,8.5,6.8,8.4,6.8C8.2,6.8,8.1,6.7,8,6.6L7.5,5.8z M8.8,14c0-0.2,0-0.3,0.1-0.4
			c0.1-0.1,0.1-0.3,0.2-0.4C9.2,13.1,9.3,13,9.5,13c0.1-0.1,0.3-0.1,0.5-0.1c0.2,0,0.3,0,0.4,0.1c0.1,0.1,0.3,0.1,0.4,0.2
			c0.1,0.1,0.2,0.2,0.2,0.4c0.1,0.1,0.1,0.3,0.1,0.4c0,0.2,0,0.3-0.1,0.4c-0.1,0.1-0.1,0.3-0.2,0.4c-0.1,0.1-0.2,0.2-0.4,0.2
			c-0.1,0.1-0.3,0.1-0.4,0.1c-0.2,0-0.3,0-0.5-0.1c-0.1-0.1-0.3-0.1-0.4-0.2c-0.1-0.1-0.2-0.2-0.2-0.4C8.8,14.3,8.8,14.1,8.8,14z"/>
	</g>
	<g id="Ellipse_31">
		<path class="st1" d="M10,20C4.5,20,0,15.5,0,10S4.5,0,10,0s10,4.5,10,10S15.5,20,10,20z M10,2c-4.4,0-8,3.6-8,8c0,4.4,3.6,8,8,8
			c4.4,0,8-3.6,8-8C18,5.6,14.4,2,10,2z"/>
	</g>
</g>
</svg>
